<svg class="img-fluid" id="outputsvg" xmlns="http://www.w3.org/2000/svg" style="transform: none; transform-origin: 50% 50%; cursor: move;" width="306" height="637" viewBox="0 0 3060 6370"><g id="l17f2xpaCgo876JbA378PTd" fill="rgb(0,0,0)" style="transform: none;"><g style="transform: none;"><path id="p1CJUxBJWx" d="M1432 6345 c-45 -57 -76 -273 -62 -426 11 -112 26 -185 75 -349 61 -208 84 -313 95 -430 18 -185 -2 -308 -91 -573 -95 -287 -110 -355 -116 -547 -6 -184 12 -323 63 -495 44 -148 47 -135 -30 -135 -112 0 -156 -38 -134 -117 11 -39 34 -84 100 -190 21 -34 38 -64 38 -67 0 -2 -19 -7 -42 -11 -125 -20 -286 -78 -424 -150 -283 -151 -478 -349 -609 -620 -139 -287 -193 -565 -182 -944 7 -241 34 -407 90 -548 11 -29 19 -54 16 -56 -2 -2 -27 -20 -56 -41 -58 -41 -99 -90 -129 -151 -14 -30 -19 -62 -19 -130 0 -80 3 -97 30 -149 73 -145 270 -233 427 -192 74 20 153 65 201 114 l39 39 78 -33 c327 -138 759 -175 1130 -98 148 31 362 101 436 142 11 6 27 -3 62 -35 90 -82 231 -138 322 -127 25 3 77 21 117 40 122 59 192 158 201 285 8 119 -46 220 -157 294 -33 22 -61 45 -61 50 0 6 12 46 26 89 106 332 94 829 -28 1216 -85 269 -199 463 -378 640 -126 125 -294 233 -470 299 -65 25 -241 66 -322 76 l-56 6 39 69 c40 72 82 159 93 197 17 54 -38 95 -137 102 l-71 6 -28 90 c-45 144 -69 288 -75 441 -7 189 11 292 97 559 97 299 105 341 104 570 0 210 -8 256 -84 510 -56 187 -68 239 -80 344 -14 108 -2 247 30 351 20 66 16 92 -16 104 -25 10 -31 7 -52 -19z m148 -3092 c0 -13 -84 -153 -91 -153 -6 0 -50 70 -96 153 -2 4 39 7 91 7 53 0 96 -3 96 -7z m177 -392 c265 -57 516 -209 691 -418 201 -240 316 -567 352 -1003 23 -274 -35 -592 -144 -785 -40 -72 -127 -173 -199 -231 -80 -63 -249 -148 -385 -193 -339 -112 -733 -117 -1072 -15 -229 69 -423 196 -538 352 -148 200 -207 400 -219 738 -9 251 19 442 98 671 125 363 333 602 674 771 266 133 489 167 742 113z m-1459 -2373 c17 -28 32 -53 32 -57 0 -3 -14 -14 -30 -23 -27 -15 -30 -22 -30 -67 0 -40 4 -53 22 -65 30 -21 126 -21 156 0 21 14 25 13 67 -17 24 -18 42 -36 38 -41 -10 -17 -127 -68 -154 -68 -102 0 -213 77 -245 170 -19 55 2 120 58 177 23 23 45 43 48 42 3 0 20 -23 38 -51z m2555 13 c72 -80 85 -136 48 -209 -25 -48 -98 -107 -153 -124 -31 -9 -50 -9 -86 1 -45 12 -132 60 -132 72 0 4 16 19 35 34 34 25 37 26 60 11 32 -21 133 -21 163 0 18 12 22 25 22 64 0 45 -3 52 -34 72 l-33 22 31 48 c17 26 34 48 37 48 4 0 23 -18 42 -39z"></path><path id="pQNIXAxSg" d="M1302 1880 c-41 -25 -60 -64 -68 -143 l-7 -65 -41 -11 c-69 -17 -106 -72 -106 -157 0 -47 -1 -49 -28 -35 -67 34 -305 48 -372 22 -115 -44 -270 -152 -270 -187 0 -8 -4 -14 -9 -14 -4 0 -23 -33 -42 -72 -34 -73 -34 -74 -34 -218 0 -128 3 -152 24 -207 13 -35 26 -63 30 -63 3 0 12 -13 19 -29 12 -27 79 -96 147 -150 79 -62 185 -90 341 -91 92 0 165 18 244 62 58 32 179 144 180 166 0 6 4 12 8 12 10 0 40 61 58 120 8 26 14 90 14 151 l0 106 44 -10 c42 -10 112 -2 159 18 16 7 17 -2 17 -104 0 -87 5 -126 21 -173 52 -156 187 -282 344 -323 77 -20 243 -20 320 0 178 47 317 185 370 369 13 44 16 86 13 170 -3 104 -6 116 -41 190 -68 144 -190 239 -350 273 -94 20 -248 12 -337 -16 -36 -11 -66 -21 -67 -21 -2 0 -3 23 -3 50 0 28 -7 64 -15 79 -20 39 -72 81 -99 81 -21 0 -24 6 -29 65 -7 76 -37 139 -75 159 -20 10 -68 14 -178 14 -131 0 -156 -2 -182 -18z m112 -146 c3 -9 6 -27 6 -40 0 -19 -5 -24 -26 -24 -24 0 -25 2 -19 33 11 51 27 63 39 31z m176 -35 c0 -24 -4 -29 -25 -29 -28 0 -34 25 -14 61 14 28 39 7 39 -32z m133 -201 c15 -22 -8 -65 -48 -89 -28 -18 -30 -18 -50 1 -62 58 -186 63 -257 11 -23 -17 -47 -27 -57 -24 -26 9 -81 65 -81 83 0 38 17 40 254 38 202 -3 230 -5 239 -20z m554 -170 c174 -64 287 -243 248 -392 -20 -77 -45 -123 -98 -182 -92 -101 -234 -157 -344 -135 -133 26 -232 101 -290 219 -32 65 -38 86 -38 141 0 128 86 258 216 326 110 58 195 64 306 23z m-1334 -5 c157 -49 282 -205 282 -353 0 -196 -226 -381 -416 -341 -155 33 -273 140 -314 285 -42 145 47 324 194 390 103 46 155 50 254 19z"></path><path id="ppRpb4JSz" d="M2022 1191 c-70 -18 -102 -71 -102 -168 0 -109 42 -160 143 -170 71 -7 138 21 163 69 26 50 25 168 -2 204 -46 63 -118 86 -202 65z"></path><path id="pwu5frIeK" d="M817 1171 c-45 -29 -60 -59 -65 -130 -4 -55 -1 -75 17 -109 28 -55 63 -72 150 -72 61 0 73 3 102 27 40 34 59 79 59 138 0 59 -19 104 -59 138 -29 24 -41 27 -104 27 -53 0 -79 -5 -100 -19z"></path></g></g><g id="lxR3C3es1ubFVqDHpKPZa1" fill="rgb(99,169,195)" style="transform: none;"><g style="transform: none;"><path id="pft0WsWrI" d="M1375 3203 c56 -104 102 -173 115 -173 15 0 149 227 150 253 0 4 -70 7 -156 7 l-156 0 47 -87z"></path><path id="pflqlTjis" d="M245 581 c-57 -35 -111 -104 -125 -160 -38 -158 72 -287 256 -299 62 -4 79 -1 132 23 54 24 122 79 111 89 -2 2 -37 29 -78 59 l-75 56 -33 -30 c-38 -33 -77 -37 -111 -13 -33 23 -25 54 23 81 22 12 44 24 50 26 5 2 -7 23 -27 48 -19 24 -49 65 -65 91 l-29 47 -29 -18z"></path><path id="p11o16TfAh" d="M2739 515 l-56 -84 49 -30 c54 -34 62 -60 26 -85 -35 -25 -79 -20 -118 13 l-35 29 -72 -56 -73 -56 36 -32 c76 -70 203 -103 287 -75 54 18 124 77 149 124 33 62 31 148 -4 207 -27 47 -65 86 -108 113 l-25 16 -56 -84z"></path></g></g><g id="l4cZgbxOiB0LEPkoKkD3MIC" fill="rgb(136,179,197)" style="transform: none;"><g style="transform: none;"><path id="pOxouNCZT" d="M1599 3218 c-7 -13 -17 -26 -23 -30 -8 -5 -7 -8 1 -8 7 0 19 14 28 30 9 17 13 30 11 30 -3 0 -11 -10 -17 -22z"></path><path id="pJQcHDkKy" d="M1550 3130 c-7 -16 -16 -30 -20 -30 -4 0 -10 -9 -13 -20 -3 -11 -3 -20 -1 -20 7 0 56 91 52 96 -3 2 -11 -9 -18 -26z"></path><path id="phxyayZpG" d="M1355 2905 c-173 -30 -437 -139 -443 -183 -3 -19 1 -22 35 -22 21 0 48 7 60 15 41 29 156 47 336 54 97 3 177 3 177 -1 0 -5 10 -8 23 -8 29 0 191 -33 197 -40 8 -10 94 -40 113 -40 9 0 17 -4 17 -10 0 -5 9 -10 20 -10 11 0 29 -9 40 -20 11 -11 25 -20 31 -20 19 0 69 -34 69 -47 0 -7 9 -13 20 -13 11 0 20 -7 20 -16 0 -8 14 -20 30 -25 17 -6 30 -17 30 -24 0 -7 34 -45 75 -84 41 -39 75 -75 75 -80 0 -5 11 -18 25 -29 14 -11 25 -25 25 -31 0 -5 9 -15 20 -21 11 -6 20 -17 20 -25 0 -8 5 -15 10 -15 6 0 10 -7 10 -15 0 -8 5 -15 10 -15 6 0 10 -7 10 -15 0 -8 5 -15 10 -15 6 0 10 -7 10 -15 0 -8 4 -15 8 -15 4 0 13 -15 20 -34 7 -18 24 -46 37 -60 14 -15 25 -35 25 -45 0 -10 11 -43 24 -72 13 -30 31 -79 41 -109 10 -30 21 -57 25 -60 4 -3 10 -23 13 -45 3 -22 13 -71 21 -110 49 -225 52 -557 10 -888 l-6 -49 28 4 c25 3 32 12 61 80 76 184 114 474 93 728 -42 532 -193 889 -484 1149 -149 133 -358 238 -559 282 -120 26 -324 33 -432 14z"></path><path id="piByo9axx" d="M215 554 c-22 -20 -32 -31 -22 -24 9 7 17 9 17 4 0 -5 6 -2 13 6 12 15 67 22 67 8 0 -4 -4 -8 -10 -8 -5 0 -10 -5 -10 -11 0 -6 8 -9 18 -7 9 2 23 -3 30 -12 8 -8 3 5 -10 30 -13 25 -30 46 -39 48 -8 1 -33 -14 -54 -34z"></path><path id="p1DcYGE86m" d="M2935 383 c-3 -10 -1 -19 6 -22 8 -2 8 -5 1 -10 -6 -4 -8 -17 -5 -31 6 -22 7 -23 14 -4 11 27 11 72 0 78 -5 3 -12 -2 -16 -11z"></path><path id="pZmxO8xm3" d="M2781 356 c0 -11 -8 -28 -18 -38 -9 -10 -11 -18 -5 -18 16 0 34 37 29 58 -4 14 -5 14 -6 -2z"></path><path id="p10NBzT32T" d="M2590 345 c-10 -13 -9 -15 9 -15 12 0 19 -4 16 -10 -3 -5 3 -10 14 -10 12 0 30 -9 41 -20 16 -16 20 -17 20 -5 0 8 -4 15 -10 15 -5 0 -25 13 -43 30 -30 26 -36 28 -47 15z"></path><path id="phzPw0Z6Z" d="M432 319 c-38 -34 -78 -38 -115 -9 -20 16 -26 17 -30 6 -7 -19 12 -36 40 -36 13 0 23 -4 23 -9 0 -14 88 23 104 44 13 18 14 18 46 -5 19 -13 30 -19 27 -12 -4 6 -20 20 -35 31 l-27 19 -33 -29z"></path><path id="pOGCW8f2Z" d="M554 259 c0 -12 7 -19 18 -19 10 0 18 4 18 10 0 5 -8 14 -18 19 -14 7 -18 6 -18 -10z"></path><path id="p13PGg79ri" d="M229 165 c12 -10 44 -24 69 -31 48 -15 148 -19 155 -6 3 4 -29 7 -72 8 -51 1 -89 7 -116 19 -59 28 -62 29 -36 10z"></path></g></g><g id="l6K6zexN5eIfq4XKjaeRuGS" fill="rgb(155,202,220)" style="transform: none;"><g style="transform: none;"><path id="pyxghkP1U" d="M1371 3213 c52 -97 109 -183 120 -183 4 0 11 4 14 10 3 5 0 8 -7 5 -13 -5 -55 55 -118 167 l-31 57 23 6 c13 3 79 6 148 8 122 3 121 3 -33 5 l-159 2 43 -77z"></path><path id="p0E05w8Kd" d="M1393 2909 c-80 -10 -195 -39 -208 -51 -7 -7 -2 -8 15 -2 14 4 35 8 48 9 12 0 22 4 22 9 0 4 11 6 25 4 14 -3 25 -1 25 5 0 5 13 7 30 4 19 -4 30 -2 30 4 0 7 16 10 40 7 22 -2 40 0 40 4 0 5 29 8 65 8 36 0 65 -4 65 -10 0 -5 21 -7 50 -3 35 4 50 2 50 -6 0 -7 9 -9 25 -5 16 4 25 2 25 -6 0 -8 9 -10 25 -6 16 4 25 2 25 -5 0 -6 9 -9 20 -6 10 3 21 0 23 -6 3 -9 10 -9 27 -1 22 10 18 12 -45 27 -155 37 -281 45 -422 26z"></path><path id="pZVU67X9" d="M1105 2834 c-157 -58 -358 -187 -480 -309 -220 -220 -358 -532 -406 -919 -15 -128 -7 -467 16 -596 73 -416 305 -683 709 -815 350 -114 800 -112 1157 6 441 145 643 382 714 834 33 207 5 703 -45 817 -10 23 -10 23 -6 -2 3 -14 12 -65 21 -114 9 -49 15 -102 13 -118 -3 -15 0 -28 5 -28 5 0 7 -23 5 -50 -1 -28 0 -50 5 -50 4 0 7 -83 7 -185 0 -102 -3 -185 -8 -185 -4 0 -6 -20 -4 -45 2 -25 0 -45 -4 -45 -5 0 -10 -21 -10 -47 -1 -26 -7 -49 -13 -51 -6 -2 -9 -7 -6 -12 7 -11 -17 -110 -26 -110 -5 0 -6 -7 -3 -15 4 -8 1 -15 -5 -15 -6 0 -8 -7 -5 -15 4 -8 1 -15 -7 -15 -7 0 -10 -3 -6 -6 9 -9 -21 -64 -34 -64 -7 0 -8 7 -3 18 21 49 37 597 21 742 -4 30 -7 70 -6 88 0 17 -5 32 -11 32 -6 0 -8 10 -4 24 3 13 1 27 -4 30 -6 3 -8 15 -5 26 3 12 0 20 -6 20 -7 0 -9 5 -6 10 3 6 3 15 -1 22 -4 6 -8 25 -10 42 -1 17 -7 32 -12 34 -6 2 -8 10 -5 18 3 8 0 14 -6 14 -6 0 -8 7 -5 15 4 8 1 15 -5 15 -6 0 -8 7 -5 15 4 8 1 15 -5 15 -6 0 -8 7 -5 15 4 8 1 15 -6 15 -6 0 -8 5 -5 10 3 6 2 10 -4 10 -6 0 -8 7 -5 15 4 8 1 15 -6 15 -6 0 -8 5 -5 10 3 6 1 10 -5 10 -6 0 -8 5 -5 10 3 6 1 10 -5 10 -6 0 -8 4 -5 10 7 12 -22 70 -36 70 -6 0 -7 5 -4 10 3 6 1 10 -5 10 -6 0 -8 5 -5 10 3 6 1 10 -5 10 -6 0 -8 5 -5 10 3 6 1 10 -5 10 -6 0 -8 5 -5 10 3 6 -1 13 -9 16 -9 3 -13 10 -10 15 3 5 -2 12 -10 15 -9 3 -13 10 -10 15 3 5 -2 12 -10 15 -9 3 -13 10 -10 15 3 5 -2 12 -10 15 -9 3 -14 10 -11 15 3 4 -6 16 -20 25 -13 9 -23 19 -20 24 2 4 -9 17 -25 29 -17 12 -29 25 -27 29 1 4 -33 40 -75 81 -43 40 -75 77 -72 82 3 5 -11 16 -30 24 -20 9 -36 22 -36 30 0 8 -9 15 -21 15 -11 0 -18 4 -15 9 7 11 -54 51 -78 51 -10 0 -15 4 -12 9 6 9 -36 31 -59 31 -8 0 -15 5 -15 10 0 6 -8 10 -17 10 -22 0 -106 31 -114 43 -3 4 -26 10 -50 12 -24 3 -45 9 -47 13 -1 5 -14 7 -27 4 -15 -2 -25 0 -25 7 0 8 -11 10 -35 5 -21 -4 -35 -2 -35 4 0 10 -291 8 -375 -3 -45 -5 -143 -25 -162 -32 -7 -3 -13 -1 -13 5 0 5 36 24 80 42 44 18 80 34 80 36 0 6 -12 4 -55 -12z m-129 -90 c-22 -16 -36 -18 -36 -6 0 11 43 32 50 25 3 -3 -4 -11 -14 -19z m477 -887 c26 -11 37 -11 62 -1 102 44 179 -21 192 -161 5 -59 8 -65 29 -65 27 0 79 -42 99 -81 19 -35 19 -90 1 -132 -21 -50 -98 -115 -146 -123 -38 -6 -40 -8 -40 -44 0 -41 -29 -92 -71 -122 -57 -42 -140 -40 -203 5 -32 22 -65 88 -66 128 0 22 -6 28 -31 33 -17 3 -43 15 -59 26 -43 30 -41 25 12 -32 26 -29 48 -58 48 -65 0 -7 3 -13 8 -13 6 0 45 -74 48 -92 1 -4 2 -9 4 -10 18 -23 22 -206 5 -260 -17 -56 -47 -118 -57 -118 -4 0 -8 -6 -8 -12 -1 -22 -123 -134 -182 -168 -32 -17 -58 -29 -58 -25 0 4 -6 3 -13 -3 -19 -16 -63 -24 -147 -25 -174 -3 -245 25 -387 157 -29 26 -58 61 -65 77 -7 16 -17 29 -21 29 -5 0 -5 5 -2 10 3 6 2 10 -3 10 -8 0 -13 11 -27 63 -2 4 -3 8 -4 10 -8 9 -16 97 -16 172 1 81 4 98 34 163 19 39 38 72 42 72 5 0 9 6 9 14 0 20 105 108 171 143 87 47 119 54 242 53 52 -1 101 -7 122 -16 19 -8 35 -12 35 -10 0 5 76 -35 117 -61 l28 -18 -17 26 c-59 92 -19 216 77 240 l42 11 7 65 c8 79 27 118 69 143 37 23 75 25 120 7z m809 -401 c154 -33 278 -130 345 -271 172 -362 -199 -775 -602 -670 -158 42 -292 167 -345 326 -18 53 -21 81 -18 165 3 92 7 107 40 175 49 98 94 149 181 203 126 78 257 102 399 72z"></path><path id="p11DBGaj0G" d="M2030 2806 c0 -3 38 -25 85 -49 203 -109 365 -269 487 -483 23 -40 44 -72 46 -70 6 6 -74 142 -121 206 -55 74 -170 193 -239 246 -83 65 -258 166 -258 150z"></path><path id="piihtqM97" d="M2654 2163 c1 -18 4 -33 8 -33 4 0 14 -12 22 -27 23 -43 18 -14 -8 42 -22 48 -23 49 -22 18z"></path><path id="pGeKxZijy" d="M2697 2050 c-3 -11 -1 -20 5 -20 6 0 8 -7 4 -15 -3 -8 -1 -15 5 -15 6 0 9 -7 5 -15 -3 -8 -1 -15 4 -15 5 0 16 -21 24 -47 8 -27 15 -41 15 -34 1 17 -48 181 -53 181 -2 0 -6 -9 -9 -20z"></path><path id="pp13FxBde" d="M2747 526 c-64 -100 -64 -99 -20 -119 35 -16 30 -8 -11 18 -13 9 -9 20 29 80 24 38 52 72 61 75 15 6 15 7 2 12 -11 5 -28 -14 -61 -66z"></path><path id="pclGMbtTB" d="M191 532 c-47 -46 -60 -67 -70 -110 -14 -57 -9 -108 16 -157 18 -36 61 -83 88 -97 11 -5 3 4 -18 22 -69 59 -98 144 -77 232 11 42 24 63 67 105 29 29 59 53 66 53 15 0 69 -88 62 -101 -4 -5 1 -9 9 -9 14 0 46 -36 46 -51 0 -4 -14 -12 -30 -19 -17 -7 -33 -17 -36 -22 -6 -10 52 17 73 34 9 8 3 22 -26 57 -21 25 -48 63 -60 84 -13 20 -29 37 -38 37 -8 0 -41 -26 -72 -58z"></path><path id="pinww04P9" d="M2847 548 c-7 -19 0 -28 22 -28 19 0 44 -36 36 -50 -4 -6 -1 -10 5 -10 6 0 9 -4 6 -9 -3 -5 1 -12 10 -15 11 -4 15 -15 12 -36 -3 -18 0 -31 9 -34 16 -7 16 -1 -2 60 -18 59 -88 147 -98 122z"></path><path id="puyiS66VV" d="M2538 304 c-40 -32 -65 -60 -62 -68 10 -25 125 -96 156 -96 7 0 -12 12 -42 26 -30 14 -67 37 -82 51 -26 25 -27 27 -9 42 49 43 85 66 109 71 21 4 23 7 11 17 -11 9 -27 1 -81 -43z"></path><path id="p17Su8bekL" d="M460 343 c0 -5 23 -23 50 -42 28 -18 50 -40 50 -47 0 -8 9 -14 19 -14 11 0 22 -4 25 -9 7 -11 -50 -55 -95 -75 -92 -39 -87 -36 -54 -29 58 11 182 92 164 106 -44 36 -159 115 -159 110z"></path><path id="poonKUJgF" d="M415 299 c-4 -6 -26 -10 -49 -9 -62 3 -75 -1 -36 -11 37 -9 100 5 100 22 0 12 -7 11 -15 -2z"></path><path id="p1HbH6Jwuj" d="M2923 275 c-6 -7 -10 -15 -7 -17 8 -8 -85 -89 -119 -103 -18 -8 -25 -14 -17 -15 26 0 117 67 140 105 23 37 24 53 3 30z"></path><path id="pVFhIlEpp" d="M2688 133 c12 -2 32 -2 45 0 12 2 2 4 -23 4 -25 0 -35 -2 -22 -4z"></path></g></g><g id="l2F4qnqZ14jtDGDAv5lsULN" fill="rgb(247,221,198)" style="transform: none;"><g style="transform: none;"><path id="pjSuvIqe9" d="M1206 1528 c-27 -38 -20 -75 22 -119 53 -57 106 -64 165 -22 23 17 54 33 68 36 33 8 111 -17 135 -44 33 -37 114 -17 149 37 21 33 25 95 6 118 -12 14 -45 16 -272 16 -255 0 -258 0 -273 -22z"></path></g></g><g id="l7L4t6WQmTuwUuD1tubaQeZ" fill="rgb(251,250,251)" style="transform: none;"><g style="transform: none;"><path id="p14xLdP09V" d="M1360 1775 c-6 -8 -14 -41 -17 -75 l-6 -60 57 0 56 0 0 59 c0 66 -15 91 -54 91 -13 0 -29 -7 -36 -15z"></path><path id="pGQy4QCxh" d="M1526 1768 c-10 -14 -16 -44 -16 -75 l0 -53 61 0 61 0 -7 58 c-4 31 -14 65 -22 75 -22 24 -59 21 -77 -5z"></path><path id="pWQ5hZ7qF" d="M1363 1543 c71 -2 183 -2 250 0 67 1 10 3 -128 3 -137 0 -192 -2 -122 -3z"></path><path id="p12cHt2UGz" d="M214 1380 c0 -80 2 -112 3 -72 2 39 2 105 0 145 -1 39 -3 7 -3 -73z"></path><path id="posfYgeqF" d="M1221 1414 c13 -14 33 -31 44 -37 11 -6 2 6 -19 26 -45 42 -61 50 -25 11z"></path><path id="p9UwnBHBS" d="M2058 1380 c-66 -11 -180 -75 -229 -127 -22 -24 -55 -74 -72 -111 -29 -61 -32 -76 -32 -163 0 -90 2 -99 37 -171 178 -359 719 -274 800 126 31 158 -60 330 -217 406 -93 46 -179 58 -287 40z m91 -239 c63 -45 82 -122 46 -192 -24 -45 -92 -73 -143 -60 -107 29 -138 169 -53 245 23 21 77 36 106 29 11 -3 31 -12 44 -22z"></path><path id="pjdT60XEV" d="M2089 994 c-16 -20 -1 -48 28 -52 27 -4 43 18 32 46 -10 26 -41 29 -60 6z"></path><path id="p4uHw4aM4" d="M762 1369 c-80 -15 -160 -59 -212 -116 -157 -171 -123 -455 69 -584 85 -57 142 -74 246 -73 107 1 178 24 253 84 222 175 174 520 -91 649 -94 46 -173 58 -265 40z m232 -239 c70 -61 70 -148 1 -209 -64 -56 -156 -37 -196 41 -66 130 87 262 195 168z"></path><path id="pXdWqQbQA" d="M927 1003 c-11 -10 -8 -51 4 -58 18 -12 59 4 59 23 0 32 -43 56 -63 35z"></path><path id="pGHpsqML1" d="M222 1150 c0 -19 2 -27 5 -17 2 9 2 25 0 35 -3 9 -5 1 -5 -18z"></path><path id="pEnLoYuug" d="M840 235 c14 -8 30 -14 35 -14 6 0 -1 6 -15 14 -14 8 -29 14 -35 14 -5 0 1 -6 15 -14z"></path></g></g></svg>
