<svg class="img-fluid" id="outputsvg" xmlns="http://www.w3.org/2000/svg" style="transform: none; transform-origin: 50% 50%; cursor: move;" width="213" height="571" viewBox="0 0 2130 5710"><g id="lm4Ya5bZ4cPeNjkWMcQTSA" fill="rgb(0,0,0)" style="transform: none;"><g><path id="pMFm1agAz" d="M1063 5670 c-29 -12 -28 -16 1 -114 45 -146 57 -289 35 -401 -5 -27 -10 -58 -10 -67 0 -10 -5 -18 -10 -18 -6 0 -7 -9 -4 -20 4 -12 2 -20 -5 -20 -7 0 -10 -8 -7 -20 3 -11 1 -20 -5 -20 -6 0 -8 -7 -4 -15 3 -8 1 -15 -5 -15 -6 0 -9 -6 -6 -14 3 -8 2 -16 -2 -18 -12 -4 -87 -228 -112 -333 -28 -118 -41 -229 -41 -340 1 -49 1 -108 1 -130 1 -72 32 -234 77 -393 24 -85 40 -160 37 -165 -3 -5 0 -13 7 -17 7 -5 14 -25 16 -47 1 -21 3 -40 4 -43 1 -3 2 -13 1 -22 -1 -10 3 -18 9 -18 7 0 9 -7 6 -16 -3 -8 -1 -59 5 -113 8 -63 9 -161 4 -275 l-7 -176 -38 0 c-22 0 -42 5 -45 10 -10 17 -64 12 -73 -7 -13 -25 -21 -133 -10 -133 5 0 6 -5 3 -10 -10 -16 35 -97 67 -121 32 -25 37 -43 8 -34 -10 3 -30 0 -42 -6 -13 -7 -31 -14 -40 -16 -35 -6 -132 -54 -211 -106 -119 -78 -207 -157 -288 -258 -39 -49 -75 -89 -80 -89 -6 0 -8 -4 -4 -10 3 -5 -10 -26 -29 -46 -20 -21 -34 -40 -31 -42 3 -3 -3 -12 -13 -21 -19 -18 -77 -139 -116 -242 -33 -87 -61 -203 -77 -311 -7 -49 -15 -88 -18 -88 -10 0 -4 -271 8 -341 15 -92 55 -227 90 -304 17 -36 28 -65 26 -65 -2 0 10 -14 25 -31 16 -16 27 -36 23 -45 -3 -7 0 -14 7 -14 6 0 8 -5 5 -10 -3 -6 1 -13 9 -16 9 -3 16 -11 16 -17 0 -12 11 -25 70 -85 23 -24 60 -63 81 -88 21 -25 39 -42 39 -37 1 4 9 -2 19 -14 10 -12 21 -19 25 -16 3 3 8 -2 12 -11 3 -9 12 -16 20 -16 8 0 14 -5 14 -11 0 -5 4 -8 8 -5 5 3 21 -6 36 -19 35 -30 155 -80 254 -106 86 -22 360 -42 378 -28 6 5 18 7 26 4 21 -8 182 41 276 85 94 44 213 120 239 153 10 12 31 30 46 40 16 10 38 34 48 52 11 19 29 37 40 40 10 4 19 13 19 21 0 8 7 17 15 20 8 4 15 11 15 16 0 5 8 22 18 36 10 15 36 61 58 102 21 41 43 78 47 81 5 3 10 12 11 20 2 8 9 28 15 44 7 17 24 73 38 125 23 85 26 115 26 280 1 210 -4 300 -15 300 -5 0 -6 11 -2 25 4 15 2 25 -5 25 -6 0 -8 6 -5 14 14 36 -141 409 -205 492 -9 12 -23 32 -31 44 -8 12 -30 41 -47 64 -18 22 -33 46 -33 51 0 13 -136 155 -148 155 -5 0 -17 11 -26 25 -9 14 -23 25 -30 25 -8 0 -16 6 -19 13 -6 17 -177 110 -252 138 -33 13 -61 24 -63 25 -2 1 10 21 27 45 52 71 80 206 49 237 -7 7 -43 12 -90 12 l-78 0 0 43 c0 24 5 48 10 53 7 7 11 76 11 175 0 171 -20 356 -48 437 -8 25 -16 61 -16 79 -1 18 -5 33 -10 33 -4 0 -5 9 -2 20 3 11 2 20 -4 20 -5 0 -9 8 -9 18 0 9 -11 62 -25 117 -15 55 -33 141 -42 190 -22 135 -25 398 -3 411 5 3 6 19 3 35 -4 16 -3 29 2 29 5 0 15 28 22 63 7 34 41 148 76 252 35 105 70 218 77 253 6 34 14 62 18 62 3 0 5 71 4 157 -1 132 -5 172 -24 243 -42 154 -52 166 -117 140z m105 -2972 c-9 -13 -29 -31 -45 -41 -29 -17 -31 -16 -57 4 -14 11 -31 29 -36 40 -10 18 -7 19 71 19 l81 0 -14 -22z m13 -284 c200 -60 421 -246 574 -482 154 -240 244 -545 232 -791 -13 -299 -180 -615 -421 -798 -118 -89 -311 -162 -476 -179 -43 -4 -97 -1 -159 10 -287 50 -525 234 -673 522 -182 351 -141 804 107 1198 54 87 169 230 217 271 135 115 299 211 420 245 80 23 111 24 179 4z"></path></g></g><g id="l3eOeq72jCOwOF2Zb8YOIsO" fill="rgb(103,157,74)" style="transform: none;"><g><path id="pBEj3ziBS" d="M972 2440 c-62 -17 -207 -84 -246 -113 -17 -13 -18 -16 -5 -29 10 -11 51 -16 151 -21 136 -6 191 -19 224 -52 9 -8 26 -15 40 -15 13 0 24 -4 24 -8 0 -4 16 -14 35 -21 19 -7 35 -17 35 -22 0 -5 7 -9 15 -9 8 0 15 -4 15 -10 0 -5 7 -10 15 -10 9 0 18 -7 21 -15 4 -8 21 -22 40 -31 19 -9 34 -22 34 -29 0 -6 23 -31 50 -54 28 -23 50 -49 50 -56 0 -8 9 -19 20 -25 11 -6 20 -17 20 -25 0 -8 9 -19 20 -25 11 -6 20 -17 20 -25 0 -7 3 -15 8 -17 9 -4 40 -57 94 -163 22 -44 44 -81 49 -83 5 -2 9 -11 9 -19 0 -24 33 -123 41 -123 3 0 9 -27 13 -60 4 -33 11 -60 16 -60 6 0 10 -19 10 -42 0 -24 5 -74 10 -112 13 -87 -11 -305 -45 -415 -13 -42 -26 -91 -30 -109 -4 -18 -12 -38 -18 -45 -29 -32 -98 -186 -104 -231 l-6 -50 30 22 c51 36 163 161 211 236 55 84 113 215 148 334 33 108 44 318 24 451 -64 442 -345 867 -685 1039 -128 64 -233 77 -353 42z"></path></g></g><g id="l11KLa0SXYEIwEbsP0cLbz2" fill="rgb(131,186,94)" style="transform: none;"><g><path id="p1EDbOB7sT" d="M980 2737 c0 -32 27 -83 55 -105 54 -42 142 -15 171 53 29 70 28 70 -106 70 -108 0 -120 -2 -120 -18z"></path><path id="p11HADWUuK" d="M1010 2448 c-36 -8 -41 -12 -25 -18 11 -4 23 -3 26 3 4 5 16 7 28 4 12 -3 21 -1 21 4 0 5 11 9 25 9 14 0 25 -5 25 -11 0 -8 12 -10 35 -6 19 3 35 2 35 -2 0 -5 26 -18 58 -30 80 -31 129 -57 188 -102 49 -38 74 -48 74 -31 0 12 -54 62 -68 62 -7 0 -12 3 -12 8 0 4 -9 12 -19 17 -56 29 -150 74 -176 85 -41 17 -161 21 -215 8z"></path><path id="pPWpvFMJW" d="M895 2411 c-9 -16 9 -20 23 -5 10 12 10 14 -2 14 -8 0 -17 -4 -21 -9z"></path><path id="pBbNJqspj" d="M828 2383 c-10 -2 -18 -12 -17 -21 0 -11 2 -12 6 -4 2 6 9 10 14 6 5 -3 9 0 9 6 0 6 5 8 10 5 6 -3 10 -1 10 4 0 11 -3 12 -32 4z"></path><path id="pzfffCrrh" d="M760 2345 c-7 -8 -17 -15 -22 -15 -19 0 -165 -115 -225 -178 -286 -295 -428 -692 -393 -1098 18 -212 85 -386 213 -556 265 -352 707 -462 1109 -276 106 50 159 88 261 190 89 89 132 149 187 256 43 85 37 91 -8 7 -20 -38 -53 -92 -71 -120 -40 -58 -159 -181 -167 -172 -7 7 48 107 59 107 5 0 5 4 2 10 -3 5 -1 10 5 10 6 0 8 5 5 10 -3 6 -1 10 5 10 7 0 10 7 6 15 -3 8 -2 15 3 15 11 0 42 80 35 91 -3 5 0 9 6 9 7 0 10 7 6 15 -3 8 -1 15 5 15 6 0 9 6 6 14 -3 8 -3 17 1 21 4 4 8 11 8 16 1 5 2 10 4 12 4 5 14 76 30 227 10 100 11 260 1 260 -3 0 -6 23 -7 52 0 28 -5 53 -11 55 -5 2 -8 15 -5 28 2 14 0 25 -4 25 -5 0 -10 14 -10 32 -1 18 -6 34 -12 36 -6 2 -8 10 -5 18 3 8 0 14 -6 14 -6 0 -8 7 -5 15 4 8 1 15 -5 15 -6 0 -8 7 -5 15 4 8 1 15 -5 15 -6 0 -8 6 -5 14 3 7 -2 20 -10 29 -8 8 -12 17 -9 21 4 3 1 6 -6 6 -7 0 -9 5 -6 10 3 6 1 10 -5 10 -6 0 -8 5 -5 10 3 6 1 10 -5 10 -6 0 -8 5 -5 10 3 6 1 10 -5 10 -6 0 -8 5 -5 10 3 6 1 10 -5 10 -6 0 -8 5 -5 10 3 6 1 10 -5 10 -6 0 -8 5 -5 10 3 6 1 10 -5 10 -6 0 -9 4 -6 9 3 5 -1 12 -10 15 -8 3 -12 10 -9 16 3 5 1 10 -5 10 -6 0 -9 4 -6 9 3 5 -1 12 -10 15 -8 3 -12 10 -9 16 3 6 -1 13 -9 16 -9 3 -14 10 -11 15 3 4 -6 16 -20 25 -13 9 -22 20 -20 25 3 4 -6 16 -20 25 -13 9 -23 20 -20 24 3 5 -20 30 -50 56 -30 26 -55 53 -55 60 0 6 -16 19 -35 28 -20 10 -33 21 -30 26 3 5 -6 12 -20 16 -13 3 -22 10 -19 15 3 5 -4 9 -16 9 -12 0 -19 4 -16 9 3 4 -13 14 -34 21 -22 7 -40 17 -40 22 0 4 -11 8 -23 8 -13 0 -34 9 -46 20 -45 38 -88 46 -263 49 -81 1 -96 3 -92 16 3 8 11 13 16 12 6 -1 13 4 15 11 7 17 -22 15 -37 -3z m-315 -1541 c14 -9 25 -23 25 -30 0 -8 11 -19 25 -24 14 -5 25 -16 25 -25 0 -8 7 -15 15 -15 37 0 174 -225 159 -263 -10 -27 -41 -30 -66 -8 -12 12 -30 21 -40 21 -10 0 -18 5 -18 12 0 7 -9 21 -21 33 -66 66 -169 244 -169 294 0 26 30 28 65 5z"></path><path id="pWJS6zy2x" d="M1527 2236 c-7 -17 1 -26 23 -26 21 0 104 -85 96 -99 -4 -6 0 -11 8 -11 18 0 100 -105 92 -118 -3 -6 4 -12 15 -15 16 -4 20 -11 16 -26 -3 -12 -1 -21 5 -21 5 0 6 -5 3 -10 -3 -6 1 -13 9 -16 9 -3 13 -10 10 -15 -3 -5 0 -9 5 -9 6 0 10 -3 9 -7 -4 -15 13 -53 23 -53 6 0 7 -4 4 -10 -3 -5 -1 -10 5 -10 6 0 8 -4 5 -10 -3 -5 2 -10 12 -10 13 0 15 -3 5 -8 -14 -9 -6 -42 10 -42 5 0 6 -4 3 -10 -3 -5 -2 -10 4 -10 6 0 8 -7 5 -15 -4 -8 -1 -15 6 -15 6 0 8 -4 5 -10 -3 -5 -1 -10 5 -10 7 0 10 -7 6 -15 -3 -8 -1 -15 5 -15 6 0 9 -7 5 -15 -3 -8 -1 -15 5 -15 6 0 9 -7 5 -15 -3 -8 -1 -15 5 -15 6 0 9 -6 6 -14 -3 -8 0 -17 7 -19 7 -3 17 -25 21 -49 4 -23 9 -38 12 -32 5 16 -30 154 -62 238 -64 171 -197 376 -325 504 -34 34 -63 62 -65 62 -2 0 -5 -6 -8 -14z"></path><path id="pRKbkfAMY" d="M1988 1387 c-2 -20 0 -37 5 -37 6 0 7 -19 4 -45 -4 -25 -3 -45 3 -45 5 0 11 -12 14 -27 2 -16 3 10 1 57 -2 47 -8 96 -13 110 -9 24 -9 23 -14 -13z"></path><path id="p2nymSJaB" d="M1990 1165 c0 -16 6 -25 15 -25 9 0 15 9 15 25 0 16 -6 25 -15 25 -9 0 -15 -9 -15 -25z"></path><path id="pOFfVKtYD" d="M1972 951 c-9 -5 -11 -17 -6 -34 4 -18 2 -27 -6 -27 -6 0 -8 -4 -5 -10 12 -19 24 -10 31 24 8 43 3 58 -14 47z"></path><path id="pi1OAXeBA" d="M1946 835 c4 -8 2 -15 -3 -15 -5 0 -9 -10 -10 -22 -1 -11 -7 -24 -14 -28 -8 -6 -8 -9 0 -14 6 -4 14 1 17 11 3 10 10 28 15 41 12 29 11 42 -1 42 -5 0 -7 -7 -4 -15z"></path></g></g><g id="l2bSl9gQKUSty3DOo5IW9DA" fill="rgb(186,223,133)" style="transform: none;"><g><path id="pOwCaXw4r" d="M1098 2753 c-104 -3 -118 -6 -118 -21 0 -13 2 -14 9 -4 7 11 31 12 120 7 99 -7 111 -6 111 9 0 9 -1 15 -2 14 -2 -1 -56 -4 -120 -5z"></path><path id="p1HIzeLZ8i" d="M990 2698 c0 -27 64 -88 91 -87 20 0 18 3 -11 13 -23 8 -42 26 -57 52 -13 21 -23 31 -23 22z"></path><path id="pfz43fZRK" d="M342 1940 c-7 -11 -12 -25 -12 -32 1 -7 8 0 16 15 18 33 14 46 -4 17z"></path><path id="p6CS8cM5V" d="M132 1350 c0 -19 2 -27 5 -17 2 9 2 25 0 35 -3 9 -5 1 -5 -18z"></path><path id="p6W7kZzrt" d="M124 1200 c0 -52 1 -74 3 -47 2 26 2 68 0 95 -2 26 -3 4 -3 -48z"></path><path id="pwI8sd6R6" d="M346 838 c-8 -19 -10 -37 -5 -42 5 -6 9 -18 9 -29 0 -29 63 -157 103 -210 21 -26 38 -53 40 -59 1 -7 11 -17 22 -24 11 -6 19 -16 17 -23 -1 -6 6 -14 15 -17 36 -12 62 -27 58 -34 -8 -12 46 -18 78 -9 38 11 47 24 47 69 0 68 -125 280 -165 280 -8 0 -14 5 -12 12 1 6 -10 18 -25 25 -16 8 -28 20 -28 27 0 18 -51 51 -72 48 -10 -2 -18 2 -18 7 0 6 -11 11 -25 11 -19 0 -28 -8 -39 -32z"></path><path id="pNpWaeVn5" d="M230 663 c0 -16 121 -192 158 -231 27 -29 9 1 -39 64 -28 37 -64 91 -81 121 -29 51 -38 62 -38 46z"></path><path id="p1HEh8tkn5" d="M960 140 c0 -12 98 -12 155 -1 32 7 21 9 -57 10 -60 1 -98 -3 -98 -9z"></path></g></g></svg>
