<svg class="img-fluid" id="outputsvg" xmlns="http://www.w3.org/2000/svg" style="transform: none; transform-origin: 50% 50%; cursor: move;" width="225" height="492" viewBox="0 0 2250 4920"><g id="l4YSiKhvy65jzyMUxkOHSQQ" fill="rgb(0,0,0)" style="transform: none;"><g><path id="px5dNf8uz" d="M1087 4906 c-41 -41 -29 -203 33 -429 82 -302 78 -401 -30 -717 -72 -209 -91 -306 -91 -464 0 -122 11 -205 41 -306 5 -19 10 -38 10 -41 0 -3 -25 -9 -56 -12 -140 -14 -151 -81 -44 -262 l59 -99 -77 -18 c-415 -98 -833 -616 -918 -1137 -39 -238 1 -527 101 -738 126 -268 322 -468 571 -585 228 -107 527 -127 759 -51 442 144 765 571 793 1048 18 298 -44 563 -193 827 -178 314 -451 551 -730 634 -33 10 -61 19 -63 20 -2 1 17 38 42 82 61 108 78 153 74 197 -5 56 -38 77 -132 83 l-76 5 -19 62 c-37 119 -44 180 -38 333 5 157 16 205 93 426 59 168 75 251 75 389 0 132 -13 208 -61 372 -35 118 -51 226 -43 301 5 44 2 58 -12 74 -21 24 -48 26 -68 6z m119 -2123 c-10 -27 -69 -123 -76 -123 -3 0 -24 32 -47 70 l-42 70 85 0 c78 0 86 -2 80 -17z m91 -364 c34 -11 101 -44 148 -72 417 -253 708 -807 656 -1251 -17 -150 -44 -246 -106 -371 -158 -322 -417 -523 -749 -580 -115 -20 -148 -19 -266 5 -189 39 -349 123 -495 262 -189 180 -295 388 -341 668 -33 197 15 457 123 675 143 286 331 489 563 609 189 97 300 110 467 55z"></path></g></g><g id="l4Tb9yYCMErkiIDHIIJnNWe" fill="rgb(135,106,154)" style="transform: none;"><g><path id="p3egyem5s" d="M996 2798 c33 -64 125 -208 133 -208 11 0 56 68 107 163 l42 77 -149 0 -150 0 17 -32z"></path><path id="p1CJbDRTmw" d="M1044 2480 c-122 -18 -316 -107 -322 -148 l-4 -23 116 7 c104 6 116 5 116 -10 0 -9 -4 -16 -10 -16 -5 0 -10 -16 -10 -35 0 -35 0 -35 45 -35 39 0 45 3 45 21 0 34 37 85 74 103 33 15 38 15 88 -4 62 -24 92 -47 100 -77 12 -46 -65 -123 -122 -123 -14 0 -42 9 -63 20 -20 11 -50 20 -67 20 -28 0 -30 -3 -30 -35 0 -52 39 -68 162 -69 83 -1 100 2 125 20 37 28 73 81 73 110 0 13 3 24 6 24 15 0 149 -118 209 -183 63 -67 81 -107 50 -107 -10 0 -15 -10 -15 -34 0 -28 5 -36 28 -44 62 -23 122 -108 122 -173 0 -37 2 -39 30 -39 23 0 30 -5 30 -19 0 -10 7 -21 15 -25 8 -3 15 -18 15 -32 0 -28 40 -165 51 -174 7 -6 29 -93 29 -117 0 -13 -12 -23 -35 -31 -39 -15 -81 -60 -103 -112 -18 -43 -8 -260 12 -260 7 0 25 -13 41 -30 15 -16 40 -32 56 -35 25 -6 27 -8 18 -38 -5 -18 -13 -78 -16 -135 -6 -98 -5 -102 14 -102 23 0 54 42 107 148 214 425 124 985 -225 1406 -172 208 -383 347 -578 382 -83 15 -102 15 -177 4z m979 -1328 c15 -14 31 -41 36 -58 23 -84 -50 -222 -109 -207 -33 9 -91 87 -97 130 -6 48 30 119 76 150 36 25 53 22 94 -15z"></path><path id="p7PaRFQ4y" d="M510 2155 c-12 -19 -30 -40 -41 -45 -13 -8 -19 -21 -19 -45 0 -32 2 -35 31 -35 60 0 119 65 119 130 0 28 -3 30 -34 30 -28 0 -38 -6 -56 -35z"></path><path id="pGUBhvVaX" d="M1476 1920 c-37 -24 -76 -86 -76 -122 0 -16 -4 -28 -10 -28 -5 0 -10 -16 -10 -35 0 -19 4 -35 9 -35 5 0 11 -13 14 -30 10 -46 56 -109 102 -136 117 -68 295 -25 295 72 0 31 -3 34 -30 34 -19 0 -47 -13 -76 -35 -25 -19 -50 -35 -55 -35 -5 0 -27 9 -48 19 -71 36 -130 125 -117 176 8 31 61 92 87 100 14 5 19 15 19 41 0 33 -1 34 -37 34 -21 0 -51 -9 -67 -20z"></path><path id="p19AFRIWIN" d="M582 1919 c-44 -13 -108 -79 -121 -126 -16 -58 -13 -159 5 -196 27 -52 65 -87 96 -87 15 0 28 -4 28 -10 0 -11 80 -13 129 -4 17 4 31 13 31 20 0 8 10 14 25 14 14 0 34 9 44 19 41 41 52 69 58 154 5 75 3 89 -16 123 -48 86 -166 125 -279 93z m129 -79 c43 -22 99 -91 99 -122 0 -27 -23 -69 -54 -97 -14 -14 -26 -30 -26 -37 0 -7 -22 -15 -55 -19 l-55 -6 -44 45 c-52 53 -63 90 -42 137 20 45 34 62 80 93 47 31 46 31 97 6z"></path><path id="pQhXkGiEg" d="M1034 1321 c-82 -37 -124 -119 -124 -238 0 -117 84 -223 177 -223 42 0 43 1 43 34 0 27 -5 35 -24 40 -35 9 -103 88 -116 137 -10 36 -9 47 7 77 29 56 75 99 122 113 40 12 47 11 88 -11 81 -43 127 -131 102 -194 -21 -52 -56 -91 -102 -114 -24 -12 -49 -22 -56 -22 -6 0 -11 -15 -11 -35 0 -33 2 -35 34 -35 77 0 153 46 188 113 28 55 37 186 16 237 -22 52 -67 101 -113 121 -55 25 -175 25 -231 0z"></path><path id="p1BEhcuN7O" d="M194 1266 c-36 -16 -74 -65 -74 -95 0 -12 -5 -21 -11 -21 -14 0 7 -145 40 -268 12 -42 13 -43 46 -36 25 4 35 3 35 -6 0 -20 106 -7 138 17 55 41 67 77 67 198 0 122 -10 152 -65 199 -26 21 -41 26 -88 26 -31 -1 -71 -7 -88 -14z m122 -91 c32 -32 54 -85 54 -127 0 -44 -38 -108 -77 -131 l-33 -19 -27 33 c-55 64 -66 90 -59 137 10 72 55 129 104 131 7 1 24 -10 38 -24z"></path><path id="p1ClnKfj15" d="M562 710 c-58 -35 -74 -74 -69 -165 4 -95 25 -142 89 -202 56 -51 132 -78 199 -70 61 7 89 22 89 47 0 13 7 20 19 20 44 0 54 165 16 242 -24 46 -83 106 -127 129 -53 27 -171 27 -216 -1z m156 -69 c50 -26 97 -77 121 -131 16 -39 18 -51 8 -92 -8 -32 -17 -48 -27 -48 -9 0 -25 -6 -36 -14 -18 -13 -26 -12 -65 5 -55 25 -135 109 -150 158 -14 47 6 92 54 121 40 25 49 25 95 1z"></path><path id="p13rzpWDyc" d="M1439 558 c-23 -18 -56 -50 -72 -70 -27 -33 -31 -48 -35 -116 -3 -63 -1 -81 12 -94 9 -9 16 -21 16 -27 0 -6 18 -22 40 -36 29 -18 53 -25 90 -25 27 0 50 5 50 10 0 6 9 10 20 10 16 0 20 7 20 36 l0 37 -52 -6 c-44 -6 -58 -3 -84 15 -47 32 -51 69 -15 122 16 23 45 54 63 68 63 48 103 48 138 -2 l21 -29 -26 -54 c-14 -30 -25 -66 -25 -80 0 -25 3 -27 39 -27 38 0 40 2 58 48 12 31 18 72 17 121 0 70 -2 75 -32 102 -30 27 -38 29 -116 29 -80 0 -87 -2 -127 -32z"></path></g></g><g id="l4RP03AWIXH1EkMuuT9xZpc" fill="rgb(160,128,185)" style="transform: none;"><g><path id="p1PbNKoIW" d="M790 2390 c-19 -11 -30 -19 -25 -19 6 0 26 8 45 19 19 11 31 19 25 19 -5 0 -26 -8 -45 -19z"></path><path id="pwzrw1oTl" d="M1056 2373 c-9 -9 -11 -9 -152 -17 -55 -2 -113 -8 -127 -11 -21 -6 -27 -4 -27 9 0 14 -10 10 -47 -15 -90 -61 -172 -134 -184 -163 -14 -33 -54 -76 -72 -77 -13 0 -84 -93 -135 -178 -133 -219 -198 -426 -209 -668 l-6 -133 27 0 c15 0 25 -4 21 -10 -3 -5 -12 -7 -20 -3 -8 3 -15 0 -15 -6 0 -7 7 -14 15 -17 8 -4 12 -10 9 -15 -3 -5 -10 -7 -15 -4 -5 4 -9 -1 -9 -9 0 -20 17 -30 23 -14 3 7 6 0 6 -17 1 -23 -2 -26 -9 -15 -13 20 -12 6 6 -65 8 -33 17 -69 19 -79 34 -150 157 -348 300 -484 146 -139 306 -223 495 -262 118 -24 207 -25 326 -5 163 28 271 73 402 165 119 84 291 272 264 289 -6 4 -9 24 -6 51 17 176 29 230 50 230 8 0 14 7 14 15 0 10 -10 15 -30 15 -16 0 -30 5 -30 10 0 6 -6 10 -13 10 -24 0 -52 41 -63 93 -15 65 4 122 53 157 19 14 40 31 48 37 7 7 18 13 24 13 6 0 11 5 11 10 0 17 -63 11 -96 -9 -41 -25 -74 -79 -84 -139 -7 -41 -8 -43 -9 -13 -2 72 67 165 131 178 29 6 30 7 23 52 -10 77 -28 151 -36 151 -4 0 -5 9 -2 20 3 11 0 20 -6 20 -5 0 -8 7 -5 15 4 8 1 15 -5 15 -6 0 -8 7 -5 15 4 8 1 15 -5 15 -6 0 -8 7 -5 15 4 8 2 15 -2 15 -5 0 -10 14 -10 32 -1 17 -9 37 -17 43 -9 7 -14 14 -11 17 5 6 -51 138 -59 138 -2 0 -3 -24 -2 -52 2 -47 2 -48 -4 -13 -8 51 -36 103 -75 137 -17 15 -28 28 -24 28 5 0 27 -17 50 -37 30 -27 40 -32 34 -18 -14 39 -81 135 -94 135 -7 0 -11 4 -8 9 15 24 -164 206 -279 283 l-60 40 -5 -49 c-3 -26 -11 -58 -18 -69 -14 -26 -69 -74 -84 -74 -6 0 4 10 23 23 53 35 74 82 63 142 -7 43 -9 46 -12 20 -2 -16 -7 -32 -10 -35 -4 -3 -16 -22 -26 -42 -13 -25 -33 -44 -62 -59 -38 -18 -48 -19 -80 -9 -38 13 -63 33 -87 72 -20 31 -11 85 14 91 14 4 19 14 19 36 0 33 -2 36 -14 24z m-35 -30 c-5 -10 -17 -27 -26 -38 -16 -19 -16 -19 -4 5 13 27 29 50 36 50 2 0 -1 -8 -6 -17z m-465 -211 c-8 -16 -22 -35 -32 -43 -10 -8 -5 4 11 29 32 48 42 55 21 14z m642 -29 c-10 -2 -28 -2 -40 0 -13 2 -5 4 17 4 22 1 32 -1 23 -4z m327 -212 c-35 -21 -57 -45 -78 -86 -9 -16 -16 -25 -17 -20 -1 34 82 125 115 125 6 0 -3 -8 -20 -19z m-941 -27 c-45 -31 -60 -47 -79 -89 -8 -16 -14 -24 -15 -16 -1 36 89 131 124 131 5 0 -9 -12 -30 -26z m193 -7 c41 -28 73 -86 72 -128 -1 -33 -2 -32 -8 7 -9 51 -50 107 -99 135 -20 11 -28 17 -17 14 11 -3 34 -16 52 -28z m871 -4 c21 -9 44 -24 52 -33 8 -9 23 -19 33 -23 12 -4 17 -17 17 -42 0 -19 4 -35 10 -35 13 0 -31 -81 -61 -111 -19 -19 -34 -24 -73 -23 -29 0 -52 6 -54 12 -2 7 -11 12 -21 12 -21 0 -41 19 -41 38 0 8 -7 20 -16 27 -18 13 -23 113 -6 124 5 3 11 14 13 25 4 18 54 42 92 45 11 0 35 -7 55 -16z m-918 -22 c3 -5 15 -11 26 -15 15 -4 27 -22 37 -54 15 -44 15 -50 -2 -87 -10 -22 -21 -48 -24 -57 -4 -10 -13 -18 -20 -18 -8 0 -29 -7 -46 -16 -35 -17 -103 -14 -109 6 -2 5 -10 10 -18 10 -8 0 -14 6 -14 14 0 8 -5 16 -10 18 -31 10 -14 168 17 168 7 0 13 6 13 13 0 28 133 44 150 18z m-237 -155 c3 -30 1 -43 -4 -35 -5 8 -8 34 -8 59 1 53 6 44 12 -24z m947 44 c0 -51 76 -148 130 -165 12 -4 19 -9 16 -12 -3 -3 -25 6 -49 20 -46 27 -91 86 -103 134 -4 15 -12 31 -18 35 -7 5 -4 8 7 8 10 0 17 -8 17 -20z m-624 -109 c-15 -22 -35 -42 -43 -45 -9 -4 1 12 21 34 20 22 36 45 36 52 0 6 3 8 6 5 4 -4 -5 -24 -20 -46z m-243 -70 c-4 -6 -53 40 -65 62 -5 10 8 1 30 -20 21 -21 37 -40 35 -42z m1165 34 c-21 -19 -43 -35 -49 -35 -10 0 70 68 81 69 3 0 -12 -15 -32 -34z m-1070 -52 c-10 -2 -26 -2 -35 0 -10 3 -2 5 17 5 19 0 27 -2 18 -5z m477 -223 c-81 -9 -121 -32 -157 -91 -17 -27 -32 -49 -34 -49 -9 0 13 44 39 75 40 48 98 75 162 73 l50 -1 -60 -7z m116 -23 c57 -39 92 -98 95 -164 l3 -58 -9 58 c-12 75 -41 122 -99 158 -24 16 -40 29 -34 29 5 0 25 -10 44 -23z m-63 -27 c63 -25 112 -93 112 -156 0 -63 -65 -145 -126 -161 -35 -9 -50 -7 -95 11 -33 14 -55 29 -59 41 -3 11 -13 35 -24 54 -14 26 -17 45 -12 83 8 59 15 78 28 78 6 0 24 11 40 26 17 14 44 28 59 31 16 3 29 11 29 17 0 7 3 8 8 0 4 -5 22 -16 40 -24z m-858 -26 c31 -27 60 -72 60 -96 0 -7 -10 7 -22 31 -21 44 -68 81 -101 81 -30 0 -92 -37 -107 -64 -7 -14 -15 -24 -18 -22 -9 10 43 69 72 82 47 20 81 17 116 -12z m-18 -41 c15 -17 28 -46 32 -73 4 -24 11 -47 16 -50 15 -9 -34 -104 -66 -129 -28 -22 -60 -20 -100 6 -31 20 -41 127 -17 180 10 21 24 42 31 46 6 4 12 14 12 22 0 33 60 32 92 -2z m639 -146 c12 -45 71 -115 114 -133 17 -7 23 -13 14 -14 -8 0 -34 14 -56 30 -52 38 -94 118 -92 174 2 34 3 36 6 11 2 -16 9 -47 14 -68z m-554 -4 c-2 -16 -4 -5 -4 22 0 28 2 40 4 28 2 -13 2 -35 0 -50z m913 -63 c-13 -24 -78 -75 -86 -67 -3 3 7 12 24 21 16 8 37 26 46 40 19 30 31 35 16 6z m-1125 -58 l30 -36 -34 20 c-31 18 -52 50 -50 77 0 7 6 3 12 -7 7 -11 26 -35 42 -54z m191 30 c-16 -32 -61 -72 -80 -72 -6 0 4 9 22 20 18 11 40 36 49 55 9 19 18 33 21 31 2 -2 -4 -18 -12 -34z m1529 -82 c8 0 16 -4 19 -9 13 -20 -34 3 -60 30 -15 16 -34 29 -41 29 -7 0 -10 6 -6 16 5 13 13 8 40 -25 19 -22 41 -41 48 -41z m-1302 -179 c-50 -23 -75 -59 -84 -120 l-6 -46 -2 40 c0 24 7 53 19 73 21 34 74 72 100 72 8 0 -4 -9 -27 -19z m135 0 c62 -32 142 -130 142 -173 0 -7 -11 10 -24 37 -29 60 -76 107 -136 134 -25 11 -39 21 -32 21 7 0 29 -9 50 -19z m-19 -49 c46 -23 60 -36 88 -87 18 -33 33 -70 33 -83 0 -35 -27 -80 -59 -97 -30 -15 -91 -11 -91 6 0 5 -4 9 -9 9 -15 0 -88 79 -105 114 -18 38 -22 106 -6 106 6 0 10 7 10 15 0 8 7 15 15 15 8 0 15 4 15 9 0 8 16 14 50 19 3 0 29 -11 59 -26z m793 -85 c-34 -10 -105 -73 -134 -117 -10 -14 -17 -20 -17 -15 -2 34 125 146 163 144 15 -1 12 -4 -12 -12z m127 -13 c17 -14 31 -31 31 -37 0 -7 -10 0 -23 14 -12 15 -31 32 -42 38 -11 6 -15 11 -8 11 6 0 25 -12 42 -26z m-42 -36 c18 -13 33 -31 33 -40 0 -28 -32 -101 -55 -125 -20 -21 -84 -63 -97 -63 -4 0 -23 14 -43 31 -27 24 -35 39 -35 65 0 19 5 34 10 34 6 0 10 5 10 11 0 6 14 22 30 36 17 13 30 30 30 37 0 7 17 17 38 23 20 6 39 11 41 12 3 0 20 -9 38 -21z m-722 -99 c-8 -19 -13 -25 -9 -14 3 11 9 38 12 60 5 32 7 35 10 14 2 -15 -4 -42 -13 -60z m-226 -51 c47 -30 49 -38 2 -14 -28 15 -111 100 -111 113 1 5 15 -10 33 -31 17 -22 52 -52 76 -68z m1005 13 c-9 -22 -19 -41 -23 -41 -4 0 2 20 13 44 25 55 33 53 10 -3z m-291 -20 c4 -29 2 -40 -4 -30 -8 13 -14 88 -5 78 2 -2 6 -24 9 -48z m137 -111 c0 -5 -11 -10 -24 -10 -14 0 -28 5 -31 10 -4 6 7 10 24 10 17 0 31 -4 31 -10z"></path></g></g><g id="l3lbMPuvy6l5TG3qr2ArG74" fill="rgb(211,205,216)" style="transform: none;"><g><path id="pb384kQpX" d="M441 2104 c-12 -15 -21 -30 -21 -34 0 -13 64 0 82 17 15 13 15 17 3 29 -21 21 -41 17 -64 -12z"></path><path id="p1MWvmCnZ" d="M1948 1214 c-5 -4 -8 -88 -8 -186 l0 -178 29 0 c61 0 113 72 127 177 8 63 -9 122 -44 156 -29 28 -90 46 -104 31z"></path><path id="pbEMolG85" d="M151 980 c6 -16 13 -30 15 -30 2 0 4 14 4 30 0 20 -5 30 -14 30 -12 0 -13 -6 -5 -30z"></path></g></g><g id="l2fyVGfYtnK9o9UHgo4NRu7" fill="rgb(234,226,235)" style="transform: none;"><g><path id="p11ert4oM5" d="M1075 2380 c-39 -16 -76 -66 -82 -110 -22 -161 236 -222 307 -74 26 53 21 107 -13 135 -52 44 -163 70 -212 49z"></path><path id="pW0NWrOLY" d="M522 2191 c-66 -65 -162 -190 -113 -147 12 11 32 21 44 23 33 5 70 35 89 74 30 60 56 119 52 119 -2 0 -34 -31 -72 -69z"></path><path id="pJprl3lK4" d="M1545 1895 c-110 -39 -137 -177 -56 -276 83 -100 228 -92 281 17 11 22 20 56 20 75 -1 78 -68 163 -149 188 -47 13 -46 13 -96 -4z"></path><path id="pV6znxMSZ" d="M580 1858 c-129 -87 -109 -281 33 -319 104 -28 227 69 227 180 0 44 -33 105 -72 132 -49 35 -142 39 -188 7z"></path><path id="ptx8HL5Fn" d="M1086 1285 c-47 -17 -94 -59 -112 -102 -8 -18 -14 -59 -14 -92 0 -50 5 -66 33 -107 34 -52 100 -94 147 -94 136 0 234 132 196 262 -17 60 -60 108 -118 132 -45 19 -81 20 -132 1z"></path><path id="pnsAYECrg" d="M219 1217 c-75 -49 -101 -169 -56 -257 52 -103 150 -111 207 -17 29 46 35 94 21 161 -15 69 -34 102 -72 122 -39 19 -60 18 -100 -9z"></path><path id="pWubLx10y" d="M1909 1197 c-42 -28 -77 -79 -85 -124 -10 -56 13 -138 50 -177 29 -32 80 -55 92 -43 3 2 6 86 7 186 2 202 2 203 -64 158z"></path><path id="p1GGk4sRnb" d="M2044 1173 c17 -16 25 -34 23 -45 -3 -10 -1 -18 4 -18 5 0 9 -9 9 -21 0 -11 4 -18 9 -15 24 15 -31 126 -62 126 -5 0 2 -12 17 -27z"></path><path id="pN0ZKVQw" d="M2080 1011 c0 -11 -6 -22 -12 -24 -8 -4 -7 -6 3 -6 10 -1 19 9 21 24 3 14 1 25 -3 25 -5 0 -9 -9 -9 -19z"></path><path id="peLpQNnl7" d="M2052 925 c-7 -8 -10 -15 -7 -15 3 0 -6 -11 -21 -25 -15 -14 -22 -25 -16 -25 12 0 62 57 62 71 0 12 -3 11 -18 -6z"></path><path id="pZwS8QffK" d="M603 674 c-59 -29 -82 -91 -62 -170 10 -39 25 -62 73 -110 77 -76 127 -93 192 -64 123 54 88 262 -56 335 -57 29 -101 31 -147 9z"></path><path id="p1AOPCzPs" d="M1505 536 c-41 -18 -122 -109 -130 -146 -16 -74 41 -150 113 -150 91 0 182 106 182 211 0 40 -4 51 -31 73 -34 29 -84 34 -134 12z"></path></g></g></svg>
