<svg class="img-fluid" id="outputsvg" xmlns="http://www.w3.org/2000/svg" style="transform: matrix(1, 0, 0, 1, 0, 0); transform-origin: 50% 50%; cursor: move; transition: transform 200ms ease-in-out;" width="844" height="647" viewBox="0 0 8440 6470"><g id="l19UHL2fdaPMsyUqX3rJT38" fill="rgb(0,0,0)" style="transform: none;"><g><path id="pcNJ1u4S7" d="M4150 6444 c-350 -20 -757 -104 -1065 -219 -586 -219 -1090 -644 -1369 -1155 l-35 -65 -88 2 c-238 7 -655 90 -953 190 -63 21 -121 38 -127 37 -7 -1 -20 -2 -29 -3 -24 -2 -112 -96 -171 -182 -50 -72 -143 -249 -158 -296 -3 -13 -11 -23 -16 -23 -6 0 -8 -4 -5 -8 3 -5 -9 -51 -25 -103 -17 -52 -39 -137 -49 -189 -57 -291 -30 -428 83 -423 84 3 210 83 344 220 45 45 87 83 93 83 6 0 47 -32 93 -71 231 -200 540 -374 789 -444 41 -12 58 -21 58 -33 0 -30 30 -283 36 -308 4 -14 2 -24 -5 -24 -6 0 -10 -3 -9 -7 0 -5 -95 -105 -213 -223 -216 -217 -336 -350 -466 -515 -164 -210 -296 -428 -343 -571 -12 -35 -26 -64 -31 -64 -6 0 -8 -4 -5 -9 4 -5 -1 -41 -9 -81 -27 -130 -16 -271 28 -357 23 -43 83 -100 132 -126 57 -29 158 -34 226 -12 123 40 257 148 468 380 252 276 484 497 501 478 5 -4 29 -57 55 -118 93 -215 237 -476 355 -641 36 -51 64 -104 75 -140 44 -153 124 -282 251 -405 99 -95 167 -140 286 -189 71 -30 93 -43 91 -57 0 -10 -9 -56 -18 -102 -22 -108 -17 -281 11 -361 29 -85 110 -197 175 -241 208 -143 415 -36 507 261 18 59 42 170 57 260 4 19 10 39 14 43 4 4 73 0 152 -10 265 -33 720 -23 1014 23 534 82 1011 281 1423 592 70 52 128 90 130 83 2 -6 8 -9 13 -6 5 3 23 -15 41 -41 157 -227 354 -390 519 -429 129 -30 219 -13 318 59 84 62 129 188 110 308 -26 161 -207 399 -441 581 -43 33 -78 63 -78 67 0 3 14 28 32 56 50 78 133 261 166 364 31 98 66 255 76 347 10 78 7 351 -3 413 -5 30 -8 56 -6 58 4 5 69 -29 235 -123 401 -226 526 -277 675 -277 144 1 240 64 302 199 24 50 27 71 27 153 0 158 -54 276 -192 417 -143 147 -406 333 -666 473 -50 27 -125 67 -166 89 -41 22 -115 60 -165 83 -49 24 -140 68 -202 98 l-114 55 -60 150 c-124 310 -314 659 -494 905 -351 482 -806 829 -1311 1000 -267 91 -609 139 -874 124z m12 -191 c-161 -110 -320 -263 -359 -350 -23 -50 -25 -64 -21 -161 3 -95 7 -115 35 -175 78 -164 295 -418 466 -544 230 -168 462 -200 547 -75 22 32 25 50 28 140 3 87 0 116 -22 194 -15 50 -23 94 -19 98 4 3 33 12 63 19 30 7 74 21 98 32 l42 18 0 65 c0 45 -5 69 -16 80 -22 23 -93 20 -203 -9 -52 -14 -95 -24 -97 -22 -1 1 -19 25 -41 53 -48 65 -99 121 -142 157 -27 22 -42 27 -90 27 -31 0 -62 -5 -69 -12 -7 -7 -12 -37 -12 -68 0 -54 2 -58 67 -135 119 -142 195 -269 238 -400 39 -115 24 -135 -71 -93 -213 93 -537 422 -604 610 -18 51 -18 53 2 93 50 99 315 318 500 413 l103 53 82 -16 c425 -81 849 -312 1212 -660 210 -202 429 -503 611 -840 60 -110 161 -327 156 -332 -2 -2 -77 24 -167 58 -135 51 -178 63 -242 67 -99 6 -117 -7 -117 -83 0 -60 20 -85 85 -105 306 -95 937 -382 1290 -585 456 -263 661 -445 721 -644 27 -91 13 -154 -50 -209 -44 -38 -72 -46 -139 -39 -102 10 -239 76 -712 342 -261 147 -657 350 -808 414 -78 34 -106 41 -159 41 -36 0 -69 -5 -76 -12 -13 -13 -16 -116 -4 -133 4 -6 158 -86 342 -178 184 -93 342 -174 352 -180 19 -15 48 -214 48 -333 0 -286 -100 -621 -255 -854 -40 -60 -70 -112 -67 -115 3 -3 1 -5 -5 -5 -6 0 -37 -33 -69 -72 -69 -87 -186 -203 -309 -306 -133 -111 -134 -112 -79 -50 97 112 179 288 203 438 6 36 11 121 11 190 0 149 -11 227 -49 337 -43 126 -105 225 -205 330 -194 204 -408 293 -706 293 -65 0 -156 -7 -204 -15 -167 -29 -351 -122 -460 -233 l-48 -50 -51 18 -50 18 -19 73 c-20 79 -132 366 -179 461 -85 170 -205 311 -305 358 -166 80 -398 57 -507 -48 -86 -83 -107 -166 -107 -426 0 -197 17 -371 49 -509 12 -48 21 -90 21 -92 0 -2 -27 7 -59 21 -130 52 -378 70 -555 39 -103 -18 -243 -72 -329 -127 -78 -51 -205 -174 -263 -255 -58 -80 -109 -191 -137 -299 l-23 -87 -21 34 c-72 121 -159 302 -269 564 l-30 70 -64 3 c-63 2 -66 1 -117 -40 -145 -119 -198 -170 -390 -368 -392 -405 -425 -435 -515 -479 l-81 -40 -49 25 c-53 27 -79 68 -93 146 -17 89 66 335 172 510 114 189 342 465 613 741 l155 159 12 -54 c36 -151 49 -168 127 -168 68 0 86 18 86 85 0 29 -11 102 -25 163 -31 138 -71 401 -84 556 -6 72 -16 125 -23 132 -7 7 -62 27 -123 45 -291 85 -564 245 -797 468 l-106 101 -57 0 c-50 0 -60 -3 -80 -27 -13 -16 -48 -58 -79 -95 -53 -63 -197 -188 -216 -188 -24 0 37 270 97 430 65 175 215 418 251 407 311 -97 485 -138 747 -176 173 -25 407 -42 459 -33 37 7 42 12 80 88 123 242 381 553 611 737 356 286 765 461 1320 567 109 20 323 47 399 49 l39 1 -41 -27z m-102 -2783 c24 -12 67 -46 95 -75 52 -54 111 -150 98 -158 -5 -3 -43 -10 -85 -17 -85 -12 -148 -5 -237 29 -52 20 -181 92 -181 101 0 3 13 27 28 54 38 70 95 99 177 93 35 -2 79 -14 105 -27z m132 -647 c19 -27 46 -69 61 -94 24 -42 25 -47 9 -52 -9 -3 -29 -14 -44 -23 -15 -10 -29 -16 -32 -14 -5 6 -46 198 -46 217 0 25 19 13 52 -34z m1385 12 c326 -53 581 -285 665 -605 94 -359 -134 -765 -507 -905 -36 -14 -108 -32 -160 -40 -85 -14 -105 -14 -190 0 -52 8 -124 26 -160 40 -302 113 -520 410 -528 717 l-1 78 75 69 c106 98 134 159 134 295 l0 99 60 54 c131 119 315 197 505 212 8 0 57 -6 107 -14z m-1572 -242 c4 -19 1 -23 -20 -23 -18 0 -29 8 -37 28 -6 15 -10 31 -9 36 1 4 -3 45 -9 89 -11 80 -11 82 12 100 l23 19 17 -113 c9 -63 20 -124 23 -136z m693 -78 c12 -15 22 -36 22 -49 0 -43 -78 -139 -147 -179 -6 -4 -28 4 -48 17 -48 33 -127 48 -225 44 -44 -2 -80 -1 -80 1 0 2 11 23 25 46 41 71 141 135 256 164 72 18 75 18 124 0 28 -10 60 -30 73 -44z m-1391 -50 c50 -8 123 -26 161 -41 l69 -25 -13 -37 c-7 -20 -13 -69 -14 -108 -1 -154 105 -262 302 -307 51 -11 78 -25 117 -57 44 -37 50 -48 57 -93 51 -350 -173 -711 -521 -842 -36 -14 -108 -32 -160 -40 -85 -14 -105 -14 -190 0 -328 53 -582 283 -667 605 -110 420 219 884 672 948 92 13 86 13 187 -3z m737 -107 c36 -18 66 -35 66 -39 0 -4 -12 -10 -27 -14 -62 -15 -161 -94 -198 -159 -9 -16 -13 -16 -58 0 -57 19 -127 81 -127 113 0 50 63 103 150 128 62 17 117 9 194 -29z m489 -498 c9 -73 58 -208 108 -297 55 -96 196 -246 294 -311 92 -62 231 -118 341 -137 145 -25 393 -15 510 20 37 12 -123 -69 -221 -111 -148 -63 -289 -109 -448 -148 -143 -35 -359 -76 -403 -76 -13 0 -24 -3 -24 -7 0 -12 -159 -18 -470 -18 -221 1 -314 5 -415 19 -71 10 -134 20 -138 23 -5 3 20 21 55 41 94 55 272 237 327 335 86 153 121 293 121 488 l0 116 71 7 c84 8 165 34 228 76 25 16 49 30 52 30 3 0 9 -23 12 -50z m2396 -254 c117 -99 224 -224 272 -322 52 -104 58 -148 27 -194 -29 -43 -79 -77 -126 -86 -110 -21 -302 116 -469 333 l-61 81 33 32 33 32 99 -79 c116 -95 131 -103 177 -103 58 0 78 28 74 102 l-3 62 -60 50 c-33 28 -80 67 -104 87 l-44 36 23 26 c13 15 28 23 34 20 6 -3 49 -38 95 -77z m-3709 -883 c0 -5 -7 -33 -15 -63 -19 -72 -20 -174 -1 -189 9 -7 39 -11 77 -9 63 3 64 3 86 43 12 23 29 67 37 99 9 33 18 61 20 63 5 6 69 -7 84 -16 23 -14 -32 -250 -79 -343 -25 -49 -75 -105 -109 -123 -53 -27 -152 42 -204 142 -47 93 -54 218 -19 346 l16 57 53 0 c30 0 54 -3 54 -7z"></path><path id="pWStTrfdP" d="M5655 2098 c-2 -7 -6 -35 -10 -63 -17 -137 -117 -235 -240 -235 -83 0 -169 59 -217 148 -16 29 -21 32 -66 32 -26 0 -53 -5 -60 -12 -19 -19 -15 -114 7 -156 81 -158 344 -219 538 -125 120 58 183 155 191 291 6 116 -3 132 -80 132 -38 0 -60 -4 -63 -12z"></path><path id="p5AzuttW3" d="M3351 1701 c-8 -5 -18 -37 -22 -70 -10 -73 -35 -124 -81 -168 -40 -39 -112 -72 -154 -73 -74 0 -158 51 -208 127 -29 45 -34 48 -79 51 -69 4 -80 -8 -75 -83 5 -74 44 -137 115 -184 75 -50 139 -64 267 -59 100 4 117 8 171 35 75 39 136 101 169 173 21 46 26 70 26 142 0 78 -2 88 -22 102 -24 17 -85 21 -107 7z"></path></g></g><g id="l5CUCimMabhJQjKUP9pgFiH" fill="rgb(84,105,191)" style="transform: none;"><g><path id="p19VotAZne" d="M4140 6291 c0 -14 12 -22 45 -30 42 -11 48 -9 98 19 l52 30 -97 0 c-89 0 -98 -2 -98 -19z"></path><path id="pVQBiOynZ" d="M4492 6258 c-80 -41 -93 -55 -73 -86 4 -8 27 -16 50 -19 24 -3 45 -12 48 -19 3 -8 16 -14 29 -14 13 0 24 -4 24 -10 0 -5 18 -13 40 -16 22 -4 40 -10 40 -15 0 -5 13 -9 30 -9 16 0 33 -6 37 -14 9 -16 106 -66 127 -66 24 0 66 -22 66 -35 0 -14 43 -35 70 -35 11 0 20 -7 20 -15 0 -8 7 -15 16 -15 23 0 74 -32 74 -47 0 -7 6 -13 14 -13 8 0 16 -7 20 -15 3 -8 13 -15 22 -15 22 0 114 -70 114 -87 0 -7 9 -13 20 -13 11 0 20 -5 20 -11 0 -15 26 -39 44 -39 8 0 18 -10 21 -22 9 -28 44 -68 61 -68 21 0 114 -91 114 -112 0 -11 8 -22 20 -25 11 -3 20 -12 20 -19 0 -8 4 -14 10 -14 15 0 90 -78 90 -93 0 -8 8 -17 19 -20 10 -2 24 -18 32 -36 8 -17 17 -31 21 -31 5 0 8 -7 8 -15 0 -8 5 -15 10 -15 6 0 10 -7 10 -15 0 -8 5 -15 10 -15 6 0 10 -7 10 -15 0 -9 7 -18 15 -21 8 -4 15 -12 15 -19 0 -7 9 -15 20 -18 13 -3 22 -17 26 -36 4 -17 13 -31 20 -31 8 0 14 -10 14 -25 0 -14 5 -25 10 -25 6 0 10 -7 10 -15 0 -8 5 -15 10 -15 6 0 10 -7 10 -15 0 -8 5 -15 10 -15 6 0 10 -7 10 -15 0 -8 5 -15 10 -15 6 0 10 -7 10 -15 0 -8 5 -15 10 -15 6 0 10 -7 10 -15 0 -8 5 -15 10 -15 6 0 10 -6 10 -14 0 -8 7 -16 15 -20 8 -3 15 -15 15 -26 0 -11 9 -28 21 -38 25 -21 49 -64 49 -90 0 -11 11 -31 25 -46 14 -15 25 -35 25 -45 0 -15 11 -19 53 -24 50 -5 298 -92 431 -151 33 -14 60 -25 61 -24 2 2 -8 26 -20 53 -13 28 -40 88 -60 135 -82 192 -225 444 -371 657 -222 322 -453 551 -764 758 -161 107 -429 243 -451 229 -5 -3 -9 -1 -9 4 0 5 -8 12 -17 15 -187 57 -271 80 -342 93 -47 8 -93 17 -101 20 -8 2 -52 -15 -98 -38z"></path><path id="p120wB2TOb" d="M4795 5418 l-51 -10 21 -44 c24 -51 45 -57 45 -14 0 23 4 30 20 30 15 0 20 7 20 25 0 14 -1 24 -2 24 -2 -1 -26 -6 -53 -11z"></path><path id="ppPAPZfuY" d="M4670 5150 c0 -11 -4 -20 -10 -20 -5 0 -10 -20 -10 -45 0 -41 2 -45 24 -45 27 0 36 16 36 65 0 18 -3 40 -6 49 -9 23 -34 20 -34 -4z"></path><path id="pKImIGMKd" d="M6594 3375 c-6 -26 14 -156 26 -165 5 -4 21 -96 37 -222 3 -21 8 -38 12 -38 4 0 5 -18 3 -40 -3 -27 0 -40 8 -40 9 0 10 -20 5 -80 -5 -56 -4 -80 4 -80 6 0 11 -13 11 -30 0 -16 -5 -30 -11 -30 -9 0 -10 -24 -6 -84 3 -47 3 -86 -1 -88 -4 -2 -18 -68 -30 -148 -30 -189 -43 -250 -53 -250 -5 0 -11 -17 -14 -37 -7 -42 -45 -145 -56 -153 -4 -3 -14 -27 -23 -53 -17 -52 -44 -109 -55 -117 -4 -3 -22 -34 -40 -70 -18 -36 -40 -72 -47 -81 -8 -8 -14 -23 -14 -32 0 -9 -4 -17 -10 -17 -5 0 -10 -16 -10 -36 l0 -36 38 31 c221 178 444 468 541 704 57 141 114 346 109 394 -2 17 -1 30 3 28 3 -3 9 26 13 63 17 184 -9 507 -42 527 -10 5 -101 54 -204 108 l-188 97 -6 -25z"></path><path id="p1B4vzS7j9" d="M1760 3057 c0 -28 -29 -57 -56 -57 -11 0 -30 9 -42 20 l-22 21 0 -36 c0 -29 5 -37 26 -45 42 -16 73 -11 104 17 23 20 30 35 30 65 0 31 -3 38 -20 38 -14 0 -20 -7 -20 -23z"></path><path id="p18MvGEvz5" d="M3470 676 c0 -16 6 -26 15 -26 8 0 15 -4 15 -9 0 -10 38 -26 45 -19 2 1 6 15 10 29 6 23 3 27 -22 33 -15 4 -36 9 -45 12 -14 4 -18 -1 -18 -20z"></path></g></g><g id="l5zs7Rntazh1vR6TgxWNIPP" fill="rgb(114,135,218)" style="transform: none;"><g><path id="p4CHGeasN" d="M3970 6294 c-207 -22 -606 -106 -595 -125 4 -5 0 -6 -8 -3 -8 3 -58 -9 -111 -26 -412 -132 -771 -350 -1042 -632 -176 -183 -323 -382 -410 -552 -48 -96 -46 -95 -224 -83 -303 20 -789 120 -1002 206 -46 19 -48 19 -71 1 -30 -24 -112 -143 -164 -240 -85 -157 -168 -433 -179 -597 -4 -51 -4 -93 0 -93 4 0 28 11 54 24 68 35 178 132 247 217 105 131 104 131 243 -2 233 -223 506 -383 797 -468 61 -18 116 -38 123 -45 7 -7 17 -60 23 -132 14 -163 53 -416 89 -576 l29 -133 -27 -26 c-29 -27 -47 -27 -73 1 -28 28 -39 57 -59 151 -10 50 -22 94 -25 98 -9 8 -365 -356 -492 -505 -126 -146 -265 -330 -326 -432 -67 -111 -143 -294 -163 -391 -31 -157 -2 -281 75 -320 62 -32 125 -28 210 15 78 39 126 84 504 474 114 118 237 240 273 270 164 138 167 141 204 138 32 -3 36 -7 64 -73 121 -286 209 -467 302 -618 l42 -67 6 57 c17 141 79 304 160 416 58 81 185 204 263 255 187 120 441 168 676 127 86 -15 212 -59 275 -96 29 -17 32 -17 23 -1 -20 39 -73 280 -86 395 -17 145 -19 399 -4 482 28 152 120 242 282 275 76 15 180 -1 263 -40 98 -47 219 -190 303 -358 47 -95 159 -382 179 -461 l19 -73 49 -18 c27 -9 59 -22 70 -28 18 -10 28 -4 80 49 246 251 654 329 996 192 125 -50 219 -115 324 -226 173 -182 254 -384 254 -637 0 -253 -81 -455 -254 -637 -105 -111 -199 -176 -324 -226 -282 -113 -622 -80 -867 85 -98 65 -239 215 -294 311 -56 100 -99 225 -113 329 l-10 83 -48 -46 c-26 -26 -76 -61 -111 -77 -67 -32 -180 -57 -227 -50 l-27 4 4 -111 c8 -267 -72 -481 -249 -668 -100 -106 -184 -168 -286 -212 -80 -35 -81 -34 11 -54 166 -36 368 -52 640 -52 653 1 1229 151 1712 447 126 77 290 195 355 255 25 24 50 45 55 47 4 1 8 11 8 21 0 10 5 24 11 32 6 8 24 39 40 69 16 30 33 58 39 62 7 5 7 8 0 8 -6 0 -5 3 1 8 16 10 64 108 57 116 -4 3 -1 6 6 6 7 0 9 4 6 10 -3 5 -1 10 5 10 7 0 10 6 7 14 -3 8 -2 16 2 18 12 5 62 138 56 149 -4 5 -1 9 5 9 7 0 10 7 6 15 -3 8 -2 15 2 15 11 0 44 139 36 151 -3 5 0 9 6 9 8 0 10 9 6 25 -4 16 -2 25 5 25 7 0 10 12 7 30 -3 17 0 30 5 30 5 0 7 13 5 30 -3 16 0 30 5 30 5 0 7 16 5 35 -2 19 0 35 5 35 6 0 7 34 3 85 -4 55 -3 85 4 85 6 0 10 26 10 60 0 33 -3 60 -8 60 -4 0 -6 36 -4 80 2 44 0 80 -5 80 -5 0 -7 18 -5 40 2 22 0 40 -5 40 -5 0 -7 16 -5 35 2 20 0 35 -6 35 -6 0 -8 9 -5 20 3 11 1 20 -4 20 -5 0 -7 16 -5 35 2 19 0 35 -5 35 -5 0 -8 13 -5 29 2 17 -2 34 -10 42 -8 7 -12 23 -10 36 2 13 0 23 -5 23 -6 0 -8 11 -5 25 2 14 0 25 -5 25 -6 0 -8 10 -6 23 4 21 -9 30 -153 98 -87 41 -163 80 -171 87 -16 17 -17 64 -1 80 22 22 79 13 175 -29 151 -64 547 -267 808 -414 465 -261 590 -322 709 -344 96 -18 165 0 218 56 37 38 48 73 48 146 -1 239 -202 445 -735 752 -353 203 -984 490 -1290 585 -50 16 -85 47 -85 75 0 25 29 55 52 55 10 0 14 9 13 28 -2 32 -22 72 -36 72 -6 0 -7 5 -4 10 3 6 1 10 -5 10 -6 0 -8 4 -5 10 8 13 -32 90 -50 97 -8 3 -12 9 -9 14 3 5 1 9 -5 9 -6 0 -8 6 -5 14 3 8 -4 20 -15 28 -12 8 -18 18 -15 21 4 4 -1 9 -10 13 -9 3 -13 10 -10 15 3 5 -1 12 -10 15 -8 3 -12 12 -9 20 3 8 -1 14 -11 14 -10 0 -13 6 -10 15 4 9 0 15 -10 15 -10 0 -13 6 -10 15 4 9 0 15 -10 15 -10 0 -13 6 -10 15 4 10 0 15 -11 15 -9 0 -14 4 -11 9 9 14 -5 41 -21 41 -8 0 -11 4 -8 10 8 13 -24 60 -41 60 -7 0 -11 6 -8 14 3 8 -3 16 -15 19 -14 3 -19 10 -15 21 4 11 1 16 -11 16 -9 0 -13 5 -10 10 3 6 0 13 -9 16 -8 3 -12 12 -9 20 3 8 -1 14 -11 14 -9 0 -15 3 -14 8 4 13 -34 62 -49 62 -8 0 -12 4 -8 9 6 11 -79 101 -95 101 -5 0 -10 6 -10 14 0 7 -9 16 -21 19 -12 3 -18 10 -15 16 9 14 -67 96 -107 115 -31 14 -65 44 -66 56 0 20 -16 40 -33 40 -10 0 -16 5 -13 10 3 6 -1 10 -9 10 -9 0 -16 7 -16 15 0 8 -9 15 -21 15 -11 0 -18 4 -15 9 7 11 -96 91 -118 91 -9 0 -19 7 -22 15 -4 8 -12 15 -20 15 -8 0 -14 6 -14 13 0 15 -51 47 -74 47 -9 0 -16 7 -16 15 0 8 -9 15 -20 15 -27 0 -70 21 -70 35 0 13 -42 35 -66 35 -21 0 -111 47 -134 70 -12 12 -26 17 -36 13 -9 -3 -20 0 -25 8 -4 7 -22 14 -40 15 -18 1 -36 9 -41 17 -5 9 -15 14 -24 10 -8 -3 -20 1 -27 10 -7 8 -30 17 -51 20 -38 6 -60 23 -50 39 19 31 -91 -33 -206 -118 -189 -141 -310 -277 -310 -349 0 -220 557 -759 743 -719 25 5 40 34 17 34 -5 0 -10 7 -10 15 0 8 7 15 15 15 40 0 -27 193 -115 334 -30 47 -87 125 -127 173 -73 88 -88 124 -61 151 42 42 120 -13 240 -170 45 -60 54 -67 77 -62 14 3 70 17 123 30 53 13 103 24 112 24 25 0 46 -30 46 -65 0 -28 -6 -37 -27 -48 -29 -15 -139 -51 -159 -52 -20 -1 -42 -31 -34 -46 4 -8 20 -58 35 -112 108 -388 -162 -470 -541 -164 -167 135 -344 348 -416 504 -46 97 -51 198 -14 278 41 89 252 288 394 370 40 24 40 34 2 42 -16 3 -30 9 -30 13 0 11 -95 9 -230 -6z"></path><path id="ppC3WU1Vg" d="M6790 1718 c-13 -17 -23 -37 -23 -44 0 -7 -3 -11 -7 -9 -4 3 -16 -5 -26 -16 -18 -20 -18 -21 11 -42 81 -59 210 -175 213 -191 11 -54 -29 -97 -70 -75 -28 15 -148 110 -205 162 l-43 39 -50 -48 c-28 -27 -55 -50 -60 -52 -19 -7 -9 -26 59 -116 181 -238 343 -356 488 -356 95 1 181 56 199 126 35 139 -102 363 -345 564 -57 47 -106 86 -110 88 -4 1 -18 -12 -31 -30z"></path><path id="pFyTJLOTL" d="M3085 760 c-15 -26 -37 -132 -41 -205 -12 -185 54 -337 170 -391 84 -39 134 -29 196 43 60 68 105 191 131 365 13 83 11 91 -41 115 -28 13 -89 33 -100 33 -4 0 -13 -26 -19 -59 -6 -32 -24 -83 -39 -112 -24 -47 -31 -54 -60 -57 -67 -7 -75 24 -41 164 11 47 17 90 12 95 -9 8 -163 17 -168 9z"></path></g></g><g id="l2eIsO10N5p9I9rnR9jWw4B" fill="rgb(164,194,222)" style="transform: none;"><g><path id="pu6UcAxCG" d="M4430 2577 c-90 -31 -177 -91 -211 -146 -58 -95 -46 -91 -139 -46 -77 37 -88 40 -169 40 -74 0 -95 -4 -143 -28 -181 -89 -122 -259 104 -301 32 -6 37 -4 43 15 11 32 81 105 128 132 159 92 397 98 477 12 13 -14 29 -25 36 -25 24 0 133 91 162 135 40 61 48 106 25 153 -39 80 -176 106 -313 59z"></path></g></g><g id="l6OUziiex4fAZCmwnu80xLe" fill="rgb(160,223,231)" style="transform: none;"><g><path id="px1jOYBCu" d="M3876 3529 c-84 -20 -142 -84 -159 -176 -6 -30 -3 -33 64 -73 146 -89 279 -115 438 -86 45 8 86 18 89 21 13 12 -74 159 -123 211 -58 59 -107 87 -183 103 -60 13 -72 13 -126 0z"></path></g></g><g id="l4rouyXFpf7MGPhDWmp4UG9" fill="rgb(255,255,255)" style="transform: none;"><g><path id="p1BIJqDfHP" d="M4093 2897 c3 -8 13 -55 23 -105 10 -54 21 -89 27 -85 6 4 7 1 2 -6 -8 -14 13 -131 24 -131 3 0 29 16 56 36 28 20 61 40 74 45 30 12 24 38 -29 129 -60 102 -90 130 -140 130 -31 0 -41 -4 -37 -13z"></path><path id="pRsRRlppg" d="M3942 2870 c-23 -11 -45 -27 -49 -36 -8 -20 14 -236 28 -271 8 -21 15 -23 70 -23 60 0 61 1 55 24 -11 46 -46 261 -46 288 0 37 -9 40 -58 18z"></path><path id="p7U1T4t2q" d="M5360 2868 c-156 -22 -320 -102 -439 -215 l-71 -68 15 -50 c33 -103 -12 -214 -126 -318 l-74 -68 1 -102 c3 -227 96 -435 261 -586 126 -116 263 -181 440 -208 90 -14 118 -14 204 -3 242 31 444 151 579 346 101 146 143 282 143 464 0 180 -41 314 -140 461 -124 184 -320 307 -546 344 -101 16 -150 17 -247 3z m400 -813 c31 -59 -13 -199 -88 -273 -79 -78 -234 -125 -337 -101 -136 31 -255 135 -255 222 0 53 52 64 78 15 65 -120 192 -178 319 -145 110 29 175 102 195 219 15 89 14 88 46 88 20 0 33 -7 42 -25z"></path><path id="pYJtXTaFh" d="M3090 2498 c-215 -30 -430 -165 -553 -347 -99 -147 -140 -281 -140 -461 0 -237 87 -440 257 -597 127 -117 264 -182 443 -210 90 -14 118 -14 204 -3 350 44 626 289 705 626 18 77 23 229 11 315 -7 52 -13 61 -58 99 -39 32 -66 46 -117 57 -90 21 -137 43 -198 91 -72 57 -109 132 -101 206 3 29 15 72 26 94 12 23 21 43 21 46 0 13 -170 68 -252 81 -102 16 -151 17 -248 3z m338 -834 c32 -22 31 -110 -4 -184 -93 -201 -359 -274 -547 -149 -83 55 -141 166 -103 198 25 21 49 9 82 -42 57 -87 133 -127 238 -127 141 1 245 95 265 241 7 52 20 78 41 79 3 0 16 -7 28 -16z"></path></g></g></svg>
