<svg width="217" height="217" viewBox="0 0 217 217" fill="none" xmlns="http://www.w3.org/2000/svg">
<path fill-rule="evenodd" clip-rule="evenodd" d="M36.3132 2.07205C51.4249 1.30084 63.7319 6.72114 73.234 18.3332C74.7349 20.3712 76.0232 22.5483 77.0994 24.8643C78.6986 25.2639 80.2093 25.8858 81.6312 26.7304C83.1003 27.8449 84.5665 28.9557 86.0297 30.0626C97.0388 23.9558 108.857 20.9345 121.484 20.999C136.597 20.7892 150.681 24.4325 163.737 31.9286C169.826 25.3186 177.201 23.3193 185.863 25.9306C192.509 28.9827 195.885 34.1809 195.992 41.5254C195.917 48.5203 192.984 53.9409 187.195 57.7865C190.179 63.5827 192.178 69.7139 193.193 76.1803C194.452 86.0026 194.985 95.8659 194.793 105.77C201.984 113.321 208.471 121.407 214.253 130.029C215.048 131.261 215.537 132.594 215.719 134.027C215.724 135.394 215.191 136.505 214.12 137.36C216.707 142.089 217.551 147.109 216.652 152.421C215.163 156.796 212.097 159.106 207.455 159.352C203.142 158.994 199.454 157.306 196.392 154.287C196.932 163.261 197.421 172.192 197.859 181.078C198.191 183.28 197.569 185.146 195.992 186.676C193.196 188.142 190.263 189.297 187.195 190.142C180.603 198.019 172.517 203.884 162.937 207.736C148.825 212.773 134.297 215.127 119.352 214.8C108.496 214.506 97.7889 213.04 87.2293 210.402C76.5785 207.476 66.9817 202.588 58.439 195.74C55.805 193.239 53.3168 190.618 50.9749 187.876C47.4116 186.554 43.9461 184.999 40.5784 183.211C38.9363 182.152 37.9588 180.641 37.6461 178.679C39.7584 159.538 42.6908 140.522 46.4431 121.632C46.3543 121.32 46.2653 121.01 46.1765 120.699C37.8154 114.918 32.2618 107.098 29.5155 97.2398C28.7608 93.7008 28.672 90.1462 29.2489 86.5768C30.525 82.7693 32.9685 80.0147 36.5798 78.3129C36.3646 76.4522 36.1426 74.5862 35.9133 72.7148C24.9232 65.1907 13.8603 57.7708 2.72456 50.4557C0.641347 47.8142 -0.247232 44.7928 0.058798 41.3921C0.985471 22.1626 10.5822 9.54471 28.8491 3.53822C31.3466 2.90083 33.8346 2.4122 36.3132 2.07205ZM55.7733 63.3846C55.9396 63.4958 56.0284 63.6736 56.0398 63.9178C55.1386 67.4105 54.7387 70.9647 54.8403 74.5808C53.8497 78.3785 52.9612 82.1993 52.1745 86.0436C50.8504 84.4524 49.4285 82.942 47.9093 81.5118C47.5235 78.5941 47.3457 75.6618 47.3761 72.7148C50.3351 69.7134 53.1342 66.6033 55.7733 63.3846Z" fill="#030404"/>
<path fill-rule="evenodd" clip-rule="evenodd" d="M36.5798 7.13696C51.3777 6.51637 62.885 12.292 71.1014 24.4644C72.8997 27.2824 74.0103 30.348 74.4336 33.6613C74.427 35.0286 74.1159 36.3169 73.5006 37.5267C65.8229 45.8268 58.0477 54.0461 50.1752 62.185C46.7395 60.2185 43.0075 59.5075 38.979 60.0524C36.1223 60.5032 33.7231 61.7915 31.7814 63.9177C23.0947 58.0861 14.431 52.2214 5.79019 46.3237C3.83219 30.9124 9.56358 19.2273 22.9844 11.2689C27.3101 9.10029 31.8419 7.72316 36.5798 7.13696Z" fill="#FDFDFD"/>
<path fill-rule="evenodd" clip-rule="evenodd" d="M57.3728 35.9273C55.8581 29.4335 51.7704 26.7232 45.1102 27.7967C40.9071 29.6627 38.5525 32.9061 38.046 37.5267C35.0342 42.2035 30.9023 43.5807 25.6502 41.6587C22.5091 39.9502 20.7318 37.3286 20.3186 33.7946C21.3911 24.9574 26.1894 19.3147 34.7138 16.867C42.4733 15.5424 48.8266 17.8974 53.774 23.9313C56.2902 27.5266 57.4898 31.5253 57.3728 35.9273Z" fill="#E74238"/>
<path fill-rule="evenodd" clip-rule="evenodd" d="M57.3727 35.9272C56.5333 44.1783 52.2681 49.7319 44.5771 52.5883C36.237 54.7835 29.3502 52.6064 23.9174 46.0571C21.427 42.364 20.2274 38.2766 20.3186 33.7946C20.7318 37.3286 22.5091 39.9501 25.6501 41.6586C30.9022 43.5807 35.0342 42.2035 38.0459 37.5267C38.5524 32.9061 40.9071 29.6627 45.1102 27.7967C51.7704 26.7232 55.858 29.4334 57.3727 35.9272Z" fill="#2563AF"/>
<path fill-rule="evenodd" clip-rule="evenodd" d="M79.232 31.3954C80.1733 31.7145 80.973 32.2477 81.6312 32.9949C80.9202 33.5281 80.2096 34.0612 79.4986 34.5944C79.2344 33.5427 79.1456 32.4764 79.232 31.3954Z" fill="#63AFB2"/>
<path fill-rule="evenodd" clip-rule="evenodd" d="M116.819 26.0639C129.768 25.4463 142.208 27.6234 154.14 32.595C157.628 34.4272 161.093 36.249 164.536 38.0599C165.371 38.0204 166.037 37.6648 166.536 36.9936C168.643 32.9379 171.975 30.4942 176.532 29.6627C183.998 28.6604 188.841 31.726 191.061 38.8596C191.952 46.6772 188.842 52.1863 181.731 55.3873C181.342 56.1513 181.253 56.9511 181.464 57.7865C184.633 62.8821 186.765 68.3912 187.862 74.3143C189.378 83.4059 190 92.5582 189.728 101.772C163.47 113.13 136.812 123.438 109.755 132.695C108.074 132.143 106.43 131.477 104.823 130.695C87.9592 121.999 71.5205 112.624 55.5067 102.571C55.4179 102.172 55.3289 101.772 55.2401 101.372C55.6325 97.7727 56.0324 94.1739 56.4397 90.5754C56.7087 87.9432 57.1973 85.3663 57.9059 82.8447C64.3264 92.4942 73.2125 96.0043 84.5635 93.3745C86.6117 92.7504 88.5665 91.9062 90.4282 90.842C91.4639 95.0766 94.1296 97.5645 98.4255 98.3061C98.4487 101.955 99.3817 105.332 101.225 108.436C103.674 110.226 106.429 111.026 109.488 110.835C112.1 111.06 114.544 110.571 116.819 109.369C118.103 108.263 118.947 106.885 119.352 105.237C119.964 103.232 120.364 101.188 120.551 99.1059C126.186 98.1326 128.985 94.7561 128.949 88.976C137.998 97.2076 148.084 98.7628 159.205 93.6411C167.197 88.9496 171.373 81.9298 171.734 72.5815C171.298 61.0334 165.788 53.0361 155.206 48.5896C142.564 44.6763 132.745 48.2751 125.75 59.386C122.165 66.4417 121.543 73.7281 123.884 81.2452C122.454 79.975 120.81 79.0865 118.952 78.5795C116.2 74.0957 112.201 72.3629 106.956 73.3812C104.538 73.8104 102.628 75.01 101.225 76.98C103.187 68.7628 101.765 61.2099 96.9594 54.321C90.6124 47.5017 82.8375 44.8805 73.6339 46.457C85.2468 33.8538 99.6419 27.0561 116.819 26.0639Z" fill="#63B6B8"/>
<path fill-rule="evenodd" clip-rule="evenodd" d="M177.865 39.1261C179.086 39.023 180.242 39.2453 181.331 39.7926C182.1 41.1036 182.011 42.3477 181.064 43.5247C178.973 44.5494 177.196 45.971 175.733 47.7899C173.047 48.2476 171.937 47.1368 172.4 44.4577C173.65 42.0974 175.472 40.3201 177.865 39.1261Z" fill="#020304"/>
<path fill-rule="evenodd" clip-rule="evenodd" d="M76.2997 50.8555C84.313 50.2469 90.4888 53.268 94.8268 59.9191C98.3879 67.8801 97.677 75.4333 92.6941 82.5781C84.928 90.868 76.2642 91.9786 66.7029 85.9103C59.7887 79.4421 58.056 71.7559 61.5047 62.8514C64.3547 56.2195 69.2863 52.2209 76.2997 50.8555Z" fill="#FDFDFD"/>
<path fill-rule="evenodd" clip-rule="evenodd" d="M144.277 51.9218C156.389 51.9074 163.809 57.7721 166.536 69.5159C167.278 78.8295 163.591 85.7163 155.473 90.1756C145.58 93.4539 137.272 91.0992 130.548 83.1113C126.884 77.0256 126.262 70.6278 128.682 63.9178C131.772 57.1363 136.97 53.1377 144.277 51.9218Z" fill="#FDFDFD"/>
<path fill-rule="evenodd" clip-rule="evenodd" d="M84.0304 62.5849C88.4827 62.3431 91.193 64.3866 92.161 68.7161C92.5179 71.9548 91.4961 74.665 89.0953 76.8467C84.5116 79.2853 81.0903 78.1748 78.8321 73.5145C77.4419 69.4324 78.4637 66.1002 81.8978 63.5179C82.6063 63.1239 83.3173 62.8128 84.0304 62.5849Z" fill="#030303"/>
<path fill-rule="evenodd" clip-rule="evenodd" d="M141.344 63.6512C147.11 63.885 149.909 66.9061 149.741 72.7148C148.787 77.6555 145.811 79.9214 140.811 79.5125C136.557 77.8053 134.735 74.6509 135.346 70.049C136.211 66.8298 138.211 64.6972 141.344 63.6512Z" fill="#030303"/>
<path fill-rule="evenodd" clip-rule="evenodd" d="M99.7584 82.8446C100.024 82.8217 100.246 82.9108 100.425 83.1112C101.848 85.8911 104.114 87.5351 107.223 88.0429C112.028 89.0236 115.937 87.6465 118.952 83.911C123.072 85.5744 124.449 88.5067 123.084 92.708C120.81 94.7449 118.189 95.3226 115.22 94.4407C113.666 93.9228 112.156 93.3008 110.688 92.5747C107.809 92.2305 105.055 92.6749 102.424 93.9076C98.3362 94.6244 95.937 92.9804 95.2266 88.9759C95.4329 85.9313 96.9433 83.8875 99.7584 82.8446Z" fill="#F7CB91"/>
<path fill-rule="evenodd" clip-rule="evenodd" d="M38.4458 83.1113C41.26 83.1009 43.6592 84.0782 45.6434 86.0436C48.0407 88.4004 49.8622 91.155 51.1082 94.3075C50.4087 101.405 49.2091 108.425 47.5094 115.367C43.4526 112.599 40.298 109.045 38.0459 104.704C36.1002 101.079 34.6785 97.2582 33.7807 93.2412C32.9498 89.6048 33.8828 86.5392 36.5798 84.0443C37.2262 83.7209 37.8484 83.4101 38.4458 83.1113Z" fill="#63B6B8"/>
<path fill-rule="evenodd" clip-rule="evenodd" d="M106.689 97.2398C107.759 97.1955 108.826 97.24 109.888 97.373C111.857 98.281 113.9 98.9474 116.02 99.3724C115.692 100.696 115.381 102.029 115.087 103.371C114.646 105.082 113.535 106.015 111.754 106.17C109.444 106.526 107.222 106.26 105.09 105.37C104.362 104.67 103.873 103.826 103.624 102.838C103.453 101.317 103.231 99.8061 102.957 98.3061C104.323 98.2767 105.567 97.9211 106.689 97.2398Z" fill="#FBFBFB"/>
<path fill-rule="evenodd" clip-rule="evenodd" d="M53.9073 107.37C69.6779 117.168 85.7613 126.498 102.158 135.36C97.2473 137.279 92.3601 139.278 87.4959 141.358C85.2844 143.065 83.6849 145.242 82.6975 147.889C70.9047 146.471 59.2641 144.161 47.776 140.958C49.6826 129.737 51.7264 118.541 53.9073 107.37Z" fill="#FDFDFD"/>
<path fill-rule="evenodd" clip-rule="evenodd" d="M149.608 149.489C149.112 149.847 148.579 150.113 148.009 150.288C138.064 150.801 128.112 150.934 118.152 150.688C116.183 149.904 114.139 149.459 112.021 149.355C108.713 149.094 105.425 149.228 102.158 149.755C101.891 149.711 101.624 149.667 101.358 149.622C100.637 148.812 99.8376 148.101 98.9587 147.489C98.228 147.229 97.4725 147.096 96.6928 147.09C93.8774 147.336 91.1229 147.87 88.4289 148.689C88.2068 148.645 87.9845 148.6 87.7625 148.556C88.3676 147.346 89.1673 146.28 90.1616 145.357C109.693 138.106 129.242 130.908 148.808 123.764C162.267 118.508 175.641 113.043 188.928 107.37C190.694 108.868 192.382 110.468 193.993 112.168C199.75 118.322 204.948 124.898 209.588 131.895C204.157 134.321 199.403 137.698 195.326 142.025C194.482 143.18 193.638 144.335 192.794 145.49C190.539 143.116 188.54 140.54 186.796 137.759C186.307 137.271 185.818 136.782 185.329 136.293C183.07 135.62 181.959 136.464 181.997 138.826C182.909 141.113 184.197 143.157 185.863 144.957C182.285 145.916 178.686 146.805 175.066 147.623C174.844 147.578 174.622 147.534 174.4 147.489C178.196 144.197 178.863 140.332 176.399 135.893C174.655 133.711 172.389 132.556 169.601 132.428C168.393 126.115 164.661 123.76 158.405 125.364C155.616 126.778 154.017 129.043 153.607 132.161C146.912 133.384 144.291 137.294 145.743 143.891C146.499 145.803 147.743 147.313 149.475 148.422C149.606 148.767 149.65 149.123 149.608 149.489Z" fill="#FDFDFD"/>
<path fill-rule="evenodd" clip-rule="evenodd" d="M208.522 138.293C209.031 138.312 209.342 138.579 209.455 139.092C211.225 142.531 212.025 146.174 211.854 150.022C211.382 153.602 209.383 154.979 205.856 154.154C202.347 153.023 199.504 150.979 197.325 148.023C198.353 146.193 199.686 144.593 201.324 143.224C203.556 141.311 205.955 139.667 208.522 138.293Z" fill="#63B5B8"/>
<path fill-rule="evenodd" clip-rule="evenodd" d="M160.804 129.496C164.116 129.744 165.493 131.521 164.936 134.827C163.371 138.855 164.393 139.611 168.002 137.093C171.981 136.656 173.537 138.389 172.667 142.291C172.178 142.78 171.69 143.269 171.201 143.757C169.293 144.111 167.382 144.244 165.469 144.157C165.292 144.513 165.292 144.868 165.469 145.224C166.898 145.941 167.964 147.007 168.668 148.422C168.818 151.827 167.263 153.027 164.003 152.021C162.882 150.785 162.304 149.319 162.271 147.623C161.898 147.082 161.454 146.994 160.938 147.356C160.952 149.297 160.285 150.941 158.938 152.288C155.538 153.066 154.072 151.689 154.54 148.156C155.276 146.942 156.254 145.965 157.472 145.224C157.65 144.868 157.65 144.513 157.472 144.157C155.763 144.108 154.031 144.064 152.274 144.024C150.426 143.022 149.76 141.467 150.275 139.359C151.81 136.747 153.898 136.258 156.539 137.893C157.897 139.286 158.785 139.019 159.205 137.093C159.006 136.295 158.695 135.54 158.272 134.827C157.742 132.385 158.586 130.607 160.804 129.496Z" fill="#F79C15"/>
<path fill-rule="evenodd" clip-rule="evenodd" d="M160.271 138.826C163.542 138.41 164.831 139.832 164.137 143.091C162.339 145.295 160.65 145.206 159.072 142.824C158.894 141.936 158.894 141.047 159.072 140.159C159.345 139.576 159.745 139.131 160.271 138.826Z" fill="#060301"/>
<path fill-rule="evenodd" clip-rule="evenodd" d="M47.2428 146.023C58.1202 148.542 69.0499 150.853 80.0317 152.954C77.6976 155.958 75.7425 159.202 74.1671 162.684C64.4453 161.643 54.8928 159.732 45.5101 156.953C45.7764 153.268 46.3541 149.624 47.2428 146.023Z" fill="#2364AE"/>
<path fill-rule="evenodd" clip-rule="evenodd" d="M149.608 149.489C149.608 149.755 149.608 150.022 149.608 150.288C149.075 150.288 148.542 150.288 148.009 150.288C148.579 150.113 149.112 149.847 149.608 149.489Z" fill="#6D6D6D"/>
<path fill-rule="evenodd" clip-rule="evenodd" d="M188.262 149.222C189.448 149.127 190.381 149.571 191.061 150.555C191.576 153.644 191.799 156.754 191.727 159.885C186.193 160.877 180.684 161.987 175.2 163.217C157.255 165.822 139.217 166.932 121.085 166.55C121.482 164.259 121.749 161.948 121.884 159.619C121.877 158.172 121.7 156.75 121.351 155.353C128.46 155.398 135.569 155.353 142.677 155.22C145.314 155.133 147.935 154.911 150.541 154.554C151.941 155.809 153.496 156.831 155.206 157.619C157.528 157.983 159.75 157.672 161.871 156.686C166.853 158.722 170.674 157.434 173.333 152.821C177.418 151.933 181.505 151.044 185.596 150.155C186.543 149.921 187.432 149.61 188.262 149.222Z" fill="#2364AE"/>
<path fill-rule="evenodd" clip-rule="evenodd" d="M95.4932 152.155C97.4192 151.99 98.5297 152.879 98.8254 154.82C99.551 158.029 99.2844 161.139 98.0256 164.15C97.062 165.054 95.9069 165.41 94.5602 165.217C92.2967 164.995 90.1195 164.418 88.029 163.484C87.232 162.517 86.7433 161.406 86.5629 160.152C86.3851 158.552 86.3851 156.953 86.5629 155.353C87.6566 154.573 88.8562 153.996 90.1616 153.621C91.9482 153.038 93.7255 152.549 95.4932 152.155Z" fill="#2364AE"/>
<path fill-rule="evenodd" clip-rule="evenodd" d="M104.823 153.754C108.133 153.654 111.421 153.876 114.687 154.42C115.723 155.013 116.478 155.857 116.953 156.953C117.293 159.948 117.026 162.88 116.153 165.75C115.532 167.704 114.243 168.37 112.287 167.749C109.206 167.256 106.319 166.234 103.624 164.684C104.111 161.154 104.156 157.6 103.757 154.021C104.183 154.092 104.539 154.003 104.823 153.754Z" fill="#2364AD"/>
<path fill-rule="evenodd" clip-rule="evenodd" d="M44.5771 161.751C53.7795 164.296 63.1097 166.295 72.5676 167.749C70.5179 173.282 69.0072 178.969 68.0358 184.81C68.317 186.249 69.1168 187.315 70.435 188.009C60.8902 186.145 51.7378 183.08 42.9776 178.812C42.8888 178.457 42.7998 178.101 42.711 177.746C43.3343 172.409 43.9562 167.078 44.5771 161.751Z" fill="#FCFCFC"/>
<path fill-rule="evenodd" clip-rule="evenodd" d="M191.727 164.417C192.18 164.898 192.402 165.52 192.394 166.283C192.735 171.705 193.002 177.126 193.193 182.544C192.224 183.14 191.202 183.629 190.128 184.01C179.128 187.765 167.843 190.253 156.273 191.475C134.679 193.733 113.086 193.777 91.4945 191.608C92.2593 184.503 93.0145 177.394 93.7604 170.282C93.9603 170.115 94.1827 169.982 94.4268 169.882C96.6821 170.039 98.7704 169.55 100.691 168.416C104.301 170.776 108.255 172.109 112.554 172.414C113.265 172.37 113.976 172.326 114.687 172.281C115.961 171.954 117.205 171.554 118.419 171.081C140.816 171.883 163.031 170.239 185.063 166.15C187.318 165.569 189.54 164.992 191.727 164.417Z" fill="#FDFDFD"/>
<path fill-rule="evenodd" clip-rule="evenodd" d="M81.098 159.086C81.9503 160.71 82.528 162.488 82.8308 164.417C84.1178 166.948 86.1617 168.458 88.962 168.949C88.5792 175.282 87.9128 181.591 86.9627 187.876C82.2899 187.162 77.8026 185.829 73.5006 183.877C74.6719 175.192 77.2044 166.928 81.098 159.086Z" fill="#2364AE"/>
<path fill-rule="evenodd" clip-rule="evenodd" d="M59.5054 190.275C94.4781 198.7 129.844 200.255 165.603 194.94C169.759 194.025 173.935 193.314 178.132 192.807C171.321 198.791 163.501 202.967 154.673 205.337C137.571 209.848 120.244 210.915 102.691 208.535C89.0508 206.952 76.5217 202.42 65.1035 194.94C63.1935 193.429 61.3274 191.874 59.5054 190.275Z" fill="#63B5B8"/>
</svg>
