<svg width="47" height="43" viewBox="0 0 47 43" fill="none" xmlns="http://www.w3.org/2000/svg">
<path d="M41.8333 5.45833H34.5687L30.3749 0.875H16.6249L12.4312 5.45833H5.16659C2.64575 5.45833 0.583252 7.52083 0.583252 10.0417V37.5417C0.583252 40.0625 2.64575 42.125 5.16659 42.125H41.8333C44.3541 42.125 46.4166 40.0625 46.4166 37.5417V10.0417C46.4166 7.52083 44.3541 5.45833 41.8333 5.45833ZM41.8333 37.5417H5.16659V10.0417H14.4478L18.6416 5.45833H28.3583L32.552 10.0417H41.8333V37.5417ZM23.4999 12.3333C17.1749 12.3333 12.0416 17.4667 12.0416 23.7917C12.0416 30.1167 17.1749 35.25 23.4999 35.25C29.8249 35.25 34.9583 30.1167 34.9583 23.7917C34.9583 17.4667 29.8249 12.3333 23.4999 12.3333ZM23.4999 30.6667C19.7187 30.6667 16.6249 27.5729 16.6249 23.7917C16.6249 20.0104 19.7187 16.9167 23.4999 16.9167C27.2812 16.9167 30.3749 20.0104 30.3749 23.7917C30.3749 27.5729 27.2812 30.6667 23.4999 30.6667Z" fill="white"/>
</svg>
