<svg width="226" height="40" viewBox="0 0 226 40" fill="none" xmlns="http://www.w3.org/2000/svg">
<g clip-path="url(#clip0_307_259)">
<path d="M57.337 26.487C56.5255 26.487 55.7746 26.345 55.0848 26.0609C54.3951 25.7667 53.7914 25.3559 53.274 24.8283C52.7566 24.3007 52.3507 23.682 52.0566 22.9717C51.7725 22.2515 51.6305 21.4703 51.6305 20.6283C51.6305 19.7862 51.7725 19.0102 52.0566 18.3C52.3407 17.5797 52.7364 16.9609 53.2435 16.4435C53.7507 15.9159 54.3494 15.5102 55.0392 15.2261C55.729 14.9319 56.4798 14.7848 57.2914 14.7848C58.1029 14.7848 58.8283 14.9217 59.4674 15.1957C60.1168 15.4696 60.6646 15.8348 61.1109 16.2913C61.5572 16.7377 61.8768 17.2297 62.0696 17.7674L60.2283 18.65C60.0051 18.0616 59.6398 17.5848 59.1327 17.2196C58.6255 16.8543 58.0116 16.6717 57.2914 16.6717C56.5811 16.6717 55.9572 16.8391 55.4196 17.1739C54.882 17.4985 54.4609 17.9602 54.1566 18.5587C53.8522 19.1471 53.7001 19.837 53.7001 20.6283C53.7001 21.4196 53.8522 22.1146 54.1566 22.713C54.4711 23.3015 54.9022 23.763 55.4501 24.0978C55.9979 24.4326 56.6268 24.6 57.337 24.6C57.9153 24.6 58.4479 24.4885 58.9348 24.2652C59.4218 24.032 59.8124 23.7072 60.1066 23.2913C60.4007 22.8652 60.5479 22.363 60.5479 21.7848V21.7391H57.2914V19.9891H62.6175V21.1304C62.6175 22.013 62.4703 22.7891 62.1761 23.4587C61.882 24.118 61.4811 24.6761 60.974 25.1326C60.4768 25.5789 59.9138 25.9189 59.2848 26.1522C58.6559 26.3754 58.0066 26.487 57.337 26.487ZM68.1355 26.487C67.324 26.487 66.5833 26.2993 65.9138 25.9239C65.2544 25.5485 64.7268 25.0363 64.3311 24.387C63.9457 23.7376 63.7529 22.9972 63.7529 22.1652C63.7529 21.3333 63.9457 20.5928 64.3311 19.9435C64.7268 19.2942 65.2544 18.7819 65.9138 18.4065C66.5733 18.0312 67.3138 17.8435 68.1355 17.8435C68.9472 17.8435 69.6827 18.0312 70.342 18.4065C71.0016 18.7819 71.524 19.2942 71.9094 19.9435C72.3051 20.5928 72.5029 21.3333 72.5029 22.1652C72.5029 22.9972 72.3051 23.7428 71.9094 24.4022C71.5138 25.0515 70.9864 25.5637 70.3268 25.9391C69.6674 26.3043 68.937 26.487 68.1355 26.487ZM68.1355 24.6609C68.582 24.6609 68.9724 24.5543 69.3072 24.3413C69.6522 24.1283 69.9211 23.8341 70.1138 23.4587C70.3168 23.0733 70.4181 22.642 70.4181 22.1652C70.4181 21.6884 70.3168 21.2623 70.1138 20.887C69.9211 20.5116 69.6522 20.2174 69.3072 20.0043C68.9724 19.7812 68.582 19.6696 68.1355 19.6696C67.6892 19.6696 67.2885 19.7812 66.9333 20.0043C66.5885 20.2174 66.3146 20.5116 66.1116 20.887C65.919 21.2623 65.8224 21.6884 65.8224 22.1652C65.8224 22.642 65.919 23.0733 66.1116 23.4587C66.3146 23.8341 66.5885 24.1283 66.9333 24.3413C67.2885 24.5543 67.6892 24.6609 68.1355 24.6609ZM74.0146 29.3478V18.0261H75.8864V19C76.1807 18.6348 76.5559 18.3507 77.0124 18.1478C77.469 17.9449 77.9814 17.8435 78.5494 17.8435C79.3407 17.8435 80.0509 18.0362 80.6798 18.4217C81.309 18.7971 81.8059 19.3145 82.1711 19.9739C82.5364 20.6232 82.719 21.3536 82.719 22.1652C82.719 22.9767 82.5364 23.7124 82.1711 24.3717C81.8059 25.0211 81.309 25.5385 80.6798 25.9239C80.0509 26.2993 79.3357 26.487 78.5342 26.487C78.027 26.487 77.5553 26.4059 77.119 26.2435C76.6829 26.0711 76.3124 25.8276 76.0081 25.513V29.3478H74.0146ZM78.3059 24.6609C78.7625 24.6609 79.1633 24.5543 79.5081 24.3413C79.8633 24.1283 80.1422 23.8341 80.3451 23.4587C80.5481 23.0733 80.6494 22.642 80.6494 22.1652C80.6494 21.6884 80.5481 21.2623 80.3451 20.887C80.1422 20.5116 79.8633 20.2174 79.5081 20.0043C79.1633 19.7812 78.7625 19.6696 78.3059 19.6696C77.8698 19.6696 77.4742 19.7761 77.119 19.9891C76.7742 20.2022 76.5003 20.4964 76.2972 20.8717C76.1046 21.2471 76.0081 21.6783 76.0081 22.1652C76.0081 22.6522 76.1046 23.0833 76.2972 23.4587C76.5003 23.8341 76.7742 24.1283 77.119 24.3413C77.4742 24.5543 77.8698 24.6609 78.3059 24.6609ZM84.239 26.3043V14.7848H86.2325V18.8478C86.4657 18.513 86.7751 18.2645 87.1607 18.1022C87.5461 17.9297 87.9772 17.8435 88.4542 17.8435C89.0629 17.8435 89.6005 17.9754 90.0672 18.2391C90.544 18.5029 90.9142 18.8732 91.1781 19.35C91.4418 19.8167 91.5738 20.3594 91.5738 20.9783V26.3043H89.5803V21.45C89.5803 20.9022 89.4229 20.471 89.1085 20.1565C88.794 19.8319 88.3933 19.6696 87.9064 19.6696C87.4194 19.6696 87.0185 19.8319 86.7042 20.1565C86.3896 20.4812 86.2325 20.9123 86.2325 21.45V26.3043H84.239ZM97.1855 26.487C96.3333 26.487 95.5877 26.2941 94.9485 25.9087C94.3094 25.5233 93.8122 25.0007 93.4572 24.3413C93.102 23.682 92.9246 22.9515 92.9246 22.15C92.9246 21.3181 93.102 20.5826 93.4572 19.9435C93.8225 19.2942 94.3144 18.7819 94.9333 18.4065C95.5622 18.0312 96.2622 17.8435 97.0333 17.8435C97.8955 17.8435 98.6259 18.0312 99.2246 18.4065C99.8231 18.7717 100.28 19.2587 100.594 19.8674C100.909 20.4761 101.066 21.1507 101.066 21.8913C101.066 22.0435 101.056 22.1957 101.035 22.3478C101.025 22.4898 101 22.6167 100.959 22.7283H94.9942C95.0551 23.337 95.2883 23.8239 95.6942 24.1891C96.0998 24.5543 96.602 24.737 97.2007 24.737C97.6572 24.737 98.0427 24.6407 98.3572 24.4478C98.6818 24.245 98.9355 23.9863 99.1181 23.6717L100.731 24.463C100.477 25.0515 100.031 25.5385 99.392 25.9239C98.7629 26.2993 98.0275 26.487 97.1855 26.487ZM97.0333 19.487C96.5361 19.487 96.1051 19.6391 95.7398 19.9435C95.3846 20.2377 95.1514 20.6587 95.0398 21.2065H98.9355C98.8948 20.6993 98.697 20.2884 98.342 19.9739C97.997 19.6493 97.5607 19.487 97.0333 19.487ZM102.577 26.3043V18.0261H104.449V19.1978C104.662 18.721 104.961 18.3913 105.347 18.2087C105.732 18.0261 106.179 17.9348 106.686 17.9348H107.173V19.7H106.457C105.899 19.7 105.443 19.8775 105.088 20.2326C104.743 20.5775 104.57 21.0645 104.57 21.6935V26.3043H102.577ZM113.762 26.487C112.951 26.487 112.2 26.345 111.51 26.0609C110.82 25.7667 110.222 25.3559 109.714 24.8283C109.207 24.3007 108.811 23.682 108.527 22.9717C108.243 22.2515 108.101 21.4703 108.101 20.6283C108.101 19.7862 108.243 19.0102 108.527 18.3C108.811 17.5797 109.207 16.9609 109.714 16.4435C110.222 15.9159 110.82 15.5102 111.51 15.2261C112.2 14.9319 112.951 14.7848 113.762 14.7848C114.574 14.7848 115.299 14.9217 115.938 15.1957C116.587 15.4696 117.135 15.8348 117.582 16.2913C118.028 16.7377 118.348 17.2297 118.54 17.7674L116.684 18.6348C116.461 18.0667 116.095 17.6 115.588 17.2348C115.091 16.8594 114.482 16.6717 113.762 16.6717C113.052 16.6717 112.428 16.8391 111.89 17.1739C111.353 17.4985 110.932 17.9602 110.627 18.5587C110.323 19.1471 110.171 19.837 110.171 20.6283C110.171 21.4196 110.323 22.1146 110.627 22.713C110.932 23.3015 111.353 23.763 111.89 24.0978C112.428 24.4326 113.052 24.6 113.762 24.6C114.482 24.6 115.091 24.4174 115.588 24.0522C116.095 23.6767 116.461 23.205 116.684 22.637L118.54 23.5043C118.348 24.042 118.028 24.5391 117.582 24.9957C117.135 25.442 116.587 25.8022 115.938 26.0761C115.299 26.35 114.574 26.487 113.762 26.487ZM123.952 26.487C123.141 26.487 122.4 26.2993 121.731 25.9239C121.071 25.5485 120.544 25.0363 120.148 24.387C119.763 23.7376 119.57 22.9972 119.57 22.1652C119.57 21.3333 119.763 20.5928 120.148 19.9435C120.544 19.2942 121.071 18.7819 121.731 18.4065C122.39 18.0312 123.131 17.8435 123.952 17.8435C124.764 17.8435 125.5 18.0312 126.159 18.4065C126.818 18.7819 127.341 19.2942 127.726 19.9435C128.122 20.5928 128.32 21.3333 128.32 22.1652C128.32 22.9972 128.122 23.7428 127.726 24.4022C127.331 25.0515 126.803 25.5637 126.144 25.9391C125.484 26.3043 124.754 26.487 123.952 26.487ZM123.952 24.6609C124.399 24.6609 124.789 24.5543 125.124 24.3413C125.469 24.1283 125.738 23.8341 125.931 23.4587C126.134 23.0733 126.235 22.642 126.235 22.1652C126.235 21.6884 126.134 21.2623 125.931 20.887C125.738 20.5116 125.469 20.2174 125.124 20.0043C124.789 19.7812 124.399 19.6696 123.952 19.6696C123.506 19.6696 123.105 19.7812 122.75 20.0043C122.405 20.2174 122.131 20.5116 121.929 20.887C121.736 21.2623 121.639 21.6884 121.639 22.1652C121.639 22.642 121.736 23.0733 121.929 23.4587C122.131 23.8341 122.405 24.1283 122.75 24.3413C123.105 24.5543 123.506 24.6609 123.952 24.6609ZM129.832 26.3043V18.0261H131.703V19.0457C131.927 18.65 132.241 18.3507 132.647 18.1478C133.063 17.9449 133.529 17.8435 134.047 17.8435C134.655 17.8435 135.193 17.9754 135.66 18.2391C136.137 18.5029 136.507 18.8732 136.771 19.35C137.034 19.8167 137.166 20.3594 137.166 20.9783V26.3043H135.173V21.45C135.173 20.9022 135.016 20.471 134.701 20.1565C134.397 19.8319 133.996 19.6696 133.499 19.6696C133.002 19.6696 132.596 19.8319 132.282 20.1565C131.977 20.4812 131.825 20.9123 131.825 21.45V26.3043H129.832ZM141.724 26.3043V14.9674H143.794V20.0043L148.055 14.9674H150.657L146.731 19.6239L150.794 26.3043H148.359L145.315 21.313L143.794 23.1239V26.3043H141.724ZM155.635 26.487C154.824 26.487 154.083 26.2993 153.414 25.9239C152.754 25.5485 152.227 25.0363 151.831 24.387C151.446 23.7376 151.253 22.9972 151.253 22.1652C151.253 21.3333 151.446 20.5928 151.831 19.9435C152.227 19.2942 152.754 18.7819 153.414 18.4065C154.073 18.0312 154.814 17.8435 155.635 17.8435C156.447 17.8435 157.183 18.0312 157.842 18.4065C158.502 18.7819 159.024 19.2942 159.409 19.9435C159.805 20.5928 160.003 21.3333 160.003 22.1652C160.003 22.9972 159.805 23.7428 159.409 24.4022C159.014 25.0515 158.486 25.5637 157.827 25.9391C157.167 26.3043 156.437 26.487 155.635 26.487ZM155.635 24.6609C156.082 24.6609 156.472 24.5543 156.807 24.3413C157.152 24.1283 157.421 23.8341 157.614 23.4587C157.817 23.0733 157.918 22.642 157.918 22.1652C157.918 21.6884 157.817 21.2623 157.614 20.887C157.421 20.5116 157.152 20.2174 156.807 20.0043C156.472 19.7812 156.082 19.6696 155.635 19.6696C155.189 19.6696 154.789 19.7812 154.433 20.0043C154.089 20.2174 153.815 20.5116 153.612 20.887C153.419 21.2623 153.322 21.6884 153.322 22.1652C153.322 22.642 153.419 23.0733 153.612 23.4587C153.815 23.8341 154.089 24.1283 154.433 24.3413C154.789 24.5543 155.189 24.6609 155.635 24.6609ZM161.515 26.3043V18.0261H163.386V19.1978C163.599 18.721 163.899 18.3913 164.284 18.2087C164.67 18.0261 165.116 17.9348 165.623 17.9348H166.11V19.7H165.395C164.837 19.7 164.381 19.8775 164.026 20.2326C163.681 20.5775 163.508 21.0645 163.508 21.6935V26.3043H161.515ZM171.132 26.487C170.28 26.487 169.535 26.2941 168.896 25.9087C168.256 25.5233 167.759 25.0007 167.404 24.3413C167.049 23.682 166.872 22.9515 166.872 22.15C166.872 21.3181 167.049 20.5826 167.404 19.9435C167.769 19.2942 168.261 18.7819 168.88 18.4065C169.509 18.0312 170.209 17.8435 170.98 17.8435C171.843 17.8435 172.573 18.0312 173.172 18.4065C173.77 18.7717 174.227 19.2587 174.541 19.8674C174.856 20.4761 175.013 21.1507 175.013 21.8913C175.013 22.0435 175.003 22.1957 174.982 22.3478C174.972 22.4898 174.947 22.6167 174.906 22.7283H168.941C169.002 23.337 169.235 23.8239 169.641 24.1891C170.047 24.5543 170.549 24.737 171.148 24.737C171.604 24.737 171.99 24.6407 172.304 24.4478C172.629 24.245 172.882 23.9863 173.065 23.6717L174.678 24.463C174.424 25.0515 173.978 25.5385 173.339 25.9239C172.71 26.2993 171.974 26.487 171.132 26.487ZM170.98 19.487C170.483 19.487 170.052 19.6391 169.687 19.9435C169.332 20.2377 169.098 20.6587 168.987 21.2065H172.882C172.842 20.6993 172.644 20.2884 172.289 19.9739C171.944 19.6493 171.508 19.487 170.98 19.487ZM178.99 26.487C178.128 26.487 177.438 26.2739 176.921 25.8478C176.403 25.4217 176.145 24.8435 176.145 24.113C176.145 23.4233 176.378 22.85 176.845 22.3935C177.311 21.937 178.032 21.6275 179.005 21.4652L181.471 21.0696V20.7957C181.471 20.4406 181.329 20.1464 181.045 19.913C180.771 19.6696 180.406 19.5478 179.949 19.5478C179.513 19.5478 179.132 19.6645 178.808 19.8978C178.483 20.121 178.245 20.4203 178.092 20.7957L176.464 20.0043C176.708 19.3551 177.154 18.8326 177.803 18.437C178.453 18.0413 179.193 17.8435 180.025 17.8435C180.705 17.8435 181.298 17.9703 181.805 18.2239C182.323 18.4674 182.729 18.8123 183.023 19.2587C183.317 19.7051 183.464 20.2174 183.464 20.7957V26.3043H181.577V25.4217C180.928 26.132 180.066 26.487 178.99 26.487ZM178.214 24.037C178.214 24.3211 178.321 24.5493 178.534 24.7217C178.747 24.8841 179.021 24.9652 179.355 24.9652C179.984 24.9652 180.492 24.7674 180.877 24.3717C181.273 23.9761 181.471 23.4941 181.471 22.9261V22.5913L179.386 22.9413C178.605 23.0935 178.214 23.4587 178.214 24.037ZM187.783 26.3043V24.7522L190.857 21.5261C191.456 20.8971 191.922 20.3898 192.257 20.0043C192.592 19.6188 192.825 19.2891 192.957 19.0152C193.089 18.7413 193.155 18.4623 193.155 18.1783C193.155 17.7015 193.003 17.3261 192.698 17.0522C192.404 16.7783 192.024 16.6413 191.557 16.6413C191.07 16.6413 190.649 16.7833 190.294 17.0674C189.939 17.3413 189.68 17.7471 189.518 18.2848L187.707 17.7217C187.829 17.1232 188.077 16.6058 188.453 16.1696C188.828 15.7232 189.285 15.3833 189.822 15.15C190.37 14.9065 190.948 14.7848 191.557 14.7848C192.287 14.7848 192.927 14.9217 193.474 15.1957C194.032 15.4594 194.464 15.8297 194.768 16.3065C195.082 16.7833 195.24 17.3362 195.24 17.9652C195.24 18.5841 195.067 19.1826 194.722 19.7609C194.387 20.3391 193.86 21.0036 193.14 21.7543L190.477 24.5543H195.392V26.3043H187.783ZM201.55 26.487C200.657 26.487 199.866 26.2435 199.176 25.7565C198.496 25.2696 197.964 24.5848 197.578 23.7022C197.203 22.8196 197.015 21.795 197.015 20.6283C197.015 19.4515 197.203 18.4268 197.578 17.5543C197.964 16.6819 198.496 16.0022 199.176 15.5152C199.856 15.0283 200.642 14.7848 201.535 14.7848C202.448 14.7848 203.244 15.0283 203.924 15.5152C204.614 16.0022 205.146 16.687 205.522 17.5696C205.907 18.442 206.1 19.4616 206.1 20.6283C206.1 21.795 205.907 22.8196 205.522 23.7022C205.146 24.5746 204.619 25.2593 203.939 25.7565C203.259 26.2435 202.463 26.487 201.55 26.487ZM201.55 24.6C202.331 24.6 202.94 24.245 203.376 23.5348C203.812 22.8246 204.03 21.8559 204.03 20.6283C204.03 19.4007 203.807 18.437 203.361 17.737C202.925 17.0268 202.316 16.6717 201.535 16.6717C200.764 16.6717 200.16 17.0217 199.724 17.7217C199.298 18.4217 199.085 19.3906 199.085 20.6283C199.085 21.8559 199.303 22.8246 199.739 23.5348C200.175 24.245 200.779 24.6 201.55 24.6ZM207.637 26.3043V24.7522L210.711 21.5261C211.309 20.8971 211.776 20.3898 212.111 20.0043C212.446 19.6188 212.679 19.2891 212.811 19.0152C212.943 18.7413 213.009 18.4623 213.009 18.1783C213.009 17.7015 212.857 17.3261 212.552 17.0522C212.258 16.7783 211.878 16.6413 211.411 16.6413C210.924 16.6413 210.503 16.7833 210.148 17.0674C209.793 17.3413 209.534 17.7471 209.372 18.2848L207.561 17.7217C207.683 17.1232 207.931 16.6058 208.307 16.1696C208.682 15.7232 209.139 15.3833 209.676 15.15C210.224 14.9065 210.802 14.7848 211.411 14.7848C212.141 14.7848 212.781 14.9217 213.328 15.1957C213.886 15.4594 214.317 15.8297 214.622 16.3065C214.936 16.7833 215.094 17.3362 215.094 17.9652C215.094 18.5841 214.921 19.1826 214.576 19.7609C214.241 20.3391 213.714 21.0036 212.994 21.7543L210.331 24.5543H215.246V26.3043H207.637ZM221.62 26.3043V23.8087H216.416V22.0739L221.498 14.9674H223.659V22.0739H225.317V23.8087H223.659V26.3043H221.62ZM221.62 22.0739V17.5239L218.454 22.0739H221.62Z" fill="white"/>
<path d="M31.3742 4.91922C31.0346 4.57963 31.0346 4.02904 31.3742 3.68946C31.7137 3.34987 32.2644 3.34987 32.604 3.68946L34.1774 5.26311C34.517 5.6027 34.517 6.15326 34.1774 6.49285C33.8379 6.83243 33.2874 6.83243 32.9479 6.49285L31.3742 4.91922Z" fill="white"/>
<path d="M23.5733 1.99393C23.2337 1.65435 23.2337 1.10377 23.5733 0.76418C23.9128 0.424593 24.4635 0.424593 24.8031 0.76418L28.327 4.288C28.6665 4.62759 28.6665 5.17817 28.327 5.51776C27.9874 5.85735 27.4368 5.85735 27.0972 5.51776L23.5733 1.99393Z" fill="white"/>
<path d="M18.6979 1.99393C18.3583 1.65434 18.3583 1.10377 18.6979 0.764179C19.0375 0.424594 19.5881 0.424594 19.9277 0.764179L24.4266 5.26311C24.7661 5.6027 24.7661 6.15326 24.4266 6.49285C24.087 6.83244 23.5364 6.83244 23.1968 6.49285L18.6979 1.99393Z" fill="white"/>
<path d="M14.31 2.48148C13.9704 2.14189 13.9704 1.59131 14.31 1.25173C14.6496 0.912141 15.2001 0.912141 15.5397 1.25173L21.745 7.45707C22.0846 7.79665 22.0846 8.34722 21.745 8.6868C21.4055 9.02639 20.8549 9.02639 20.5153 8.6868L14.31 2.48148Z" fill="white"/>
<path d="M10.8971 3.94411C10.5576 3.60452 10.5576 3.05396 10.8971 2.71437C11.2367 2.37478 11.7873 2.37478 12.1269 2.71437L19.9168 10.5042C20.2563 10.8438 20.2563 11.3944 19.9168 11.734C19.5772 12.0736 19.0266 12.0736 18.687 11.734L10.8971 3.94411Z" fill="white"/>
<path d="M7.84991 5.77241C7.51032 5.43283 7.51032 4.88224 7.84991 4.54265C8.18949 4.20307 8.74008 4.20307 9.07967 4.54265L19.1854 14.6484C19.5249 14.988 19.5249 15.5385 19.1854 15.8781C18.8458 16.2177 18.2952 16.2177 17.9556 15.8781L7.84991 5.77241Z" fill="white"/>
<path d="M5.41228 8.21015C5.0727 7.87056 5.0727 7.31998 5.41228 6.98039C5.75187 6.6408 6.30244 6.6408 6.64202 6.98039L20.5262 20.8646C20.8658 21.2042 20.8658 21.7548 20.5262 22.0943C20.1866 22.4339 19.636 22.4339 19.2965 22.0943L5.41228 8.21015Z" fill="white"/>
<path d="M3.58391 11.2573C3.24433 10.9177 3.24433 10.3672 3.58391 10.0276C3.9235 9.68798 4.47409 9.68798 4.81367 10.0276L20.2824 25.4963C20.622 25.8359 20.622 26.3865 20.2824 26.7261C19.9428 27.0657 19.3922 27.0657 19.0526 26.7261L3.58391 11.2573Z" fill="white"/>
<path d="M1.87749 14.4264C1.53791 14.0868 1.53791 13.5362 1.87749 13.1966C2.21708 12.857 2.76766 12.857 3.10725 13.1966L18.6978 28.7872C19.0374 29.1267 19.0374 29.6774 18.6978 30.017C18.3583 30.3565 17.8077 30.3565 17.4681 30.017L1.87749 14.4264Z" fill="white"/>
<path d="M0.902395 18.3267C0.562808 17.9872 0.562808 17.4366 0.902395 17.097C1.24198 16.7574 1.79256 16.7574 2.13215 17.097L15.8944 30.8593C16.234 31.1989 16.234 31.7493 15.8944 32.0891C15.5549 32.4287 15.0043 32.4287 14.6647 32.0891L0.902395 18.3267Z" fill="white"/>
<path d="M0.780569 23.0802C0.440982 22.7407 0.440982 22.1902 0.780569 21.8507C1.12015 21.511 1.67073 21.511 2.01032 21.8507L11.5066 31.3467C11.8462 31.6865 11.8462 32.237 11.5066 32.5765C11.167 32.9161 10.6164 32.9161 10.2768 32.5765L0.780569 23.0802Z" fill="white"/>
<path d="M2.24321 29.4185C1.90363 29.0789 1.90363 28.5283 2.24321 28.1887C2.58279 27.8491 3.13338 27.8491 3.47297 28.1887L5.29038 30.0061C5.62997 30.3457 5.62997 30.8963 5.29038 31.2359C4.95079 31.5754 4.40021 31.5754 4.06064 31.2359L2.24321 29.4185Z" fill="white"/>
<path d="M10.1045 35.0376C10.4441 35.3772 10.4441 35.9278 10.1045 36.2674C9.76488 36.607 9.21429 36.607 8.87471 36.2674L7.30108 34.6937C6.96149 34.3541 6.96149 33.8035 7.30108 33.4639C7.64066 33.1243 8.19123 33.1243 8.53082 33.4639L10.1045 35.0376Z" fill="white"/>
<path d="M17.9051 37.9628C18.2447 38.3024 18.2447 38.853 17.9051 39.1926C17.5655 39.5322 17.015 39.5322 16.6754 39.1926L13.1515 35.6687C12.812 35.3291 12.812 34.7787 13.1515 34.4389C13.4911 34.0994 14.0417 34.0994 14.3813 34.4389L17.9051 37.9628Z" fill="white"/>
<path d="M22.7806 37.9628C23.1202 38.3024 23.1202 38.853 22.7806 39.1926C22.441 39.5322 21.8904 39.5322 21.5508 39.1926L17.0519 34.6937C16.7123 34.3541 16.7123 33.8035 17.0519 33.4639C17.3915 33.1243 17.9421 33.1243 18.2817 33.4639L22.7806 37.9628Z" fill="white"/>
<path d="M27.1684 37.4752C27.508 37.8148 27.508 38.3654 27.1684 38.705C26.8289 39.0446 26.2785 39.0446 25.9389 38.705L19.7334 32.4998C19.3939 32.1602 19.3939 31.6096 19.7334 31.27C20.073 30.9304 20.6236 30.9304 20.9632 31.27L27.1684 37.4752Z" fill="white"/>
<path d="M30.5813 36.0126C30.9209 36.3522 30.9209 36.9028 30.5813 37.2424C30.2418 37.582 29.6913 37.582 29.3518 37.2424L21.5618 29.4526C21.2222 29.113 21.2222 28.5624 21.5618 28.2228C21.9013 27.8833 22.452 27.8833 22.7916 28.2228L30.5813 36.0126Z" fill="white"/>
<path d="M33.6284 34.1843C33.968 34.5239 33.968 35.0746 33.6284 35.4141C33.2889 35.7537 32.7384 35.7537 32.3987 35.4141L22.293 25.3085C21.9534 24.9689 21.9534 24.4183 22.293 24.0787C22.6326 23.7391 23.1832 23.7391 23.5228 24.0787L33.6284 34.1843Z" fill="white"/>
<path d="M36.0663 31.7465C36.4058 32.0863 36.4058 32.6367 36.0663 32.9763C35.7267 33.3159 35.1761 33.3159 34.8365 32.9763L20.9523 19.0922C20.6127 18.7526 20.6127 18.202 20.9523 17.8624C21.2919 17.5228 21.8426 17.5228 22.1821 17.8624L36.0663 31.7465Z" fill="white"/>
<path d="M37.8946 28.6996C38.2341 29.0391 38.2341 29.5896 37.8946 29.9291C37.555 30.2687 37.0043 30.2687 36.6648 29.9291L21.1961 14.4605C20.8565 14.1209 20.8565 13.5703 21.1961 13.2307C21.5357 12.8912 22.0863 12.8912 22.4259 13.2307L37.8946 28.6996Z" fill="white"/>
<path d="M39.6011 25.5304C39.9407 25.87 39.9407 26.4207 39.6011 26.7602C39.2613 27.0998 38.7109 27.0998 38.3713 26.7602L22.7807 11.1696C22.4411 10.83 22.4411 10.2794 22.7807 9.9398C23.1202 9.60022 23.6709 9.60022 24.0105 9.9398L39.6011 25.5304Z" fill="white"/>
<path d="M40.5761 21.63C40.9157 21.9696 40.9157 22.5202 40.5761 22.8598C40.2366 23.1993 39.6859 23.1993 39.3464 22.8598L25.5842 9.09748C25.2444 8.75789 25.2444 8.20733 25.5842 7.86774C25.9237 7.52815 26.4742 7.52815 26.8137 7.86774L40.5761 21.63Z" fill="white"/>
<path d="M40.698 16.8765C41.0376 17.216 41.0376 17.7666 40.698 18.1062C40.3585 18.4458 39.8078 18.4458 39.4683 18.1062L29.972 8.60994C29.6324 8.27035 29.6324 7.71976 29.972 7.38017C30.3115 7.04059 30.8622 7.04059 31.2017 7.38017L40.698 16.8765Z" fill="white"/>
<path d="M39.2355 10.5383C39.575 10.8779 39.575 11.4285 39.2355 11.7681C38.8957 12.1077 38.3453 12.1077 38.0057 11.7681L36.1883 9.9507C35.8485 9.61111 35.8485 9.06052 36.1883 8.72093C36.5279 8.38135 37.0783 8.38135 37.4179 8.72093L39.2355 10.5383Z" fill="white"/>
</g>
<defs>
<clipPath id="clip0_307_259">
<rect width="225.87" height="40" fill="white"/>
</clipPath>
</defs>
</svg>
