<svg width="1039" height="184" viewBox="0 0 1039 184" fill="none" xmlns="http://www.w3.org/2000/svg">
<path d="M263.75 121.84C260.017 121.84 256.563 121.187 253.39 119.88C250.217 118.527 247.44 116.637 245.06 114.21C242.68 111.783 240.813 108.937 239.46 105.67C238.153 102.357 237.5 98.7633 237.5 94.89C237.5 91.0167 238.153 87.4467 239.46 84.18C240.767 80.8667 242.587 78.02 244.92 75.64C247.253 73.2133 250.007 71.3467 253.18 70.04C256.353 68.6867 259.807 68.01 263.54 68.01C267.273 68.01 270.61 68.64 273.55 69.9C276.537 71.16 279.057 72.84 281.11 74.94C283.163 76.9933 284.633 79.2567 285.52 81.73L277.05 85.79C276.023 83.0833 274.343 80.89 272.01 79.21C269.677 77.53 266.853 76.69 263.54 76.69C260.273 76.69 257.403 77.46 254.93 79C252.457 80.4933 250.52 82.6167 249.12 85.37C247.72 88.0767 247.02 91.25 247.02 94.89C247.02 98.53 247.72 101.727 249.12 104.48C250.567 107.187 252.55 109.31 255.07 110.85C257.59 112.39 260.483 113.16 263.75 113.16C266.41 113.16 268.86 112.647 271.1 111.62C273.34 110.547 275.137 109.053 276.49 107.14C277.843 105.18 278.52 102.87 278.52 100.21V100H263.54V91.95H288.04V97.2C288.04 101.26 287.363 104.83 286.01 107.91C284.657 110.943 282.813 113.51 280.48 115.61C278.193 117.663 275.603 119.227 272.71 120.3C269.817 121.327 266.83 121.84 263.75 121.84ZM313.423 121.84C309.69 121.84 306.283 120.977 303.203 119.25C300.17 117.523 297.743 115.167 295.923 112.18C294.15 109.193 293.263 105.787 293.263 101.96C293.263 98.1333 294.15 94.7267 295.923 91.74C297.743 88.7533 300.17 86.3967 303.203 84.67C306.237 82.9433 309.643 82.08 313.423 82.08C317.157 82.08 320.54 82.9433 323.573 84.67C326.607 86.3967 329.01 88.7533 330.783 91.74C332.603 94.7267 333.513 98.1333 333.513 101.96C333.513 105.787 332.603 109.217 330.783 112.25C328.963 115.237 326.537 117.593 323.503 119.32C320.47 121 317.11 121.84 313.423 121.84ZM313.423 113.44C315.477 113.44 317.273 112.95 318.813 111.97C320.4 110.99 321.637 109.637 322.523 107.91C323.457 106.137 323.923 104.153 323.923 101.96C323.923 99.7667 323.457 97.8067 322.523 96.08C321.637 94.3533 320.4 93 318.813 92.02C317.273 90.9933 315.477 90.48 313.423 90.48C311.37 90.48 309.527 90.9933 307.893 92.02C306.307 93 305.047 94.3533 304.113 96.08C303.227 97.8067 302.783 99.7667 302.783 101.96C302.783 104.153 303.227 106.137 304.113 107.91C305.047 109.637 306.307 110.99 307.893 111.97C309.527 112.95 311.37 113.44 313.423 113.44ZM340.467 135V82.92H349.077V87.4C350.431 85.72 352.157 84.4133 354.257 83.48C356.357 82.5467 358.714 82.08 361.327 82.08C364.967 82.08 368.234 82.9667 371.127 84.74C374.021 86.4667 376.307 88.8467 377.987 91.88C379.667 94.8667 380.507 98.2267 380.507 101.96C380.507 105.693 379.667 109.077 377.987 112.11C376.307 115.097 374.021 117.477 371.127 119.25C368.234 120.977 364.944 121.84 361.257 121.84C358.924 121.84 356.754 121.467 354.747 120.72C352.741 119.927 351.037 118.807 349.637 117.36V135H340.467ZM360.207 113.44C362.307 113.44 364.151 112.95 365.737 111.97C367.371 110.99 368.654 109.637 369.587 107.91C370.521 106.137 370.987 104.153 370.987 101.96C370.987 99.7667 370.521 97.8067 369.587 96.08C368.654 94.3533 367.371 93 365.737 92.02C364.151 90.9933 362.307 90.48 360.207 90.48C358.201 90.48 356.381 90.97 354.747 91.95C353.161 92.93 351.901 94.2833 350.967 96.01C350.081 97.7367 349.637 99.72 349.637 101.96C349.637 104.2 350.081 106.183 350.967 107.91C351.901 109.637 353.161 110.99 354.747 111.97C356.381 112.95 358.201 113.44 360.207 113.44ZM387.499 121V68.01H396.669V86.7C397.742 85.16 399.165 84.0167 400.939 83.27C402.712 82.4767 404.695 82.08 406.889 82.08C409.689 82.08 412.162 82.6867 414.309 83.9C416.502 85.1133 418.205 86.8167 419.419 89.01C420.632 91.1567 421.239 93.6533 421.239 96.5V121H412.069V98.67C412.069 96.15 411.345 94.1667 409.899 92.72C408.452 91.2267 406.609 90.48 404.369 90.48C402.129 90.48 400.285 91.2267 398.839 92.72C397.392 94.2133 396.669 96.1967 396.669 98.67V121H387.499ZM447.053 121.84C443.133 121.84 439.703 120.953 436.763 119.18C433.823 117.407 431.536 115.003 429.903 111.97C428.269 108.937 427.453 105.577 427.453 101.89C427.453 98.0633 428.269 94.68 429.903 91.74C431.583 88.7533 433.846 86.3967 436.693 84.67C439.586 82.9433 442.806 82.08 446.353 82.08C450.319 82.08 453.679 82.9433 456.433 84.67C459.186 86.35 461.286 88.59 462.733 91.39C464.179 94.19 464.903 97.2933 464.903 100.7C464.903 101.4 464.856 102.1 464.763 102.8C464.716 103.453 464.599 104.037 464.413 104.55H436.973C437.253 107.35 438.326 109.59 440.193 111.27C442.059 112.95 444.369 113.79 447.123 113.79C449.223 113.79 450.996 113.347 452.443 112.46C453.936 111.527 455.103 110.337 455.943 108.89L463.363 112.53C462.196 115.237 460.143 117.477 457.203 119.25C454.309 120.977 450.926 121.84 447.053 121.84ZM446.353 89.64C444.066 89.64 442.083 90.34 440.403 91.74C438.769 93.0933 437.696 95.03 437.183 97.55H455.103C454.916 95.2167 454.006 93.3267 452.373 91.88C450.786 90.3867 448.779 89.64 446.353 89.64ZM471.854 121V82.92H480.464V88.31C481.444 86.1167 482.821 84.6 484.594 83.76C486.367 82.92 488.421 82.5 490.754 82.5H492.994V90.62H489.704C487.137 90.62 485.037 91.4367 483.404 93.07C481.817 94.6567 481.024 96.8967 481.024 99.79V121H471.854ZM523.306 121.84C519.572 121.84 516.119 121.187 512.946 119.88C509.772 118.527 507.019 116.637 504.686 114.21C502.352 111.783 500.532 108.937 499.226 105.67C497.919 102.357 497.266 98.7633 497.266 94.89C497.266 91.0167 497.919 87.4467 499.226 84.18C500.532 80.8667 502.352 78.02 504.686 75.64C507.019 73.2133 509.772 71.3467 512.946 70.04C516.119 68.6867 519.572 68.01 523.306 68.01C527.039 68.01 530.376 68.64 533.316 69.9C536.302 71.16 538.822 72.84 540.876 74.94C542.929 76.9933 544.399 79.2567 545.286 81.73L536.746 85.72C535.719 83.1067 534.039 80.96 531.706 79.28C529.419 77.5533 526.619 76.69 523.306 76.69C520.039 76.69 517.169 77.46 514.696 79C512.222 80.4933 510.286 82.6167 508.886 85.37C507.486 88.0767 506.786 91.25 506.786 94.89C506.786 98.53 507.486 101.727 508.886 104.48C510.286 107.187 512.222 109.31 514.696 110.85C517.169 112.39 520.039 113.16 523.306 113.16C526.619 113.16 529.419 112.32 531.706 110.64C534.039 108.913 535.719 106.743 536.746 104.13L545.286 108.12C544.399 110.593 542.929 112.88 540.876 114.98C538.822 117.033 536.302 118.69 533.316 119.95C530.376 121.21 527.039 121.84 523.306 121.84ZM570.181 121.84C566.448 121.84 563.041 120.977 559.961 119.25C556.928 117.523 554.501 115.167 552.681 112.18C550.908 109.193 550.021 105.787 550.021 101.96C550.021 98.1333 550.908 94.7267 552.681 91.74C554.501 88.7533 556.928 86.3967 559.961 84.67C562.994 82.9433 566.401 82.08 570.181 82.08C573.914 82.08 577.298 82.9433 580.331 84.67C583.364 86.3967 585.768 88.7533 587.541 91.74C589.361 94.7267 590.271 98.1333 590.271 101.96C590.271 105.787 589.361 109.217 587.541 112.25C585.721 115.237 583.294 117.593 580.261 119.32C577.228 121 573.868 121.84 570.181 121.84ZM570.181 113.44C572.234 113.44 574.031 112.95 575.571 111.97C577.158 110.99 578.394 109.637 579.281 107.91C580.214 106.137 580.681 104.153 580.681 101.96C580.681 99.7667 580.214 97.8067 579.281 96.08C578.394 94.3533 577.158 93 575.571 92.02C574.031 90.9933 572.234 90.48 570.181 90.48C568.128 90.48 566.284 90.9933 564.651 92.02C563.064 93 561.804 94.3533 560.871 96.08C559.984 97.8067 559.541 99.7667 559.541 101.96C559.541 104.153 559.984 106.137 560.871 107.91C561.804 109.637 563.064 110.99 564.651 111.97C566.284 112.95 568.128 113.44 570.181 113.44ZM597.225 121V82.92H605.835V87.61C606.862 85.79 608.308 84.4133 610.175 83.48C612.088 82.5467 614.235 82.08 616.615 82.08C619.415 82.08 621.888 82.6867 624.035 83.9C626.228 85.1133 627.932 86.8167 629.145 89.01C630.358 91.1567 630.965 93.6533 630.965 96.5V121H621.795V98.67C621.795 96.15 621.072 94.1667 619.625 92.72C618.225 91.2267 616.382 90.48 614.095 90.48C611.808 90.48 609.942 91.2267 608.495 92.72C607.095 94.2133 606.395 96.1967 606.395 98.67V121H597.225ZM651.931 121V68.85H661.451V92.02L681.051 68.85H693.021L674.961 90.27L693.651 121H682.451L668.451 98.04L661.451 106.37V121H651.931ZM715.923 121.84C712.19 121.84 708.783 120.977 705.703 119.25C702.67 117.523 700.243 115.167 698.423 112.18C696.65 109.193 695.763 105.787 695.763 101.96C695.763 98.1333 696.65 94.7267 698.423 91.74C700.243 88.7533 702.67 86.3967 705.703 84.67C708.737 82.9433 712.143 82.08 715.923 82.08C719.657 82.08 723.04 82.9433 726.073 84.67C729.107 86.3967 731.51 88.7533 733.283 91.74C735.103 94.7267 736.013 98.1333 736.013 101.96C736.013 105.787 735.103 109.217 733.283 112.25C731.463 115.237 729.037 117.593 726.003 119.32C722.97 121 719.61 121.84 715.923 121.84ZM715.923 113.44C717.977 113.44 719.773 112.95 721.313 111.97C722.9 110.99 724.137 109.637 725.023 107.91C725.957 106.137 726.423 104.153 726.423 101.96C726.423 99.7667 725.957 97.8067 725.023 96.08C724.137 94.3533 722.9 93 721.313 92.02C719.773 90.9933 717.977 90.48 715.923 90.48C713.87 90.48 712.027 90.9933 710.393 92.02C708.807 93 707.547 94.3533 706.613 96.08C705.727 97.8067 705.283 99.7667 705.283 101.96C705.283 104.153 705.727 106.137 706.613 107.91C707.547 109.637 708.807 110.99 710.393 111.97C712.027 112.95 713.87 113.44 715.923 113.44ZM742.967 121V82.92H751.577V88.31C752.557 86.1167 753.934 84.6 755.707 83.76C757.481 82.92 759.534 82.5 761.867 82.5H764.107V90.62H760.817C758.251 90.62 756.151 91.4367 754.517 93.07C752.931 94.6567 752.137 96.8967 752.137 99.79V121H742.967ZM787.209 121.84C783.289 121.84 779.859 120.953 776.919 119.18C773.979 117.407 771.692 115.003 770.059 111.97C768.426 108.937 767.609 105.577 767.609 101.89C767.609 98.0633 768.426 94.68 770.059 91.74C771.739 88.7533 774.002 86.3967 776.849 84.67C779.742 82.9433 782.962 82.08 786.509 82.08C790.476 82.08 793.836 82.9433 796.589 84.67C799.342 86.35 801.442 88.59 802.889 91.39C804.336 94.19 805.059 97.2933 805.059 100.7C805.059 101.4 805.012 102.1 804.919 102.8C804.872 103.453 804.756 104.037 804.569 104.55H777.129C777.409 107.35 778.482 109.59 780.349 111.27C782.216 112.95 784.526 113.79 787.279 113.79C789.379 113.79 791.152 113.347 792.599 112.46C794.092 111.527 795.259 110.337 796.099 108.89L803.519 112.53C802.352 115.237 800.299 117.477 797.359 119.25C794.466 120.977 791.082 121.84 787.209 121.84ZM786.509 89.64C784.222 89.64 782.239 90.34 780.559 91.74C778.926 93.0933 777.852 95.03 777.339 97.55H795.259C795.072 95.2167 794.162 93.3267 792.529 91.88C790.942 90.3867 788.936 89.64 786.509 89.64ZM823.355 121.84C819.388 121.84 816.215 120.86 813.835 118.9C811.455 116.94 810.265 114.28 810.265 110.92C810.265 107.747 811.338 105.11 813.485 103.01C815.632 100.91 818.945 99.4867 823.425 98.74L834.765 96.92V95.66C834.765 94.0267 834.112 92.6733 832.805 91.6C831.545 90.48 829.865 89.92 827.765 89.92C825.758 89.92 824.008 90.4567 822.515 91.53C821.022 92.5567 819.925 93.9333 819.225 95.66L811.735 92.02C812.855 89.0333 814.908 86.63 817.895 84.81C820.882 82.99 824.288 82.08 828.115 82.08C831.242 82.08 833.972 82.6633 836.305 83.83C838.685 84.95 840.552 86.5367 841.905 88.59C843.258 90.6433 843.935 93 843.935 95.66V121H835.255V116.94C832.268 120.207 828.302 121.84 823.355 121.84ZM819.785 110.57C819.785 111.877 820.275 112.927 821.255 113.72C822.235 114.467 823.495 114.84 825.035 114.84C827.928 114.84 830.262 113.93 832.035 112.11C833.855 110.29 834.765 108.073 834.765 105.46V103.92L825.175 105.53C821.582 106.23 819.785 107.91 819.785 110.57ZM863.802 121V113.86L877.942 99.02C880.695 96.1267 882.842 93.7933 884.382 92.02C885.922 90.2467 886.995 88.73 887.602 87.47C888.209 86.21 888.512 84.9267 888.512 83.62C888.512 81.4267 887.812 79.7 886.412 78.44C885.059 77.18 883.309 76.55 881.162 76.55C878.922 76.55 876.985 77.2033 875.352 78.51C873.719 79.77 872.529 81.6367 871.782 84.11L863.452 81.52C864.012 78.7667 865.155 76.3867 866.882 74.38C868.609 72.3267 870.709 70.7633 873.182 69.69C875.702 68.57 878.362 68.01 881.162 68.01C884.522 68.01 887.462 68.64 889.982 69.9C892.549 71.1133 894.532 72.8167 895.932 75.01C897.379 77.2033 898.102 79.7467 898.102 82.64C898.102 85.4867 897.309 88.24 895.722 90.9C894.182 93.56 891.755 96.6167 888.442 100.07L876.192 112.95H898.802V121H863.802ZM927.13 121.84C923.023 121.84 919.383 120.72 916.21 118.48C913.083 116.24 910.633 113.09 908.86 109.03C907.133 104.97 906.27 100.257 906.27 94.89C906.27 89.4767 907.133 84.7633 908.86 80.75C910.633 76.7367 913.083 73.61 916.21 71.37C919.336 69.13 922.953 68.01 927.06 68.01C931.26 68.01 934.923 69.13 938.05 71.37C941.223 73.61 943.673 76.76 945.4 80.82C947.173 84.8333 948.06 89.5233 948.06 94.89C948.06 100.257 947.173 104.97 945.4 109.03C943.673 113.043 941.246 116.193 938.12 118.48C934.993 120.72 931.33 121.84 927.13 121.84ZM927.13 113.16C930.723 113.16 933.523 111.527 935.53 108.26C937.536 104.993 938.54 100.537 938.54 94.89C938.54 89.2433 937.513 84.81 935.46 81.59C933.453 78.3233 930.653 76.69 927.06 76.69C923.513 76.69 920.736 78.3 918.73 81.52C916.77 84.74 915.79 89.1967 915.79 94.89C915.79 100.537 916.793 104.993 918.8 108.26C920.806 111.527 923.583 113.16 927.13 113.16ZM955.13 121V113.86L969.27 99.02C972.023 96.1267 974.17 93.7933 975.71 92.02C977.25 90.2467 978.323 88.73 978.93 87.47C979.537 86.21 979.84 84.9267 979.84 83.62C979.84 81.4267 979.14 79.7 977.74 78.44C976.387 77.18 974.637 76.55 972.49 76.55C970.25 76.55 968.313 77.2033 966.68 78.51C965.047 79.77 963.857 81.6367 963.11 84.11L954.78 81.52C955.34 78.7667 956.483 76.3867 958.21 74.38C959.937 72.3267 962.037 70.7633 964.51 69.69C967.03 68.57 969.69 68.01 972.49 68.01C975.85 68.01 978.79 68.64 981.31 69.9C983.877 71.1133 985.86 72.8167 987.26 75.01C988.707 77.2033 989.43 79.7467 989.43 82.64C989.43 85.4867 988.637 88.24 987.05 90.9C985.51 93.56 983.083 96.6167 979.77 100.07L967.52 112.95H990.13V121H955.13ZM1019.45 121V109.52H995.514V101.54L1018.89 68.85H1028.83V101.54H1036.46V109.52H1028.83V121H1019.45ZM1019.45 101.54V80.61L1004.89 101.54H1019.45Z" fill="black"/>
<path d="M144.321 22.6284C142.759 21.0663 142.759 18.5336 144.321 16.9715V16.9715C145.883 15.4094 148.416 15.4094 149.978 16.9715L157.216 24.2103C158.778 25.7724 158.778 28.305 157.216 29.8671V29.8671C155.654 31.4292 153.122 31.4292 151.56 29.8671L144.321 22.6284Z" fill="#F73D3D"/>
<path d="M108.437 9.17209C106.875 7.60999 106.875 5.07733 108.437 3.51523V3.51523C109.999 1.95313 112.532 1.95313 114.094 3.51523L130.304 19.7248C131.866 21.2869 131.866 23.8196 130.304 25.3817V25.3817C128.742 26.9438 126.209 26.9438 124.647 25.3817L108.437 9.17209Z" fill="#F73D3D"/>
<path d="M86.0102 9.17208C84.4481 7.60998 84.4481 5.07732 86.0102 3.51522V3.51522C87.5723 1.95313 90.105 1.95313 91.6671 3.51522L112.362 24.2103C113.924 25.7724 113.924 28.305 112.362 29.8671V29.8671C110.8 31.4292 108.267 31.4292 106.705 29.8671L86.0102 9.17208Z" fill="#F73D3D"/>
<path d="M65.8258 11.4148C64.2637 9.8527 64.2637 7.32004 65.8258 5.75795V5.75795C67.3879 4.19585 69.9205 4.19585 71.4826 5.75795L100.027 34.3025C101.589 35.8646 101.589 38.3972 100.027 39.9593V39.9593C98.4651 41.5214 95.9324 41.5214 94.3703 39.9593L65.8258 11.4148Z" fill="#F73D3D"/>
<path d="M50.1268 18.1429C48.5647 16.5808 48.5647 14.0482 50.1268 12.4861V12.4861C51.6889 10.924 54.2216 10.924 55.7837 12.4861L91.617 48.3194C93.1791 49.8815 93.1791 52.4142 91.617 53.9763V53.9763C90.0549 55.5384 87.5222 55.5384 85.9601 53.9763L50.1268 18.1429Z" fill="#F73D3D"/>
<path d="M36.1098 26.5531C34.5477 24.991 34.5477 22.4583 36.1098 20.8962V20.8962C37.6719 19.3341 40.2046 19.3341 41.7667 20.8962L88.2529 67.3825C89.815 68.9446 89.815 71.4772 88.2529 73.0393V73.0393C86.6908 74.6014 84.1582 74.6014 82.5961 73.0393L36.1098 26.5531Z" fill="#F73D3D"/>
<path d="M24.8963 37.7667C23.3342 36.2046 23.3342 33.6719 24.8963 32.1098V32.1098C26.4584 30.5477 28.991 30.5477 30.5531 32.1098L94.4204 95.9771C95.9825 97.5392 95.9825 100.072 94.4204 101.634V101.634C92.8583 103.196 90.3256 103.196 88.7635 101.634L24.8963 37.7667Z" fill="#F73D3D"/>
<path d="M16.4861 51.7836C14.924 50.2215 14.924 47.6889 16.4861 46.1268V46.1268C18.0482 44.5647 20.5809 44.5647 22.143 46.1268L93.299 117.283C94.8611 118.845 94.8611 121.378 93.299 122.94V122.94C91.7369 124.502 89.2043 124.502 87.6422 122.94L16.4861 51.7836Z" fill="#F73D3D"/>
<path d="M8.63661 66.3613C7.07451 64.7992 7.07451 62.2665 8.63661 60.7044V60.7044C10.1987 59.1423 12.7314 59.1423 14.2935 60.7044L86.0102 132.421C87.5723 133.983 87.5723 136.516 86.0102 138.078V138.078C84.4481 139.64 81.9155 139.64 80.3534 138.078L8.63661 66.3613Z" fill="#F73D3D"/>
<path d="M4.15118 84.303C2.58908 82.7409 2.58908 80.2082 4.15118 78.6461V78.6461C5.71328 77.084 8.24594 77.084 9.80804 78.6461L73.1146 141.953C74.6767 143.515 74.6767 146.047 73.1146 147.61V147.61C71.5525 149.172 69.0199 149.172 67.4578 147.61L4.15118 84.303Z" fill="#F73D3D"/>
<path d="M3.5905 106.169C2.0284 104.607 2.0284 102.075 3.5905 100.513V100.513C5.15259 98.9505 7.68525 98.9505 9.24735 100.513L52.9302 144.195C54.4923 145.758 54.4923 148.29 52.9302 149.852V149.852C51.3681 151.414 48.8354 151.414 47.2733 149.852L3.5905 106.169Z" fill="#F73D3D"/>
<path d="M10.3186 135.325C8.75655 133.763 8.75655 131.23 10.3186 129.668V129.668C11.8807 128.106 14.4134 128.106 15.9755 129.668L24.3356 138.028C25.8977 139.59 25.8977 142.123 24.3356 143.685V143.685C22.7735 145.247 20.2408 145.247 18.6788 143.685L10.3186 135.325Z" fill="#F73D3D"/>
<path d="M46.4804 161.173C48.0425 162.735 48.0425 165.268 46.4804 166.83V166.83C44.9183 168.392 42.3856 168.392 40.8235 166.83L33.5848 159.591C32.0227 158.029 32.0227 155.496 33.5848 153.934V153.934C35.1469 152.372 37.6795 152.372 39.2416 153.934L46.4804 161.173Z" fill="#6630D9"/>
<path d="M82.3638 174.629C83.9259 176.191 83.9259 178.724 82.3638 180.286V180.286C80.8017 181.848 78.269 181.848 76.7069 180.286L60.4973 164.076C58.9352 162.514 58.9352 159.982 60.4973 158.419V158.419C62.0594 156.857 64.5921 156.857 66.1542 158.419L82.3638 174.629Z" fill="#6630D9"/>
<path d="M104.791 174.629C106.353 176.191 106.353 178.724 104.791 180.286V180.286C103.229 181.848 100.696 181.848 99.1341 180.286L78.4391 159.591C76.877 158.029 76.877 155.496 78.4391 153.934V153.934C80.0012 152.372 82.5338 152.372 84.0959 153.934L104.791 174.629Z" fill="#6630D9"/>
<path d="M124.975 172.386C126.537 173.948 126.537 176.481 124.975 178.043V178.043C123.413 179.605 120.881 179.605 119.319 178.043L90.774 149.499C89.2119 147.937 89.2119 145.404 90.774 143.842V143.842C92.3361 142.28 94.8687 142.28 96.4308 143.842L124.975 172.386Z" fill="#6630D9"/>
<path d="M140.674 165.658C142.236 167.22 142.236 169.753 140.674 171.315V171.315C139.112 172.877 136.58 172.877 135.018 171.315L99.1842 135.482C97.6221 133.92 97.6221 131.387 99.1842 129.825V129.825C100.746 128.263 103.279 128.263 104.841 129.825L140.674 165.658Z" fill="#6630D9"/>
<path d="M154.691 157.248C156.253 158.81 156.253 161.343 154.691 162.905V162.905C153.129 164.467 150.597 164.467 149.034 162.905L102.548 116.419C100.986 114.857 100.986 112.324 102.548 110.762V110.762C104.11 109.2 106.643 109.2 108.205 110.762L154.691 157.248Z" fill="#6630D9"/>
<path d="M165.905 146.034C167.467 147.597 167.467 150.129 165.905 151.691V151.691C164.343 153.253 161.81 153.253 160.248 151.691L96.3808 87.824C94.8187 86.2619 94.8187 83.7293 96.3808 82.1672V82.1672C97.9429 80.6051 100.476 80.6051 102.038 82.1672L165.905 146.034Z" fill="#6630D9"/>
<path d="M174.315 132.018C175.877 133.58 175.877 136.112 174.315 137.674V137.674C172.753 139.236 170.22 139.236 168.658 137.674L97.5021 66.5183C95.94 64.9562 95.94 62.4235 97.5021 60.8614V60.8614C99.0642 59.2993 101.597 59.2993 103.159 60.8614L174.315 132.018Z" fill="#6630D9"/>
<path d="M182.165 117.44C183.727 119.002 183.727 121.535 182.165 123.097V123.097C180.602 124.659 178.07 124.659 176.508 123.097L104.791 51.38C103.229 49.8179 103.229 47.2852 104.791 45.7231V45.7231C106.353 44.161 108.886 44.161 110.448 45.7231L182.165 117.44Z" fill="#6630D9"/>
<path d="M186.65 99.4982C188.212 101.06 188.212 103.593 186.65 105.155V105.155C185.088 106.717 182.555 106.717 180.993 105.155L117.687 41.8484C116.124 40.2863 116.124 37.7537 117.687 36.1916V36.1916C119.249 34.6295 121.781 34.6295 123.343 36.1916L186.65 99.4982Z" fill="#6630D9"/>
<path d="M187.211 77.6317C188.773 79.1938 188.773 81.7264 187.211 83.2885V83.2885C185.649 84.8506 183.116 84.8506 181.554 83.2885L137.871 39.6057C136.309 38.0436 136.309 35.5109 137.871 33.9488V33.9488C139.433 32.3867 141.966 32.3867 143.528 33.9488L187.211 77.6317Z" fill="#6630D9"/>
<path d="M180.483 48.4764C182.045 50.0385 182.045 52.5712 180.483 54.1333V54.1333C178.92 55.6954 176.388 55.6954 174.826 54.1333L166.466 45.7732C164.903 44.2111 164.903 41.6784 166.466 40.1163V40.1163C168.028 38.5542 170.56 38.5542 172.122 40.1163L180.483 48.4764Z" fill="#6630D9"/>
</svg>
