<svg width="154" height="148" viewBox="0 0 154 148" fill="none" xmlns="http://www.w3.org/2000/svg">
<path d="M117.11 16.741C115.821 15.4518 115.821 13.3615 117.11 12.0724C118.399 10.7832 120.49 10.7832 121.779 12.0724L127.752 18.0465C129.041 19.3357 129.041 21.4258 127.752 22.715C126.463 24.0042 124.374 24.0042 123.084 22.715L117.11 16.741Z" fill="#FF9696"/>
<path d="M87.4959 5.63545C86.2068 4.34626 86.2068 2.25608 87.4959 0.966891C88.785 -0.322297 90.8755 -0.322297 92.1646 0.966891L105.543 14.3445C106.832 15.6337 106.832 17.7239 105.543 19.0131C104.253 20.3023 102.163 20.3023 100.874 19.0131L87.4959 5.63545Z" fill="#FF9696"/>
<path d="M68.9869 5.63545C67.6977 4.34626 67.6977 2.25607 68.9869 0.966885C70.2761 -0.322295 72.3663 -0.322295 73.6555 0.966885L90.7348 18.0464C92.0239 19.3356 92.0239 21.4257 90.7348 22.7149C89.4457 24.0041 87.3553 24.0041 86.0662 22.7149L68.9869 5.63545Z" fill="#FF9696"/>
<path d="M52.3287 7.48749C51.0395 6.19831 51.0395 4.10812 52.3287 2.81894C53.6179 1.52975 55.708 1.52975 56.9972 2.81894L80.5547 26.3765C81.8438 27.6657 81.8438 29.7558 80.5547 31.045C79.2657 32.3342 77.1754 32.3342 75.8863 31.045L52.3287 7.48749Z" fill="#FF9696"/>
<path d="M39.3724 13.0392C38.0832 11.75 38.0832 9.65989 39.3724 8.3707C40.6616 7.08151 42.7518 7.08151 44.041 8.3707L73.6139 37.9436C74.9031 39.2328 74.9031 41.323 73.6139 42.6122C72.3247 43.9014 70.2345 43.9014 68.9453 42.6122L39.3724 13.0392Z" fill="#FF9696"/>
<path d="M27.8045 19.9812C26.5153 18.692 26.5153 16.6018 27.8045 15.3126C29.0937 14.0234 31.1839 14.0234 32.4731 15.3126L70.8378 53.6774C72.127 54.9665 72.127 57.0567 70.8378 58.3459C69.5486 59.635 67.4585 59.635 66.1693 58.3459L27.8045 19.9812Z" fill="#FF9696"/>
<path d="M18.5499 29.2346C17.2607 27.9454 17.2607 25.8552 18.5499 24.566C19.8391 23.2768 21.9292 23.2768 23.2184 24.566L75.9276 77.2752C77.2168 78.5644 77.2168 80.6547 75.9276 81.9438C74.6384 83.2329 72.5482 83.2329 71.259 81.9438L18.5499 29.2346Z" fill="#FF9696"/>
<path d="M11.6095 40.8034C10.3203 39.5142 10.3203 37.424 11.6095 36.1349C12.8987 34.8457 14.9889 34.8457 16.2781 36.1349L75.0025 94.8595C76.2917 96.1486 76.2917 98.2391 75.0025 99.5282C73.7133 100.817 71.6232 100.817 70.334 99.5282L11.6095 40.8034Z" fill="#FF9696"/>
<path d="M5.1312 52.8337C3.84201 51.5445 3.84201 49.4543 5.1312 48.1651C6.42038 46.8759 8.51059 46.8759 9.79978 48.1651L68.987 107.352C70.2762 108.641 70.2762 110.732 68.987 112.021C67.6978 113.31 65.6077 113.31 64.3185 112.021L5.1312 52.8337Z" fill="#FF9696"/>
<path d="M1.42929 67.6413C0.140105 66.3522 0.140105 64.2619 1.42929 62.9728C2.71848 61.6836 4.80867 61.6836 6.09785 62.9728L58.3442 115.219C59.6334 116.509 59.6334 118.598 58.3442 119.888C57.055 121.177 54.9649 121.177 53.6757 119.888L1.42929 67.6413Z" fill="#FF9696"/>
<path d="M0.966891 85.6863C-0.322297 84.3972 -0.322297 82.3075 0.966891 81.0184C2.25607 79.7289 4.34625 79.7289 5.63544 81.0184L41.6865 117.069C42.9757 118.359 42.9757 120.448 41.6865 121.737C40.3973 123.027 38.3071 123.027 37.0179 121.737L0.966891 85.6863Z" fill="#FF9696"/>
<path d="M6.51959 109.749C5.23045 108.46 5.23045 106.37 6.51959 105.081C7.80878 103.791 9.899 103.791 11.1882 105.081L18.0877 111.98C19.3769 113.269 19.3769 115.36 18.0877 116.649C16.7985 117.938 14.7083 117.938 13.4192 116.649L6.51959 109.749Z" fill="#FF9696"/>
<path d="M36.3637 131.082C37.6529 132.371 37.6529 134.462 36.3637 135.751C35.0745 137.04 32.9843 137.04 31.6951 135.751L25.721 129.777C24.4319 128.488 24.4319 126.397 25.721 125.108C27.0102 123.819 29.1004 123.819 30.3896 125.108L36.3637 131.082Z" fill="white"/>
<path d="M65.978 142.186C67.2672 143.475 67.2672 145.566 65.978 146.855C64.6888 148.144 62.5986 148.144 61.3094 146.855L47.9317 133.477C46.6425 132.188 46.6425 130.098 47.9317 128.808C49.2209 127.519 51.3111 127.519 52.6003 128.808L65.978 142.186Z" fill="white"/>
<path d="M84.4871 142.187C85.7762 143.476 85.7762 145.567 84.4871 146.856C83.198 148.145 81.1075 148.145 79.8185 146.856L62.7391 129.777C61.4499 128.488 61.4499 126.397 62.7391 125.108C64.0283 123.819 66.1184 123.819 67.4076 125.108L84.4871 142.187Z" fill="white"/>
<path d="M101.144 140.335C102.433 141.624 102.433 143.714 101.144 145.003C99.8552 146.292 97.7656 146.292 96.4765 145.003L72.9186 121.446C71.6294 120.157 71.6294 118.066 72.9186 116.777C74.2077 115.488 76.2979 115.488 77.5871 116.777L101.144 140.335Z" fill="white"/>
<path d="M114.101 134.783C115.39 136.072 115.39 138.163 114.101 139.452C112.812 140.741 110.722 140.741 109.433 139.452L79.8597 109.879C78.5705 108.59 78.5705 106.5 79.8597 105.21C81.1487 103.921 83.2391 103.921 84.5282 105.21L114.101 134.783Z" fill="white"/>
<path d="M125.669 127.843C126.958 129.132 126.958 131.223 125.669 132.512C124.38 133.801 122.29 133.801 121 132.512L82.6355 94.1472C81.3464 92.8581 81.3464 90.7677 82.6355 89.4785C83.9246 88.1894 86.0151 88.1894 87.3042 89.4785L125.669 127.843Z" fill="white"/>
<path d="M134.924 118.588C136.213 119.878 136.213 121.967 134.924 123.256C133.635 124.546 131.544 124.546 130.255 123.256L77.5462 70.5475C76.257 69.2583 76.257 67.1682 77.5462 65.879C78.8354 64.5898 80.926 64.5898 82.2151 65.879L134.924 118.588Z" fill="white"/>
<path d="M141.864 107.02C143.153 108.309 143.153 110.399 141.864 111.688C140.575 112.977 138.485 112.977 137.196 111.688L78.4713 52.9636C77.1821 51.6744 77.1821 49.5842 78.4713 48.295C79.7605 47.0058 81.8508 47.0058 83.1399 48.295L141.864 107.02Z" fill="white"/>
<path d="M148.342 94.9887C149.632 96.2778 149.632 98.3683 148.342 99.6574C147.053 100.947 144.963 100.947 143.674 99.6574L84.4864 40.47C83.1973 39.1808 83.1973 37.0906 84.4864 35.8014C85.7755 34.5122 87.8659 34.5122 89.155 35.8014L148.342 94.9887Z" fill="white"/>
<path d="M152.044 80.1825C153.333 81.4715 153.333 83.5619 152.044 84.8511C150.755 86.1402 148.665 86.1402 147.376 84.8511L95.1298 32.6046C93.8399 31.3155 93.8399 29.2253 95.1298 27.9361C96.4189 26.6469 98.5086 26.6469 99.7977 27.9361L152.044 80.1825Z" fill="white"/>
<path d="M152.507 62.1352C153.796 63.4244 153.796 65.5145 152.507 66.8037C151.218 68.0929 149.128 68.0929 147.839 66.8037L111.787 30.7527C110.498 29.4635 110.498 27.3733 111.787 26.0841C113.076 24.7949 115.167 24.7949 116.456 26.0841L152.507 62.1352Z" fill="white"/>
<path d="M146.955 38.0739C148.244 39.3631 148.244 41.4533 146.955 42.7425C145.665 44.0317 143.575 44.0317 142.286 42.7425L135.386 35.843C134.096 34.5538 134.096 32.4636 135.386 31.1744C136.675 29.8852 138.765 29.8852 140.054 31.1744L146.955 38.0739Z" fill="white"/>
</svg>
