<svg width="196" height="32" viewBox="0 0 196 32" fill="none" xmlns="http://www.w3.org/2000/svg">
<g clip-path="url(#clip0_471_47)">
<mask id="mask0_471_47" style="mask-type:luminance" maskUnits="userSpaceOnUse" x="0" y="0" width="196" height="32">
<path d="M195.81 0H0V32H195.81V0Z" fill="white"/>
</mask>
<g mask="url(#mask0_471_47)">
<path d="M14.8091 8.62325H10.6192V3.31033H4.18989V8.62325H0V14.9987H4.18989V32H10.6192V14.9987H14.8091V8.62325Z" fill="#222222"/>
<path d="M71.373 7.46667C65.9267 7.46667 61.577 10.3436 61.577 14.8986C61.577 19.6534 64.9397 21.3716 70.057 22.2106C73.7489 22.81 75.211 23.5292 75.211 24.648C75.211 25.7267 73.6757 26.5658 71.5922 26.5658C69.5452 26.5658 67.9371 24.985 67.7176 23.4667H61.4307C61.6498 28.3812 65.8901 32 71.4825 32C76.9288 32 81.5345 29.0433 81.5345 24.2484C81.5345 20.2128 79.2684 17.9353 72.9448 16.8964C69.2895 16.2571 67.8639 15.6977 67.8639 14.539C67.8639 13.5001 69.2895 12.741 71.2633 12.741C73.164 12.741 74.6627 13.4602 74.8821 14.8986H81.1691C80.9131 10.2637 76.7097 7.46667 71.373 7.46667Z" fill="#222222"/>
<path d="M97.4057 8.53334H93.2145V3.20001H86.7835V8.53334H82.5923V14.9333H86.7835V32H93.2145V14.9333H97.4057V8.53334Z" fill="#222222"/>
<path d="M112.287 32C118.484 32 122.801 27.1662 122.801 20.4965C122.801 13.8267 118.484 8.99297 112.287 8.99297C109.446 8.99297 107.38 10.0047 106.089 11.7658V0H99.5225V32H106.089V29.8712C107.38 31.6323 109.446 32 112.287 32ZM111.254 26.3045C108.044 26.3045 105.978 23.8689 105.978 20.4965C105.978 17.1241 108.044 14.6885 111.254 14.6885C114.39 14.6885 116.382 17.1241 116.382 20.4965C116.382 23.8689 114.39 26.3045 111.254 26.3045Z" fill="#222222"/>
<path d="M134.372 32C137.213 32 139.279 31.665 140.57 29.8687V32H147.137V9.06839H140.57V11.3615C139.279 9.56525 137.213 8.53333 134.372 8.53333C128.175 8.53333 123.858 13.4636 123.858 20.2667C123.858 27.0697 128.175 32 134.372 32ZM135.405 26.1907C132.27 26.1907 130.277 23.7064 130.277 20.2667C130.277 16.8269 132.27 14.3426 135.405 14.3426C138.615 14.3426 140.681 16.8269 140.681 20.2667C140.681 23.7064 138.615 26.1907 135.405 26.1907Z" fill="#222222"/>
<path d="M149.304 32H156.215V20.2275C156.215 16.6684 157.845 14.5173 160.563 14.5173C163.165 14.5173 164.562 16.4338 164.562 19.9147V32H171.473V18.7413C171.473 12.4053 167.863 8.53333 162.582 8.53333C159.67 8.53333 157.574 8.83628 156.215 10.6745V9.08088H149.304V32Z" fill="#222222"/>
<path d="M188.229 32H195.81L186.959 19.2L195.361 9.67619H187.967L180.237 18.781V0H173.589V32H180.237V26.8571L182.888 23.8095L188.229 32Z" fill="#222222"/>
<path fill-rule="evenodd" clip-rule="evenodd" d="M59.2365 25.6802L55.091 32H17.0029L21.1484 25.6802H59.2365ZM30.5071 17.2541L26.3619 23.5738L17.0029 23.5738L21.1484 17.2541H30.5071ZM59.2365 17.2541L55.091 23.5738H31.3955L35.5413 17.2541H59.2365ZM59.2365 8.82788L55.091 15.1476L17.0029 15.1477L21.1484 8.82788H59.2365Z" fill="#2070F0"/>
</g>
</g>
<defs>
<clipPath id="clip0_471_47">
<rect width="195.81" height="32" fill="white"/>
</clipPath>
</defs>
</svg>
