<svg xmlns="http://www.w3.org/2000/svg" viewBox="0 0 734.5 266.52"><title>자산 1</title><g id="레이어_2" data-name="레이어 2"><g id="레이어_1-2" data-name="레이어 1"><path d="M19.93,234.2h7.38v7.06a9.22,9.22,0,0,1-3,1.1,17.31,17.31,0,0,1-3.55.35,16,16,0,0,1-5.82-1,12.55,12.55,0,0,1-4.52-2.94,13.58,13.58,0,0,1-2.94-4.61,16.2,16.2,0,0,1-1-5.95,19.18,19.18,0,0,1,1-6.44,13.12,13.12,0,0,1,2.88-4.81,12.24,12.24,0,0,1,4.55-3,16.89,16.89,0,0,1,6.06-1,15.15,15.15,0,0,1,3,.35,22.4,22.4,0,0,1,3.28,1,14.27,14.27,0,0,1,2.64,1.25l2.05-6.3a20.65,20.65,0,0,0-5.2-2.21,23.56,23.56,0,0,0-6.6-.88,20.44,20.44,0,0,0-7.67,1.46A18.47,18.47,0,0,0,6,211.89,20.72,20.72,0,0,0,1.61,219,27.41,27.41,0,0,0,0,228.78,22.77,22.77,0,0,0,1.45,237a18.79,18.79,0,0,0,10.64,10.9,22.1,22.1,0,0,0,8.54,1.58,19.29,19.29,0,0,0,3.66-.38,26.51,26.51,0,0,0,3.77-1,27.93,27.93,0,0,0,3.31-1.4,8.07,8.07,0,0,0,2.24-1.58V227.67H19.93Z" style="fill:#ceae73"/><path d="M78.93,212.56a20.63,20.63,0,0,0-6.41-4.75,18.34,18.34,0,0,0-15.51,0,20.17,20.17,0,0,0-6.38,4.75,23.07,23.07,0,0,0-4.31,6.94,22.32,22.32,0,0,0-1.56,8.34,22.88,22.88,0,0,0,1.56,8.49,21.73,21.73,0,0,0,4.31,6.88A20.15,20.15,0,0,0,57,247.82a19,19,0,0,0,15.54,0,20.28,20.28,0,0,0,6.41-4.64,22.38,22.38,0,0,0,5.95-15.34,22,22,0,0,0-1.59-8.34A23.21,23.21,0,0,0,78.93,212.56Zm-1.56,21.17a15.59,15.59,0,0,1-2.88,4.81,13.41,13.41,0,0,1-4.29,3.24A12,12,0,0,1,65,243a12.42,12.42,0,0,1-5.38-1.17,13.83,13.83,0,0,1-4.37-3.24,15.15,15.15,0,0,1-2.93-4.81,16.29,16.29,0,0,1-1.05-5.89,17,17,0,0,1,1-5.92,15.43,15.43,0,0,1,2.88-4.87,13.38,13.38,0,0,1,4.34-3.26,12.73,12.73,0,0,1,10.66,0,13.05,13.05,0,0,1,4.31,3.26,16.6,16.6,0,0,1,2.91,4.84,16.1,16.1,0,0,1,1.08,6A16.29,16.29,0,0,1,77.37,233.73Z" style="fill:#ceae73"/><polygon points="103.57 206.56 97.27 206.56 97.27 249.01 122.85 249.01 122.85 242.48 103.57 242.48 103.57 206.56" style="fill:#ceae73"/><path d="M163,213.56a18.17,18.17,0,0,0-6.65-5.08,23.36,23.36,0,0,0-9.93-1.92H135.24V249h13a19.54,19.54,0,0,0,7.46-1.43,18.74,18.74,0,0,0,6.25-4.14,19.62,19.62,0,0,0,4.28-6.5,22.34,22.34,0,0,0,1.56-8.57,27.19,27.19,0,0,0-1.16-7.79A20.31,20.31,0,0,0,163,213.56Zm-2.66,20.58a12.47,12.47,0,0,1-3,4.58,13.05,13.05,0,0,1-4.5,2.8,16.33,16.33,0,0,1-5.71,1h-5.6V213h6.57a13.17,13.17,0,0,1,4.58.85A12.89,12.89,0,0,1,157,216.5a13.05,13.05,0,0,1,3.18,4.61,19.37,19.37,0,0,1,.16,13Z" style="fill:#ceae73"/><polygon points="186.51 230.93 204.07 230.93 204.07 224.4 186.51 224.4 186.51 213.09 206.22 213.09 206.22 206.56 180.21 206.56 180.21 249.01 206.97 249.01 206.97 242.48 186.51 242.48 186.51 230.93" style="fill:#ceae73"/><polygon points="248.07 206.56 248.17 235.15 220.01 205.1 219.69 205.1 219.69 249.01 226.04 249.01 225.88 220.85 254.15 250.53 254.31 250.53 254.31 206.56 248.07 206.56" style="fill:#ceae73"/><path d="M554.76,231.25a12.69,12.69,0,0,0,2.28-4.52,18.41,18.41,0,0,0,.7-5,15,15,0,0,0-1-5.8,12.17,12.17,0,0,0-2.93-4.29,12.35,12.35,0,0,0-4.58-2.65,18.61,18.61,0,0,0-5.92-.91h-11v42.46h6.3V235.77h5.65l.63,0,8.85,14.78h7.27l-9.54-16.45A11.44,11.44,0,0,0,554.76,231.25ZM538.52,214.6h5.81a6.92,6.92,0,0,1,3.4.76,6.45,6.45,0,0,1,2.13,1.9,7.83,7.83,0,0,1,1.1,2.39,9.53,9.53,0,0,1,.32,2.3,8.88,8.88,0,0,1-.35,2.36,7.6,7.6,0,0,1-1.13,2.37,5.91,5.91,0,0,1-2.18,1.83,7.5,7.5,0,0,1-3.5.73h-5.6Z" style="fill:#ceae73"/><path d="M585.59,206.32l-17.34,44.21h6.14l3.78-10h14.31l3.61,10h7.22L586,206.32Zm-5.2,28.4,5.1-13.43,4.87,13.43Z" style="fill:#ceae73"/><path d="M632.6,228.35a10.53,10.53,0,0,0,3.51-3.45,11.53,11.53,0,0,0,1.56-6.16q0-5.42-3.48-8t-9.45-2.63H614v42.46h12.23a18.37,18.37,0,0,0,5-.67,12.55,12.55,0,0,0,4.26-2.13,10.32,10.32,0,0,0,3-3.76,13.05,13.05,0,0,0,1.1-5.63,9.89,9.89,0,0,0-2-6.15A12.67,12.67,0,0,0,632.6,228.35ZM620.33,214.6H625a7,7,0,0,1,4.52,1.35,5.1,5.1,0,0,1,1.67,4.25,6.78,6.78,0,0,1-1.32,4.17,4.84,4.84,0,0,1-4.17,1.78h-5.38Zm11.84,27.09a5.53,5.53,0,0,1-2.58,1.93,10.09,10.09,0,0,1-3.61.61h-5.65V232.68h5.22a12.37,12.37,0,0,1,3.61.53A6.23,6.23,0,0,1,632,235a4.84,4.84,0,0,1,1.13,3.44A5.35,5.35,0,0,1,632.17,241.69Z" style="fill:#ceae73"/><path d="M670.57,228.35a10.53,10.53,0,0,0,3.51-3.45,11.53,11.53,0,0,0,1.56-6.16q0-5.42-3.48-8t-9.45-2.63H652v42.46h12.23a18.37,18.37,0,0,0,4.95-.67,12.55,12.55,0,0,0,4.26-2.13,10.32,10.32,0,0,0,3-3.76,13.05,13.05,0,0,0,1.1-5.63,9.89,9.89,0,0,0-2-6.15A12.67,12.67,0,0,0,670.57,228.35ZM658.3,214.6H663A7,7,0,0,1,667.5,216a5.1,5.1,0,0,1,1.67,4.25,6.78,6.78,0,0,1-1.32,4.17,4.84,4.84,0,0,1-4.17,1.78H658.3Zm11.84,27.09a5.53,5.53,0,0,1-2.58,1.93,10.09,10.09,0,0,1-3.61.61H658.3V232.68h5.22a12.37,12.37,0,0,1,3.61.53A6.23,6.23,0,0,1,670,235a4.84,4.84,0,0,1,1.13,3.44A5.35,5.35,0,0,1,670.14,241.69Z" style="fill:#ceae73"/><rect x="689.96" y="208.07" width="6.3" height="42.45" style="fill:#ceae73"/><polygon points="708.27 208.07 708.27 214.6 718.13 214.6 718.13 250.53 724.38 250.53 724.38 214.6 734.5 214.6 734.5 208.07 708.27 208.07" style="fill:#ceae73"/><path d="M350.87,32.63a5.67,5.67,0,1,0,.83,8h0A5.68,5.68,0,0,0,350.87,32.63Z" style="fill:#ceae73"/><path d="M340.28,174.53a2.21,2.21,0,1,0,2.53,1.83A2.21,2.21,0,0,0,340.28,174.53Z" style="fill:#ceae73"/><path d="M399.14,117.92a2.21,2.21,0,1,0-3.11.32A2.22,2.22,0,0,0,399.14,117.92Z" style="fill:#ceae73"/><path d="M405.87,138.79a4.56,4.56,0,0,0,5.74-7.09,4.56,4.56,0,0,0-5.74,7.09Z" style="fill:#ceae73"/><path d="M381.7,50.63a2.54,2.54,0,0,0,2.45,3.19,2.61,2.61,0,0,0,2.36-1.52c1-2.22,4.28-3.37,5.43-3.62a2.54,2.54,0,0,0,.61-4.78c-1.93-1-1.36-4.4-1.34-4.48a2.52,2.52,0,0,0-1.84-2.9,2.58,2.58,0,0,0-2.94,1.27c-.14.24-1.88,3-3.9,2.53a2.55,2.55,0,0,0-2.64,4C380.57,45.24,382.37,48.26,381.7,50.63Z" style="fill:#ceae73"/><path d="M328.07,188.83c-1.93-1-1.36-4.4-1.34-4.48a2.53,2.53,0,0,0-1.84-2.9,2.58,2.58,0,0,0-2.94,1.27c-.14.24-1.88,3.05-3.91,2.53a2.55,2.55,0,0,0-2.63,4c.72,1,2.47,3.93,1.81,6.28a2.54,2.54,0,0,0,2.45,3.19,2.63,2.63,0,0,0,2.36-1.53c1-2.22,4.27-3.36,5.43-3.62a2.55,2.55,0,0,0,.61-4.78Z" style="fill:#ceae73"/><path d="M477.3,29.76C420.24-16.57,336.1-7.84,289.77,49.23s-37.61,141.19,19.46,187.53A133.47,133.47,0,0,0,496.76,217.3h0C543.1,160.23,534.37,76.1,477.3,29.76Zm-72.5,165.9a5.47,5.47,0,1,1,.8,7.69A5.47,5.47,0,0,1,404.8,195.66ZM296.07,216.88c-3.26-15.95-2.22-31.81,1.06-46.55,1.94-4.73,4.69-6.65,5.76-7.23a71.77,71.77,0,0,0,10.23.81c13.33,0,21.16-4.51,25.6-8.79a25.25,25.25,0,0,0,7.33-13s0-.07,0-.11a3.53,3.53,0,0,0-1.06-3,3.15,3.15,0,0,0-2.81-.73,3.37,3.37,0,0,0-2.33,2.07,3.44,3.44,0,0,1-1.4.87,15.15,15.15,0,0,1-3.8.85c-1.92.21-3.83.27-5.86.33a44.79,44.79,0,0,0-10.94,1.23,26.84,26.84,0,0,0-14.1,8.82,21.09,21.09,0,0,0-3.05,5.19s-.19.56-.36,1.07l-.17.1a182.82,182.82,0,0,1,11.94-29.05,45.29,45.29,0,0,1,4.41-1,8.45,8.45,0,0,0,1.19.23,5,5,0,0,1,.56.09,48.28,48.28,0,0,0,13.14,2,32.3,32.3,0,0,0,13.42-2.74,35.19,35.19,0,0,0,6.55-3.65c.06,0,5.9-4.45,4.38-7.85a3.68,3.68,0,0,0-1-1.24,9,9,0,0,0-4.08-1.16c-.29,0-.57-.06-.78-.1a42.11,42.11,0,0,0-26,3.39,26.65,26.65,0,0,0-8.41,6.09l-.16,0A198.45,198.45,0,0,1,331.87,98.3a46.29,46.29,0,0,0,5.29.5c.5,0,1,0,1.48,0,12.57,0,22.18-8.62,26.69-16.24l.22-.35c.54-.83,1.66-2.55.65-4.39h0A3.77,3.77,0,0,0,364,76.12a12.88,12.88,0,0,0-2.52-.48l-.75-.1a22.68,22.68,0,0,0-8.56.26,26.24,26.24,0,0,0-7.74,3.55l-1.77,1.07c-1.46.87-3,1.76-4.42,2.77a33.5,33.5,0,0,0-6.68,5.75c2.09-5.48,2-11.75,1.54-17.43-.11-1.43-.26-2.86-.4-4.29l-.17-1.7c0-.2,0-.47,0-.77,0-1.78-.06-4.48-2-5.9a3.28,3.28,0,0,0-3.06-.51,4.06,4.06,0,0,0-2.45,2.93c-.26,1-.46,1.93-.66,2.92-.12.61-.24,1.23-.39,1.84A58.64,58.64,0,0,0,322,79.32a37.69,37.69,0,0,0,.59,7,36,36,0,0,0,.88,3.69c.06.19.19.54.37,1,.1.25.32.77.44,1.1a2.38,2.38,0,0,0,.09.88,28.12,28.12,0,0,1-.37,7.26c-2.3,3.16-5.2,7.4-8.38,12.53l-.2-1.13c.31-.57.85-1.45,1.07-1.79s.37-.62.41-.7a33.54,33.54,0,0,0,2.22-5.39,29.93,29.93,0,0,0,1.52-12.54,39.55,39.55,0,0,0-2.95-9.9,42,42,0,0,1-2.36-8.77c-.22-1.36-.39-2.71-.5-4.06s-.32-3.85-2.46-4.57a3,3,0,0,0-3.23,1,6.12,6.12,0,0,0-1.21,2.86c0,.18-.07.36-.11.49-.32,1-.61,2-.89,3-.56,2-1.05,4.07-1.46,6.13a74.42,74.42,0,0,0-1.56,16.39c.28,8.11,2.48,14.42,6.5,18.84l1.23,6.89a199.06,199.06,0,0,0-11.92,24.71A10.8,10.8,0,0,0,299,143c2.09-10.3-3.05-20.13-7.19-26.73-1.34-2.08-2.68-4.33-4.08-6.89l-.24-.42c-2.11-3.84-4.11-7.47-4.27-11.23a3.05,3.05,0,0,0-.46-1.54,2.83,2.83,0,0,0-2.7-1.23c-3,.47-4.93,7.55-4.95,7.63a33,33,0,0,0-1,8.93c.17,7.88,3,15.45,8.28,22.5,1.48,1.95,3.17,4,5.33,6.37a25.75,25.75,0,0,0,6.71,5.38,2.55,2.55,0,0,0,.35.14c1.14,1.4,1.84,4.19,2.1,5.9-5.89,17.12-9.53,36.72-7.23,57A128.28,128.28,0,0,1,450.7,18.61a31.85,31.85,0,0,0-20.28,32.6c.12,1.34.32,2.66.57,4,1.26,6.79,4.07,13.28,7.31,19.42,14.84,28.15,41.89,62.46,19.69,94.67a5.1,5.1,0,0,1-2.95,2.43c-1.27.24-2.5-.46-3.62-1.09-1.55-.88-3.13-1.67-4.72-2.42-26.63-12.49-60.08-7.1-81.24,13.53-17.53,17.08-24.93,46.46-19.47,70.72a128.13,128.13,0,0,1-33.55-19.65A130.5,130.5,0,0,1,296.07,216.88Z" style="fill:#ceae73"/><path d="M423.43,107.64l1.46,2.23c1.3,2,2.63,4,3.95,6,3.84,5.82,7.8,11.84,11.31,18,4.43,7.82,9.27,17,10.52,26.92a28.71,28.71,0,0,1,.07,5.07c.91.46,1.76.92,2.57,1.37.26.15.67.39,1,.54.12-.14.3-.37.54-.71,17.44-25.31,1.57-52.93-12.43-77.29-2.68-4.66-5.2-9.06-7.5-13.42a85.24,85.24,0,0,1-6.19-14.46c-7.84,7.3-14.15,18.47-13,29C416.41,97,419.82,102.16,423.43,107.64Z" style="fill:#ceae73"/></g></g></svg>