<svg xmlns="http://www.w3.org/2000/svg" viewBox="0 0 198.43 50.61"><title>자산 1</title><g id="레이어_2" data-name="레이어 2"><g id="Layer_1" data-name="Layer 1"><polygon points="74.15 16.6 70.88 7.26 65.39 7.26 65.39 21.65 68.69 21.65 68.61 10.88 68.63 10.88 72.77 21.65 75.55 21.65 79.69 10.88 79.69 10.88 79.62 21.65 82.92 21.65 82.92 7.26 77.42 7.26 74.15 16.6" style="fill:#231815"/><path d="M107.35,13.49v2.88h3.54a8.11,8.11,0,0,1-.06,1.16.86.86,0,0,1-.74.75,30.64,30.64,0,0,1-3.2.12c-1.51,0-2.42-.06-2.72-.09a1.22,1.22,0,0,1-1.1-1.12,19,19,0,0,1-.13-2.79,17.1,17.1,0,0,1,.12-2.48,1.22,1.22,0,0,1,.93-1.09,15.39,15.39,0,0,1,2.89-.18,23.38,23.38,0,0,1,3.14.13.8.8,0,0,1,.71.65,4.46,4.46,0,0,1,0,.8h3.35c0-.6,0-1,0-1.33a5.11,5.11,0,0,0-.58-2.36,3,3,0,0,0-1.87-1.16,20.72,20.72,0,0,0-4.47-.33,35.75,35.75,0,0,0-3.89.17,8.55,8.55,0,0,0-1.58.3,2.24,2.24,0,0,0-.93.54,3.83,3.83,0,0,0-1,2.21,26.21,26.21,0,0,0-.2,3.91c0,1.1,0,2.13,0,3.1a9.5,9.5,0,0,0,.25,2,2.8,2.8,0,0,0,2.29,2.24,23.91,23.91,0,0,0,4.45.29c1.17,0,2.18,0,3-.06a10.79,10.79,0,0,0,2.22-.32c1.31-.35,2-1.35,2.16-3,.08-1,.11-2.48.11-4.36,0-.1,0-.3,0-.62Z" style="fill:#231815"/><path d="M123,7.26l-5.83,14.39h3.82l.94-2.44h7.27l.94,2.44h3.8L128.14,7.26Zm.12,8.8,2.12-5.45h.67L128,16.06Z" style="fill:#231815"/><polygon points="149.35 10.71 149.35 7.26 137.03 7.26 137.03 10.71 143.93 10.71 136.86 18.18 136.86 21.65 149.58 21.65 149.58 18.18 142.17 18.18 149.35 10.71" style="fill:#231815"/><path d="M165,7.29a32,32,0,0,0-4.8-.24,33.85,33.85,0,0,0-5,.24,2.77,2.77,0,0,0-2.36,2.39,26.26,26.26,0,0,0-.29,4.78,26.41,26.41,0,0,0,.29,4.78,2.78,2.78,0,0,0,2.36,2.39,34.61,34.61,0,0,0,4.89.23,34.68,34.68,0,0,0,4.9-.23,2.79,2.79,0,0,0,2.36-2.39,27.38,27.38,0,0,0,.29-4.78,27.38,27.38,0,0,0-.29-4.78A2.78,2.78,0,0,0,165,7.29Zm-.81,9.45A1.37,1.37,0,0,1,163,18a20,20,0,0,1-2.89.13,19.92,19.92,0,0,1-2.88-.13A1.39,1.39,0,0,1,156,16.74a14.1,14.1,0,0,1-.1-1.93,14.56,14.56,0,0,1,.18-2.83,1.28,1.28,0,0,1,.84-1,15,15,0,0,1,3.06-.18c1.2,0,1.95,0,2.22,0a2.52,2.52,0,0,1,1.52.42,2.22,2.22,0,0,1,.52,1.44c.05.44.07,1.17.07,2.2A10.45,10.45,0,0,1,164.18,16.74Z" style="fill:#231815"/><path d="M117.4,29a31.8,31.8,0,0,0-4.8-.24,33.85,33.85,0,0,0-5,.24,2.77,2.77,0,0,0-2.36,2.39,26.26,26.26,0,0,0-.29,4.78,26.41,26.41,0,0,0,.29,4.78,2.78,2.78,0,0,0,2.36,2.39,34.78,34.78,0,0,0,4.9.23,34.51,34.51,0,0,0,4.89-.23A2.79,2.79,0,0,0,119.76,41a27.12,27.12,0,0,0,.3-4.78,27.12,27.12,0,0,0-.3-4.78A2.78,2.78,0,0,0,117.4,29Zm-.8,9.45a1.37,1.37,0,0,1-1.21,1.25,19.92,19.92,0,0,1-2.88.13,20.18,20.18,0,0,1-2.89-.13,1.37,1.37,0,0,1-1.21-1.25,12.62,12.62,0,0,1-.1-1.93,14.81,14.81,0,0,1,.17-2.83,1.3,1.3,0,0,1,.84-1,15.31,15.31,0,0,1,3.06-.17c1.2,0,2,0,2.23,0a2.59,2.59,0,0,1,1.51.41,2.27,2.27,0,0,1,.53,1.44c0,.44.06,1.17.06,2.21A11.72,11.72,0,0,1,116.6,38.47Z" style="fill:#231815"/><polygon points="181.37 17.99 176.12 7.26 170.61 7.26 170.61 21.65 173.96 21.65 173.96 10.91 179.25 21.65 184.72 21.65 184.72 7.26 181.37 7.26 181.37 17.99" style="fill:#231815"/><polygon points="187.68 21.65 198.43 21.65 198.43 18.19 190.98 18.19 190.98 15.88 198.43 15.88 198.43 12.72 190.98 12.72 190.98 10.64 198.43 10.64 198.43 7.26 187.68 7.26 187.68 21.65" style="fill:#231815"/><polygon points="85.88 21.65 96.62 21.65 96.62 18.19 89.18 18.19 89.18 15.88 96.62 15.88 96.62 12.72 89.18 12.72 89.18 10.64 96.62 10.64 96.62 7.26 85.88 7.26 85.88 21.65" style="fill:#231815"/><path d="M54.7,42.76A28.74,28.74,0,0,0,39,27.35a28.77,28.77,0,0,1-1.85,6.2h0A22.36,22.36,0,0,1,48.24,44.22c-.54,0-1.09.09-1.64.09a22.11,22.11,0,0,1-13.24-4.4L33,39.62c-.12-.09-.26-.18-.38-.28a22.41,22.41,0,0,1-4.4-4.77c-.1-.15-.19-.3-.28-.45s-.19-.3-.28-.45c-.2-.33-.39-.65-.57-1l-.29,0h-.13a21.14,21.14,0,0,0-6,1.32,29.05,29.05,0,0,0,2.63,4.48l.28.39.28.39a28.67,28.67,0,0,0,4.38,4.63l.39.3.39.3a28,28,0,0,0,21.18,5.84,28.76,28.76,0,0,0,6.29-1.53A28.7,28.7,0,0,0,54.7,42.76Z" style="fill:#231815"/><path d="M24.49,24.52h0a20.57,20.57,0,0,1-.18-2.5A22.17,22.17,0,0,1,28.19,9.47,22.16,22.16,0,0,1,32.06,22a20.25,20.25,0,0,1-.17,2.48l-.06.48c0,.16,0,.32-.06.47a22,22,0,0,1-2,6.3l-.25.46-.24.47q-.27.49-.57,1c.08.11.15.25.23.36a21.34,21.34,0,0,0,4.17,4.53A27.63,27.63,0,0,0,35.81,34l.21-.43c.06-.15.14-.29.2-.44A28.07,28.07,0,0,0,38.05,27c0-.16,0-.32.07-.49s0-.32.07-.48a27.66,27.66,0,0,0,.34-4.1A28.58,28.58,0,0,0,32.7,4.61,28.71,28.71,0,0,0,28.36,0a29.34,29.34,0,0,0-4.51,4.74A28.47,28.47,0,0,0,18,22a27.38,27.38,0,0,0,.32,4A29.53,29.53,0,0,1,24.49,24.52Z" style="fill:#231815"/><path d="M23.09,39.87h0A22.22,22.22,0,0,1,9.78,44.31c-.54,0-1.07-.05-1.59-.08A22.28,22.28,0,0,1,19.38,33.54l.44-.19c.15-.06.29-.14.44-.19a22,22,0,0,1,6.31-1.41c.18,0,.36,0,.53,0l.53,0,.58,0,.54,0c.06-.12.13-.23.19-.36a21.08,21.08,0,0,0,1.88-6c-.85-.08-1.71-.15-2.58-.15a26.41,26.41,0,0,0-2.68.16l-.47.05-.48,0A28.63,28.63,0,0,0,18.46,27c-.15.05-.3.13-.45.19l-.45.19A28.36,28.36,0,0,0,0,48.86a28.73,28.73,0,0,0,6.24,1.51,30,30,0,0,0,3.57.24,28.57,28.57,0,0,0,17.65-6.1A29.3,29.3,0,0,1,23.09,39.87Z" style="fill:#231815"/><path d="M157.8,29v3.38H150v2.72h7.78v3.29H150v5h-3.15V29Z" style="fill:#231815"/><path d="M198.43,29v3.66h-4.61V43.38h-3.3V32.66h-4.61V29Z" style="fill:#231815"/><path d="M68.45,38.61c0,.86.06,1.14.31,1.36s.63.3,2.85.3C75,40.27,75,40.27,75,39c0-.86-.23-1.08-1.24-1.1l-2.48-.13-1.68-.11-.83,0c-2.56-.11-3.27-1-3.27-4.18,0-2.73.55-4,2-4.39A22.26,22.26,0,0,1,72,28.79c3,0,4.09.2,4.82.88s.87,1.49.87,3.19c0,.09,0,.39,0,.67h-3c0-.8-.08-1-.31-1.19s-.65-.25-2.89-.25c-2.66,0-2.88.08-2.88,1.14,0,.53.14.82.47.92a17.72,17.72,0,0,0,3.31.26c3.41.15,4.08.26,4.75.84s1,1.62,1,3.62c0,2.5-.43,3.72-1.5,4.28-.62.32-1.92.43-5,.43s-4.46-.19-5.19-.84-1-1.46-1-3.44v-.69Z" style="fill:#231815"/></g></g></svg>