<svg width="248" height="46" viewBox="0 0 248 46" fill="none" xmlns="http://www.w3.org/2000/svg">
<g clip-path="url(#clip0_471_10)">
<path d="M66.634 10.7128V14.5193H58.5754V36.8193H54.292V14.5193H46.2334V10.7128H66.634Z" fill="#222222"/>
<path d="M70.0577 17.724L74.4271 32.3483L78.7886 17.724H82.4779L86.6518 32.3483L91.1696 17.724H95.2654L88.9263 36.8193H84.6039L80.5785 23.8442L76.3968 36.8193L72.0353 36.8583L65.7822 17.724H70.0577Z" fill="#222222"/>
<path d="M100.049 18.7245C101.519 17.8963 103.184 17.4779 104.871 17.5129C106.562 17.4744 108.236 17.8586 109.741 18.6307C111.123 19.3508 112.272 20.4486 113.055 21.7963C113.893 23.2613 114.325 24.9235 114.306 26.6111C114.309 27.1343 114.273 27.6569 114.196 28.1744H99.783V28.4011C99.7974 29.8673 100.354 31.2763 101.346 32.3561C101.839 32.8462 102.429 33.2285 103.077 33.4788C103.726 33.729 104.419 33.8418 105.114 33.81C106.221 33.8457 107.313 33.5401 108.24 32.9345C109.092 32.3456 109.692 31.4587 109.921 30.449H113.946C113.636 32.3358 112.632 34.0389 111.132 35.2247C109.505 36.5023 107.478 37.1639 105.411 37.0928C103.601 37.1341 101.81 36.7174 100.205 35.8813C98.7563 35.0995 97.5666 33.9126 96.7815 32.4656C95.9384 30.885 95.5184 29.1133 95.5622 27.3224C95.5247 25.5319 95.9302 23.7598 96.7424 22.1637C97.4854 20.7192 98.6347 19.5237 100.049 18.7245ZM108.545 21.9292C107.551 21.1245 106.298 20.7079 105.02 20.7567C103.775 20.7274 102.562 21.1557 101.612 21.9604C101.135 22.3615 100.743 22.8535 100.459 23.4077C100.174 23.962 100.003 24.5674 99.955 25.1886H110.21C110.097 23.9204 109.491 22.7473 108.522 21.9214L108.545 21.9292Z" fill="#222222"/>
<path d="M120.997 10.7128V36.8193H116.971V10.7128H120.997Z" fill="#222222"/>
<path d="M126.812 17.724L132.096 32.4968L137.278 17.724H141.475L134.44 36.8193H129.516L122.481 17.724H126.812Z" fill="#222222"/>
<path d="M146.001 18.7245C147.479 17.8881 149.156 17.4668 150.855 17.5051C152.546 17.4666 154.219 17.8508 155.724 18.6229C157.107 19.345 158.258 20.4421 159.046 21.7885C159.859 23.261 160.269 24.9218 160.234 26.6033C160.238 27.1265 160.201 27.6491 160.125 28.1666H145.759V28.3933C145.773 29.8595 146.33 31.2685 147.322 32.3483C147.815 32.8384 148.404 33.2207 149.053 33.4709C149.701 33.7212 150.395 33.834 151.089 33.8022C152.196 33.8334 153.286 33.5282 154.216 32.9267C155.063 32.3348 155.659 31.4487 155.888 30.4411H159.914C159.604 32.328 158.6 34.0311 157.1 35.2169C155.473 36.4957 153.446 37.1574 151.378 37.085C149.563 37.1149 147.769 36.6847 146.165 35.8344C144.716 35.0526 143.527 33.8657 142.741 32.4187C141.914 30.8499 141.503 29.0954 141.546 27.3224C141.506 25.5325 141.908 23.7605 142.718 22.1637C143.455 20.7225 144.595 19.5274 146.001 18.7245ZM154.497 21.9292C153.503 21.1245 152.25 20.708 150.972 20.7567C149.726 20.7296 148.513 21.1607 147.564 21.9683C147.089 22.371 146.699 22.8634 146.414 23.4174C146.13 23.9713 145.958 24.5758 145.907 25.1964H156.162C156.057 23.929 155.459 22.7533 154.497 21.9214V21.9292Z" fill="#222222"/>
<path d="M172.342 10.7128H176.649V33.0127H187.873V36.8193H172.342V10.7128Z" fill="#222222"/>
<path d="M207.453 36.8193H206.015C205.052 36.909 204.091 36.6296 203.326 36.0376C203.039 35.7361 202.818 35.3782 202.676 34.9867C202.535 34.5951 202.477 34.1784 202.505 33.7631C201.841 34.8201 200.907 35.6812 199.8 36.2582C198.693 36.8351 197.452 37.107 196.205 37.0459C194.372 37.1362 192.562 36.6106 191.062 35.553C190.436 35.074 189.936 34.4505 189.604 33.7358C189.272 33.0211 189.118 32.2366 189.155 31.4495C189.109 30.5812 189.275 29.7149 189.639 28.9251C190.002 28.1353 190.553 27.4458 191.242 26.916C192.633 25.8738 194.658 25.3527 197.315 25.3527H202.13V24.1959C202.152 23.7184 202.062 23.2424 201.868 22.8056C201.674 22.3688 201.381 21.9831 201.012 21.6791C200.109 21.0172 199.003 20.6936 197.886 20.7646C196.865 20.725 195.856 20.9977 194.994 21.5462C194.636 21.7698 194.33 22.0664 194.096 22.4167C193.862 22.767 193.704 23.1629 193.634 23.5784H189.679C189.744 22.6926 190.007 21.8326 190.446 21.0607C190.885 20.2887 191.491 19.6242 192.219 19.1153C193.959 17.9953 196.006 17.4486 198.073 17.552C200.632 17.552 202.607 18.1487 203.998 19.342C204.71 19.9873 205.267 20.7849 205.629 21.6753C205.99 22.5657 206.146 23.5261 206.085 24.4851V32.0122C206.085 32.9033 206.507 33.3488 207.359 33.3488H207.453V36.8193ZM197.104 28.3151C196.093 28.2523 195.088 28.5064 194.228 29.042C193.888 29.2914 193.617 29.6231 193.441 30.006C193.264 30.3888 193.188 30.8102 193.219 31.2306C193.206 31.6117 193.286 31.9903 193.452 32.3335C193.618 32.6768 193.866 32.9743 194.173 33.2003C194.924 33.7489 195.839 34.0247 196.768 33.9819C197.476 34.0271 198.186 33.9315 198.857 33.7008C199.527 33.47 200.146 33.1087 200.676 32.6375C201.148 32.1711 201.519 31.6127 201.767 30.9969C202.014 30.3811 202.133 29.721 202.114 29.0577V28.3855L197.104 28.3151Z" fill="#222222"/>
<path d="M227.861 22.0542C228.67 23.6733 229.067 25.4665 229.018 27.2755C229.054 29.0407 228.657 30.7878 227.861 32.364C227.14 33.7923 226.029 34.9873 224.657 35.811C223.238 36.6494 221.614 37.077 219.967 37.0459C218.69 37.0821 217.423 36.8142 216.27 36.2643C215.259 35.7575 214.389 35.0083 213.737 34.0836L213.432 36.8427H209.751V10.7128H213.776V20.5613C214.476 19.5807 215.407 18.7885 216.488 18.2552C217.568 17.722 218.763 17.4643 219.967 17.5051C221.607 17.4724 223.225 17.8771 224.657 18.6776C226.032 19.4656 227.146 20.6395 227.861 22.0542ZM224.915 27.2755C224.981 25.6098 224.424 23.9792 223.351 22.703C222.839 22.1439 222.216 21.6974 221.521 21.392C220.827 21.0865 220.077 20.9288 219.318 20.9288C218.56 20.9288 217.809 21.0865 217.115 21.392C216.421 21.6974 215.797 22.1439 215.285 22.703C214.213 23.9705 213.655 25.5936 213.722 27.2521C213.656 28.9319 214.213 30.5769 215.285 31.8715C215.776 32.456 216.394 32.9209 217.091 33.2311C217.789 33.5412 218.547 33.6884 219.31 33.6615C220.073 33.6885 220.832 33.5438 221.532 33.238C222.231 32.9322 222.853 32.4733 223.351 31.895C224.43 30.6036 224.987 28.9563 224.915 27.2755Z" fill="#222222"/>
<path d="M236.201 32.958C237.181 33.6296 238.352 33.9644 239.539 33.9115C240.57 33.9533 241.594 33.7157 242.501 33.2237C242.842 33.0487 243.128 32.7833 243.328 32.4565C243.528 32.1298 243.634 31.7543 243.634 31.3712C243.654 31.1064 243.618 30.8404 243.529 30.5901C243.441 30.3398 243.301 30.1107 243.119 29.9174C242.718 29.5737 242.236 29.337 241.719 29.2296C241.133 29.0967 240.234 28.9482 239.015 28.7997C237.621 28.6632 236.243 28.4016 234.896 28.018C233.896 27.7322 232.993 27.1781 232.285 26.4157C231.59 25.5872 231.235 24.5256 231.293 23.4455C231.272 22.3227 231.621 21.2243 232.285 20.319C232.982 19.3803 233.923 18.6505 235.005 18.2086C236.599 17.5991 238.31 17.3599 240.009 17.5088C241.708 17.6578 243.352 18.191 244.815 19.0684C245.545 19.5777 246.146 20.2509 246.569 21.034C246.993 21.8172 247.227 22.6885 247.253 23.5784H243.345C243.295 23.1484 243.152 22.7343 242.927 22.3647C242.702 21.995 242.399 21.6784 242.04 21.4367C241.185 20.8538 240.166 20.5606 239.132 20.6004C238.142 20.5547 237.159 20.7876 236.295 21.2726C235.967 21.4498 235.693 21.7129 235.503 22.0337C235.313 22.3545 235.214 22.7209 235.216 23.0938C235.2 23.3358 235.24 23.5784 235.334 23.8023C235.427 24.0261 235.572 24.2251 235.756 24.3835C236.157 24.6842 236.622 24.8875 237.116 24.9775C237.663 25.0947 238.546 25.2198 239.765 25.3683C241.169 25.4917 242.556 25.7535 243.908 26.1499C244.944 26.458 245.873 27.0511 246.589 27.8617C247.3 28.7674 247.659 29.9007 247.597 31.0508C247.61 32.1811 247.241 33.2826 246.55 34.1773C245.804 35.125 244.811 35.8496 243.681 36.2721C242.372 36.773 240.979 37.0197 239.578 36.999C237.376 37.1025 235.2 36.494 233.372 35.2638C232.609 34.7213 231.988 34.0021 231.564 33.1677C231.139 32.3333 230.923 31.4085 230.933 30.4724H234.841C234.863 30.9631 234.997 31.4423 235.232 31.8732C235.468 32.3041 235.8 32.6752 236.201 32.958Z" fill="#222222"/>
<path d="M7.7147 22.4294C11.9754 22.4294 15.4294 18.9754 15.4294 14.7147C15.4294 10.454 11.9754 7 7.7147 7C3.45399 7 0 10.454 0 14.7147C0 18.9754 3.45399 22.4294 7.7147 22.4294Z" fill="#FF8D3A"/>
<path d="M24.2855 22.4294C28.5462 22.4294 32.0002 18.9754 32.0002 14.7147C32.0002 10.454 28.5462 7 24.2855 7C20.0248 7 16.5708 10.454 16.5708 14.7147C16.5708 18.9754 20.0248 22.4294 24.2855 22.4294Z" fill="#B2F260"/>
<path d="M7.7147 39C11.9754 39 15.4294 35.546 15.4294 31.2853C15.4294 27.0246 11.9754 23.5706 7.7147 23.5706C3.45399 23.5706 0 27.0246 0 31.2853C0 35.546 3.45399 39 7.7147 39Z" fill="#4FE5C1"/>
<path d="M21.3934 33.5755C21.5426 33.9574 21.7424 34.3176 21.9875 34.6463C22.2454 34.4353 22.5502 32.3014 22.644 31.5667C23.0114 29.003 23.3475 26.5877 25.2156 26.5877C27.2009 26.5877 27.5605 28.9326 27.7715 30.7147C27.8354 31.2805 27.9346 31.8418 28.0686 32.3952C28.1155 32.2936 28.178 32.1764 28.2405 32.0279C28.4776 31.2806 28.9495 30.6298 29.586 30.1722C30.2225 29.7145 30.9896 29.4744 31.7735 29.4876C31.3505 27.7524 30.338 26.218 28.9091 25.1467C27.4802 24.0753 25.7235 23.5335 23.9394 23.6138C22.1552 23.6941 20.4543 24.3915 19.1274 25.5869C17.8005 26.7823 16.9299 28.4015 16.6646 30.1676C19.7364 29.8706 20.7681 32.1451 21.3934 33.5755Z" fill="#222222"/>
<path d="M29.882 32.7313C29.5771 33.4035 29.1003 34.404 27.9201 34.3493C26.4506 34.279 26.2083 32.489 25.9894 30.9179C25.88 30.1363 25.6377 28.3386 25.2078 28.3386C25.0749 28.4324 24.7935 29.1202 24.4262 31.7777C24.1135 34.0054 23.8399 35.9282 22.5268 36.319C22.3345 36.3795 22.1343 36.4111 21.9328 36.4128C20.7291 36.4128 20.1897 35.2326 19.7598 34.279C19.1345 32.8955 18.5796 31.6918 16.6333 31.9341C16.8115 33.9095 17.7438 35.7405 19.2365 37.0466C20.7292 38.3528 22.6677 39.0339 24.6494 38.9484C26.631 38.8628 28.5036 38.0174 29.8783 36.5875C31.2529 35.1576 32.024 33.2532 32.0314 31.2697V31.2306C30.5854 31.1759 30.2884 31.8325 29.882 32.7313Z" fill="#222222"/>
</g>
<defs>
<clipPath id="clip0_471_10">
<rect width="247.59" height="32" fill="white" transform="translate(0 7)"/>
</clipPath>
</defs>
</svg>
