<svg width="82" height="40" viewBox="0 0 82 40" fill="none" xmlns="http://www.w3.org/2000/svg">
<path fill-rule="evenodd" clip-rule="evenodd" d="M23.3603 26.3359C23.3603 35.248 11.7121 39.984 11.6802 40C11.6482 39.984 0 35.248 0 26.3359C0 19.8879 5.22492 14.7519 11.6802 14.7519C18.1354 14.7519 23.3603 19.8879 23.3603 26.3359ZM16.1062 26.6079C16.1062 24.1599 14.1249 22.1759 11.6802 22.1759C9.23548 22.1759 7.25417 24.1599 7.25417 26.6079C7.25417 29.056 9.23548 31.04 11.6802 31.04C14.1249 31.04 16.1062 29.056 16.1062 26.6079Z" fill="#FF6F0F"/>
<path d="M14.3162 6.10352e-05C11.584 6.10352e-05 9.68253 1.90407 9.39492 4.16008C5.75186 3.15208 2.90771 5.90409 2.90771 8.9601C2.90771 11.2801 4.50555 13.1681 6.63067 13.7761C8.35633 14.2721 11.4401 13.9041 11.4401 13.9041C11.4242 13.1521 12.1272 12.3201 13.1818 11.5681C16.2177 9.4401 18.5984 8.4321 18.9659 5.50409C19.3494 2.46407 17.0805 6.10352e-05 14.3162 6.10352e-05Z" fill="#00A05B"/>
<path d="M46.545 18.783C44.0843 19.5671 39.8022 19.9671 35.7916 19.9671V15.087H44.0843V11.455H31.3496V23.8391C38.3162 23.8391 44.3879 23.0071 46.9604 22.2071L46.545 18.783Z" fill="#FF6F0F"/>
<path d="M52.3931 10.0001H47.9512V24.2402H52.3931V19.7762H55.9723V15.8881H52.3931V10.0001Z" fill="#FF6F0F"/>
<path fill-rule="evenodd" clip-rule="evenodd" d="M52.2969 30.6068C52.2969 34.3988 48.8456 36.9909 44.148 36.9909C39.4503 36.9909 35.999 34.3988 35.999 30.6068C35.999 26.7988 39.4503 24.2068 44.148 24.2068C48.8456 24.2068 52.2969 26.7988 52.2969 30.6068ZM47.8549 30.6068C47.8549 28.7828 46.2731 27.7588 44.148 27.7588C42.0388 27.7588 40.441 28.7828 40.441 30.6068C40.441 32.4308 42.0388 33.4388 44.148 33.4388C46.2731 33.4388 47.8549 32.4308 47.8549 30.6068Z" fill="#FF6F0F"/>
<path d="M64.6165 26.0958H60.0786V35.7438H78.1022V31.9198H64.6165V26.0958Z" fill="#FF6F0F"/>
<path d="M77.543 11.1859H59.8709V15.0099H73.085C73.085 15.9539 73.133 18.2099 72.7015 20.77H56.4995V24.722H81.1061V20.77H76.7121C77.3033 17.5379 77.4631 15.0099 77.543 11.1859Z" fill="#FF6F0F"/>
</svg>
