<svg width="69" height="68" viewBox="0 0 69 68" fill="none" xmlns="http://www.w3.org/2000/svg">
<g clip-path="url(#clip0_471_88)">
<path d="M34.0306 34.1331C38.6827 26.1148 49.1581 23.3997 57.5613 28.0559C61.4261 30.3931 64.2249 34.1477 65.3609 38.5189C66.4969 42.8902 65.8804 47.5324 63.6426 51.4556C73.213 35.0381 67.3938 13.9604 51.0992 4.65208C34.6735 -4.90191 13.7268 0.773976 4.16057 17.2119C1.9495 21.1511 1.36109 25.7971 2.52028 30.1632C3.67947 34.5293 6.49495 38.2715 10.3688 40.5952C14.3669 42.8609 19.0989 43.4531 23.532 42.2424C27.965 41.0317 31.7392 38.1165 34.0306 34.1331Z" fill="#CA0B0F"/>
<path d="M34.1576 33.7441C29.5055 42.0204 19.0301 44.7354 10.7538 39.8213C2.62491 35.1651 -0.10656 24.6897 4.41858 16.5485C-4.74637 32.839 0.798469 54.0437 17.089 63.6141C33.5105 72.7913 54.4572 67.1032 64.1587 50.9396C68.8108 42.7943 65.9687 32.192 57.8194 27.4089C53.8244 25.1871 49.1221 24.6059 44.7065 25.7882C40.2908 26.9704 36.5079 29.8234 34.1576 33.7441Z" fill="#231759"/>
<path d="M34.7228 18.7722C26.8806 18.7722 25.7135 20.9344 25.7135 22.1056V26.2458H33.9857V27.4171H21.7576C21.7576 27.4171 17.2529 27.1099 17.2529 35.0136C17.2529 42.9172 20.3407 43.5315 21.2662 43.5315H24.5996V39.3954C24.5996 39.3954 24.1041 34.8211 29.2886 34.8211H37.5035C37.5035 34.8211 42.0081 35.5009 42.0081 31.0576V22.6012C42.0081 22.6012 42.5651 18.7722 34.7228 18.7722ZM29.2886 24.2679C28.9832 24.2679 28.6847 24.1773 28.4309 24.0077C28.177 23.838 27.9791 23.5969 27.8622 23.3148C27.7454 23.0327 27.7148 22.7223 27.7744 22.4228C27.8339 22.1233 27.981 21.8482 28.1969 21.6323C28.4128 21.4164 28.6879 21.2694 28.9874 21.2098C29.2869 21.1502 29.5973 21.1808 29.8794 21.2977C30.1615 21.4145 30.4026 21.6124 30.5723 21.8663C30.7419 22.1202 30.8325 22.4187 30.8325 22.724C30.8325 22.9268 30.7925 23.1275 30.7149 23.3148C30.6373 23.5021 30.5236 23.6723 30.3803 23.8157C30.2369 23.9591 30.0667 24.0728 29.8794 24.1504C29.6921 24.2279 29.4913 24.2679 29.2886 24.2679Z" fill="white"/>
<path d="M46.4021 27.1099H43.0687V31.246C43.0687 31.246 43.5765 35.8162 38.3756 35.8162H30.1607C30.1607 35.8162 25.6561 35.1364 25.6561 39.5796V48.0402C25.6561 48.0402 25.0991 51.8692 32.9414 51.8692C40.7836 51.8692 41.9507 49.7069 41.9507 48.5357V44.3955H33.6826V43.2243H45.9066C45.9066 43.2243 50.4113 43.5315 50.4113 35.6278C50.4113 27.7242 47.3235 27.1099 46.398 27.1099M38.5517 46.8035C38.8583 46.8002 39.1588 46.8883 39.4151 47.0565C39.6714 47.2247 39.8718 47.4654 39.9908 47.748C40.1098 48.0305 40.142 48.342 40.0833 48.6429C40.0246 48.9438 39.8777 49.2204 39.6612 49.4375C39.4447 49.6546 39.1685 49.8023 38.8678 49.8618C38.567 49.9213 38.2554 49.8899 37.9725 49.7717C37.6897 49.6534 37.4485 49.4537 37.2796 49.1978C37.1107 48.942 37.0218 48.6416 37.0242 48.3351C37.0237 48.132 37.0632 47.9308 37.1406 47.743C37.2179 47.5552 37.3315 47.3845 37.475 47.2407C37.6184 47.0969 37.7887 46.9829 37.9763 46.905C38.1639 46.8272 38.365 46.7871 38.5681 46.7871" fill="white"/>
</g>
<defs>
<clipPath id="clip0_471_88">
<rect width="68.2621" height="68" fill="white"/>
</clipPath>
</defs>
</svg>
