<svg width="236" height="46" viewBox="0 0 236 46" fill="none" xmlns="http://www.w3.org/2000/svg">
<g clip-path="url(#clip0_471_30)">
<path d="M50.6781 22.9896C47.7872 22.9896 45.6095 25.2178 45.6095 28.1745C45.6095 31.108 47.7872 33.3205 50.6781 33.3205C52.4024 33.3205 53.8635 32.6811 55.1344 31.3714L58.5792 34.7814C56.4481 37.0988 53.7898 38.2728 50.6781 38.2728C47.7135 38.2728 45.1832 37.3003 43.1567 35.386C41.1415 33.4485 40.1187 31.0225 40.1187 28.1745C40.1187 25.3263 41.1415 22.9005 43.1567 20.963C45.2104 19.0216 47.7406 18.0373 50.6781 18.0373C53.7898 18.0373 56.4481 19.2114 58.5792 21.5287L55.1344 24.9349C53.8635 23.6251 52.4024 22.9896 50.6781 22.9896Z" fill="black"/>
<path d="M71.4681 18.7965C75.8275 18.7965 78.3307 21.5982 78.3307 26.4807V37.7805H73.0027V27.1511C73.0027 24.8571 71.7587 23.4892 69.6778 23.4892C67.5658 23.4892 66.0895 25.0741 66.0895 27.3371V37.7805H60.7612V12.4104H66.0895V21.9043L66.3141 21.416C67.0467 19.8001 69.0229 18.7965 71.4681 18.7965Z" fill="black"/>
<path fill-rule="evenodd" clip-rule="evenodd" d="M95.3538 21.5888L95.5826 22.2553V19.2056H100.911V37.7789H95.5826V34.7329L95.3538 35.3957C94.7998 37.0231 92.5949 38.116 89.8706 38.116C87.2512 38.116 85.0346 37.186 83.2755 35.3529C81.5392 33.4697 80.6558 31.1603 80.6558 28.4941C80.6558 25.8126 81.5392 23.5186 83.2755 21.6702C85.0229 19.814 87.2395 18.8724 89.8706 18.8724C92.5949 18.8724 94.7998 19.9651 95.3538 21.5888ZM94.4278 25.0918C93.49 24.1502 92.2966 23.6775 90.8743 23.6775C89.4872 23.6775 88.3518 24.1386 87.3983 25.088C86.4606 25.9909 85.984 27.1379 85.984 28.4941C85.984 29.8389 86.4606 30.9934 87.3983 31.9351C88.3632 32.8614 89.5026 33.3109 90.8743 33.3109C92.2809 33.3109 93.4746 32.8497 94.4278 31.9351C95.416 30.982 95.9198 29.8271 95.9198 28.4941C95.9198 27.1456 95.416 26.0025 94.4278 25.0918Z" fill="black"/>
<path d="M104.177 12.4104H109.505V37.7805H104.177V12.4104Z" fill="black"/>
<path d="M112.361 12.4104H117.685V37.7805H112.361V12.4104Z" fill="black"/>
<path fill-rule="evenodd" clip-rule="evenodd" d="M137.123 21.4502C138.91 23.2715 139.778 25.4648 139.778 28.158C139.778 28.7432 139.747 29.2857 139.708 29.832H125.479L125.486 29.956C125.603 32.2655 127.61 33.7615 130.602 33.7615C132.353 33.7615 133.895 33.1606 135.19 31.9749L138.27 34.916C136.104 37.1132 133.438 38.2292 130.342 38.2292C127.284 38.2292 124.866 37.3729 122.956 35.6097C121.073 33.8389 120.158 31.5486 120.158 28.6075V28.4564C120.158 25.5539 121.112 23.1863 122.995 21.4153C124.855 19.6289 127.288 18.7222 130.23 18.7222C133.031 18.7222 135.352 19.6406 137.123 21.4502ZM134.411 26.3289C134.411 24.5387 132.535 23.0778 130.23 23.0778C127.765 23.0778 125.715 24.5038 125.56 26.3212L125.548 26.4452H134.411V26.3289Z" fill="black"/>
<path d="M160.226 26.4807V37.7803H154.898V27.151C154.898 24.857 153.573 23.4891 151.352 23.4891C149.143 23.4891 147.539 25.1089 147.539 27.337V37.7803H142.211V19.2072H147.539V21.9546L147.76 21.4934C148.543 19.8543 150.655 18.7964 153.142 18.7964C157.645 18.7964 160.226 21.5981 160.226 26.4807Z" fill="black"/>
<path fill-rule="evenodd" clip-rule="evenodd" d="M177.3 21.5965L177.525 22.1429V19.2056H182.849V34.76C182.849 38.7243 182.299 41.7857 179.609 43.8509C177.827 45.2691 175.556 45.99 172.855 45.99C169.313 45.99 166.267 45.126 163.799 43.4249L166.322 39.5846C168.228 40.7626 170.112 41.3323 172.072 41.3323C173.7 41.3323 175.013 40.9989 175.979 40.344C177.102 39.5691 177.672 38.1546 177.672 36.1434V35.3026L177.455 35.6746C176.684 37 174.413 37.8911 171.809 37.8911C169.182 37.8911 166.961 36.9883 165.213 35.202C163.477 33.3923 162.598 31.1369 162.598 28.4941C162.598 25.8126 163.477 23.5186 165.217 21.6702C166.965 19.814 169.182 18.8724 171.809 18.8724C174.812 18.8724 176.761 20.2829 177.3 21.5965ZM176.37 25.0919C175.432 24.1502 174.235 23.6775 172.816 23.6775C171.429 23.6775 170.29 24.1386 169.341 25.088C168.403 25.9909 167.926 27.1379 167.926 28.4941C167.926 29.8426 168.387 30.9471 169.341 31.8614C170.305 32.7877 171.441 33.2371 172.816 33.2371C174.223 33.2371 175.417 32.7723 176.366 31.8614C177.37 30.9354 177.858 29.8311 177.858 28.4941C177.858 27.1456 177.358 26.0025 176.37 25.0919Z" fill="black"/>
<path fill-rule="evenodd" clip-rule="evenodd" d="M202.042 21.4502C203.828 23.2715 204.696 25.4648 204.696 28.158C204.696 28.7277 204.665 29.2586 204.626 29.832H190.397L190.405 29.956C190.521 32.2655 192.528 33.7615 195.52 33.7615C197.272 33.7615 198.818 33.1606 200.108 31.9749L203.193 34.916C201.026 37.1132 198.356 38.2292 195.26 38.2292C192.203 38.2292 189.785 37.3729 187.874 35.6097C185.991 33.8389 185.077 31.5486 185.077 28.6075V28.4564C185.077 25.5539 186.03 23.1863 187.913 21.4153C189.773 19.6289 192.207 18.7222 195.148 18.7222C197.95 18.7222 200.271 19.6406 202.042 21.4502ZM199.329 26.3289C199.329 24.5387 197.454 23.0778 195.148 23.0778C192.683 23.0778 190.634 24.5038 190.478 26.3212L190.467 26.4452H199.329V26.3289Z" fill="black"/>
<path d="M217.949 18.7964C218.294 18.7964 218.748 18.8313 219.29 18.8972V23.8766C218.709 23.7681 218.12 23.7138 217.539 23.7138C214.315 23.7138 212.385 25.5855 212.385 28.7206V37.7803H207.061V19.2072H212.385V22.2065L212.61 21.7143C213.443 19.862 215.392 18.7964 217.949 18.7964Z" fill="black"/>
<path d="M235.143 32.0686C235.143 36.0249 232.167 38.2957 226.974 38.2957C223.429 38.2957 220.72 37.2069 218.922 35.06L221.972 31.7934C223.084 33.0294 225.044 33.7892 227.126 33.7892C229.082 33.7892 230.078 33.2349 230.078 32.1423C230.078 31.7315 229.842 31.398 229.381 31.1463C228.924 30.8943 228.125 30.6349 227.079 30.3869C226.172 30.1774 225.324 29.9412 224.552 29.6814C221.693 28.6817 220.302 27.0077 220.302 24.5703C220.302 22.7025 220.999 21.2378 222.382 20.2225C223.777 19.1569 225.448 18.6415 227.498 18.6415C230.067 18.6415 232.128 19.401 233.798 20.9626L231.287 24.4347C230.284 23.5551 228.962 23.1094 227.35 23.1094C226.126 23.1094 225.366 23.6132 225.366 24.4192C225.366 24.9656 225.591 25.2601 226.223 25.5352C226.533 25.667 227.005 25.7871 227.598 25.946C228.404 26.1552 229.408 26.4187 230.598 26.845C233.612 27.8602 235.143 29.6194 235.143 32.0686Z" fill="black"/>
<path d="M38.0553 0L37.253 6.72709L25.8798 8.90489C25.5194 8.97463 25.2481 9.26526 25.2016 9.6334L25.0195 11.195C24.9885 11.4585 24.7909 11.6717 24.5274 11.722L2.57129 15.9381L3.25332 10.2147C3.30369 9.77289 3.63306 9.42026 4.07095 9.335L25.3605 5.24683C25.7209 5.17709 25.9922 4.88646 26.0387 4.51831L26.2557 2.69317C26.2867 2.42966 26.4843 2.21653 26.7439 2.16615L38.0553 0Z" fill="url(#paint0_linear_471_30)"/>
<path d="M25.0365 14.218C25.0675 13.9506 25.2651 13.7413 25.5247 13.691L36.8361 11.5248L36.0338 18.248L24.6606 20.4297C24.3002 20.4956 24.0289 20.7901 23.9863 21.1543L23.8003 22.716C23.7693 22.9833 23.5717 23.1926 23.3121 23.243L1.35596 27.4591L2.12321 20.9993L24.1413 16.7716C24.5056 16.7019 24.7768 16.4074 24.8195 16.0431L25.0365 14.218Z" fill="url(#paint1_linear_471_30)"/>
<path d="M23.6805 25.1721C23.7115 24.9086 23.9091 24.6994 24.1688 24.649L35.48 22.4828L34.7631 28.4698C34.7129 28.9077 34.3834 29.2603 33.9454 29.3454L23.3046 31.3837C22.9443 31.4537 22.673 31.7443 22.6304 32.1123L22.4444 33.674C22.4134 33.9374 22.2157 34.1506 21.9561 34.2011L0 38.4171L0.7634 31.9534L22.7854 27.7258C23.1457 27.656 23.4209 27.3654 23.4635 27.0012L23.6805 25.1721Z" fill="url(#paint2_linear_471_30)"/>
</g>
<defs>
<linearGradient id="paint0_linear_471_30" x1="7.04457" y1="-9.14283" x2="32.1876" y2="46" gradientUnits="userSpaceOnUse">
<stop stop-color="#FF4343"/>
<stop offset="1" stop-color="#F02F5E"/>
</linearGradient>
<linearGradient id="paint1_linear_471_30" x1="6.57125" y1="-3.14285" x2="29.4284" y2="42" gradientUnits="userSpaceOnUse">
<stop stop-color="#FF4343"/>
<stop offset="1" stop-color="#F02F5E"/>
</linearGradient>
<linearGradient id="paint2_linear_471_30" x1="6" y1="-5.7143" x2="32" y2="48.5714" gradientUnits="userSpaceOnUse">
<stop stop-color="#FF4343"/>
<stop offset="1" stop-color="#F02F5E"/>
</linearGradient>
<clipPath id="clip0_471_30">
<rect width="235.143" height="46" fill="white"/>
</clipPath>
</defs>
</svg>
