<svg xmlns="http://www.w3.org/2000/svg" viewBox="0 0 237.21 163.86"><title>logo</title><g id="레이어_9" data-name="레이어 9"><circle cx="87.36" cy="51.58" r="25.86" style="fill:#fff"/><circle cx="156.51" cy="52.79" r="25.86" style="fill:#fff"/><path d="M395.88,409a3.32,3.32,0,0,0,.37,2.09,2.8,2.8,0,0,0,1,1,3.58,3.58,0,0,0,1.46.4,2.72,2.72,0,0,0,.57,0,2.66,2.66,0,0,0,1.85-.74,2.84,2.84,0,0,0,.37-.47l.06-.12a3.53,3.53,0,0,0,.28-.7,4.29,4.29,0,0,1,.14-.62l-.2.48.08-.13-.31.4.09-.09-.4.31.11-.06-.48.2a.31.31,0,0,1,.13,0l-.53.07h.08l-.53-.07.08,0-.48-.2.07,0-.41-.31,0,0-.32-.4.05.07-.2-.47a.5.5,0,0,1,0,.13l-.08-.53a.6.6,0,0,1,0,.19l.07-.54a1.59,1.59,0,0,1-.1.33l.2-.47a2.39,2.39,0,0,1-.21.34l.32-.4a1.88,1.88,0,0,1-.25.24l.41-.31a1.83,1.83,0,0,1-.3.18l.47-.2a1.29,1.29,0,0,1-.28.08l.53-.07a1.37,1.37,0,0,1-.35,0l.53.07a1.53,1.53,0,0,1-.29-.07l.48.2a.94.94,0,0,1-.22-.12l.41.31a1,1,0,0,1-.2-.2l.31.41a2,2,0,0,1-.11-.2l.2.47a1.12,1.12,0,0,1-.08-.26l.07.53a.87.87,0,0,1,0-.28l-.07.53a1,1,0,0,1,0-.17l-.2.47a5.1,5.1,0,0,0,.38-.86,2.3,2.3,0,0,0-.56-2.17,2,2,0,0,0-1.42-.59,2.19,2.19,0,0,0-1.41.59,3.06,3.06,0,0,0-.78,1.35c-.07.2-.11.41-.19.61l.2-.48a.82.82,0,0,1-.12.2l.31-.4-.11.11.41-.32-.22.13a2.52,2.52,0,0,0-.59.42,2.25,2.25,0,0,0-.49,2.47,1.4,1.4,0,0,0,.29.5,1.82,1.82,0,0,0,.41.42,2,2,0,0,0,.85.44,2.93,2.93,0,0,0,.78.1,2.6,2.6,0,0,1,.4,0l-.53-.07a.27.27,0,0,1,.12,0,2.07,2.07,0,0,0,1.54-.21,2,2,0,0,0,.92-1.19,2,2,0,0,0-1.4-2.46,2.65,2.65,0,0,0-.84-.1c-.11,0-.23,0-.35,0l.53.07a.43.43,0,0,1-.16-.05l.47.21-.1-.07.4.31-.06,0,.32.4a.21.21,0,0,1,0-.06l.2.47v0l.07.53v-.08l-.07.53a.19.19,0,0,1,0-.07l-.2.48,0,0-.31.41a.3.3,0,0,1,.08-.08l-.4.31.18-.11a2,2,0,0,0,.39-.26,2.52,2.52,0,0,0,.73-.83,4.91,4.91,0,0,0,.32-.83c0-.15.08-.29.13-.44l-.2.48a1.16,1.16,0,0,1,.14-.24l-.31.4a.6.6,0,0,1,.08-.08h-2.83l0,0-.31-.4,0,0-.21-.48v0l-.07-.53a.11.11,0,0,1,0,.08l.07-.53a.79.79,0,0,1,0,.13l.2-.48c-.09.18-.17.35-.25.53a2.81,2.81,0,0,0-.23,1,1.2,1.2,0,0,0,0,.19,3.55,3.55,0,0,0,.1.64,3,3,0,0,0,.84,1.41,3.32,3.32,0,0,0,2,.81,3.24,3.24,0,0,0,.88-.07,3.12,3.12,0,0,0,.77-.29,3,3,0,0,0,.7-.49,2.75,2.75,0,0,0,.74-.95,3.22,3.22,0,0,0,.33-2.13.64.64,0,0,1,0-.07,3.33,3.33,0,0,0-.21-.52,3.05,3.05,0,0,0-.38-.49,2.24,2.24,0,0,0-1.6-.67,2.68,2.68,0,0,0-1.27.34,2.51,2.51,0,0,0-.92.94,3.06,3.06,0,0,0-.31.86,3.13,3.13,0,0,1-.1.44l.2-.47a1.06,1.06,0,0,1-.12.2l.32-.41a.28.28,0,0,1-.1.09l.4-.31-.07,0,.47-.2-.16,0,.53-.07a3.35,3.35,0,0,1-.71,0l.53.07a1.36,1.36,0,0,1-.36-.1l.47.2a1.18,1.18,0,0,1-.19-.11l.4.31a.86.86,0,0,1-.13-.14l.31.41a.7.7,0,0,1-.09-.17l.2.48a1.47,1.47,0,0,1-.08-.28l.07.53a3.38,3.38,0,0,1,0-.71,1.55,1.55,0,0,0-.17-.77,1.5,1.5,0,0,0-.41-.64,2,2,0,0,0-1.42-.59,2,2,0,0,0-1.41.59l-.32.4a2,2,0,0,0-.27,1Z" transform="translate(-275.75 -326.93)" style="fill:#fff"/><path d="M347.34,358.18a8.41,8.41,0,0,0-3.82,3.26,59.68,59.68,0,0,0-3.18,5.11,30.61,30.61,0,0,0-3.62,11.8c-.15,1.28,1.86,1.27,2,0a27.85,27.85,0,0,1,3.18-10.49c.83-1.51,1.75-3,2.69-4.43s1.78-2.74,3.28-3.32c1.19-.46.67-2.4-.53-1.93Z" transform="translate(-275.75 -326.93)" style="fill:#595757"/><path d="M347.19,358.35a57.12,57.12,0,0,0-10.41,24.18c-.22,1.26,1.7,1.8,1.93.53a55.91,55.91,0,0,1,10.2-23.7c.77-1-1-2-1.72-1Z" transform="translate(-275.75 -326.93)" style="fill:#c9caca"/><path d="M347.48,357.24q-1.1,2.36-2.39,4.62a1,1,0,1,0,1.73,1q1.28-2.26,2.39-4.62a1,1,0,0,0-1.73-1Z" transform="translate(-275.75 -326.93)" style="fill:#595757"/><path d="M349,356.39c-2.56,3.62-5.32,7.16-7.62,10.95a22,22,0,0,0-2.33,5.47,57.58,57.58,0,0,1-2,5.42c-1.47,3.69.49,7.2,2,10.55a28.43,28.43,0,0,0,6.12,9.31c.93.88,2.35-.53,1.41-1.42a26.39,26.39,0,0,1-5.64-8.52,48.43,48.43,0,0,1-2.13-5.17c-.66-2.07-.09-3.59.75-5.5a46.14,46.14,0,0,0,1.66-5,19.85,19.85,0,0,1,2.48-5.09c2.24-3.4,4.68-6.68,7-10,.75-1-1-2-1.72-1Z" transform="translate(-275.75 -326.93)" style="fill:#c9caca"/><path d="M339.91,368.17A90.89,90.89,0,0,0,338,379.78c-.18,1.9-.3,3.81-.35,5.71a9.65,9.65,0,0,0,1,5.21c1.27,2.24,4.72.22,3.45-2-.7-1.23-.45-2.85-.4-4.21.07-1.7.19-3.4.36-5.09a83,83,0,0,1,1.71-10.15c.57-2.5-3.28-3.57-3.86-1.06Z" transform="translate(-275.75 -326.93)" style="fill:#c9caca"/><path d="M342.36,362.75c-2.86,8.21-3.21,17-3.51,25.58-.09,2.57,3.91,2.57,4,0,.29-8.28.62-16.63,3.37-24.52.85-2.43-3-3.48-3.86-1.06Z" transform="translate(-275.75 -326.93)" style="fill:#c9caca"/><path d="M340.92,386.92a11.16,11.16,0,0,0,1.4,7.6,16.85,16.85,0,0,0,2.55,3.05l3,3a2,2,0,0,0,2.83-2.83l-2.59-2.58c-.41-.42-.82-.82-1.22-1.25a8.06,8.06,0,0,1-.89-1.07,5.82,5.82,0,0,1-1.08-2.49c0-.07-.16-.83-.1-.41,0-.25-.05-.51-.06-.76s0-.51,0-.76c0-.08.1-.84,0-.42a2,2,0,0,0-1.39-2.46,2,2,0,0,0-2.46,1.4Z" transform="translate(-275.75 -326.93)" style="fill:#c9caca"/><path d="M343.8,360.66c-3.35,8-5.85,17-3.22,25.56,1.28,4.18,3.85,7.55,6.7,10.79a25.49,25.49,0,0,0,9.78,7.36,2,2,0,0,0,2.46-1.4,2,2,0,0,0-1.4-2.46c-3.3-1.27-5.86-3.88-8.15-6.49-2.54-2.9-4.77-5.89-5.77-9.67-2-7.68.5-15.56,3.46-22.63a2,2,0,0,0-1.4-2.46,2.06,2.06,0,0,0-2.46,1.4Z" transform="translate(-275.75 -326.93)" style="fill:#c9caca"/><path d="M357.09,402.76A20.17,20.17,0,0,0,364.6,405a1,1,0,0,0,0-2,17.83,17.83,0,0,1-6.5-2,1,1,0,0,0-1.37.36,1,1,0,0,0,.36,1.37Z" transform="translate(-275.75 -326.93)" style="fill:#c9caca"/><path d="M358.16,402.74a36.77,36.77,0,0,0,11.48,2,1,1,0,0,0,0-2,34.92,34.92,0,0,1-10.95-1.91c-1.22-.42-1.75,1.51-.53,1.93Z" transform="translate(-275.75 -326.93)" style="fill:#c9caca"/><path d="M444.34,401.74a57.85,57.85,0,0,0,14.39-22.28c.43-1.22-1.5-1.74-1.93-.54a55.47,55.47,0,0,1-13.87,21.4c-.93.89.48,2.31,1.41,1.42Z" transform="translate(-275.75 -326.93)" style="fill:#c9caca"/><path d="M442.28,403.37c3.1-3.13,6.41-6.16,9.3-9.5a20.92,20.92,0,0,0,3-4.58,56,56,0,0,1,2.94-5.23,7.55,7.55,0,0,0,1.25-5.1,43,43,0,0,0-1.15-5.48A28.67,28.67,0,0,0,453.19,363c-.75-1-2.49,0-1.72,1a26.72,26.72,0,0,1,4.15,9.62,48.14,48.14,0,0,1,1.16,5.27c.29,2.1-.53,3.54-1.65,5.22a44.66,44.66,0,0,0-2.44,4.58,20.35,20.35,0,0,1-3.41,4.77c-2.73,2.91-5.61,5.68-8.41,8.51a1,1,0,0,0,1.41,1.42Z" transform="translate(-275.75 -326.93)" style="fill:#c9caca"/><path d="M449.78,398.32c4.2-7.62,6.06-16.13,7.81-24.56.53-2.52-3.33-3.59-3.85-1.07-1.68,8.08-3.39,16.31-7.41,23.61-1.25,2.25,2.21,4.27,3.45,2Z" transform="translate(-275.75 -326.93)" style="fill:#c9caca"/><path d="M452,369.82l1.21,5.49c.2.91.41,1.82.61,2.74.08.39.16.79.25,1.19s0-.17,0,.25a7,7,0,0,1,0,.79,2,2,0,0,0,4,0,24.81,24.81,0,0,0-1-5.83l-1.26-5.7a2,2,0,0,0-2.46-1.39,2,2,0,0,0-1.4,2.46Z" transform="translate(-275.75 -326.93)" style="fill:#c9caca"/><path d="M453.63,384.72c-.92,1.43-1.53,3-2.44,4.47l-.64,1-.22.29-.06.08c.17-.21,0,.05-.06.09s-.12.15-.19.22a20,20,0,0,1-1.72,1.85,2,2,0,0,0,0,2.83,2.05,2.05,0,0,0,2.83,0,23,23,0,0,0,3.44-4.18c.94-1.47,1.57-3.12,2.51-4.59a2,2,0,0,0-.71-2.73,2,2,0,0,0-2.74.71Z" transform="translate(-275.75 -326.93)" style="fill:#c9caca"/><path d="M451.33,389.31c0,.07-.18.41,0,.1s0,0,0,0l-.24.5a9.06,9.06,0,0,1-.54,1c-.19.32-.4.62-.62.92s.21-.26.05-.07l-.19.24-.36.41a19.14,19.14,0,0,0-3,3.54,2,2,0,1,0,3.45,2l.3-.5.14-.19c.2-.28-.23.27-.07.09s.46-.53.7-.79c.51-.54,1.05-1,1.54-1.61a15.42,15.42,0,0,0,2.75-4.61,2,2,0,0,0-.2-1.54,2.07,2.07,0,0,0-1.19-.92,2.09,2.09,0,0,0-1.55.2,2.27,2.27,0,0,0-.91,1.2Z" transform="translate(-275.75 -326.93)" style="fill:#c9caca"/><path d="M446,397.61l-3.13,2.83c-1,.9-2,1.79-2.93,2.78a1,1,0,1,0,1.41,1.41c.91-1,1.94-1.87,2.94-2.78l3.12-2.82a1,1,0,0,0,0-1.42,1,1,0,0,0-1.41,0Z" transform="translate(-275.75 -326.93)" style="fill:#c9caca"/><path d="M444.05,400c-.89.63-1.79,1.26-2.72,1.82-.47.28-.94.55-1.43.79l-.37.17-.23.1c-.25.11-.5.2-.76.29a1,1,0,1,0,.53,1.92,23.59,23.59,0,0,0,6-3.37,1,1,0,0,0,.36-1.37,1,1,0,0,0-1.37-.35Z" transform="translate(-275.75 -326.93)" style="fill:#c9caca"/><path d="M449.72,363.72A29.29,29.29,0,0,1,453,371c.63,2.63.47,5.37,1.31,8,.59,1.83,3.49,1,2.89-.8-.87-2.67-.67-5.52-1.38-8.23a32.87,32.87,0,0,0-3.46-7.67c-.94-1.69-3.53-.18-2.59,1.51Z" transform="translate(-275.75 -326.93)" style="fill:#c9caca"/><path d="M447.88,361.75A36.33,36.33,0,0,1,453.1,376a1.5,1.5,0,0,0,2.89-.8,38.51,38.51,0,0,0-5.52-14.92c-1-1.63-3.62-.13-2.59,1.52Z" transform="translate(-275.75 -326.93)" style="fill:#c9caca"/><path d="M452.69,372.06a38.09,38.09,0,0,1-.76,14.11c-.46,1.87,2.43,2.67,2.89.8a40.47,40.47,0,0,0,.87-14.91,1.54,1.54,0,0,0-1.5-1.5,1.51,1.51,0,0,0-1.5,1.5Z" transform="translate(-275.75 -326.93)" style="fill:#c9caca"/><path d="M452.06,370.46a54.33,54.33,0,0,1-.95,16.34c-.4,1.88,2.49,2.68,2.89.79a57.29,57.29,0,0,0,1.06-17.13,1.54,1.54,0,0,0-1.5-1.5,1.52,1.52,0,0,0-1.5,1.5Z" transform="translate(-275.75 -326.93)" style="fill:#c9caca"/><path d="M447.76,395.59a1.41,1.41,0,0,1,0,.29s0,.29,0,.08-.07.34-.11.34c.07-.17.09-.2,0-.1a.54.54,0,0,1,0,.11l-.14.25c-.09.15-.19.29-.29.44s.22-.27,0,0l-.15.18c-.12.14-.24.27-.37.4-.28.31-.56.6-.85.89-.55.55-1.12,1.07-1.71,1.58l-.95.78-.1.08-.16.12-.52.38a1.55,1.55,0,0,0-.54,2.05,1.53,1.53,0,0,0,2.06.54,32.81,32.81,0,0,0,4.22-3.59c1.27-1.29,2.8-2.88,2.62-4.84a1.5,1.5,0,1,0-3,0Z" transform="translate(-275.75 -326.93)" style="fill:#c9caca"/><path d="M351.62,418.5a24.72,24.72,0,0,0-9,4.89c-1.66,1.39-1.43,4.22,0,5.66a4.08,4.08,0,0,0,5.65,0,15.45,15.45,0,0,1,5.47-2.84,4,4,0,1,0-2.13-7.71Z" transform="translate(-275.75 -326.93)" style="fill:#2e81af"/><path d="M341.19,406a64.08,64.08,0,0,1,7.61,21.16c.88,5.06,8.59,2.91,7.71-2.13A70.51,70.51,0,0,0,348.1,402c-2.57-4.46-9.49-.44-6.91,4Z" transform="translate(-275.75 -326.93)" style="fill:#2e81af"/><path d="M338,392.42a241,241,0,0,0,.38,24.78c.17,2.56,4.17,2.57,4,0a241,241,0,0,1-.38-24.78c.1-2.58-3.9-2.57-4,0Z" transform="translate(-275.75 -326.93)" style="fill:#2e81af"/><path d="M340.3,412.39a33.91,33.91,0,0,0-2.2,11,2,2,0,0,0,4,0c0-.91.1-1.81.21-2.72,0-.08.08-.63,0-.24,0-.19.05-.39.08-.58.08-.45.16-.9.25-1.34a32.87,32.87,0,0,1,1.49-5.05,2,2,0,0,0-1.4-2.46,2.06,2.06,0,0,0-2.46,1.4Z" transform="translate(-275.75 -326.93)" style="fill:#2e81af"/><path d="M341,397.28a16.68,16.68,0,0,0-.43,5.37c0,2.07.08,4.15.14,6.22q.19,6.09.61,12.18c.16,2.56,4.17,2.58,4,0q-.39-5.85-.59-11.72-.11-2.88-.15-5.76a16.38,16.38,0,0,1,.28-5.23c.78-2.46-3.08-3.51-3.86-1.06Z" transform="translate(-275.75 -326.93)" style="fill:#2e81af"/><path d="M340.7,396.66a15,15,0,0,0,4.84,10.83c3.06,2.95,7,4.73,10.91,6.19a2,2,0,1,0,1.07-3.86,26.18,26.18,0,0,1-9-5,11.09,11.09,0,0,1-3.84-8.17c.06-2.57-3.94-2.57-4,0Z" transform="translate(-275.75 -326.93)" style="fill:#2e81af"/><path d="M343.32,400.41a47.24,47.24,0,0,0,23.7,7.82c2.58.14,2.57-3.86,0-4A43.18,43.18,0,0,1,345.34,397c-2.14-1.43-4.15,2-2,3.46Z" transform="translate(-275.75 -326.93)" style="fill:#2e81af"/><path d="M349.12,407a66,66,0,0,0,27.2,6.23c2.57,0,2.58-4,0-4a61.2,61.2,0,0,1-25.18-5.68,2,2,0,0,0-2.73.72,2,2,0,0,0,.71,2.73Z" transform="translate(-275.75 -326.93)" style="fill:#2e81af"/><path d="M353.88,413.7A162.14,162.14,0,0,0,374.19,415c2.57,0,2.58-4,0-4a162.14,162.14,0,0,1-20.31-1.25,2,2,0,0,0-2,2,2.05,2.05,0,0,0,2,2Z" transform="translate(-275.75 -326.93)" style="fill:#2e81af"/><path d="M347.2,415.16c3.26,2.53,7.49,2.9,11.47,3.36a80.64,80.64,0,0,0,13,.46c2.57-.11,2.58-4.11,0-4a81.32,81.32,0,0,1-11.68-.32c-1.84-.18-3.68-.42-5.5-.76a10.25,10.25,0,0,1-4.46-1.57,2.07,2.07,0,0,0-2.83,0,2,2,0,0,0,0,2.83Z" transform="translate(-275.75 -326.93)" style="fill:#2e81af"/><path d="M351.35,416.32a171.71,171.71,0,0,0,27.68.52c2.55-.16,2.57-4.17,0-4a171.71,171.71,0,0,1-27.68-.52,2,2,0,0,0-2,2,2,2,0,0,0,2,2Z" transform="translate(-275.75 -326.93)" style="fill:#2e81af"/><path d="M341.25,416a33,33,0,0,0,3.53,8.21,2,2,0,1,0,3.45-2,32.13,32.13,0,0,1-1.9-3.69c-.21-.48.11.27-.05-.11-.06-.17-.14-.35-.2-.52s-.24-.62-.35-.93q-.35-1-.63-2a2,2,0,1,0-3.85,1.06Z" transform="translate(-275.75 -326.93)" style="fill:#2e81af"/><path d="M343.36,415.38a37.06,37.06,0,0,0,3.44,10.43,2,2,0,0,0,2.73.71,2,2,0,0,0,.72-2.73c-.19-.38-.37-.76-.55-1.14-.1-.22-.19-.45-.29-.67-.19-.43.08.21-.08-.19-.32-.81-.63-1.63-.9-2.46a34.62,34.62,0,0,1-1.21-5,2,2,0,0,0-2.46-1.39,2.06,2.06,0,0,0-1.4,2.46Z" transform="translate(-275.75 -326.93)" style="fill:#2e81af"/><path d="M351,427.23a230.42,230.42,0,0,0,36.89-5.1c2.51-.56,1.45-4.42-1.06-3.86a223,223,0,0,1-35.83,5c-2.56.15-2.58,4.15,0,4Z" transform="translate(-275.75 -326.93)" style="fill:#2e81af"/><path d="M370.34,426.1a177.67,177.67,0,0,0,54.25,5.14c7.67-.46,7.73-12.46,0-12a166.31,166.31,0,0,1-51.06-4.72c-7.49-1.89-10.68,9.68-3.19,11.58Z" transform="translate(-275.75 -326.93)" style="fill:#2e81af"/><path d="M428,430.52h7a6,6,0,1,0,0-12h-7a6,6,0,0,0,0,12Z" transform="translate(-275.75 -326.93)" style="fill:#2e81af"/><path d="M414.7,431c7-.41,13.93-1.17,20.86-2.17,3.21-.47,5-4.54,4.19-7.38-.95-3.45-4.16-4.66-7.38-4.19-5.86.85-11.75,1.39-17.67,1.74-7.67.45-7.72,12.45,0,12Z" transform="translate(-275.75 -326.93)" style="fill:#2e81af"/><path d="M451.19,397.07a46.35,46.35,0,0,1,.05,4.86c0,.77-.09,1.55-.16,2.32,0,.39-.08.77-.13,1.16,0,.13,0,.26,0,.38,0-.31,0-.37,0-.18s-.06.45-.1.67a2.81,2.81,0,0,0,.25,1.93,2.58,2.58,0,0,0,1.5,1.15c1.19.27,2.86-.37,3.07-1.75a49.54,49.54,0,0,0,.54-10.54,2.5,2.5,0,0,0-5,0Z" transform="translate(-275.75 -326.93)" style="fill:#2e81af"/><path d="M450.66,398c-1.59,3.84-1.58,8.31-2,12.39l-1.32,13.18a2.51,2.51,0,0,0,2.5,2.5,2.56,2.56,0,0,0,2.5-2.5l1.27-12.69c.38-3.82.38-8,1.86-11.55a2.53,2.53,0,0,0-1.75-3.08,2.56,2.56,0,0,0-3.07,1.75Z" transform="translate(-275.75 -326.93)" style="fill:#2e81af"/><path d="M451,405.74l-.74,15.65a2.5,2.5,0,0,0,5,0l.74-15.65a2.52,2.52,0,0,0-2.5-2.5,2.57,2.57,0,0,0-2.5,2.5Z" transform="translate(-275.75 -326.93)" style="fill:#2e81af"/><path d="M446.08,402a119.22,119.22,0,0,1-14.75,7.35c-2.27.93-3.82,3-3.15,5.54.57,2.13,3.29,4.06,5.54,3.14a136.92,136.92,0,0,0,16.91-8.26c5-2.92.47-10.7-4.55-7.77Z" transform="translate(-275.75 -326.93)" style="fill:#2e81af"/><path d="M450.82,408.8c5.79,0,5.8-9,0-9s-5.8,9,0,9Z" transform="translate(-275.75 -326.93)" style="fill:#2e81af"/><path d="M446.38,404a70.07,70.07,0,0,1-3.69,7.09c-.85,1.4-1.81,3.12-3.46,3.61-5.55,1.64-3.19,10.32,2.39,8.68,6.62-2,9.88-9,12.53-14.84,1-2.21.63-4.84-1.61-6.16-1.94-1.13-5.14-.6-6.16,1.62Z" transform="translate(-275.75 -326.93)" style="fill:#2e81af"/><path d="M438.3,422.74l5.06.25a4.54,4.54,0,0,0,4.5-4.5,4.6,4.6,0,0,0-4.5-4.5l-5.06-.25a4.54,4.54,0,0,0-4.5,4.5,4.59,4.59,0,0,0,4.5,4.5Z" transform="translate(-275.75 -326.93)" style="fill:#2e81af"/><path d="M437.57,415.06q-25.36,2.08-50.8,2.6c-5.78.12-5.8,9.12,0,9q25.44-.51,50.8-2.6c5.73-.48,5.78-9.48,0-9Z" transform="translate(-275.75 -326.93)" style="fill:#2e81af"/><path d="M369.92,430.47q4.93.06,9.87-.25a4.61,4.61,0,0,0,4.5-4.5,4.53,4.53,0,0,0-4.5-4.5q-4.94.31-9.87.25c-5.79-.07-5.8,8.93,0,9Z" transform="translate(-275.75 -326.93)" style="fill:#2e81af"/><path d="M373.77,351.81c10.21.72,20.68-1.08,30.42,2.76,5.39,2.13,7.73-6.57,2.4-8.68-10.52-4.15-21.82-2.3-32.82-3.08-5.78-.41-5.75,8.59,0,9Z" transform="translate(-275.75 -326.93)" style="fill:#2e81af"/><path d="M353.16,333q.51,6.42,1.51,12.77c.37,2.41,3.38,3.74,5.53,3.15,2.57-.71,3.52-3.13,3.14-5.54-.53-3.44-.9-6.9-1.18-10.38a4.61,4.61,0,0,0-4.5-4.5c-2.28,0-4.69,2.07-4.5,4.5Z" transform="translate(-275.75 -326.93)" style="fill:#2e81af"/><path d="M351.84,335.44a19.47,19.47,0,0,0,.45,12.28c.88,2.27,3,3.84,5.54,3.15,2.16-.6,4-3.26,3.14-5.54a11.19,11.19,0,0,1-.45-7.5c1.58-5.58-7.1-8-8.68-2.39Z" transform="translate(-275.75 -326.93)" style="fill:#2e81af"/><path d="M355.77,340.2a45.46,45.46,0,0,0,6.4,8.76,4.5,4.5,0,0,0,6.37-6.36,34.13,34.13,0,0,1-5-7,4.5,4.5,0,0,0-7.77,4.55Z" transform="translate(-275.75 -326.93)" style="fill:#2e81af"/><path d="M361,342.17a24.2,24.2,0,0,0,1.88,5.67c1,2.16,4.26,2.83,6.15,1.61a4.63,4.63,0,0,0,1.62-6.15c-.2-.46-.18-.39.07.19-.08-.2-.15-.4-.23-.61s-.21-.6-.3-.91a20.46,20.46,0,0,1-.51-2.19c-.43-2.32-3.37-3.84-5.54-3.14a4.61,4.61,0,0,0-3.14,5.53Z" transform="translate(-275.75 -326.93)" style="fill:#2e81af"/><path d="M373.94,350.32a109.7,109.7,0,0,1,33.76-2c5.77.53,5.73-8.47,0-9a117.72,117.72,0,0,0-36.15,2.32c-5.66,1.23-3.27,9.91,2.39,8.68Z" transform="translate(-275.75 -326.93)" style="fill:#2e81af"/><path d="M369.93,349.41q12.36-1.55,24.78-2.61c5.73-.5,5.78-9.5,0-9q-12.42,1.06-24.78,2.61c-5.67.7-5.74,9.71,0,9Z" transform="translate(-275.75 -326.93)" style="fill:#2e81af"/><path d="M379.82,348c8.72-1.89,17.29-3.56,26.25-2.59,5.75.62,5.7-8.39,0-9-9.7-1.05-19.2.86-28.64,2.92-5.66,1.23-3.26,9.9,2.39,8.67Z" transform="translate(-275.75 -326.93)" style="fill:#2e81af"/><path d="M438.91,338.52a10.38,10.38,0,0,0-4.47,4.77,5,5,0,0,0-.45,3.46,4.51,4.51,0,0,0,5.53,3.15,4.34,4.34,0,0,0,2.69-2.07,7.59,7.59,0,0,1,.9-1.53l-.7.92a6.85,6.85,0,0,1,1.12-1.1l-.91.7a7.28,7.28,0,0,1,.83-.53,4.5,4.5,0,1,0-4.54-7.77Z" transform="translate(-275.75 -326.93)" style="fill:#2e81af"/><path d="M435.18,342.58,434,344.25a3.39,3.39,0,0,0-.53,1.68,3.31,3.31,0,0,0,.08,1.79,4.58,4.58,0,0,0,2.07,2.69,4.51,4.51,0,0,0,3.46.45l1.08-.45a4.52,4.52,0,0,0,1.61-1.61l1.23-1.67a5.1,5.1,0,0,0,.45-3.47,4.48,4.48,0,0,0-5.53-3.14l-1.08.45a4.6,4.6,0,0,0-1.61,1.61Z" transform="translate(-275.75 -326.93)" style="fill:#2e81af"/><path d="M437.1,351c5.79,0,5.8-9,0-9s-5.8,9,0,9Z" transform="translate(-275.75 -326.93)" style="fill:#2e81af"/><path d="M442.87,344.12l.14,0-1.19.16a2.89,2.89,0,0,1,.72,0l-1.2-.16a3.46,3.46,0,0,1,.7.19l-1.08-.45a3.28,3.28,0,0,1,.62.37l-.91-.71.21.2a4.66,4.66,0,0,0,3.18,1.32,4.5,4.5,0,0,0,3.18-7.68,7.34,7.34,0,0,0-3.08-1.83,7.52,7.52,0,0,0-3.68-.06,4.51,4.51,0,0,0-1.08,8.23,5,5,0,0,0,3.47.45Z" transform="translate(-275.75 -326.93)" style="fill:#2e81af"/><path d="M439.83,340.73a31.77,31.77,0,0,1-2,10.29c-.83,2.29.93,4.93,3.14,5.54a4.6,4.6,0,0,0,5.54-3.15,39.39,39.39,0,0,0,2.28-12.68c.1-5.79-8.9-5.79-9,0Z" transform="translate(-275.75 -326.93)" style="fill:#2e81af"/><path d="M391.66,352.71c4.27,9.27,4.2,19.65,4.17,29.65,0,5.8,9,5.8,9,0,0-11.77-.4-23.33-5.39-34.19-2.42-5.26-10.18-.69-7.78,4.54Z" transform="translate(-275.75 -326.93)" style="fill:#2e81af"/><path d="M417.35,341.85c-10.1,2.71-17.25,12.84-20.05,22.43-1.63,5.57,7.05,8,8.67,2.4,1.92-6.57,6.76-14.27,13.78-16.15,5.59-1.5,3.22-10.18-2.4-8.68Z" transform="translate(-275.75 -326.93)" style="fill:#2e81af"/><path d="M405.14,345c-6.67,3.71-8.09,11.89-8,18.87.09,5.79,9.09,5.8,9,0-.06-3.61-.12-9.07,3.53-11.09,5.06-2.82.53-10.6-4.55-7.78Z" transform="translate(-275.75 -326.93)" style="fill:#2e81af"/><path d="M417.84,345.6c-6.91,3.81-12,9.72-16.87,15.77-1.54,1.91-1.83,4.5,0,6.36,1.56,1.6,4.84,1.89,6.37,0,4.38-5.43,8.83-10.93,15-14.35,5.07-2.8.54-10.57-4.54-7.78Z" transform="translate(-275.75 -326.93)" style="fill:#2e81af"/><path d="M408.52,345.46a45.56,45.56,0,0,0,5.25,1.63c1.33.32,2.88.38,4.05,1.08,5,3,9.5-4.78,4.54-7.77-3.37-2-7.77-2.25-11.45-3.61-2.28-.85-4.93.94-5.53,3.14a4.58,4.58,0,0,0,3.14,5.53Z" transform="translate(-275.75 -326.93)" style="fill:#2e81af"/><path d="M421.35,349.91l1.64,1.21a3.39,3.39,0,0,0,1.68.53,3.31,3.31,0,0,0,1.79-.08,4.61,4.61,0,0,0,2.69-2.07,4.51,4.51,0,0,0,.45-3.46l-.45-1.08a4.47,4.47,0,0,0-1.62-1.61l-1.64-1.21a3.4,3.4,0,0,0-1.67-.54,3.55,3.55,0,0,0-1.8.08,4.65,4.65,0,0,0-2.69,2.07,4.53,4.53,0,0,0-.45,3.47l.45,1.07a4.49,4.49,0,0,0,1.62,1.62Z" transform="translate(-275.75 -326.93)" style="fill:#2e81af"/><path d="M424.59,347.13c-3.19.79-5.46,3.07-8.43,4.24a3.59,3.59,0,0,0-2.44,4.3c.46,1.68,2.53,3.14,4.3,2.45,2.91-1.14,5.4-3.49,8.43-4.24,4.37-1.08,2.52-7.83-1.86-6.75Z" transform="translate(-275.75 -326.93)" style="fill:#2e81af"/><path d="M411.72,353.22a35.22,35.22,0,0,0-10.51,7.33c-3.17,3.2,1.77,8.16,5,4.95a29.86,29.86,0,0,1,9.09-6.23c1.73-.78,2.14-3.29,1.26-4.79a3.58,3.58,0,0,0-4.79-1.26Z" transform="translate(-275.75 -326.93)" style="fill:#2e81af"/><path d="M407.91,357.08a89.17,89.17,0,0,0-13.52,22.72c-1.71,4.17,5.06,6,6.75,1.86A78,78,0,0,1,412.86,362c2.83-3.46-2.09-8.44-4.95-4.95Z" transform="translate(-275.75 -326.93)" style="fill:#2e81af"/><path d="M429.24,352.47a11.94,11.94,0,0,1,1.79.1l-.93-.13.79.14a3.73,3.73,0,0,0,2.7-.35,3.6,3.6,0,0,0,1.6-2.09,3.54,3.54,0,0,0-2.44-4.31,16.6,16.6,0,0,0-3.51-.36,3.5,3.5,0,0,0,0,7Z" transform="translate(-275.75 -326.93)" style="fill:#2e81af"/><path d="M439.14,345.27c4.5,0,4.51-7,0-7s-4.51,7,0,7Z" transform="translate(-275.75 -326.93)" style="fill:#2e81af"/><path d="M438,354.11l.28.11,1.86-6.75a19.35,19.35,0,0,0-5.88-.36,3.5,3.5,0,0,0,0,7c.77-.05,1.55-.1,2.32-.09l1.06.05c.26,0,.24,0-.05,0l.69.15a3.56,3.56,0,0,0,4.31-2.44,3.61,3.61,0,0,0-2.45-4.31l-.28-.11a3.51,3.51,0,0,0-4.3,2.45,3.59,3.59,0,0,0,2.44,4.3Z" transform="translate(-275.75 -326.93)" style="fill:#2e81af"/><path d="M429.51,347.56a3.39,3.39,0,0,1-.45,0l.93.12a3.87,3.87,0,0,1-.59-.13,2.57,2.57,0,0,0-1.4-.06,2.52,2.52,0,0,0-1.3.41,2.58,2.58,0,0,0-1,.9,2.69,2.69,0,0,0-.63,1.19,3.58,3.58,0,0,0,.35,2.7l.55.71a3.57,3.57,0,0,0,1.55.9,6.22,6.22,0,0,0,2,.28,3.6,3.6,0,0,0,2.48-1,2.67,2.67,0,0,0,.72-1.13,2.62,2.62,0,0,0,.3-1.35,3.56,3.56,0,0,0-1-2.47,3.64,3.64,0,0,0-2.48-1Z" transform="translate(-275.75 -326.93)" style="fill:#2e81af"/><path d="M358.29,337.14c1.46,1.24,1.69,3.13,2,5.22.3,1.86,2.62,2.9,4.3,2.44a3.59,3.59,0,0,0,2.45-4.31c-.51-3.06-1.38-6.21-3.84-8.3a3.6,3.6,0,0,0-4.95,0,3.52,3.52,0,0,0,0,4.95Z" transform="translate(-275.75 -326.93)" style="fill:#2e81af"/><path d="M354.35,352.75a7.24,7.24,0,0,0,3.58.15,3.47,3.47,0,0,0,2.09-1.61,3.56,3.56,0,0,0,.35-2.69,3.49,3.49,0,0,0-1.61-2.09l-.83-.36a3.66,3.66,0,0,0-1.86,0l-.13,0,.93-.12a4.22,4.22,0,0,1-.87,0l.93.12a3.76,3.76,0,0,1-.72-.17,3.54,3.54,0,0,0-2.7.35,3.6,3.6,0,0,0-1.6,2.09,3.54,3.54,0,0,0,.35,2.7,3.87,3.87,0,0,0,2.09,1.61Z" transform="translate(-275.75 -326.93)" style="fill:#2e81af"/><path d="M354.42,355.39a46.73,46.73,0,0,1,14.77-4.16,2.06,2.06,0,0,0,2-2,2,2,0,0,0-2-2,52.57,52.57,0,0,0-16.79,4.7,2,2,0,0,0-.72,2.74,2.05,2.05,0,0,0,2.74.72Z" transform="translate(-275.75 -326.93)" style="fill:#2e81af"/><path d="M359.81,352.05a69.64,69.64,0,0,0,11.52-2.35,2,2,0,1,0-1.06-3.85q-2.65.78-5.35,1.35c-.9.19-1.8.36-2.71.51l-1.25.19-.63.09-.52.06a2,2,0,0,0-2,2c0,1,.88,2.14,2,2Z" transform="translate(-275.75 -326.93)" style="fill:#2e81af"/><path d="M378.05,346.16c2.95-.32,6.3-1.15,9.23-.77l-3.45-2c-.54-1.05.4,3.29.51,3.63.43,1.3,1.17,2.5,1.7,3.76,1.45,3.48,2.16,7.21,3.48,10.74,3,8,6.83,13.87,2.42,22.42-2.36,4.56,4.54,8.61,6.91,4,2.82-5.46,3.88-10.25,2.84-16.38-1-5.78-4.06-10.54-5.73-16.11-.73-2.44-1.4-4.87-2.37-7.23-1.1-2.64-1.3-5.7-2.48-8.17-2.22-4.65-9.11-2.37-13.06-1.94-5.06.55-5.12,8.56,0,8Z" transform="translate(-275.75 -326.93)" style="fill:#2e81af"/><path d="M366.21,353c7.59.12,16.28,3.11,19.68,10.44,3.27,7.09,3.6,15.13,3.13,22.79-.32,5.14,7.68,5.12,8,0,.6-9.78-.16-21.1-5.71-29.55-5.26-8-16-11.54-25.1-11.68-5.15-.07-5.15,7.93,0,8Z" transform="translate(-275.75 -326.93)" style="fill:#2e81af"/><path d="M368.67,409.87c5.4-1.44,9.67-4.61,13.75-8.32,3.82-3.45,7.19-7.43,8.85-12.37a2.5,2.5,0,0,0-4.82-1.33c-1.38,4.09-4.42,7.32-7.56,10.17-3.45,3.12-7,5.81-11.55,7-3.11.83-1.79,5.65,1.33,4.82Z" transform="translate(-275.75 -326.93)" style="fill:#2e81af"/><path d="M364.67,411.79a60.92,60.92,0,0,1,13.78,1.75c1.07.26,2.13.55,3.18.88.41.12,1.26.25,1.55.61a5.43,5.43,0,0,1,.38,1.24,5.94,5.94,0,0,0,.69,1.35,5.7,5.7,0,0,0,2.87,2,30.82,30.82,0,0,0,6.55,1.1c2.42.27,4.85.42,7.28.54,4.91.25,9.84.55,14.72-.16,4.54-.66,8.87-2.35,13.15-3.91,3.61-1.32,8-2.45,10.73-5.41,1.4-1.55,3-4.34,1.21-6.21-1.66-1.71-4.75-.71-6.83-.54a18.19,18.19,0,0,1-6.61-.54c-2.09-.59-4.1-1.45-6.13-2.22s-4.64-1.13-6.45-2.45-2.86-3.7-4-5.52c-1.44-2.28-2.91-4.55-4.33-6.84a17.78,17.78,0,0,1-2.75-6.44,2.52,2.52,0,0,0-3.08-1.75,2.55,2.55,0,0,0-1.74,3.07c.72,4.32,3.47,8,5.76,11.61,1.28,2,2.53,4.05,3.84,6.05a13,13,0,0,0,4.49,4.56,41.94,41.94,0,0,0,5.9,2.14c2.05.74,4,1.61,6.11,2.28a22.18,22.18,0,0,0,6.65,1.16c1.11,0,2.21-.09,3.31-.2a21.32,21.32,0,0,1,3.23-.36L437,409l.21.17-.64-1.1.07.33V407c-.38,1.68-2.25,2.6-3.68,3.26-2.19,1-4.54,1.76-6.8,2.57-5.17,1.87-10.21,3.58-15.75,3.7a123.57,123.57,0,0,1-17-.85c-1.23-.14-2.46-.32-3.67-.56-.44-.09-.87-.24-1.31-.33a1.81,1.81,0,0,1-.29-.19c.39.28.12.15,0-.21-.61-2.69-2.54-4-5-4.75a66,66,0,0,0-18.51-2.87c-3.22-.05-3.22,4.95,0,5Z" transform="translate(-275.75 -326.93)" style="fill:#2e81af"/><path d="M402.5,368.66a13.49,13.49,0,0,1-.18,1.89c-.11.66-.25,1.32-.4,2-.33,1.41-.73,2.8-1.08,4.2a21.63,21.63,0,0,0-.61,9.15,2.54,2.54,0,0,0,3.08,1.75,2.57,2.57,0,0,0,1.75-3.08c-.05-.31-.07-.37,0-.17,0-.19,0-.38-.06-.56s0-.65,0-1,0-.65,0-1,0-.37,0-.56,0-.37,0-.17a32.25,32.25,0,0,1,.85-3.9,40.3,40.3,0,0,0,1.62-8.56,2.52,2.52,0,0,0-2.5-2.5,2.55,2.55,0,0,0-2.5,2.5Z" transform="translate(-275.75 -326.93)" style="fill:#2e81af"/><path d="M400.85,377.62c.23,3.95.66,7.88,1.24,11.79a2.46,2.46,0,0,0,1.15,1.49,2.53,2.53,0,0,0,1.92.26,2.58,2.58,0,0,0,1.75-3.08c-.07-.47-.14-.94-.2-1.41,0-.19,0-.15,0,.12,0-.11,0-.22,0-.33s-.06-.43-.08-.65c-.12-.91-.22-1.81-.31-2.72-.19-1.82-.33-3.64-.44-5.47a2.5,2.5,0,0,0-5,0Z" transform="translate(-275.75 -326.93)" style="fill:#2e81af"/><path d="M399.54,385.93a9.75,9.75,0,0,0-4.79,1.88c-.32.23-.64.48-1,.73l-.61.47-.12.09a17.35,17.35,0,0,1-2,1.32c-1.43.81-3,1.44-4.37,2.3a11.62,11.62,0,0,0-3.92,3.78,2.5,2.5,0,0,0,3.93,3l.66-.63a2.5,2.5,0,0,0-3.54-3.54l-.66.64,3.93,3c.08-.14.16-.27.25-.4.39-.59-.16.16.11-.13a10.33,10.33,0,0,1,.74-.74l.36-.3c-.2.16-.07.06.07,0,.29-.2.59-.39.89-.57,1.32-.78,2.74-1.37,4.07-2.12a16.22,16.22,0,0,0,1.71-1.12c.38-.28.75-.58,1.13-.87l.35-.27.12-.09a16.12,16.12,0,0,1,1.55-1c.16-.09.32-.16.48-.24-.2.1-.24.08,0,0a4.28,4.28,0,0,1,.51-.15c.12,0,.6-.09.08,0a2.5,2.5,0,0,0,0-5Z" transform="translate(-275.75 -326.93)" style="fill:#2e81af"/><path d="M390,387.93c-1.18,1.57-2.15,3.28-3.34,4.84-1.05,1.39-2.3,2.82-3.47,4.19a50.66,50.66,0,0,0-6.91,9.51,2.57,2.57,0,0,0,.89,3.43,2.53,2.53,0,0,0,3.42-.9,47.34,47.34,0,0,1,6.54-9c1.29-1.51,2.56-3,3.76-4.6s2.22-3.35,3.43-5a2.52,2.52,0,0,0-.9-3.42,2.57,2.57,0,0,0-3.42.9Z" transform="translate(-275.75 -326.93)" style="fill:#2e81af"/><path d="M373.25,409a23.81,23.81,0,0,0,12.88,11.42v-4.82a1.78,1.78,0,0,1-.46,0c-.46,0-.32.05.39.28l.65,1.11-.06-.24v1.33l.09-.24-.65,1.11c-.19.18.41-.06.51-.08a6.66,6.66,0,0,1,1-.12,25.67,25.67,0,0,1,2.77.12c1.9.16,3.8.29,5.7.37A82,82,0,0,0,407.8,419c8-.8,15.92-2.19,23.85-3.35,1.57-.23,2.31-2.44,1.5-3.67-2.66-4-8-3-12.18-2.93-2.63,0-5.25,0-7.88,0-1.31,0-2.63-.07-3.94-.12l-2-.09-1-.06c-.64-.05-.65,0,0,0l.89.89-.12-.23-2.16,3.76A46.7,46.7,0,0,0,415.63,412a2.43,2.43,0,0,0,1.75-1.74,3.59,3.59,0,0,0-.83-3.15,5.68,5.68,0,0,0-.68-.61c-.71-.53.08,0,0,.59l-.34,1.26c-1.16.43-1.35.62-.59.57l.5.14c.31.1.6.22.9.35.9.41,1.8.85,2.74,1.19a19.15,19.15,0,0,0,6.14,1.07v-5a61.61,61.61,0,0,0-12.86,2.22c-4,1.22-7.71,3.19-11.82,4a18.29,18.29,0,0,1-11.06-1.35c-2.71-1.32-5.23-3.87-4-7.09l-4.82-1.33c-.86,2.8-.5,6.22,2.11,8a10.48,10.48,0,0,0,4.71,1.29,21.62,21.62,0,0,0,5.21-.08l-2.5-2.5C390,415.7,395.91,419,401,419.94a43.15,43.15,0,0,0,7.86.66c2.69,0,5.28,0,7.41-1.87a2.5,2.5,0,0,0-3.54-3.53c-.94.82-3.16.41-4.29.39a35,35,0,0,1-5.7-.39c-2.82-.51-7.66-1.79-7.49-5.43a2.5,2.5,0,0,0-2.5-2.5c-2.06.27-4.65.51-6.67-.2-1.15-.4-.88-1.54-.54-2.64a2.52,2.52,0,0,0-1.75-3.07,2.55,2.55,0,0,0-3.07,1.74c-1.7,4.38.72,9,4.29,11.56s8.3,3.55,12.6,3.49c4.8-.08,9.06-1.86,13.48-3.51a53.63,53.63,0,0,1,14.17-2.95c3.16-.28,3.27-4.94,0-5a14.23,14.23,0,0,1-5.26-1.06c-1.76-.73-3.44-1.77-5.42-1.7s-4.13,1.75-3.6,4a3.85,3.85,0,0,0,1,1.79,5.72,5.72,0,0,0,.53.45c.56.42.13.27.07-.13v-1.33l0,.2,1.74-1.75a40.19,40.19,0,0,1-9.53,1,2.53,2.53,0,0,0-2.16,3.76c1.23,2.35,4.81,1.85,7,1.94,2.55.1,5.09.15,7.64.16s5.08-.05,7.63-.13c1,0,3.34-.33,3.92.55l1.49-3.67-14.39,2.1a107.49,107.49,0,0,1-14.65,1.43c-2.38,0-4.75-.07-7.12-.2a61.46,61.46,0,0,0-6.77-.39c-2.16.13-5.24.74-5.61,3.32-.46,3.27,3.38,3.75,5.68,3.31A2.53,2.53,0,0,0,389.3,418a2.6,2.6,0,0,0-1.84-2.41,18.67,18.67,0,0,1-9.89-9.13c-1.45-2.87-5.76-.34-4.32,2.53Z" transform="translate(-275.75 -326.93)" style="fill:#2e81af"/><path d="M399.88,387.47a21.71,21.71,0,0,1-5.5,3.47,24,24,0,0,1-5.92,1.57A2.57,2.57,0,0,0,386,395a2.53,2.53,0,0,0,2.5,2.5c3.86-.21,7.5-1.42,11.25-2.24.71-.16,1.67-.36,2.22-.42s.28,0-.12-.2c-.12-.06-.34-.33-.12-.09-.42-.45,0,.11.12.31s-.19-.44,0,0c.11.26.21.52.32.77a4.42,4.42,0,0,0,2.68,2.51,2.48,2.48,0,0,0,2.95-1.45,2.51,2.51,0,0,0-1-3.12,24.68,24.68,0,0,0-3.33-1.77,2.59,2.59,0,0,0-3.42.9,2.51,2.51,0,0,0,.9,3.42,25.23,25.23,0,0,1,3.33,1.76l1.92-4.57c.11,0,.64.41.49.26s.15.34.1.1-.42-.88-.17-.31a7.08,7.08,0,0,0-1.28-2.27c-1.64-1.71-3.9-1.24-6-.83-3.63.71-7.27,2.05-10.83,2.25v5a26.64,26.64,0,0,0,15-6.51,2.52,2.52,0,0,0,0-3.53,2.55,2.55,0,0,0-3.54,0Z" transform="translate(-275.75 -326.93)" style="fill:#2e81af"/><path d="M373.42,353c.7,2.08,2.3,3.18,4,4.41l1.06.79.16.13.47.38c.68.56,1.35,1.15,2,1.75s1.2,1.18,1.77,1.81c.29.32.58.65.86,1,.13.15.26.31.38.47s-.14-.2.12.15a25.1,25.1,0,0,1,2.67,4.52,2.5,2.5,0,0,0,3.42.9,2.57,2.57,0,0,0,.89-3.42,28.12,28.12,0,0,0-6.06-8.45,42,42,0,0,0-4.06-3.47c-.66-.51-1.33-1-2-1.48s.32.32-.22-.16c-.11-.1-.23-.19-.33-.3s-.4-.55-.18-.16c-.07-.12-.28-.67-.12-.19a2.5,2.5,0,1,0-4.82,1.33Z" transform="translate(-275.75 -326.93)" style="fill:#2e81af"/><path d="M338.16,393.91a69.87,69.87,0,0,1-.37,7.92,2,2,0,0,0,2,2,2.07,2.07,0,0,0,2-2,69.87,69.87,0,0,0,.37-7.92,2,2,0,0,0-4,0Z" transform="translate(-275.75 -326.93)" style="fill:#115b7a"/><path d="M339.82,394.57c2.57,0,2.57-4,0-4s-2.58,4,0,4Z" transform="translate(-275.75 -326.93)" style="fill:#115b7a"/><path d="M338.4,402.05,338,421c-.06,2.57,3.94,2.57,4,0l.38-19c.06-2.57-3.94-2.57-4,0Z" transform="translate(-275.75 -326.93)" style="fill:#115b7a"/><path d="M453.93,398c2.58,0,2.58-4,0-4s-2.58,4,0,4Z" transform="translate(-275.75 -326.93)" style="fill:#115b7a"/><path d="M451.49,397.24l.29,24.45c0,2.57,4,2.58,4,0l-.29-24.45c0-2.57-4-2.58-4,0Z" transform="translate(-275.75 -326.93)" style="fill:#115b7a"/><path d="M393,406c1.86-1.6,5.82-1.6,8.11-1.55,4.51.09,4.51-6.91,0-7s-9.6.63-13.06,3.6,1.55,7.87,4.95,5Z" transform="translate(-275.75 -326.93)" style="fill:#d49b60"/><path d="M389.69,406.73c4.51,0,4.52-7,0-7s-4.51,7,0,7Z" transform="translate(-275.75 -326.93)" style="fill:#d49b60"/><path d="M393.31,404.31a15.91,15.91,0,0,1,4.81-1.22,12.61,12.61,0,0,1,4.88.77c4.36,1.13,6.22-5.62,1.86-6.75-2.66-.69-5-1.29-7.77-.89a24.8,24.8,0,0,0-7.31,2c-4.07,1.94-.52,8,3.53,6.05Z" transform="translate(-275.75 -326.93)" style="fill:#d49b60"/><path d="M402.26,403.19a10.87,10.87,0,0,0,3.3,3.28l-.71-.55a2,2,0,0,1,.42.41l-.54-.71a1.26,1.26,0,0,1,.13.26,3.52,3.52,0,0,0,2.09,1.61,3.58,3.58,0,0,0,2.7-.35,3.51,3.51,0,0,0,1.61-2.09,4.14,4.14,0,0,0-.35-2.7c-.52-1.17-1.65-1.75-2.61-2.48l.71.54a5.51,5.51,0,0,1-.86-.88l.55.71a4.63,4.63,0,0,1-.39-.59,3.5,3.5,0,0,0-6.05,3.54Z" transform="translate(-275.75 -326.93)" style="fill:#d49b60"/><path d="M404.63,408c4.51,0,4.51-7,0-7s-4.51,7,0,7Z" transform="translate(-275.75 -326.93)" style="fill:#d49b60"/><path d="M399.79,406.33c4.5,0,4.51-7,0-7s-4.51,7,0,7Z" transform="translate(-275.75 -326.93)" style="fill:#d49b60"/><path d="M393.6,406.85c4.51,0,4.52-7,0-7s-4.51,7,0,7Z" transform="translate(-275.75 -326.93)" style="fill:#d49b60"/><path d="M395.41,406.91c4.51,0,4.51-7,0-7s-4.51,7,0,7Z" transform="translate(-275.75 -326.93)" style="fill:#d49b60"/><path d="M401,407.08c4.51,0,4.52-7,0-7s-4.51,7,0,7Z" transform="translate(-275.75 -326.93)" style="fill:#d49b60"/><path d="M401,397.26a18.9,18.9,0,0,1,5.26,3,8.91,8.91,0,0,1,3.09,4.34c.17.74,0,1.13-.77,1.24a18.75,18.75,0,0,1-3.18.09,25.39,25.39,0,0,1-6.35-1,1,1,0,0,0-.53,1.93,27.63,27.63,0,0,0,6,1.07,26.23,26.23,0,0,0,2.94,0,5.63,5.63,0,0,0,2.72-.54c1.7-1.05,1.25-3.22.51-4.72a12.43,12.43,0,0,0-3.34-4,22.17,22.17,0,0,0-5.86-3.27,1,1,0,0,0-1.23.7,1,1,0,0,0,.7,1.23Z" transform="translate(-275.75 -326.93)" style="fill:#9a612c"/><path d="M399.85,396.61a6.72,6.72,0,0,0,2.54,1.92c1,.6,2.09,1.16,3.06,1.85a7.86,7.86,0,0,1,2.15,2.15,4.37,4.37,0,0,1,.6,1.25c.18.64,0,.59-.64.68-1.15.17-2.3.35-3.45.43a18,18,0,0,1-3.74-.23A6.24,6.24,0,0,0,397,405a21.29,21.29,0,0,1-3.38,1.13c-1.26.28-.73,2.21.53,1.92a34.9,34.9,0,0,0,3.85-1.31c1.26-.44,2.56,0,3.84.11a18.39,18.39,0,0,0,4.32-.2c1.08-.15,2.68-.1,3.52-.89,1.82-1.72-.42-4.75-1.76-6a16.74,16.74,0,0,0-3-2.16l-1.67-.95a4.56,4.56,0,0,1-1.58-1.07c-.71-1.07-2.44-.07-1.73,1Z" transform="translate(-275.75 -326.93)" style="fill:#9a612c"/><path d="M440.3,344.75c.29-.22.55-.47.83-.7a3.23,3.23,0,0,1,.78-.49,3.59,3.59,0,0,1,1.75-.31.5.5,0,0,0,.5-.5.51.51,0,0,0-.5-.5,4.67,4.67,0,0,0-3.05.93c-.28.22-.53.49-.81.71a.5.5,0,0,0,.5.86Z" transform="translate(-275.75 -326.93)" style="fill:#115b7a"/><path d="M338.13,426.76a11.25,11.25,0,0,0,6.86,2.7c2.22.18,4.46.18,6.67.26a2.51,2.51,0,0,0,2.5-2.5,2.55,2.55,0,0,0-2.5-2.5c-2-.07-4-.11-6-.21l-.65-.05c-.07,0-.84-.1-.52,0s-.44-.08-.51-.1l-.62-.16c-.07,0-.78-.3-.48-.16s-.35-.19-.41-.22-.34-.21-.51-.32-.22-.15,0,0l-.31-.26a2.5,2.5,0,1,0-3.53,3.53Z" transform="translate(-275.75 -326.93)" style="fill:#2e81af"/><path d="M432.1,346.32a14.71,14.71,0,0,1,3.71,1.49,22.73,22.73,0,0,1,3.44,2.23l3.46,2.54a6.5,6.5,0,0,1,2.43,2.48,1,1,0,1,0,1.72-1,7.19,7.19,0,0,0-2.55-2.76c-1.27-1-2.56-1.88-3.84-2.82a24.38,24.38,0,0,0-3.65-2.39,16.89,16.89,0,0,0-4.19-1.69c-1.25-.22-1.79,1.7-.53,1.93Z" transform="translate(-275.75 -326.93)" style="fill:#115b7a"/><path d="M353.7,351.15a38.92,38.92,0,0,1,3.12-3.43,20.31,20.31,0,0,1,4-2.72,53,53,0,0,1,8.78-3.89c1.21-.4.69-2.34-.53-1.92a55.77,55.77,0,0,0-9.26,4.08,22.31,22.31,0,0,0-4,2.75,33.78,33.78,0,0,0-3.45,3.72c-.82,1,.59,2.4,1.42,1.41Z" transform="translate(-275.75 -326.93)" style="fill:#115b7a"/><circle cx="87.36" cy="51.68" r="25.86" style="fill:none;stroke:#040000;stroke-miterlimit:10;stroke-width:2px"/><circle cx="156.51" cy="52.79" r="25.86" style="fill:none;stroke:#040000;stroke-miterlimit:10;stroke-width:2px"/><path d="M398.16,405.34a33.2,33.2,0,0,1-6.26,1.08c-1.65.11-4.24.52-5.11-1.28-1.75-3.58,3.29-6.37,5.94-7.32a16,16,0,0,1,10.76-.07c3.08,1.11,6.6,3.83,7.32,7.23.2.95-.12,1.15-.84,1.51a7.51,7.51,0,0,1-1.44.52,9.89,9.89,0,0,1-2.92.22,22.81,22.81,0,0,1-6.66-1.87c-1.2-.46-1.72,1.47-.53,1.93a22.75,22.75,0,0,0,7.59,2c2,.06,4.71-.35,6.21-1.87s.16-4.27-.81-5.81a13.88,13.88,0,0,0-4.91-4.63,17.51,17.51,0,0,0-13.9-1.18c-3.77,1.24-8.83,4.25-8,8.93.42,2.48,2.41,3.7,4.8,3.79a31.57,31.57,0,0,0,9.32-1.21,1,1,0,0,0-.53-1.93Z" transform="translate(-275.75 -326.93)" style="fill:#040000"/><path d="M360.28,382.54c3.21,0,3.22-5,0-5s-3.23,5,0,5Z" transform="translate(-275.75 -326.93)" style="fill:#040000"/><path d="M436.48,383.14c3.22,0,3.22-5,0-5s-3.22,5,0,5Z" transform="translate(-275.75 -326.93)" style="fill:#040000"/><path d="M401.81,407.84l-.06,1.87a3.54,3.54,0,0,1-.16,1.31,1.41,1.41,0,0,1-.91.67,4.82,4.82,0,0,1-1.6.24,6.36,6.36,0,0,1-1.42-.08,1.33,1.33,0,0,1-.54-.21.9.9,0,0,1-.31-.35,6.06,6.06,0,0,1-.5-3.15,1,1,0,0,0-1-1,1,1,0,0,0-1,1,8.23,8.23,0,0,0,.46,3.44,3.24,3.24,0,0,0,2.41,2.21,8.81,8.81,0,0,0,3.47,0,3.71,3.71,0,0,0,2.77-2,4.94,4.94,0,0,0,.32-1.87c0-.7.05-1.4.07-2.09a1,1,0,0,0-2,0Z" transform="translate(-275.75 -326.93)" style="fill:#040000"/><path d="M398.39,407.4a6.42,6.42,0,0,0,0,2.62c.14.87.34,1.73.52,2.6a.5.5,0,1,0,1-.27c-.16-.8-.34-1.61-.48-2.41a5.12,5.12,0,0,1,0-2.27.5.5,0,0,0-1-.27Z" transform="translate(-275.75 -326.93)" style="fill:#040000"/><path d="M342.63,364.27c4.95-5.75,10.13-11.4,16.17-16a51.46,51.46,0,0,1,21.45-9.7c16.1-3.29,33.29-1.4,47.93,6.22a65.4,65.4,0,0,1,19.57,15.52c.83,1,2.24-.44,1.41-1.41a68.79,68.79,0,0,0-40-22.67,77.85,77.85,0,0,0-25.8-.25,54.9,54.9,0,0,0-23,8.69c-7.3,5-13.38,11.54-19.14,18.21-.83,1,.58,2.39,1.42,1.42Z" transform="translate(-275.75 -326.93)" style="fill:#040000"/><path d="M432.45,346c1.81-2.62,3.48-5.56,5.77-7.78,2.11-2.05,5.75-3.42,8-.83s1.56,6.28,1.11,9.3a33.86,33.86,0,0,1-2.64,9.93c-.55,1.15,1.17,2.17,1.73,1,1.82-3.77,2.51-7.87,3.06-12,.47-3.47.56-7.56-2.29-10.11s-6.63-1.76-9.33.33c-3,2.34-5,6-7.16,9.12-.74,1.06,1,2.06,1.72,1Z" transform="translate(-275.75 -326.93)" style="fill:#040000"/><path d="M370.44,340.17a32.2,32.2,0,0,0-5.2-7.77c-1.88-2.14-4.06-5.08-7.11-5.43s-5.18,2.23-6.38,4.69a20.87,20.87,0,0,0-2.15,9.41,23.55,23.55,0,0,0,2.95,10.9c.61,1.14,2.33.13,1.72-1a21.33,21.33,0,0,1-2.66-10.68c.09-3.32,1-7.24,3.24-9.82,1.15-1.35,2.7-2,4.35-1.09a15,15,0,0,1,3.74,3.46,32.19,32.19,0,0,1,5.77,8.35c.53,1.17,2.26.16,1.73-1Z" transform="translate(-275.75 -326.93)" style="fill:#040000"/><path d="M354.92,340a13.08,13.08,0,0,1,1.78,1.13l.1.08.19.15.39.34c.26.23.51.47.76.72s.47.52.69.78l.15.19c.06.08-.06-.08,0,.06s.23.31.34.47a13.21,13.21,0,0,1,1.05,1.82,1,1,0,0,0,1.37.36,1,1,0,0,0,.36-1.37,14.58,14.58,0,0,0-6.21-6.46,1,1,0,0,0-1,1.73Z" transform="translate(-275.75 -326.93)" style="fill:#040000"/><path d="M360.75,337.27a7.06,7.06,0,0,0-1.84,5.27,1,1,0,0,0,2,0c0-.2,0-.4,0-.59a2.28,2.28,0,0,1,0-.59c0,.14,0,.16,0,0s0-.09,0-.14L361,341c.05-.19.1-.38.16-.57l.1-.28c0-.1,0-.09,0,0l.06-.13a5.12,5.12,0,0,1,.27-.52c.1-.18.21-.34.32-.5s.06-.08,0,0l.09-.12.2-.22a1,1,0,0,0-1.42-1.42Z" transform="translate(-275.75 -326.93)" style="fill:#040000"/><path d="M438.08,343.26a23.16,23.16,0,0,1,.41,3.41,6.3,6.3,0,0,1-.7,3.08,1,1,0,0,0,.36,1.36,1,1,0,0,0,1.37-.35,8.47,8.47,0,0,0,1-4,24.2,24.2,0,0,0-.49-4.06,1,1,0,0,0-1.23-.7,1,1,0,0,0-.69,1.23Z" transform="translate(-275.75 -326.93)" style="fill:#040000"/><path d="M443.35,342.28a5.82,5.82,0,0,0-2.82,1.91,14.85,14.85,0,0,0-1.87,3.17,1,1,0,0,0,.36,1.37,1,1,0,0,0,1.37-.36c.24-.5.48-1,.75-1.5a7.76,7.76,0,0,1,.4-.69c.07-.12.15-.23.23-.35a1.09,1.09,0,0,1,.13-.17c-.09.08-.07.08,0,0a5.8,5.8,0,0,1,.47-.52l.26-.25.14-.11c.11-.09-.19.13,0,0a4.9,4.9,0,0,1,.62-.38l.13-.06c.21-.11-.14,0,0,0l.37-.13a1,1,0,0,0,.7-1.23,1,1,0,0,0-1.23-.7Z" transform="translate(-275.75 -326.93)" style="fill:#040000"/><path d="M395.76,396.77c-.24.07,0,0,0,0h0c-.08,0-.06,0,0,0l-.05,0c-.06,0,0,0,0,0-.09,0,0-.09-.05,0l0,0c-.07-.07-.08-.09,0,0l0,0c0,.08,0,.08,0,0s0-.08,0,0c0-.2,0-.05,0,0s.1-.11,0,0-.1,0,0,0,.22-.12.33-.17l.07,0,.23-.1.47-.17a2.63,2.63,0,0,1,1.64,0,8,8,0,0,1,1.57.53,5.06,5.06,0,0,1,.62.37s.14.14.16.14l-.06-.25a.24.24,0,0,1,0-.34l.05-.09c-.08.08-.1.09-.06,0s-.16.07,0,0A6.39,6.39,0,0,1,399,397c-.67.07-1.33.12-2,.13h-.37l-.09,0c.09,0-.07-.09,0,0a.51.51,0,0,1,.1.24c0,.24,0,0,0,0s0,.09,0,0,0,0,0,0l0,0c.08-.07.09-.08,0,0s-.13.07,0,0c0,0,.19-.05.07,0H397c.35,0,.7.06,1.05.1.8.09,1.59.19,2.39.3a1,1,0,0,0,1-1,1,1,0,0,0-1-1c-1-.14-2-.28-3-.37a2.5,2.5,0,0,0-2.61,1.13,1.79,1.79,0,0,0,1.27,2.57,5.75,5.75,0,0,0,1.55,0c.49,0,1-.06,1.47-.11a5.6,5.6,0,0,0,3-.8,1.56,1.56,0,0,0,.57-1.57,2.29,2.29,0,0,0-1.13-1.28,8.4,8.4,0,0,0-2.61-1,4.81,4.81,0,0,0-3,.22,4.54,4.54,0,0,0-1.5.77,2,2,0,0,0,1.9,3.37,1,1,0,0,0,.7-1.23,1,1,0,0,0-1.23-.7Z" transform="translate(-275.75 -326.93)" style="fill:#704527"/><path d="M398.19,394.81a5.35,5.35,0,0,1,2.05,1,5,5,0,0,1,.86.86c.12.14.45.51.33.7s-.24.14-.32.17a5.31,5.31,0,0,0-.55.23,10.54,10.54,0,0,1-1.13.64,8.93,8.93,0,0,1-1.34.3c-.49.09-1,.16-1.47.22a.51.51,0,0,0-.5.5.5.5,0,0,0,.5.5,24.7,24.7,0,0,0,2.71-.45,16.28,16.28,0,0,0,2.11-1,1.63,1.63,0,0,0,.85-.6,1.28,1.28,0,0,0,0-1.23,5,5,0,0,0-1.54-1.71,6.23,6.23,0,0,0-2.28-1.08c-.63-.16-.89.81-.27,1Z" transform="translate(-275.75 -326.93)" style="fill:#4d2711"/><path d="M397.81,399.69A5.72,5.72,0,0,0,400,399c.64-.35,1.38-.74,1.53-1.52.31-1.57-1.32-2.69-2.56-3.24a7.25,7.25,0,0,0-2.5-.63.5.5,0,0,0-.5.5.51.51,0,0,0,.5.5,6,6,0,0,1,2.15.56,4.43,4.43,0,0,1,1.73,1.29,1.07,1.07,0,0,1,.2.83c-.07.31-.38.45-.63.6a5.13,5.13,0,0,1-2.11.83.5.5,0,0,0,0,1Z" transform="translate(-275.75 -326.93)" style="fill:#4d2711"/><path d="M396.82,392.87a4.14,4.14,0,0,0-2.69,1.17,5.93,5.93,0,0,0-1.71,2.48,2.71,2.71,0,0,0,.62,2.78,6.44,6.44,0,0,0,2.93,1.09,9.3,9.3,0,0,0,6.22-.48,3.36,3.36,0,0,0,2-2.21,3,3,0,0,0-1.14-2.78,7.55,7.55,0,0,0-6.75-1.86,1,1,0,0,0,.53,1.93,5,5,0,0,1,4,.81,3,3,0,0,1,1.34,1.17c.21.52-.28.78-.68,1a6.31,6.31,0,0,1-4,.65,13.84,13.84,0,0,1-2.21-.49c-.41-.11-.95-.15-1-.64s.53-1.31.93-1.74a2.4,2.4,0,0,1,1.61-.9c1.28-.05,1.29-2.05,0-2Z" transform="translate(-275.75 -326.93)" style="fill:#231815"/><path d="M344.87,425.7c6.91,5.21,13.9,6.31,22.36,6.94q13.13,1,26.28,1a375.79,375.79,0,0,0,53.19-3.93c7.24-1,5.53-13.13-1.73-12.76-28.17,1.43-56.57,1.51-84.44-3.36-8.18-1.43-11.7,11.1-3.46,12.54,29.07,5.07,58.51,5.31,87.9,3.82l-1.73-12.77a350.36,350.36,0,0,1-47.78,3.45q-11.68.06-23.37-.65c-7.84-.48-14.22-.65-20.66-5.49-6.68-5-13.17,6.24-6.56,11.22Z" transform="translate(-275.75 -326.93)" style="fill:#2e81af"/><path d="M450.27,423.08a3.06,3.06,0,0,1-.53.42c.28-.21.32-.24.1-.08l-.28.2c-.06,0-1,.57-1,.55l.15-.06-.3.1a6.29,6.29,0,0,1-.62.17,3.56,3.56,0,0,1-.47.1l-.32.06c.4-.05.46-.06.19,0a25.71,25.71,0,0,1-5-.19,2.48,2.48,0,0,0-1.76.73,2.47,2.47,0,0,0,0,3.53,2.88,2.88,0,0,0,1.76.74,22.72,22.72,0,0,0,5.94.06,10.72,10.72,0,0,0,2.92-.89,12.88,12.88,0,0,0,2.71-1.88,2.5,2.5,0,0,0,0-3.53,2.56,2.56,0,0,0-3.53,0Z" transform="translate(-275.75 -326.93)" style="fill:#2e81af"/><path d="M326.21,434.63c26-1.77,72.92.82,125.67.48,31.72-.2,42.7,1.2,47.48,5.05,6.26,5.06,6.39,7.67,7.27,15,.81,6.67,1.77,12.74.41,16.57-2.22,6.26-6.69,9.39-12.13,11.72-7.07,3-11.11,3-20.2,3.84-17.33,1.54-46.4,1.81-65.67,1.95-34.2.24-49.48,0-83.68-.06-7.36,0-14.91,0-21.79-2.66-8.66-3.31-17.91-10.68-17.7-24.65.13-8.47,3.16-17.45,10.22-21.26C302.65,437,319.22,435.1,326.21,434.63Z" transform="translate(-275.75 -326.93)" style="fill:#231815"/><path d="M326.21,436.13c14.56-1,29.22-.67,43.8-.45,19.93.31,39.86.78,59.8.92,10.86.07,21.73-.07,32.6,0,7.38.05,14.79.16,22.14.88a65.75,65.75,0,0,1,6.69,1c.88.19,1.75.4,2.61.65.35.11.71.22,1.06.35l.49.18c.08,0,.66.27.34.13a12.56,12.56,0,0,1,1.71.88c.24.14.46.29.69.45l.08.06c.44.34.87.7,1.29,1.07a13.67,13.67,0,0,1,4.87,7.63c.37,1.73.54,3.49.75,5.25.32,2.62.68,5.24.91,7.87a27.54,27.54,0,0,1,0,6.48,14.06,14.06,0,0,1-2.28,5.46c-2.14,3.24-5.48,5.34-9,6.9A38.87,38.87,0,0,1,484,484.89c-8,1-16.15,1.44-24.22,1.8-9,.4-18.06.61-27.09.76-18.18.29-36.36.36-54.54.34s-36.09-.1-54.14-.15c-9.07,0-18.25-.59-26-5.7a23,23,0,0,1-10.55-18.48c-.31-7.7,1.95-17.32,9.15-21.43a32.82,32.82,0,0,1,9.12-3c3.77-.85,7.59-1.47,11.42-2,3-.39,6.08-.71,9.13-.92,1.91-.14,1.93-3.14,0-3a139.6,139.6,0,0,0-21.83,3.09,33.22,33.22,0,0,0-9.65,3.4,19.77,19.77,0,0,0-7.72,9.24c-3.36,7.75-3.77,17.39-.1,25.1,3.13,6.59,9.21,11.18,15.88,13.81a47.26,47.26,0,0,0,15.64,2.78c5.46.21,10.93.09,16.39.11,9.23,0,18.46.06,27.68.09q27.67.11,55.34-.12c18-.17,36-.28,53.94-1.64,4.24-.33,8.5-.61,12.72-1.17a42.7,42.7,0,0,0,11.5-3.26,23.72,23.72,0,0,0,9.55-7,17.84,17.84,0,0,0,3.66-11.69,127.06,127.06,0,0,0-1.55-14.55,16.48,16.48,0,0,0-3.59-8.78A19.62,19.62,0,0,0,493.93,436a74.93,74.93,0,0,0-15.22-2c-9.18-.52-18.39-.49-27.58-.43-21.77.13-43.53-.26-65.29-.66-16.85-.32-33.73-.77-50.57-.26-3,.09-6,.22-9.06.43C324.29,433.26,324.28,436.26,326.21,436.13Z" transform="translate(-275.75 -326.93)" style="fill:#231815"/><path d="M398.84,456.58c44.08,17.78,85.24,12.17,113,4.33a117.2,117.2,0,0,0-1.15-12c-.93-7.69-1.07-10.45-7.68-15.78-5.05-4.07-16.63-5.54-50.12-5.33-55.67.35-105.24-2.38-132.63-.51-7.38.5-24.87,2.53-31.8,6.27-7.17,3.87-10.4,12.81-10.74,21.46C317,449.5,348,436.09,398.84,456.58Z" transform="translate(-275.75 -326.93)" style="fill:#e83e3a"/><path d="M398.84,456.58C348,436.09,317,449.5,277.7,455c0,.33,0,.65,0,1-.22,14.74,9.54,22.52,18.68,26,7.26,2.77,15.23,2.81,23,2.82,36.09,0,52.23.31,88.32.06,20.35-.15,51-.44,69.31-2.07,9.6-.85,13.87-.85,21.33-4,5.74-2.46,10.45-5.76,12.8-12.37a16.59,16.59,0,0,0,.72-5.51C484.08,468.75,442.92,474.36,398.84,456.58Z" transform="translate(-275.75 -326.93)" style="fill:#3950a1"/><path d="M319.88,428.35c15.41-1,30.92-.7,46.34-.46,21.09.32,42.18.82,63.27,1,11.48.07,23-.08,34.43,0,7.76.06,15.55.17,23.27.95a61.73,61.73,0,0,1,7,1c.92.2,1.83.42,2.73.69l1.12.37.54.21.24.09c.3.12-.22-.1.09,0a13.94,13.94,0,0,1,1.8.93c.24.15.48.31.71.48s0,0,.13.09q.76.62,1.5,1.26a14.29,14.29,0,0,1,5,8.15c.39,1.91.58,3.86.81,5.79.34,2.71.71,5.42.93,8.15a26.66,26.66,0,0,1-.05,6.68,15.17,15.17,0,0,1-2.44,5.73c-2.24,3.35-5.7,5.54-9.32,7.17A40.78,40.78,0,0,1,486.48,480c-8.47,1.12-17.11,1.53-25.64,1.91-9.54.43-19.1.65-28.65.81-19.18.31-38.37.39-57.55.36s-38.33-.09-57.49-.16c-9.51,0-19.13-.71-27.27-6.11a24.31,24.31,0,0,1-11.06-19.59c-.29-8.14,2.11-18.26,9.72-22.6a34.52,34.52,0,0,1,9.63-3.19c4-.9,8-1.55,12.05-2.07,3.21-.41,6.43-.75,9.66-1,1.92-.13,1.93-3.13,0-3a149.56,149.56,0,0,0-23,3.26,35.29,35.29,0,0,0-10.16,3.56,20.79,20.79,0,0,0-8.14,9.74c-3.55,8.16-4,18.33-.11,26.44,3.29,6.9,9.63,11.7,16.6,14.48a49.32,49.32,0,0,0,16.33,3c5.83.23,11.69.11,17.53.12q14.65,0,29.32.1,29.17.11,58.36-.13c19-.17,38-.3,56.93-1.74,4.47-.34,9-.64,13.42-1.23A44.56,44.56,0,0,0,499,479.49,25,25,0,0,0,509.2,472,18.74,18.74,0,0,0,513,459.75a134.79,134.79,0,0,0-1.66-15.39,17.18,17.18,0,0,0-3.78-9.14,20.59,20.59,0,0,0-10.61-6.8c-5.24-1.42-10.79-1.79-16.19-2.09-9.71-.55-19.46-.51-29.19-.46-22.89.13-45.78-.27-68.67-.69-17.79-.33-35.6-.82-53.39-.28-3.2.1-6.39.24-9.58.45C318,425.48,318,428.49,319.88,428.35Z" transform="translate(-275.75 -326.93)" style="fill:#231815"/><path d="M299.66,465.48a5.73,5.73,0,0,1-2-.37,6.93,6.93,0,0,1-1.8-1,7.84,7.84,0,0,1-1.41-1.41,11.48,11.48,0,0,1-1-1.54,12.58,12.58,0,0,1-1.42-3.38,11.19,11.19,0,0,1,.64-7.35,15.42,15.42,0,0,1,1.82-3,12.68,12.68,0,0,1,1.16-1.33,10.14,10.14,0,0,1,1.46-1.19,7.87,7.87,0,0,1,1.72-.85,6.3,6.3,0,0,1,2-.34h0a8.84,8.84,0,0,1,3,.51,11,11,0,0,1,2.54,1.33l.11.09c.12.1.24.2.38.3a6.31,6.31,0,0,1,.6.55,3.91,3.91,0,0,1,.56.79,2.76,2.76,0,0,1,.29,1.24,2,2,0,0,1,0,.25,2.57,2.57,0,0,1-.45,1.08l-.37.46-.12.13a3.87,3.87,0,0,1,1.09,1.35,5.1,5.1,0,0,1,.48,1.72,7,7,0,0,1,0,1.59c0,.27-.06.52-.1.78l-.11.63a11.9,11.9,0,0,1-1.06,3.11,13.26,13.26,0,0,1-1.82,2.71,12.43,12.43,0,0,1-1.13,1.18,8.8,8.8,0,0,1-1.4,1,7.09,7.09,0,0,1-1.59.71,5.83,5.83,0,0,1-1.76.27Zm-1.28-8.32a3.28,3.28,0,0,0,.2.52l.06.15a1.72,1.72,0,0,0,.23.42,2.27,2.27,0,0,0,.31.31,1.69,1.69,0,0,0,.38.19,1.08,1.08,0,0,0,.32,0h.21a.52.52,0,0,0,.18,0,1.33,1.33,0,0,0,.32-.15,2.24,2.24,0,0,0,.34-.27,1.86,1.86,0,0,0,.26-.31,5.34,5.34,0,0,0,.39-.75l-.65.13a7.27,7.27,0,0,1-1.16.09A3,3,0,0,1,298.38,457.16Zm3.42-7a2.05,2.05,0,0,0-.49.06,2.82,2.82,0,0,0-.69.24,4.2,4.2,0,0,0-.48.3l.29-.08.78-.22,1-.25-.21,0Z" transform="translate(-275.75 -326.93)" style="fill:#fff"/><path d="M300.86,445.17a6.94,6.94,0,0,1,2.41.42,8.78,8.78,0,0,1,2.19,1.15l.44.35a3.13,3.13,0,0,1,.42.39,1.76,1.76,0,0,1,.32.45,1.14,1.14,0,0,1,.13.55,1,1,0,0,1-.19.44,3.8,3.8,0,0,1-.29.38,2.12,2.12,0,0,1-.39.33,1,1,0,0,1-.48.18,2.48,2.48,0,0,1-.89-.22l-.84-.37-.78-.37a2.36,2.36,0,0,0-.84-.21h-.27a3.81,3.81,0,0,0-.82.09,4.56,4.56,0,0,0-2,1,3.94,3.94,0,0,0-.75.83,6.51,6.51,0,0,0-1.07,2,8.77,8.77,0,0,0-.43,2.18,14.75,14.75,0,0,0,0,1.88,4.48,4.48,0,0,0,.48,1.76,3.09,3.09,0,0,0,.43.8,2.89,2.89,0,0,0,.64.62,2.5,2.5,0,0,0,.8.4,2.42,2.42,0,0,0,.76.12h.23a2,2,0,0,0,.64-.1,2.87,2.87,0,0,0,.66-.32,3.17,3.17,0,0,0,.58-.46,3.58,3.58,0,0,0,.47-.56,6,6,0,0,0,.62-1.3,6.63,6.63,0,0,0,.3-1.39,2.1,2.1,0,0,0,0-.43,3.1,3.1,0,0,1,0-.44l-.88.22c-.3.09-.6.16-.9.22s-.61.15-.91.2a5.33,5.33,0,0,1-.91.07,1.54,1.54,0,0,1-.74-.19,1.31,1.31,0,0,1-.55-.52,1.64,1.64,0,0,1-.28-.68,2.85,2.85,0,0,1,0-.77c0-.13,0-.25.07-.38a.81.81,0,0,1,.2-.36,4.25,4.25,0,0,1,.74-.44,8.18,8.18,0,0,1,.82-.32c.27-.09.55-.17.83-.24l.82-.24,1.73-.43a9.15,9.15,0,0,1,1.73-.26,1.94,1.94,0,0,1,1.2.35,2.4,2.4,0,0,1,.75.89,3.61,3.61,0,0,1,.34,1.21,5.36,5.36,0,0,1,0,1.27c0,.24-.05.46-.09.68s-.08.44-.11.66a10.37,10.37,0,0,1-.92,2.68,12.41,12.41,0,0,1-1.62,2.41,9.6,9.6,0,0,1-1,1,6.77,6.77,0,0,1-1.16.85,6.18,6.18,0,0,1-1.29.57,4.06,4.06,0,0,1-1.3.2h-.23a4.16,4.16,0,0,1-1.5-.27,5.46,5.46,0,0,1-1.41-.8,7,7,0,0,1-1.15-1.15,13.07,13.07,0,0,1-2.18-4.38,9.33,9.33,0,0,1-.24-3.34,9.08,9.08,0,0,1,.8-3,13.1,13.1,0,0,1,1.64-2.73,8.71,8.71,0,0,1,1-1.18,7.86,7.86,0,0,1,1.23-1,5.91,5.91,0,0,1,1.38-.68,4.64,4.64,0,0,1,1.53-.26h.08m0-3h-.12a7.48,7.48,0,0,0-2.46.42,8.89,8.89,0,0,0-2.07,1,10.87,10.87,0,0,0-1.68,1.36,13.21,13.21,0,0,0-1.32,1.51,16.87,16.87,0,0,0-2,3.31,12.75,12.75,0,0,0-.72,8.34,14.17,14.17,0,0,0,1.59,3.78,12.14,12.14,0,0,0,1.13,1.69,9.43,9.43,0,0,0,1.67,1.67,8.34,8.34,0,0,0,2.18,1.23,7.18,7.18,0,0,0,2.57.47h.23a7.18,7.18,0,0,0,2.21-.34,9.47,9.47,0,0,0,1.9-.84,10.29,10.29,0,0,0,1.65-1.21,13.66,13.66,0,0,0,1.29-1.35,15.07,15.07,0,0,0,2-3,13.14,13.14,0,0,0,1.19-3.46l0-.08c0-.2.07-.4.1-.61a6.64,6.64,0,0,0,.12-.88,7.61,7.61,0,0,0,0-1.91,6.66,6.66,0,0,0-.62-2.23,5.84,5.84,0,0,0-.48-.8,4.07,4.07,0,0,0,.46-1.32,2.63,2.63,0,0,0,0-.49,4.09,4.09,0,0,0-.46-1.92,5,5,0,0,0-.8-1.14,6.65,6.65,0,0,0-.78-.71l-.3-.24-.24-.19a12,12,0,0,0-2.89-1.5,10,10,0,0,0-3.44-.61Z" transform="translate(-275.75 -326.93)" style="fill:#231815"/><path d="M317.24,465.46a5,5,0,0,1-2-.42,5.83,5.83,0,0,1-1.62-1,7,7,0,0,1-1.23-1.37,10.14,10.14,0,0,1-.86-1.44,13.48,13.48,0,0,1-1-3.2,12.41,12.41,0,0,1-.16-3.45,14.2,14.2,0,0,1,.82-3.61,13.59,13.59,0,0,1,1.83-3.34,9.89,9.89,0,0,1,1.22-1.47,9.56,9.56,0,0,1,1.58-1.27,8.15,8.15,0,0,1,1.87-.87,6.37,6.37,0,0,1,1.93-.3h.22a5.2,5.2,0,0,1,2,.41,6.15,6.15,0,0,1,1.64,1,8,8,0,0,1,1.24,1.36,9.89,9.89,0,0,1,.87,1.5,12,12,0,0,1,1,3.21,13.2,13.2,0,0,1,.15,3.44,11.91,11.91,0,0,1-.81,3.63,14.6,14.6,0,0,1-1.79,3.29,11.32,11.32,0,0,1-1.28,1.49,10,10,0,0,1-1.58,1.25,8.14,8.14,0,0,1-1.84.87,6.09,6.09,0,0,1-1.9.3Zm.57-6.71a.48.48,0,0,0,.2,0,1.07,1.07,0,0,0,.36-.2,1.71,1.71,0,0,0,.35-.36,2.68,2.68,0,0,0,.27-.45,7.41,7.41,0,0,0,.37-1,9.54,9.54,0,0,0,.26-1c.07-.35.12-.69.16-1s.08-.72.12-1.08.05-.95.07-1.44a5.35,5.35,0,0,0-.09-1.19,1,1,0,0,0-.1-.23.65.65,0,0,0-.15-.18.37.37,0,0,0-.17-.1h-.22a.91.91,0,0,0-.35.06,1.64,1.64,0,0,0-.43.24,2.52,2.52,0,0,0-.4.4,2.78,2.78,0,0,0-.33.51,7.27,7.27,0,0,0-.53,1.48,10.62,10.62,0,0,0-.28,1.64c-.05.53-.08,1.08-.08,1.62a6.9,6.9,0,0,0,.15,1.44,1.57,1.57,0,0,0,.14.5,1.08,1.08,0,0,0,.19.31.79.79,0,0,0,.18.14h.31Z" transform="translate(-275.75 -326.93)" style="fill:#fff"/><path d="M319.57,445.2h.16a3.84,3.84,0,0,1,1.49.29,4.81,4.81,0,0,1,1.24.76,6.48,6.48,0,0,1,1,1.1,7.77,7.77,0,0,1,.74,1.27,10.52,10.52,0,0,1,.93,2.84,11.93,11.93,0,0,1,.13,3.05,11,11,0,0,1-.71,3.21,14,14,0,0,1-1.61,3,9.6,9.6,0,0,1-1.12,1.28,8.43,8.43,0,0,1-1.33,1.07,6.71,6.71,0,0,1-1.51.71,4.6,4.6,0,0,1-1.43.23h-.22a3.76,3.76,0,0,1-1.48-.29,4.81,4.81,0,0,1-1.24-.78,5.66,5.66,0,0,1-1-1.09,10.2,10.2,0,0,1-.75-1.26,11.77,11.77,0,0,1-.91-2.82,10.44,10.44,0,0,1-.14-3,12.08,12.08,0,0,1,.73-3.24,11.55,11.55,0,0,1,1.62-3,8.84,8.84,0,0,1,1.08-1.31,8,8,0,0,1,1.33-1.07,6.48,6.48,0,0,1,1.51-.7,4.71,4.71,0,0,1,1.48-.23m-.29,3.71h-.07a2.25,2.25,0,0,0-.85.16,3.06,3.06,0,0,0-.81.45,3.49,3.49,0,0,0-.67.66,4.38,4.38,0,0,0-.5.79,9.36,9.36,0,0,0-.64,1.77,13.27,13.27,0,0,0-.32,1.85c-.05.59-.08,1.19-.08,1.77a8.42,8.42,0,0,0,.18,1.74,3.11,3.11,0,0,0,.24.81,2.67,2.67,0,0,0,.44.7,2.29,2.29,0,0,0,.64.48,1.58,1.58,0,0,0,.72.16h.25a2,2,0,0,0,.72-.13,2.49,2.49,0,0,0,.76-.43,3.42,3.42,0,0,0,.63-.63,3.59,3.59,0,0,0,.44-.75,9.26,9.26,0,0,0,.44-1.2c.12-.39.21-.78.29-1.16s.14-.76.18-1.13l.12-1.12c0-.51.06-1,.08-1.53a6.5,6.5,0,0,0-.12-1.52,2.25,2.25,0,0,0-.27-.69,2.14,2.14,0,0,0-.46-.57A2,2,0,0,0,320,449a1.52,1.52,0,0,0-.6-.11h-.13m.29-6.71a7.73,7.73,0,0,0-2.38.37,9,9,0,0,0-2.22,1,11.33,11.33,0,0,0-1.85,1.48,11.85,11.85,0,0,0-1.4,1.69,15,15,0,0,0-2,3.65,15.7,15.7,0,0,0-.91,4,13.87,13.87,0,0,0,.18,3.86,15.28,15.28,0,0,0,1.15,3.52l0,.06a12.28,12.28,0,0,0,1,1.63,8.61,8.61,0,0,0,1.48,1.65,7.74,7.74,0,0,0,2,1.26,6.68,6.68,0,0,0,2.6.54h.29a7.48,7.48,0,0,0,2.36-.38,10,10,0,0,0,2.19-1,11.36,11.36,0,0,0,1.82-1.45,13.37,13.37,0,0,0,1.44-1.67,16.11,16.11,0,0,0,2-3.64,13.65,13.65,0,0,0,.91-4.07,14.63,14.63,0,0,0-.17-3.8,13.78,13.78,0,0,0-1.18-3.63,11.33,11.33,0,0,0-1-1.68,9,9,0,0,0-1.49-1.64,7.59,7.59,0,0,0-2-1.26,6.85,6.85,0,0,0-2.6-.52Zm-.14,9.67Z" transform="translate(-275.75 -326.93)" style="fill:#231815"/><path d="M332.6,465.28a2.61,2.61,0,0,1-.48,0,3.08,3.08,0,0,1-1.55-.57,3.84,3.84,0,0,1-1.6-2.41,4.52,4.52,0,0,1-.12-1.37c0-1,.09-2.05.21-3.09s.27-2.05.45-3.09c0-.14,0-.22.05-.29s0-.37,0-.55c0-.45.07-.95.09-1.44s0-1,0-1.44v-.1l.06-1.51a14.57,14.57,0,0,1,.16-1.62,4.1,4.1,0,0,1,1-2.07,5.51,5.51,0,0,1,1.53-1.17,7.33,7.33,0,0,1,1.74-.61,10.59,10.59,0,0,1,1.6-.2h.51a10.92,10.92,0,0,1,2.19.22,7.08,7.08,0,0,1,2.68,1.12l.09.06a5.49,5.49,0,0,1,1.09,1.17,6,6,0,0,1,.68,1.37,7.47,7.47,0,0,1,.35,1.43,8.8,8.8,0,0,1,.06,1.45,5.56,5.56,0,0,1-.39,1.78,8.19,8.19,0,0,1-.78,1.46,8.29,8.29,0,0,1-1,1.26,14.87,14.87,0,0,1-1.11,1,15.88,15.88,0,0,1-2.66,1.79,19.73,19.73,0,0,1-1.86.87v1c0,.7,0,1.41-.11,2.12a4.26,4.26,0,0,1-.14,1,3.74,3.74,0,0,1-.51,1.15,3,3,0,0,1-1.05,1A2.34,2.34,0,0,1,332.6,465.28Zm3.5-14.94c0,.24-.07.48-.09.71h0l.12-.09.53-.39a2.74,2.74,0,0,0,.36-.32l-.33-.09a3.21,3.21,0,0,0-.55-.05A1.43,1.43,0,0,0,336.1,450.34Z" transform="translate(-275.75 -326.93)" style="fill:#fff"/><path d="M336.27,445.19a9.45,9.45,0,0,1,1.91.19,5.75,5.75,0,0,1,2.13.89,3.78,3.78,0,0,1,.77.83,4.46,4.46,0,0,1,.52,1,5.5,5.5,0,0,1,.27,1.15,6.66,6.66,0,0,1,.05,1.18,4,4,0,0,1-.28,1.28,6.6,6.6,0,0,1-.63,1.17,6.72,6.72,0,0,1-.87,1.06c-.32.33-.66.63-1,.91a14.79,14.79,0,0,1-2.41,1.63,18.24,18.24,0,0,1-2.65,1.14c0,.69,0,1.38,0,2.06a20.5,20.5,0,0,1-.11,2.07,2.73,2.73,0,0,1-.09.72,2.33,2.33,0,0,1-.31.7,1.59,1.59,0,0,1-.52.48.94.94,0,0,1-.45.11l-.28,0a1.61,1.61,0,0,1-.88-.31,2.67,2.67,0,0,1-.67-.67,2.75,2.75,0,0,1-.34-.85,3.36,3.36,0,0,1-.08-.95c0-1,.08-2,.2-3s.26-2,.44-3a4.11,4.11,0,0,0,.07-.47,3.73,3.73,0,0,1,0-.46q.06-.78.09-1.56c0-.52,0-1,0-1.54l.06-1.49a14.53,14.53,0,0,1,.14-1.48,2.54,2.54,0,0,1,.62-1.26,4,4,0,0,1,1.11-.85,5.16,5.16,0,0,1,1.35-.48,10,10,0,0,1,1.37-.17h.43m-1.92,8.35a5.67,5.67,0,0,0,1.39-.55,13.38,13.38,0,0,0,1.26-.79c.17-.14.36-.27.55-.42a4.69,4.69,0,0,0,.54-.46,3.29,3.29,0,0,0,.43-.54,1.75,1.75,0,0,0,.24-.65.79.79,0,0,0-.05-.41,1.21,1.21,0,0,0-.22-.32,2,2,0,0,0-.32-.25,2.79,2.79,0,0,0-.34-.18,4,4,0,0,0-.83-.26,4.14,4.14,0,0,0-.87-.09H336a1.51,1.51,0,0,0-.67.17,1.19,1.19,0,0,0-.58.55,5.19,5.19,0,0,0-.18.78c0,.27-.07.53-.1.79,0,.44-.07.88-.1,1.32s-.06.89-.06,1.32m1.92-11.35h-.57a12.24,12.24,0,0,0-1.82.23,8.48,8.48,0,0,0-2.14.75,7,7,0,0,0-1.95,1.5,5.44,5.44,0,0,0-1.34,2.7l0,.15c-.08.58-.14,1.18-.17,1.77l-.06,1.52V451c0,.44,0,.89,0,1.34s0,.91-.08,1.36c0,.2,0,.4-.05.58l0,.13c-.18,1.06-.34,2.13-.46,3.18a31.86,31.86,0,0,0-.22,3.25,6.23,6.23,0,0,0,.15,1.72,5.8,5.8,0,0,0,.73,1.76l.07.12a5.72,5.72,0,0,0,1.4,1.42,4.66,4.66,0,0,0,2.22.83,4,4,0,0,0,.68.06,3.92,3.92,0,0,0,1.9-.49,4.42,4.42,0,0,0,1.56-1.42,5.3,5.3,0,0,0,.72-1.63,5.69,5.69,0,0,0,.19-1.33c.07-.73.1-1.47.11-2.19v-.05c.36-.16.72-.34,1.07-.53a17,17,0,0,0,2.92-2c.39-.32.81-.7,1.21-1.1a10.58,10.58,0,0,0,1.21-1.48,9.1,9.1,0,0,0,.93-1.74,7.09,7.09,0,0,0,.5-2.23,9.28,9.28,0,0,0-.08-1.76,9.08,9.08,0,0,0-.41-1.73,8.06,8.06,0,0,0-.86-1.71,6.66,6.66,0,0,0-1.4-1.5l-.17-.13a8.71,8.71,0,0,0-3.23-1.35,12.47,12.47,0,0,0-2.5-.25Z" transform="translate(-275.75 -326.93)" style="fill:#231815"/><path d="M348.13,465.27a2.75,2.75,0,0,1-.7-.1,3.34,3.34,0,0,1-1.79-.94,4.18,4.18,0,0,1-.94-1.52,6.54,6.54,0,0,1-.35-1.59,11.09,11.09,0,0,1-.06-1.39c0-.55.09-1,.14-1.48s.12-.95.21-1.44.19-.95.26-1.4a10.68,10.68,0,0,0,.16-1.25c0-.44.07-.86.09-1.29s0-.82,0-1.22a13.56,13.56,0,0,1,.07-1.43l.12-1.3,0-.17c.08-.35.16-.7.26-1.06a6.3,6.3,0,0,1,.46-1.2,5,5,0,0,1,.25-.53,4.23,4.23,0,0,1,.44-.69,3.68,3.68,0,0,1,.66-.65,2.32,2.32,0,0,1,1.15-.46,3.72,3.72,0,0,1,.64-.06,2.69,2.69,0,0,1,1.59.48,3.33,3.33,0,0,1,1.17,1.49,4.67,4.67,0,0,1,.36,1.68,6.81,6.81,0,0,1-.07,1.45c-.07.7-.16,1.48-.27,2.26,0,.22-.05.43-.08.65h0c.23,0,.47,0,.7,0a1.21,1.21,0,0,1,.06-.38.5.5,0,0,0,0-.12c0-.18,0-.35.05-.53s0-.44,0-.69,0-.62,0-.95,0-.66,0-1,0-.62.05-.94a5.24,5.24,0,0,1,.12-1,4.23,4.23,0,0,1,.47-1.2,3.14,3.14,0,0,1,1-1.05,2.52,2.52,0,0,1,1.37-.4l.36,0a3.21,3.21,0,0,1,1.7.58,3.61,3.61,0,0,1,1.1,1.23,4.62,4.62,0,0,1,.5,1.42,5.31,5.31,0,0,1,.08,1.43l-.05,1c0,.38,0,.76-.08,1.14s0,.68-.07,1.05l-.06,1.07c-.12,1.52-.18,3-.19,4.49s0,3,0,4.55a.86.86,0,0,1,0,.16l0,.23,0,.15a2.82,2.82,0,0,1-.51,1.11,3.92,3.92,0,0,1-.7.71,4.28,4.28,0,0,1-.8.49,3.68,3.68,0,0,1-.91.28,2.57,2.57,0,0,1-.55.06,2.26,2.26,0,0,1-.9-.18,2.59,2.59,0,0,1-1-.68,3.33,3.33,0,0,1-.58-.86,4.9,4.9,0,0,1-.29-.84,11.47,11.47,0,0,1-.25-1.94q0-.81,0-1.59c0-.18,0-.33,0-.48l-1.29,0H351q-.06.43-.09.87a5.17,5.17,0,0,0,0,.68c0,.28,0,.57,0,.86a8.38,8.38,0,0,1,0,.87c0,.27,0,.53,0,.8a2.5,2.5,0,0,1-.31,1.26,2.74,2.74,0,0,1-.79.9,2.8,2.8,0,0,1-1.12.49A2.61,2.61,0,0,1,348.13,465.27Z" transform="translate(-275.75 -326.93)" style="fill:#fff"/><path d="M355.83,445.34l.22,0a1.84,1.84,0,0,1,1,.31,2.27,2.27,0,0,1,.65.73,3.44,3.44,0,0,1,.34,1,4.58,4.58,0,0,1,.06,1l-.06,1.06c0,.35,0,.7-.08,1.06s0,.73-.06,1.1-.05.73-.07,1.1c-.11,1.53-.18,3-.19,4.55s0,3,0,4.55l0,.22a1.48,1.48,0,0,1-.25.54,2.44,2.44,0,0,1-.42.43,3.3,3.3,0,0,1-.51.31,2.39,2.39,0,0,1-.56.17l-.27,0a.83.83,0,0,1-.32-.06,1.33,1.33,0,0,1-.46-.31,1.89,1.89,0,0,1-.32-.49,2.76,2.76,0,0,1-.19-.55,8.66,8.66,0,0,1-.21-1.65q0-.75,0-1.47a7.36,7.36,0,0,0,0-1.05,9.37,9.37,0,0,1,0-1.06c-.45,0-.91.06-1.37.07l-1.4,0h-.81c-.25,0-.52,0-.8,0-.07.39-.13.78-.19,1.16s-.1.77-.13,1.16a7.69,7.69,0,0,0,0,.83c0,.28,0,.55,0,.84a6.91,6.91,0,0,1,0,.79c0,.27,0,.55,0,.82a1.09,1.09,0,0,1-.12.57,1.64,1.64,0,0,1-.37.42,1.3,1.3,0,0,1-.51.22l-.2,0a1.07,1.07,0,0,1-.35-.06,1.9,1.9,0,0,1-1.07-.52,2.92,2.92,0,0,1-.6-1,4.92,4.92,0,0,1-.27-1.22,10.12,10.12,0,0,1,0-1.21c0-.46.08-.91.13-1.35s.11-.9.19-1.35.19-.94.27-1.4a13.37,13.37,0,0,0,.17-1.4c0-.43.07-.87.1-1.31s0-.87,0-1.31,0-.87.06-1.29.08-.85.13-1.29.15-.66.24-1a4.33,4.33,0,0,1,.37-1c.06-.15.14-.31.22-.47a2.39,2.39,0,0,1,.29-.46,1.9,1.9,0,0,1,.38-.37,1,1,0,0,1,.47-.18,2.12,2.12,0,0,1,.42,0,1.23,1.23,0,0,1,.73.21,1.94,1.94,0,0,1,.65.83,3.44,3.44,0,0,1,.24,1.17,6.16,6.16,0,0,1-.05,1.16c-.08.76-.17,1.53-.27,2.29s-.21,1.54-.3,2.31a6.3,6.3,0,0,0,.75.05h1c.35,0,.71,0,1.06,0l1.06-.08a1.85,1.85,0,0,0,0-.23,1,1,0,0,1,0-.24c0-.15,0-.3.05-.44s0-.3,0-.45a2.36,2.36,0,0,0,.08-.45c0-.14,0-.29,0-.45,0-.31,0-.61,0-.9s0-.6,0-.91,0-.62,0-.92,0-.61.05-.92a3.72,3.72,0,0,1,.09-.77,2.56,2.56,0,0,1,.29-.76,1.72,1.72,0,0,1,.52-.55,1.08,1.08,0,0,1,.56-.16m0-3a4,4,0,0,0-2.19.64A4.6,4.6,0,0,0,352.5,444a4.13,4.13,0,0,0-.77-.68,4.24,4.24,0,0,0-2.46-.76,5.07,5.07,0,0,0-.86.07,4,4,0,0,0-1.82.74,5.23,5.23,0,0,0-.95.93,5.76,5.76,0,0,0-.6.94c-.1.19-.19.39-.28.59a7.5,7.5,0,0,0-.54,1.43c-.1.38-.2.76-.28,1.14,0,.11,0,.21-.05.32,0,.45-.09.89-.13,1.32s-.07,1-.07,1.57c0,.37,0,.76,0,1.13s0,.83-.08,1.24-.08.77-.14,1.13-.16.87-.25,1.31c0,0,0,.06,0,.09-.09.51-.17,1-.22,1.54s-.1,1-.14,1.44a1,1,0,0,1,0,.17,14,14,0,0,0,.06,1.56,8.26,8.26,0,0,0,.43,1.95,5.83,5.83,0,0,0,1.28,2.06,4.76,4.76,0,0,0,2.52,1.36,3.89,3.89,0,0,0,1.82.06,4.13,4.13,0,0,0,1.71-.74,4.38,4.38,0,0,0,1.22-1.39l.11-.21a4.93,4.93,0,0,0,.64.86,4.2,4.2,0,0,0,1.51,1.05,3.92,3.92,0,0,0,2.29.19,4.72,4.72,0,0,0,1.26-.39,5.88,5.88,0,0,0,1.1-.67,5.35,5.35,0,0,0,1-1,4.47,4.47,0,0,0,.77-1.67c0-.11,0-.21.06-.32l0-.23a1.83,1.83,0,0,0,0-.33c0-1.51,0-3,0-4.53s.07-2.9.18-4.35c0,0,0-.06,0-.09q0-.51.06-1c0-.37.05-.73.07-1.1s.06-.75.08-1.13l0-.7v-.33a7.15,7.15,0,0,0-.1-1.78,6.37,6.37,0,0,0-.66-1.85,5,5,0,0,0-1.55-1.74,4.72,4.72,0,0,0-2.43-.86,4.19,4.19,0,0,0-.5,0Z" transform="translate(-275.75 -326.93)" style="fill:#231815"/><path d="M366.37,465.27h-.17a4.92,4.92,0,0,1-1.27-.31,2.93,2.93,0,0,1-1.34-1,3.74,3.74,0,0,1-.69-1.29c-.1-.33-.19-.65-.28-1a11.75,11.75,0,0,1-.33-2.17,20.19,20.19,0,0,1,0-2.06,31,31,0,0,1,.46-3.55c.21-1.11.44-2.23.68-3.35q.19-.87.42-1.71c.14-.55.29-1.1.44-1.66a1.43,1.43,0,0,1,.17-.38,4.37,4.37,0,0,1,1.11-1.23,6,6,0,0,1,1.24-.69,9.85,9.85,0,0,1,1.23-.41l1-.27a18,18,0,0,1,2.57-.38c.4,0,.81,0,1.21,0s.88,0,1.32.05a3.23,3.23,0,0,1,1.17.31,3.44,3.44,0,0,1,1,.69,3.33,3.33,0,0,1,.69,1,3,3,0,0,1,.25,1.34,2.69,2.69,0,0,1-.21,1,2.92,2.92,0,0,1-.54.85,2.87,2.87,0,0,1-.46.4,4,4,0,0,1,.52.4,2.89,2.89,0,0,1,.74,1.11,2.7,2.7,0,0,1,.15,1.41,2.76,2.76,0,0,1-.33,1.19,3.58,3.58,0,0,1-.72.92,4.22,4.22,0,0,1-.91.6,4,4,0,0,1-1,.32c-.54.08-1,.13-1.5.18l-1.45.14c-.33,0-.76.11-1.19.19a2.41,2.41,0,0,0-.8.31l-.12.13a1,1,0,0,0-.16.26,1.74,1.74,0,0,0-.13.36,2.58,2.58,0,0,0-.06.37v.23l1.4-.72a16.47,16.47,0,0,1,1.92-.85,8,8,0,0,1,2.29-.49h.2a4.4,4.4,0,0,1,.8.07,3.37,3.37,0,0,1,1,.39,3.51,3.51,0,0,1,.83.65,3.18,3.18,0,0,1,.64,1l.07.25a1.5,1.5,0,0,1,0,1c0,.06-.08.18-.11.23a5.4,5.4,0,0,1-1.26,1.58,10.73,10.73,0,0,1-1.39,1c-.47.29-.95.56-1.45.81s-.83.43-1.22.67l-.13.07-1.31.62c-.53.26-1,.48-1.54.68a12,12,0,0,1-1.61.5,8.37,8.37,0,0,1-1.8.23Z" transform="translate(-275.75 -326.93)" style="fill:#fff"/><path d="M372.81,445.24c.4,0,.8,0,1.2.05a1.91,1.91,0,0,1,.66.18,1.68,1.68,0,0,1,.56.38,1.73,1.73,0,0,1,.38.57,1.51,1.51,0,0,1,.13.7,1.28,1.28,0,0,1-.09.48,1.36,1.36,0,0,1-.26.41,1.24,1.24,0,0,1-.39.29,1.54,1.54,0,0,1-.47.16l-1.12.06H372.3a7.69,7.69,0,0,0-1.07.07,4.69,4.69,0,0,0-1,.25,4.08,4.08,0,0,0-.95.54,1.53,1.53,0,0,0-.57.86c-.05.16-.08.32-.12.47s-.05.31-.07.47v.15a12,12,0,0,0,1.44-.23l1.43-.31c.47-.09.95-.17,1.42-.23a8.66,8.66,0,0,1,1.25-.09h.25a2.06,2.06,0,0,1,.65.11,1.65,1.65,0,0,1,.59.35,1.41,1.41,0,0,1,.37.56,1.24,1.24,0,0,1,.05.72,1.33,1.33,0,0,1-.15.63,2,2,0,0,1-.4.51,2.06,2.06,0,0,1-.56.36,2.39,2.39,0,0,1-.62.21l-1.41.16-1.4.13-1.34.21a3.85,3.85,0,0,0-1.3.5,2.56,2.56,0,0,0-.52.46,2.74,2.74,0,0,0-.36.59,2.87,2.87,0,0,0-.23.64,3.87,3.87,0,0,0-.09.66c0,.42,0,.84,0,1.26a5.6,5.6,0,0,0,.17,1.22,13.27,13.27,0,0,0,1.74-.72l1.67-.86a17.57,17.57,0,0,1,1.77-.78,6.58,6.58,0,0,1,1.84-.39h.12a2.21,2.21,0,0,1,.51.05,1.82,1.82,0,0,1,.58.21,2.22,2.22,0,0,1,.49.38,1.74,1.74,0,0,1,.32.52l.05.17,0,.07a3.83,3.83,0,0,1-.92,1.15,8.75,8.75,0,0,1-1.2.87c-.43.27-.87.51-1.33.75s-.9.47-1.31.72l-1.37.65c-.46.22-.92.43-1.39.61a12.29,12.29,0,0,1-1.42.45,7.21,7.21,0,0,1-1.47.18,3.49,3.49,0,0,1-.9-.22,1.48,1.48,0,0,1-.69-.55,2.35,2.35,0,0,1-.45-.82c-.09-.31-.18-.61-.26-.92a10.55,10.55,0,0,1-.28-1.87c0-.63,0-1.27,0-1.91a28.6,28.6,0,0,1,.43-3.33c.21-1.1.44-2.2.68-3.32.12-.55.25-1.09.4-1.64s.29-1.09.44-1.64a2.49,2.49,0,0,1,.72-.79,4.24,4.24,0,0,1,.93-.53,8.28,8.28,0,0,1,1-.34l1-.28a16.17,16.17,0,0,1,2.29-.32c.36,0,.73-.05,1.09-.05m0-3c-.44,0-.88,0-1.32.05a20.61,20.61,0,0,0-2.68.39l-.19,0-1,.27a9.84,9.84,0,0,0-1.42.47,7.35,7.35,0,0,0-1.55.87,5.81,5.81,0,0,0-1.51,1.65,3,3,0,0,0-.34.78l-.45,1.67q-.22.87-.42,1.74c-.25,1.17-.48,2.31-.7,3.42a30.35,30.35,0,0,0-.47,3.68.28.28,0,0,0,0,.09,20.14,20.14,0,0,0,0,2.2,12.3,12.3,0,0,0,.36,2.42c.1.39.2.73.3,1.07a5.44,5.44,0,0,0,.94,1.78,4.56,4.56,0,0,0,2,1.52,6.53,6.53,0,0,0,1.65.4,1.94,1.94,0,0,0,.34,0h.05a9.47,9.47,0,0,0,2.12-.27,13.09,13.09,0,0,0,1.81-.57c.54-.21,1.08-.44,1.61-.7l1.33-.64.26-.14c.36-.21.74-.42,1.14-.62s1-.55,1.54-.86a12.86,12.86,0,0,0,1.59-1.15,6.92,6.92,0,0,0,1.6-2,2.41,2.41,0,0,0,.15-.33l0-.06a3,3,0,0,0,.08-2l-.06-.18a.88.88,0,0,0-.05-.15,4.56,4.56,0,0,0-.95-1.54,5.42,5.42,0,0,0-.67-.6,5.74,5.74,0,0,0,.48-.73,4.3,4.3,0,0,0,.5-1.75,4.15,4.15,0,0,0-.24-2.1,4.83,4.83,0,0,0-.57-1,3.83,3.83,0,0,0,.3-.61,4.14,4.14,0,0,0,.32-1.56,4.57,4.57,0,0,0-.37-1.94,4.91,4.91,0,0,0-1-1.51,4.81,4.81,0,0,0-1.43-1,5.15,5.15,0,0,0-1.68-.44c-.47,0-.95-.06-1.43-.06Z" transform="translate(-275.75 -326.93)" style="fill:#231815"/><path d="M384.08,465.21h-.3a3.08,3.08,0,0,1-1.22-.4,3.59,3.59,0,0,1-.83-.67,4.34,4.34,0,0,1-.56-.77,5,5,0,0,1-.37-.82,6.05,6.05,0,0,1-.39-1.56,14.48,14.48,0,0,1-.08-1.47c0-.51.05-.95.08-1.38s.1-.92.18-1.39.13-.89.21-1.35.12-.79.15-1.19.07-1,.08-1.51,0-1.06.05-1.59V451c.05-.49.09-1,.12-1.45a11.44,11.44,0,0,1,.22-1.71,6.23,6.23,0,0,1,.18-.81,4.53,4.53,0,0,1,.43-.95,4.39,4.39,0,0,1,.62-.8,3.54,3.54,0,0,1,.89-.64,4.67,4.67,0,0,1,.85-.38,6.59,6.59,0,0,1,.82-.21l.72-.11a4.68,4.68,0,0,0,.54-.09l.11,0c.31,0,.62-.07.94-.09s.66,0,1,0h1.16a10.42,10.42,0,0,1,1.28.15,9.13,9.13,0,0,1,1.25.31,5.76,5.76,0,0,1,1.28.6,4.56,4.56,0,0,1,1.19,1.22,6.15,6.15,0,0,1,.62,1.29,6.63,6.63,0,0,1,.3,1.39,9.59,9.59,0,0,1,0,1.31,5.31,5.31,0,0,1-.27,1.33,7,7,0,0,1-.53,1.15,8.83,8.83,0,0,1-.67,1,7.79,7.79,0,0,1-.76.85,11.79,11.79,0,0,1-1.69,1.52c-.15.11-.3.22-.46.32l.55.78a4.28,4.28,0,0,0,.65.77,3.06,3.06,0,0,0,.71.53l.09.05a5.47,5.47,0,0,0,.66.37,5.5,5.5,0,0,1,1,.62,3.25,3.25,0,0,1,1.06,1.09,2.77,2.77,0,0,1,.35,1.89,3.3,3.3,0,0,1-.49,1.18,3.36,3.36,0,0,1-1.72,1.29,3.9,3.9,0,0,1-1,.22,5.79,5.79,0,0,1-.65,0,5.71,5.71,0,0,1-.84-.07,5.23,5.23,0,0,1-1.4-.46,6.38,6.38,0,0,1-1.17-.73,6.06,6.06,0,0,1-1-.92c-.51-.66-1-1.25-1.44-1.82a.13.13,0,0,0,0,.06c0,.3,0,.61,0,.91a3.69,3.69,0,0,1-.07.86,3.49,3.49,0,0,1-.33,1,2.73,2.73,0,0,1-.9,1A2.34,2.34,0,0,1,384.08,465.21ZM387.26,451a3.55,3.55,0,0,0,.72-.38l.1-.07a1.72,1.72,0,0,0,.4-.31l-.54,0-.62.06S387.28,450.78,387.26,451Z" transform="translate(-275.75 -326.93)" style="fill:#fff"/><path d="M388.87,445.2h.72a9.82,9.82,0,0,1,1.09.12,8.78,8.78,0,0,1,1,.26,4,4,0,0,1,.95.45,2.93,2.93,0,0,1,.73.76,4.47,4.47,0,0,1,.46,1,5.26,5.26,0,0,1,.23,1.06,7.93,7.93,0,0,1,0,1.09,3.59,3.59,0,0,1-.19.92,4.87,4.87,0,0,1-.4.87,8.37,8.37,0,0,1-1.2,1.52,11.09,11.09,0,0,1-1.53,1.38,7.31,7.31,0,0,1-1.77,1c.26.35.52.72.77,1.09l.76,1.08a7,7,0,0,0,.83,1,4.78,4.78,0,0,0,1,.76,5.79,5.79,0,0,0,.84.47,4.64,4.64,0,0,1,.83.49,2,2,0,0,1,.61.63,1.26,1.26,0,0,1,.16.87,1.51,1.51,0,0,1-.25.58,1.8,1.8,0,0,1-.43.44,2.12,2.12,0,0,1-.56.29,2.5,2.5,0,0,1-.59.13,2.92,2.92,0,0,1-.51,0,3.68,3.68,0,0,1-.58-.05,3.63,3.63,0,0,1-1-.33,4.66,4.66,0,0,1-.9-.56,5.07,5.07,0,0,1-.75-.71q-.7-.94-1.44-1.83l-1.49-1.82c-.16-.15-.31-.3-.46-.46a1.65,1.65,0,0,0-.51-.39c0,.2-.05.4-.08.6a4.18,4.18,0,0,0-.05.61c0,.29,0,.57,0,.86s0,.57,0,.85,0,.57,0,.84,0,.56,0,.84a2.72,2.72,0,0,1,0,.62,2.43,2.43,0,0,1-.2.61,1.23,1.23,0,0,1-.39.45.82.82,0,0,1-.48.13h-.14a1.74,1.74,0,0,1-.62-.2,1.86,1.86,0,0,1-.48-.39,2.78,2.78,0,0,1-.37-.51,2.83,2.83,0,0,1-.25-.57,4.53,4.53,0,0,1-.32-1.24,10.91,10.91,0,0,1-.07-1.29c0-.42,0-.84.08-1.26s.09-.83.16-1.26.13-.9.21-1.34.13-.89.16-1.33.08-1.06.09-1.59,0-1.05.05-1.57.09-1,.12-1.53a8.91,8.91,0,0,1,.2-1.53,2.85,2.85,0,0,1,.14-.63,2.37,2.37,0,0,1,.27-.61,2.93,2.93,0,0,1,.41-.52,1.94,1.94,0,0,1,.54-.38,2.11,2.11,0,0,1,.59-.27,4.61,4.61,0,0,1,.64-.16c.21,0,.42-.08.64-.1l.64-.11c.28,0,.57-.06.87-.09l.86,0h.37m-3,7.64a7.66,7.66,0,0,0,1.55-.28,4.75,4.75,0,0,0,1.44-.68,3.19,3.19,0,0,0,1.12-1.07,3.15,3.15,0,0,0,.5-1.46.45.45,0,0,0-.05-.31.57.57,0,0,0-.2-.21,1,1,0,0,0-.3-.11h-.63a4.89,4.89,0,0,0-.54,0,8.27,8.27,0,0,1-.86,0l-.79.08a7.5,7.5,0,0,1-.82,0,.34.34,0,0,0-.3.22,1.33,1.33,0,0,0-.09.37,3,3,0,0,1,0,.31c0,.11,0,.22,0,.33,0,.45-.08.91-.1,1.37a5,5,0,0,0,.1,1.34m3-10.64h-.4c-.34,0-.7,0-1.06,0l-1,.1-.23,0-.4.07-.82.13a7.18,7.18,0,0,0-1,.25,5.32,5.32,0,0,0-1.14.5,4.85,4.85,0,0,0-1.21.89,6,6,0,0,0-.86,1.09,5.73,5.73,0,0,0-.57,1.26,7.48,7.48,0,0,0-.23,1,12.24,12.24,0,0,0-.24,1.88c0,.45-.06.92-.11,1.38a1.27,1.27,0,0,0,0,.2c0,.54,0,1.07-.05,1.6s0,1-.08,1.42-.07.72-.13,1.07-.15.93-.22,1.4-.14,1-.18,1.46-.07.92-.09,1.39v.12a14.88,14.88,0,0,0,.09,1.64,8,8,0,0,0,.47,1.91,6.41,6.41,0,0,0,.47,1,6.18,6.18,0,0,0,.76,1,5.51,5.51,0,0,0,1.18,1,4.66,4.66,0,0,0,1.8.59,4.1,4.1,0,0,0,.48,0,3.81,3.81,0,0,0,2.16-.65,4.25,4.25,0,0,0,1.39-1.58l0-.06.54.46a8.45,8.45,0,0,0,1.44.89,6.47,6.47,0,0,0,1.79.58,5.77,5.77,0,0,0,1.1.1,6.33,6.33,0,0,0,.86-.06,5.5,5.5,0,0,0,1.25-.28,5.38,5.38,0,0,0,1.28-.67,4.73,4.73,0,0,0,1.17-1.19,4.46,4.46,0,0,0,.72-1.67.36.36,0,0,1,0-.1,4.25,4.25,0,0,0-.55-2.92,4.81,4.81,0,0,0-1.48-1.56,7.37,7.37,0,0,0-1.27-.74A3.87,3.87,0,0,1,394,457l-.18-.11a1.69,1.69,0,0,1-.38-.28l-.17-.17a15.47,15.47,0,0,0,1.17-1.12,10.71,10.71,0,0,0,.83-.94,9.41,9.41,0,0,0,.79-1.15,7.93,7.93,0,0,0,.66-1.42,7.06,7.06,0,0,0,.34-1.63s0-.08,0-.11a11.17,11.17,0,0,0,0-1.53,7.85,7.85,0,0,0-.37-1.73,7.09,7.09,0,0,0-.79-1.64,6,6,0,0,0-1.47-1.54l-.16-.11a7.52,7.52,0,0,0-1.62-.77,11.53,11.53,0,0,0-1.46-.36,11.85,11.85,0,0,0-1.46-.16c-.3,0-.59,0-.87,0Z" transform="translate(-275.75 -326.93)" style="fill:#231815"/><path d="M407.25,465.45a6.79,6.79,0,0,1-1.56-.18,7.48,7.48,0,0,1-1.87-.69,8.09,8.09,0,0,1-1.61-1.11,9.34,9.34,0,0,1-1.29-1.38,12.38,12.38,0,0,1-1-1.54,9.45,9.45,0,0,1-.76-1.76,10.55,10.55,0,0,1-.41-1.87,9.54,9.54,0,0,1,0-2,13.8,13.8,0,0,1,.84-3.65,15.82,15.82,0,0,1,1.77-3.35,14.23,14.23,0,0,1,1.12-1.46,9.24,9.24,0,0,1,1.49-1.38,7.55,7.55,0,0,1,1.82-1,5.59,5.59,0,0,1,2-.37h.2a5.85,5.85,0,0,1,1.48.2,6.58,6.58,0,0,1,1.36.52,7.81,7.81,0,0,1,1.19.77,8.16,8.16,0,0,1,1,.94,8,8,0,0,1,1.48,2.23,6.53,6.53,0,0,1,.58,2.87,2.88,2.88,0,0,1-.32,1.31,2.93,2.93,0,0,1-.83,1,3,3,0,0,1-1.11.55,3.15,3.15,0,0,1-.75.1,3.25,3.25,0,0,1-.44,0,3.39,3.39,0,0,1-1.63-.51,3.2,3.2,0,0,1-1.22-1.43s0-.09-.05-.14a6.24,6.24,0,0,0-.28-.76c-.11-.27-.22-.56-.33-.86a2.28,2.28,0,0,0-.5.36,3.09,3.09,0,0,0-.48.59,6.56,6.56,0,0,0-.42.77A9.31,9.31,0,0,0,406,454a11.65,11.65,0,0,0-.37,1.94,4.59,4.59,0,0,0,.07,1.1,2,2,0,0,0,.33.77l.07.12a1.18,1.18,0,0,0,.47.47,1.31,1.31,0,0,0,.65.16,2,2,0,0,0,.81-.16,4.86,4.86,0,0,0,.85-.5,7.81,7.81,0,0,1,.84-.65,4.3,4.3,0,0,1,1.21-.61,1.87,1.87,0,0,1,.34-.08h.21a2.36,2.36,0,0,1,1.37.45,2.45,2.45,0,0,1,.83,1.06,2.71,2.71,0,0,1,.32,1,4.31,4.31,0,0,1,0,.95,5.54,5.54,0,0,1-.89,2.19,7.3,7.3,0,0,1-1.48,1.56,7.4,7.4,0,0,1-1.69,1.08,5.37,5.37,0,0,1-2.16.53Z" transform="translate(-275.75 -326.93)" style="fill:#fff"/><path d="M407.8,445.2h.14a4.45,4.45,0,0,1,1.16.15,4.75,4.75,0,0,1,1,.4,6.44,6.44,0,0,1,1.77,1.39,6.49,6.49,0,0,1,1.22,1.84,4.91,4.91,0,0,1,.45,2.22,1.38,1.38,0,0,1-.57,1.14,1.51,1.51,0,0,1-.58.29,1.49,1.49,0,0,1-.36.05,1.36,1.36,0,0,1-.29,0,1.78,1.78,0,0,1-1-.28,1.72,1.72,0,0,1-.64-.75c-.1-.31-.2-.61-.32-.89s-.24-.59-.35-.9a2.26,2.26,0,0,0-.37-.63.86.86,0,0,0-.63-.33,2.3,2.3,0,0,0-1,.24,3.54,3.54,0,0,0-.87.62,4.46,4.46,0,0,0-.7.86,6.91,6.91,0,0,0-.52,1,10.78,10.78,0,0,0-.85,2.09,12.83,12.83,0,0,0-.41,2.21,5.93,5.93,0,0,0,.09,1.52,3.49,3.49,0,0,0,.56,1.35,2.64,2.64,0,0,0,1.07,1.05,2.75,2.75,0,0,0,1.36.34h.11a3.47,3.47,0,0,0,1.31-.29,6.56,6.56,0,0,0,1.19-.71,7,7,0,0,1,.74-.58,3.41,3.41,0,0,1,.83-.42h.08a.81.81,0,0,1,.49.17.79.79,0,0,1,.34.48,1.26,1.26,0,0,1,.2.54,2.32,2.32,0,0,1,0,.59,3.82,3.82,0,0,1-.63,1.53,6,6,0,0,1-1.17,1.24,6.54,6.54,0,0,1-1.41.91,3.85,3.85,0,0,1-1.57.38,3.31,3.31,0,0,1-.44,0,5.5,5.5,0,0,1-1.22-.14,6.08,6.08,0,0,1-1.51-.56,6.33,6.33,0,0,1-1.32-.91,7.46,7.46,0,0,1-1.09-1.16,10.85,10.85,0,0,1-.89-1.35,8.16,8.16,0,0,1-.64-1.49,8.61,8.61,0,0,1-.35-1.6,7.77,7.77,0,0,1,0-1.67,12.05,12.05,0,0,1,.76-3.27,13.86,13.86,0,0,1,1.59-3,12.49,12.49,0,0,1,1-1.34,8.56,8.56,0,0,1,1.25-1.16,6.16,6.16,0,0,1,1.46-.81,4.25,4.25,0,0,1,1.51-.27m0-3h0a7.33,7.33,0,0,0-2.59.47,9.1,9.1,0,0,0-2.17,1.21,10.81,10.81,0,0,0-1.72,1.6,16.84,16.84,0,0,0-1.25,1.63,17.14,17.14,0,0,0-1.91,3.62,15.23,15.23,0,0,0-.94,4.07,11.07,11.07,0,0,0,0,2.3,11.94,11.94,0,0,0,.47,2.15,11.71,11.71,0,0,0,.87,2,14.35,14.35,0,0,0,1.14,1.73,11.08,11.08,0,0,0,1.48,1.59,10,10,0,0,0,1.92,1.31,9.37,9.37,0,0,0,2.22.82,8.09,8.09,0,0,0,1.9.22l.61,0a7,7,0,0,0,2.67-.67,9.06,9.06,0,0,0,2-1.3,9.15,9.15,0,0,0,1.73-1.84,6.83,6.83,0,0,0,1.12-2.72.5.5,0,0,0,0-.12,5.38,5.38,0,0,0,0-1.33,4.18,4.18,0,0,0-.45-1.48,3.78,3.78,0,0,0-1.32-1.65,3.31,3.31,0,0,0-.47-.29h0a4.68,4.68,0,0,0,1.61-.8,4.57,4.57,0,0,0,1.25-1.48,4.45,4.45,0,0,0,.49-2,8,8,0,0,0-.72-3.49,9.77,9.77,0,0,0-1.75-2.65A10.84,10.84,0,0,0,413,444a8.83,8.83,0,0,0-1.44-.93,8.23,8.23,0,0,0-1.67-.64,7.27,7.27,0,0,0-1.87-.25Zm-.7,13.88a10,10,0,0,1,.31-1.63,7.57,7.57,0,0,1,.35-1,4.79,4.79,0,0,0,1.44,1.43,5,5,0,0,0,.93.46,6.12,6.12,0,0,0-1.31.7c-.31.22-.62.46-.91.7a2.55,2.55,0,0,1-.52.31l-.1,0-.06-.1a.46.46,0,0,1-.09-.2,3.41,3.41,0,0,1,0-.72Z" transform="translate(-275.75 -326.93)" style="fill:#231815"/><path d="M423.56,465.46a5,5,0,0,1-2-.42,6,6,0,0,1-1.63-1,7.34,7.34,0,0,1-1.23-1.37,11.65,11.65,0,0,1-.86-1.44,13.46,13.46,0,0,1-1-3.2,12,12,0,0,1-.16-3.45,13.79,13.79,0,0,1,.82-3.61,13.23,13.23,0,0,1,1.82-3.34,10.55,10.55,0,0,1,1.22-1.47,9.63,9.63,0,0,1,1.59-1.27A8.08,8.08,0,0,1,424,444a6.44,6.44,0,0,1,1.94-.3h.22a5.11,5.11,0,0,1,2,.41,6.15,6.15,0,0,1,1.64,1,7.26,7.26,0,0,1,1.24,1.36,10.32,10.32,0,0,1,.88,1.5,12.32,12.32,0,0,1,1,3.21,13.2,13.2,0,0,1,.15,3.44,12.22,12.22,0,0,1-.81,3.63,14.6,14.6,0,0,1-1.79,3.29,13,13,0,0,1-1.28,1.49,10.46,10.46,0,0,1-1.58,1.25,8,8,0,0,1-1.85.87,6,6,0,0,1-1.89.3Zm.57-6.71a.52.52,0,0,0,.21,0,1.13,1.13,0,0,0,.35-.2,2,2,0,0,0,.36-.36,2.68,2.68,0,0,0,.27-.45c.14-.34.27-.69.37-1a10.26,10.26,0,0,0,.25-1c.07-.35.13-.69.17-1s.08-.72.11-1.08.06-.95.08-1.44a5.37,5.37,0,0,0-.1-1.19.88.88,0,0,0-.09-.23.9.9,0,0,0-.15-.18.42.42,0,0,0-.17-.1h-.22a.88.88,0,0,0-.35.06,1.88,1.88,0,0,0-.44.24,2.52,2.52,0,0,0-.4.4,2.72,2.72,0,0,0-.32.51,8,8,0,0,0-.54,1.48,12,12,0,0,0-.28,1.64c-.05.53-.07,1.08-.07,1.62a7.64,7.64,0,0,0,.14,1.44,2.34,2.34,0,0,0,.14.5,1.38,1.38,0,0,0,.2.31.75.75,0,0,0,.17.14h.31Z" transform="translate(-275.75 -326.93)" style="fill:#fff"/><path d="M425.9,445.2h.16a3.79,3.79,0,0,1,1.48.29,4.5,4.5,0,0,1,1.24.76,6.14,6.14,0,0,1,1,1.1,8.57,8.57,0,0,1,.74,1.27,10.5,10.5,0,0,1,.92,2.84,11.49,11.49,0,0,1,.13,3.05,10.64,10.64,0,0,1-.71,3.21,13.52,13.52,0,0,1-1.61,3,10.28,10.28,0,0,1-1.11,1.28A8.5,8.5,0,0,1,426.8,463a6.71,6.71,0,0,1-1.51.71,4.54,4.54,0,0,1-1.42.23h-.23a3.79,3.79,0,0,1-1.48-.29,4.93,4.93,0,0,1-1.23-.78,6.06,6.06,0,0,1-1-1.09,10.11,10.11,0,0,1-.74-1.26,11.79,11.79,0,0,1-.92-2.82,10.44,10.44,0,0,1-.14-3,12.1,12.1,0,0,1,.74-3.24,11.83,11.83,0,0,1,1.61-3,8.84,8.84,0,0,1,1.08-1.31,8.43,8.43,0,0,1,1.33-1.07,6.55,6.55,0,0,1,1.52-.7,4.63,4.63,0,0,1,1.48-.23m-.29,3.71h-.07a2.3,2.3,0,0,0-.86.16,3.22,3.22,0,0,0-.81.45,3.8,3.8,0,0,0-.67.66,4.32,4.32,0,0,0-.49.79,8.72,8.72,0,0,0-.64,1.77,13.27,13.27,0,0,0-.32,1.85,17.6,17.6,0,0,0-.08,1.77,8.42,8.42,0,0,0,.17,1.74,4.15,4.15,0,0,0,.24.81,3,3,0,0,0,.45.7,2,2,0,0,0,.64.48,1.53,1.53,0,0,0,.72.16h.24a2,2,0,0,0,.73-.13,2.61,2.61,0,0,0,.76-.43,3.37,3.37,0,0,0,.62-.63,4.14,4.14,0,0,0,.45-.75,11,11,0,0,0,.44-1.2c.11-.39.21-.78.29-1.16s.13-.76.18-1.13l.12-1.12c0-.51.06-1,.08-1.53a7.79,7.79,0,0,0-.12-1.52,2.91,2.91,0,0,0-.27-.69,2.35,2.35,0,0,0-.46-.57,2,2,0,0,0-.62-.37,1.52,1.52,0,0,0-.6-.11h-.12m.29-6.71a7.79,7.79,0,0,0-2.39.37,9.14,9.14,0,0,0-2.22,1,10.85,10.85,0,0,0-1.84,1.48,11.85,11.85,0,0,0-1.4,1.69,15.08,15.08,0,0,0-2,3.65,15.7,15.7,0,0,0-.91,4,13.51,13.51,0,0,0,.19,3.86,15.25,15.25,0,0,0,1.14,3.52l0,.06a13.46,13.46,0,0,0,1,1.63,9.33,9.33,0,0,0,1.48,1.65,7.91,7.91,0,0,0,2,1.26,6.72,6.72,0,0,0,2.6.54h.3a7.52,7.52,0,0,0,2.36-.38,9.88,9.88,0,0,0,2.18-1,10.93,10.93,0,0,0,1.82-1.45,13.45,13.45,0,0,0,1.45-1.67,16.51,16.51,0,0,0,2-3.64,14,14,0,0,0,.91-4.07,14.61,14.61,0,0,0-.18-3.8,13.43,13.43,0,0,0-1.18-3.63,10.44,10.44,0,0,0-1-1.68,8.65,8.65,0,0,0-1.5-1.64,7.54,7.54,0,0,0-2-1.26,6.89,6.89,0,0,0-2.6-.52Zm-.15,9.67h0Z" transform="translate(-275.75 -326.93)" style="fill:#231815"/><path d="M446,465.2a3.58,3.58,0,0,1-1.91-.71,5.72,5.72,0,0,1-1.11-1.14,9.37,9.37,0,0,1-.78-1.25c-.17-.32-.34-.61-.52-.88-.06.3-.12.6-.2.89a8.45,8.45,0,0,1-.31.93,4.79,4.79,0,0,1-.52,1,3.08,3.08,0,0,1-.94.86,2.32,2.32,0,0,1-1.18.32,2.8,2.8,0,0,1-.48-.05,3.18,3.18,0,0,1-1.16-.43A4.18,4.18,0,0,1,436,464a3.92,3.92,0,0,1-.95-2.21,2.26,2.26,0,0,1,0-.26l.1-1.07a10,10,0,0,1,.19-1.2c.08-.37.14-.7.2-1a9.08,9.08,0,0,0,.12-.93c0-.56,0-1.2.06-1.84s0-1.22,0-1.83l.11-1.95c0-.66.11-1.33.2-2a7.75,7.75,0,0,1,.3-1.41c.12-.4.24-.8.37-1.2a2.44,2.44,0,0,1,.1-.24l.18-.39a7.45,7.45,0,0,1,.32-.7,3.61,3.61,0,0,1,.57-.8,2.51,2.51,0,0,1,1.13-.71l.18,0a3.08,3.08,0,0,1,.51,0,2.5,2.5,0,0,1,.72.1,2.89,2.89,0,0,1,1,.48,3.54,3.54,0,0,1,.67.67,5.36,5.36,0,0,1,.38.59,6.41,6.41,0,0,1,.61,1.3s.39,1.13.39,1.15l.09-.79a7.06,7.06,0,0,1,.31-1.41,3.76,3.76,0,0,1,.87-1.47,2.87,2.87,0,0,1,2-.85h.19a2.58,2.58,0,0,1,1.22.42,3.22,3.22,0,0,1,.76.71,4.05,4.05,0,0,1,.45.79l.2.46.05.14a8.32,8.32,0,0,1,.32,1.26,6.41,6.41,0,0,1,.1,1.46l-.06.68c0,.23,0,.46-.08.68l-.12,1.27c0,.87,0,1.82,0,2.76l0,2.9c0,.57,0,1.25,0,1.92s-.07,1.34-.15,2a6,6,0,0,1-.25,1.11,4.54,4.54,0,0,1-.56,1.15,4,4,0,0,1-.92,1,3.3,3.3,0,0,1-1.44.6,1.07,1.07,0,0,1-.25,0Z" transform="translate(-275.75 -326.93)" style="fill:#fff"/><path d="M446.81,445.39a1,1,0,0,1,.52.17,1.67,1.67,0,0,1,.39.36,2.37,2.37,0,0,1,.26.47c.07.17.14.33.22.49a9.68,9.68,0,0,1,.27,1.06,4.63,4.63,0,0,1,.07,1.12c0,.21,0,.42-.05.63s-.05.41-.08.61l-.12,1.32c0,1-.06,1.94-.06,2.89l0,2.88c0,.63,0,1.26,0,1.9s-.07,1.26-.14,1.89a5,5,0,0,1-.18.82,3,3,0,0,1-.38.76,2.4,2.4,0,0,1-.58.61,1.94,1.94,0,0,1-.79.34,2.16,2.16,0,0,1-1.12-.41,4.35,4.35,0,0,1-.82-.84,8,8,0,0,1-.65-1c-.2-.37-.4-.72-.6-1-.41-.86-.81-1.72-1.19-2.58s-.76-1.73-1.11-2.61c0,.66-.07,1.32-.09,2s-.06,1.3-.1,2c0,.43-.09.87-.15,1.3a12.45,12.45,0,0,1-.26,1.3,6.81,6.81,0,0,1-.26.76,2.92,2.92,0,0,1-.34.66,1.81,1.81,0,0,1-.48.44.87.87,0,0,1-.41.11l-.2,0a1.93,1.93,0,0,1-.68-.25,2.5,2.5,0,0,1-.56-.46,2.38,2.38,0,0,1-.39-.63,2.19,2.19,0,0,1-.18-.7c0-.36.07-.71.11-1.07a8,8,0,0,1,.16-1.06c.08-.35.15-.71.21-1.06a9.47,9.47,0,0,0,.13-1.07c0-.64,0-1.27.07-1.9s0-1.26,0-1.89.07-1.24.11-1.86.09-1.24.18-1.86a7.21,7.21,0,0,1,.25-1.19c.12-.39.24-.78.37-1.17.09-.17.17-.35.25-.54a4.6,4.6,0,0,1,.25-.55,2,2,0,0,1,.33-.48,1.07,1.07,0,0,1,.49-.3l.24,0a1.06,1.06,0,0,1,.31,0,1.53,1.53,0,0,1,.46.23,2,2,0,0,1,.38.38,3,3,0,0,1,.28.44,4.94,4.94,0,0,1,.49,1l.38,1.1c.2.58.4,1.17.59,1.76s.4,1.19.61,1.77a28.27,28.27,0,0,0,1.64,3.42c0-.42,0-.82,0-1.22s0-.8,0-1.22c0-.76,0-1.51,0-2.26s0-1.51.09-2.27c0-.3.08-.65.12-1a6.42,6.42,0,0,1,.24-1.11,2.44,2.44,0,0,1,.53-.9,1.4,1.4,0,0,1,1-.39m0-3h-.13a4.36,4.36,0,0,0-3,1.31,4.92,4.92,0,0,0-.5.61,4.6,4.6,0,0,0-.84-.81,4.48,4.48,0,0,0-1.43-.72,4.24,4.24,0,0,0-1.92-.09,2.34,2.34,0,0,0-.38.09,4.2,4.2,0,0,0-1.77,1.11A5.63,5.63,0,0,0,436,445a9,9,0,0,0-.38.84c0,.1-.08.18-.12.26a2.55,2.55,0,0,0-.2.48c-.13.4-.25.8-.38,1.2a9.07,9.07,0,0,0-.35,1.69q-.15,1-.21,2.07l-.05.85-.05,1a1.09,1.09,0,0,0,0,.18c0,.58,0,1.18,0,1.76s-.05,1.25-.06,1.87c0,.24-.05.48-.09.71s-.12.61-.19.93v.06a13,13,0,0,0-.21,1.35l-.11,1.07a2.9,2.9,0,0,0,0,.51,4.9,4.9,0,0,0,.43,1.71,5.23,5.23,0,0,0,.88,1.38,5.34,5.34,0,0,0,1.26,1.06,5,5,0,0,0,1.73.64,4,4,0,0,0,.7.06,3.76,3.76,0,0,0,1.93-.53,4.5,4.5,0,0,0,1.4-1.28l.19-.28a7,7,0,0,0,1.11,1.07,5.16,5.16,0,0,0,2.71,1h.24a2.94,2.94,0,0,0,.51,0,4.79,4.79,0,0,0,2.07-.88,5.35,5.35,0,0,0,1.27-1.33,6.21,6.21,0,0,0,.75-1.53,8.34,8.34,0,0,0,.31-1.34v-.06c.08-.71.14-1.43.16-2.13s0-1.36,0-2l0-2.83c0-.9,0-1.81,0-2.72l.11-1.13c0-.24.07-.49.09-.73l0-.52v-.12a.41.41,0,0,0,0-.11,7.68,7.68,0,0,0-.12-1.8,10.44,10.44,0,0,0-.38-1.46,2.31,2.31,0,0,0-.1-.28c-.07-.14-.13-.29-.19-.44a5.7,5.7,0,0,0-.63-1.1,4.61,4.61,0,0,0-1.11-1.05,4.07,4.07,0,0,0-1.94-.67Z" transform="translate(-275.75 -326.93)" style="fill:#231815"/><path d="M468.17,465.14a3.35,3.35,0,0,1-.63-.05l-.23,0a2.57,2.57,0,0,1-1.25-.85,3.35,3.35,0,0,1-.52-1,4.83,4.83,0,0,1-.21-.93l-.08-.63a.76.76,0,0,1,0-.15c0-.36,0-.72,0-1.08s0-.71,0-1.07,0-.42,0-.6,0-.53,0-.8a5.24,5.24,0,0,0,0-.56,8.1,8.1,0,0,1,0-.85l.06-.67c0-.25,0-.49.07-.72s.07-.49.1-.72.07-.5.11-.74.05-.67.07-1,0-.84.07-1.29,0-.77.08-1.18.08-.85.13-1.28l0-.14c.06-.29.13-.6.19-.94a7.14,7.14,0,0,1,.36-1.3,5,5,0,0,1,.71-1.31,3.46,3.46,0,0,1,1.48-1.11,1.92,1.92,0,0,1,.32-.09,4,4,0,0,1,.6-.05,3.44,3.44,0,0,1,.46,0,3.2,3.2,0,0,1,1.13.37,3.07,3.07,0,0,1,.91.81,2.86,2.86,0,0,1,.42.88l.36-.34.15-.11c.25-.18.51-.36.78-.53a7.65,7.65,0,0,1,1-.5,5.36,5.36,0,0,1,1.11-.3,3.57,3.57,0,0,1,.65-.06,4.9,4.9,0,0,1,.54,0,2.81,2.81,0,0,1,1.22.33,3,3,0,0,1,1,.79,3.1,3.1,0,0,1,.56,1.1,3.07,3.07,0,0,1,.11,1.2,3.57,3.57,0,0,1-.68,1.91,6.21,6.21,0,0,1-1.13,1.21l-.09.06-1.19.82c-.37.25-.74.52-1.1.8l-.48.36a1.84,1.84,0,0,0-.27.23l0,0v0a3.48,3.48,0,0,0,.21.48c.1.19.21.36.32.54s.28.43.41.65l1.15,1.64c.4.56.81,1.13,1.21,1.72l.07.1c.14.25.28.5.41.75a7.58,7.58,0,0,1,.41.92,5,5,0,0,1,.27,1.08,4.22,4.22,0,0,1,0,1.28,3.63,3.63,0,0,1-.26.85,3.71,3.71,0,0,1-.51.81,2.88,2.88,0,0,1-.78.65,2.53,2.53,0,0,1-1,.32,3.05,3.05,0,0,1-.6.06,3.25,3.25,0,0,1-1.46-.36,3.91,3.91,0,0,1-1.39-1.18l-.08-.13-.6-1-.66-1.09c-.06-.11-.13-.21-.2-.32a9.4,9.4,0,0,1-.22,1.31,5,5,0,0,1-.62,1.42,1,1,0,0,1-.08.11,3.73,3.73,0,0,1-.87.82,3.59,3.59,0,0,1-.95.45,4.7,4.7,0,0,1-.9.15Z" transform="translate(-275.75 -326.93)" style="fill:#fff"/><path d="M469.75,445.46l.27,0a1.6,1.6,0,0,1,.57.19,1.31,1.31,0,0,1,.43.38,1.21,1.21,0,0,1,.23.56,12.52,12.52,0,0,1,.07,1.36c0,.45,0,.9,0,1.36.45-.43.89-.85,1.34-1.26l1.37-1.25c.22-.16.46-.32.7-.47a4.9,4.9,0,0,1,.76-.38,3.72,3.72,0,0,1,.79-.22,2.12,2.12,0,0,1,.82,0,1.38,1.38,0,0,1,.65.15,1.6,1.6,0,0,1,.49.41,1.67,1.67,0,0,1,.29.58,1.64,1.64,0,0,1,0,.66,2,2,0,0,1-.4,1.16,4.61,4.61,0,0,1-.85.91l-1.19.81c-.39.27-.78.56-1.17.86-.15.1-.29.21-.44.33a3,3,0,0,0-.43.36,2.24,2.24,0,0,0-.35.41,1.41,1.41,0,0,0-.2.49,3.06,3.06,0,0,0,.17.74,5.15,5.15,0,0,0,.3.69c.13.22.25.43.39.64s.27.42.4.64c.4.58.79,1.14,1.19,1.7s.8,1.12,1.2,1.7l.38.7a4.91,4.91,0,0,1,.33.74,4.06,4.06,0,0,1,.2.78,2.57,2.57,0,0,1,0,.83,1.74,1.74,0,0,1-.14.48,1.77,1.77,0,0,1-.28.43,1.44,1.44,0,0,1-.38.32,1,1,0,0,1-.49.14,1.9,1.9,0,0,1-.4,0,1.72,1.72,0,0,1-.77-.19,2.38,2.38,0,0,1-.86-.73c-.21-.35-.41-.7-.63-1l-.63-1.05-1.41-2.13-1.42-2.1c0,.39,0,.77,0,1.14s0,.76,0,1.15,0,.78,0,1.16,0,.76-.05,1.14a9.09,9.09,0,0,1-.18,1,3.48,3.48,0,0,1-.42,1,2.17,2.17,0,0,1-.52.49,2.22,2.22,0,0,1-.54.26,2.62,2.62,0,0,1-.56.09h-.13a2.73,2.73,0,0,1-.41,0,1,1,0,0,1-.52-.34,1.61,1.61,0,0,1-.29-.55,2.62,2.62,0,0,1-.14-.63c0-.22-.06-.44-.08-.64s0-.68,0-1l0-1c0-.23,0-.46,0-.68s0-.45,0-.68,0-.48,0-.71a5.67,5.67,0,0,1,0-.71c0-.21,0-.43.05-.66s0-.45.07-.66.07-.47.1-.71.06-.47.1-.7c0-.41.07-.81.09-1.21s0-.79.07-1.21,0-.8.07-1.2.08-.79.13-1.19.14-.65.21-1a6.25,6.25,0,0,1,.28-1,3.71,3.71,0,0,1,.5-.92,2,2,0,0,1,.85-.63,2.31,2.31,0,0,1,.37,0m0-3a6,6,0,0,0-.85.07,3.26,3.26,0,0,0-.63.18,4.81,4.81,0,0,0-2.13,1.6,6.49,6.49,0,0,0-.92,1.7,8.88,8.88,0,0,0-.42,1.53c-.06.32-.12.62-.19.89a2.51,2.51,0,0,0,0,.27c-.07.46-.11.92-.15,1.36s-.06.82-.08,1.24-.06.88-.07,1.3,0,.61-.07.92-.07.47-.1.71-.06.43-.09.63c0,0,0,.06,0,.09,0,.26-.06.52-.08.79l-.05.66a8.65,8.65,0,0,0,0,1c0,.14,0,.28,0,.43a8.9,8.9,0,0,0,0,.9,3.46,3.46,0,0,1,0,.45v.07c0,.38,0,.76,0,1.14s0,.75,0,1.13c0,.1,0,.2,0,.3s.05.4.08.62a6.17,6.17,0,0,0,.27,1.22,4.76,4.76,0,0,0,.77,1.44,4,4,0,0,0,2,1.36,3.43,3.43,0,0,0,.46.11,6.15,6.15,0,0,0,.87.06h.27a6.63,6.63,0,0,0,1.26-.21,5.45,5.45,0,0,0,1.36-.64,5.29,5.29,0,0,0,1.22-1.15l.16-.21h0a5.38,5.38,0,0,0,1.82,1.51,4.62,4.62,0,0,0,2.15.53,5.29,5.29,0,0,0,.8-.07,4,4,0,0,0,1.58-.52,4.36,4.36,0,0,0,1.17-1,5.1,5.1,0,0,0,.74-1.16,4.93,4.93,0,0,0,.36-1.21,5.85,5.85,0,0,0,0-1.77,6.59,6.59,0,0,0-.36-1.37,8.8,8.8,0,0,0-.48-1.09c-.15-.28-.29-.54-.44-.8l-.14-.22c-.41-.58-.81-1.16-1.22-1.73L477.34,454c-.09-.16-.19-.33-.3-.49l.8-.57,1.2-.82.18-.13a7.74,7.74,0,0,0,1.41-1.5,5.18,5.18,0,0,0,1-2.67,4.75,4.75,0,0,0-.16-1.72,4.62,4.62,0,0,0-.83-1.62,4.5,4.5,0,0,0-3.23-1.7c-.22,0-.45,0-.67,0a5.26,5.26,0,0,0-.89.08,7,7,0,0,0-1.41.38,8.85,8.85,0,0,0-1.23.62l-.09.06a4.11,4.11,0,0,0-1-.79,4.51,4.51,0,0,0-1.68-.56c-.21,0-.43,0-.64,0Z" transform="translate(-275.75 -326.93)" style="fill:#231815"/><path d="M486.23,465.21a3.13,3.13,0,0,1-.44,0,3.19,3.19,0,0,1-1.44-.51,3.28,3.28,0,0,1-1-1,4,4,0,0,1-.53-1.22,4.26,4.26,0,0,1-.12-1.33,19.21,19.21,0,0,1,.15-2.07c.08-.65.17-1.3.25-1.95s.22-1.4.31-2.07.19-1.31.29-2c0-.39,0-.77,0-1.14a9.1,9.1,0,0,0-.1-1.13s0-.09,0-.14c0-.47,0-.93,0-1.38s0-.88.08-1.33a5.26,5.26,0,0,1,.32-1.27,4.61,4.61,0,0,1,.65-1.17,4.16,4.16,0,0,1,1-.93,3.2,3.2,0,0,1,1.52-.51,24.05,24.05,0,0,1,2.63-.23c.87,0,1.74-.05,2.62-.05h0a5,5,0,0,1,2.5.64,6.14,6.14,0,0,1,1,.69,6.24,6.24,0,0,1,.83.88,6.92,6.92,0,0,1,1.08,2.11,6.36,6.36,0,0,1,.27,2.39,4.84,4.84,0,0,1-.65,2.25,9.15,9.15,0,0,1-1.24,1.7,11.38,11.38,0,0,1-1.45,1.26c.52.45,1,.91,1.51,1.39.23.23.43.44.65.65s.48.5.69.76a9.37,9.37,0,0,1,.65.87,5,5,0,0,1,.54,1.15,1.4,1.4,0,0,1,.08.34c0,.25,0,.49,0,.74a4.09,4.09,0,0,1-.09.85,3.79,3.79,0,0,1-.18.72,3.19,3.19,0,0,1-.44.81,2.67,2.67,0,0,1-.75.71,2.52,2.52,0,0,1-1,.39,3.6,3.6,0,0,1-.7.07,3.72,3.72,0,0,1-1.54-.34,4.4,4.4,0,0,1-1.6-1.26.27.27,0,0,1-.07-.08q-.39-.58-.81-1.14l-.79-1.09c-.4-.41-.82-.82-1.26-1.21l-.13,1.19a7.77,7.77,0,0,1-.31,1.46,5.39,5.39,0,0,1-.48,1,4.51,4.51,0,0,1-.67.81,3,3,0,0,1-1,.59A2.36,2.36,0,0,1,486.23,465.21Zm4.06-14.63.32-.16.16-.1h-.46C490.3,450.42,490.3,450.5,490.29,450.58Z" transform="translate(-275.75 -326.93)" style="fill:#fff"/><path d="M492.51,445.25a3.46,3.46,0,0,1,.84.11,3.68,3.68,0,0,1,.85.34,4.36,4.36,0,0,1,.75.52,4.92,4.92,0,0,1,.63.66,5.35,5.35,0,0,1,.83,1.63,5.14,5.14,0,0,1,.21,1.84,3.55,3.55,0,0,1-.46,1.63,7.17,7.17,0,0,1-1,1.4,10.13,10.13,0,0,1-1.41,1.21,7,7,0,0,1-1.62.86q.84.63,1.62,1.29c.52.44,1,.9,1.52,1.38.2.22.42.43.63.65s.43.44.62.67.36.47.53.71a3.83,3.83,0,0,1,.38.82,5.88,5.88,0,0,1,0,.6,2.38,2.38,0,0,1-.07.59,2,2,0,0,1-.34.9,1.29,1.29,0,0,1-.36.34,1.07,1.07,0,0,1-.46.17,2.59,2.59,0,0,1-.47.05,2.12,2.12,0,0,1-.9-.2,2.86,2.86,0,0,1-1.07-.84l-.84-1.17-.85-1.16a23.42,23.42,0,0,0-1.77-1.68c-.62-.54-1.26-1.06-1.9-1.57,0,.19-.08.37-.11.56a3.29,3.29,0,0,0,0,.54c0,.3,0,.6,0,.88s0,.58,0,.88L488,461a6.18,6.18,0,0,1-.25,1.16,4.25,4.25,0,0,1-.32.64,2.59,2.59,0,0,1-.42.5,1.57,1.57,0,0,1-.48.31,1,1,0,0,1-.33.06l-.23,0a1.82,1.82,0,0,1-1.4-.85,2.48,2.48,0,0,1-.33-.78,2.8,2.8,0,0,1-.08-.87,16.31,16.31,0,0,1,.14-2l.24-1.95c.12-.69.22-1.37.32-2.05s.19-1.37.3-2c0-.46,0-.89,0-1.32a11.62,11.62,0,0,0-.11-1.29c0-.42,0-.84,0-1.26s0-.83.08-1.26a3.05,3.05,0,0,1,.22-.85,2.71,2.71,0,0,1,.44-.78,2.43,2.43,0,0,1,.64-.6,1.86,1.86,0,0,1,.85-.28,24.79,24.79,0,0,1,2.56-.22c.84,0,1.7-.05,2.56-.05h.1m-3.73,7.43a5.91,5.91,0,0,0,1.31-.36,11.48,11.48,0,0,0,1.23-.58l.54-.33a4.26,4.26,0,0,0,.53-.39,1.91,1.91,0,0,0,.42-.48,1.58,1.58,0,0,0,.24-.6,1.08,1.08,0,0,0,0-.4,1.16,1.16,0,0,0-.13-.37.87.87,0,0,0-.27-.27.6.6,0,0,0-.35-.1h0l-1.63,0-1.65.05-.05,0a.17.17,0,0,1,0,.1.14.14,0,0,0,0,.06,1.27,1.27,0,0,0-.07.38,1.22,1.22,0,0,1-.07.38c-.05.48-.08,1-.1,1.43a9.62,9.62,0,0,0,0,1.42m3.73-10.43h-.1c-.89,0-1.79,0-2.67.05s-1.86.12-2.79.24a4.73,4.73,0,0,0-2.13.74,5.49,5.49,0,0,0-1.4,1.28,5.8,5.8,0,0,0-.86,1.54,6.94,6.94,0,0,0-.4,1.55.57.57,0,0,0,0,.13c0,.48-.07,1-.09,1.42s0,1,0,1.48c0,.1,0,.2,0,.3,0,.32.07.65.08,1s0,.63,0,1c-.1.64-.19,1.27-.27,1.9s-.19,1.3-.3,2a.59.59,0,0,0,0,.13c-.08.64-.16,1.29-.25,1.94a21.08,21.08,0,0,0-.16,2.25,5.72,5.72,0,0,0,.17,1.7,5.52,5.52,0,0,0,.72,1.67,5,5,0,0,0,1.45,1.47,4.63,4.63,0,0,0,2,.73,3.68,3.68,0,0,0,.66.06,4,4,0,0,0,1.4-.26,4.71,4.71,0,0,0,1.44-.9,5.54,5.54,0,0,0,.92-1.1,6.61,6.61,0,0,0,.58-1.16l.71,1,.12.17a6,6,0,0,0,2.14,1.67,5.11,5.11,0,0,0,3.19.39,4.14,4.14,0,0,0,1.55-.6,4.34,4.34,0,0,0,1.14-1.08,4.62,4.62,0,0,0,.64-1.2,4.85,4.85,0,0,0,.25-1,6,6,0,0,0,.11-1.11,8.51,8.51,0,0,0,0-.88,3.07,3.07,0,0,0-.14-.67,7,7,0,0,0-.71-1.49,9.77,9.77,0,0,0-.76-1c-.25-.29-.51-.57-.78-.85s-.4-.4-.6-.6l-.06-.07-.29-.27.23-.23,0,0a10.62,10.62,0,0,0,1.46-2,6.43,6.43,0,0,0,.84-2.94,8,8,0,0,0-.33-2.89,8.61,8.61,0,0,0-1.3-2.54l0,0a8.24,8.24,0,0,0-1-1.09,7.9,7.9,0,0,0-1.26-.88,6.79,6.79,0,0,0-1.53-.61,6.24,6.24,0,0,0-1.61-.21Z" transform="translate(-275.75 -326.93)" style="fill:#231815"/><path d="M452.83,424.89c.09.56-.32.93-.63,1.31a2.54,2.54,0,0,0-.39,2.82c.73,1.53,2.39,2.08,3.89,2.58a6.16,6.16,0,0,1,1.85.92,13.1,13.1,0,0,1,1.62,1.86,5,5,0,0,0,4.59,1.3,9.21,9.21,0,0,0,4.31-1.41,5,5,0,0,0,1.78-4.57,9.68,9.68,0,0,0-1.1-4.49c-1-1.59-2.71-2-4.47-2.26a7.36,7.36,0,0,0-5.5,1.09,15,15,0,0,0-3.69,4,1.5,1.5,0,0,0,.23,1.82,1.57,1.57,0,0,0,1.82.24,19.69,19.69,0,0,1,4.22-1.39,5.85,5.85,0,0,0,3.4-1.67c1.06-1.23-.28-3.29-1.81-2.35a19.91,19.91,0,0,0-6.29,6.1,1.51,1.51,0,0,0,1.7,2.2c3.33-.87,5.83-3.32,8.13-5.75l-2.56-1.06a14.53,14.53,0,0,1-.38,3.22,8,8,0,0,1-1,2.87l.54-.53-.15.09.76-.2c-.34,0-1.06-.69-1.38-1.09a1.51,1.51,0,0,0-2.56,1.06,2.7,2.7,0,0,0,4.25,1.9c1.55-.94,2.9-2.92,1.65-4.63s-4.18-.72-3.84,1.46A2,2,0,0,0,464,432a2.62,2.62,0,0,0,1.31-.4c.29-.18.51-.49.8-.62l-.75.2h.14l-.75-.21.14.07-.54-.54a6.38,6.38,0,0,1,.43,1.65c.06.28.11.57.16.85s-.07,1,.2.3l.18-.11a2.59,2.59,0,0,1-.37.11l-.54.09a10.53,10.53,0,0,1-1.94.11,6,6,0,0,1-2.94-1.28c-1.05-.69-2.06-1.43-3-2.22a1.56,1.56,0,0,0-2.12,0,1.53,1.53,0,0,0,0,2.13,29.19,29.19,0,0,0,5.26,3.64,9.13,9.13,0,0,0,6.31.38,2.7,2.7,0,0,0,2-1.9,8.17,8.17,0,0,0-.38-3.46c-.24-1-.48-2.24-1.65-2.56a2,2,0,0,0-1.6.33c-.07,0-.61.43-.59.5,0-.12.41,0,.4,0l.69.89-.72,1.09-.75-.21s-.23-.53-.15-.52-.3.35-.34.39-.31.21-.45.33a.21.21,0,0,1-.17.07q.48-.14.54.57l-2.56,1.06a5.85,5.85,0,0,0,2.62,1.87c1.41.46,2.27-.47,2.77-1.66a18.08,18.08,0,0,0,1.36-6.69,1.51,1.51,0,0,0-2.56-1.06c-1.94,2.05-4,4.24-6.81,5l1.69,2.2a16.65,16.65,0,0,1,5.21-5l-1.82-2.36c-.67.79-1.85.84-2.8,1.07a21.92,21.92,0,0,0-4.22,1.52l2.06,2.05c1.16-1.71,2.73-3.79,5-3.78a11,11,0,0,1,2,.23,2.34,2.34,0,0,1,1.4.59,5,5,0,0,1,.75,2.72c.08.94.24,2.09-.7,2.64a7.67,7.67,0,0,1-3,.78,2.55,2.55,0,0,1-1.37-.12c-.49-.25-.81-.9-1.14-1.31a8,8,0,0,0-3.22-2.31c-.61-.24-1.25-.4-1.87-.65a3.22,3.22,0,0,1-.76-.39l-.21-.2,0-.07-.05.47c.11,0,.5-.59.54-.64a4,4,0,0,0,.59-1.1,4.43,4.43,0,0,0,.15-2.34,1.51,1.51,0,0,0-1.84-1.05,1.53,1.53,0,0,0-1.05,1.84Z" transform="translate(-275.75 -326.93)" style="fill:#2e81af"/><path d="M342.21,421.58c-1.75,1-1.91,3-3,4.51a6.64,6.64,0,0,1-4.09,2.59,4.34,4.34,0,0,0-.52.08c-.62.2.08-.14,0,.19a5.15,5.15,0,0,1,.15-.72c.4-1,1.38-1.41,1.93-2.26a2,2,0,0,0-.29-2.61,4.16,4.16,0,0,0-3.06-.77,6.54,6.54,0,0,0-4.83,3.21,8.81,8.81,0,0,0-1.45,5.58c.68,4.44,7.21,3.18,10.07,1.95,2.13-.93,3.53-2.76,5.55-3.85,1.84-1,3.87-1.68,5.24-3.35a1.53,1.53,0,0,0-.67-2.51,5.91,5.91,0,0,0-3.34-.43c-1.19.28-1.47,1.22-2,2.18a9.74,9.74,0,0,1-3.86,3.64,24.09,24.09,0,0,1-2.72,1.51,8.56,8.56,0,0,1-1.47.52c-.5.13-1,.08-1.49.18-.39-.07-.43,0-.13.12s.27.19.13-.11a.74.74,0,0,0,0-.21,3.92,3.92,0,0,1,.43-1.26,12.63,12.63,0,0,0,1.08-2.77l-2.21.9c2.32,1.25,4.85.85,7.17-.17a5.15,5.15,0,0,0,2.65-1.92,5.37,5.37,0,0,0,.31-3.47l-2.89.79a5.61,5.61,0,0,1-.67,3.93,5.43,5.43,0,0,1-.59.81,1.82,1.82,0,0,1-.34.34c.22-.12.21,0,0-.11a3.74,3.74,0,0,0-2.26-.46,3.65,3.65,0,0,0-2.09,1.14c-.48.51-.79,1.19-1.31,1.67a11,11,0,0,1-1.51.91,3.29,3.29,0,0,0-1.39,1.81,1.51,1.51,0,0,0,1,1.85c2.49.52,4.73-.5,6.93-1.56a57.43,57.43,0,0,0,6.34-3.6l-1.82-2.36a32.67,32.67,0,0,1-8.59,5,1.53,1.53,0,0,0-1.05,1.84,1.51,1.51,0,0,0,1.84,1.05,36.73,36.73,0,0,0,9.92-5.8c1.32-1.07-.4-3.28-1.82-2.35a57.36,57.36,0,0,1-5.42,3.14c-1.6.82-3.66,2.11-5.53,1.72l1,1.84c.08-.25,1-.56,1.25-.71a5.89,5.89,0,0,0,1.7-1.71c.3-.42.56-1,1.11-.88.87.19,1.46.66,2.42.42,1.64-.41,2.73-2.28,3.32-3.74a8.58,8.58,0,0,0,.39-5,1.5,1.5,0,0,0-1.84-1.05,1.53,1.53,0,0,0-1.05,1.84c.05.34.19,1-.08,1.26a5.45,5.45,0,0,1-1.75.84,4.57,4.57,0,0,1-3.89.07,1.53,1.53,0,0,0-2.21.9c-.4,2-2,3.66-1.51,5.84.63,2.77,3.86,2.41,5.95,1.67a22.46,22.46,0,0,0,5.86-3.26,12.63,12.63,0,0,0,2.26-2.12,8.89,8.89,0,0,0,.89-1.31c.2-.37.3-1,.61-1.22l-.67.39a3.23,3.23,0,0,1,2,.33l-.67-2.51c-1.45,1.78-3.83,2.25-5.66,3.52-1.06.73-1.91,1.71-3,2.41a9.27,9.27,0,0,1-3.41,1.31,7.56,7.56,0,0,1-3.31.1c-.78-.26-.38-1.39-.2-2a6,6,0,0,1,1.73-3.06,3.18,3.18,0,0,1,1.25-.65,2.12,2.12,0,0,1,.67-.08.88.88,0,0,1,.39.05c.29.11.34.11.14,0l-.38-.67.08.22v-.8c0,.17-.59.56-.78.76a7.2,7.2,0,0,0-.94,1.2,4.58,4.58,0,0,0-.7,3.05,2.66,2.66,0,0,0,1.63,2.21,5.29,5.29,0,0,0,3-.09,9.61,9.61,0,0,0,4.68-2.85,9.4,9.4,0,0,0,1.57-2.42c.29-.66.5-1.67,1.16-2.05a1.5,1.5,0,0,0-1.51-2.59Z" transform="translate(-275.75 -326.93)" style="fill:#2e81af"/><path d="M435.51,425.93c3.12-.11,6.17.54,9.27.72a21.16,21.16,0,0,1,4.2.52,22.66,22.66,0,0,1,4.29,1.62c1.15.55,2.17-1.17,1-1.73a22.82,22.82,0,0,0-8.85-2.38c-3.31-.17-6.6-.87-9.92-.75-1.28,0-1.29,2,0,2Z" transform="translate(-275.75 -326.93)" style="fill:#2e81af"/><path d="M451.29,427.18c.27.09.54.19.8.3l-.24-.1.57.25a.61.61,0,0,0,.37.12.69.69,0,0,0,.4,0,.84.84,0,0,0,.34-.17.88.88,0,0,0,.25-.29,1,1,0,0,0,.1-.77.94.94,0,0,0-.46-.59,11.21,11.21,0,0,0-1.6-.66.77.77,0,0,0-.4,0,.85.85,0,0,0-.37.12.77.77,0,0,0-.28.26.7.7,0,0,0-.18.34,1,1,0,0,0,.1.77l.16.2a1.1,1.1,0,0,0,.44.26Z" transform="translate(-275.75 -326.93)" style="fill:#2e81af"/><path d="M446.65,425.65a4.27,4.27,0,0,1,1.86.64,16,16,0,0,1,1.8,1,24.57,24.57,0,0,0,3.49,2.23,1,1,0,1,0,1-1.72,32.14,32.14,0,0,1-3.72-2.38,15.84,15.84,0,0,0-1.94-1.06,5.87,5.87,0,0,0-2.5-.73,1,1,0,0,0-1,1,1,1,0,0,0,1,1Z" transform="translate(-275.75 -326.93)" style="fill:#2e81af"/><path d="M448.36,426.36a19.18,19.18,0,0,0,5.44,3.5,1,1,0,0,0,1.37-.35,1,1,0,0,0-.36-1.37,18.55,18.55,0,0,1-2.72-1.43c-.42-.27-.82-.56-1.23-.85l-.05,0-.14-.11-.28-.23-.61-.54a1,1,0,1,0-1.42,1.42Z" transform="translate(-275.75 -326.93)" style="fill:#2e81af"/><path d="M452.86,426.31a50.86,50.86,0,0,0-7.45-2.76,1,1,0,0,0-.53,1.93,46.53,46.53,0,0,1,7,2.56,1,1,0,0,0,1.37-.36,1,1,0,0,0-.36-1.37Z" transform="translate(-275.75 -326.93)" style="fill:#2e81af"/><path d="M452.53,426.72a19,19,0,0,0-7.76-2.38,1,1,0,0,0-1,1,1,1,0,0,0,1,1,16.75,16.75,0,0,1,6.75,2.11,1,1,0,0,0,1-1.73Z" transform="translate(-275.75 -326.93)" style="fill:#2e81af"/><path d="M456.32,426.32l-.9-.09v3a21.31,21.31,0,0,0,3-.13A1.15,1.15,0,0,0,459,429a1.17,1.17,0,0,0,.48-.31,1.52,1.52,0,0,0,.44-1.06,1.5,1.5,0,0,0-.44-1.06,1.42,1.42,0,0,0-1.06-.44,21.31,21.31,0,0,1-3,.13,1.5,1.5,0,0,0-1.06.44,1.52,1.52,0,0,0-.44,1.06,1.5,1.5,0,0,0,.44,1.06l.3.23a1.48,1.48,0,0,0,.76.21l.9.09a1.49,1.49,0,0,0,1.06-.44,1.56,1.56,0,0,0,.44-1.06,1.54,1.54,0,0,0-.44-1.06l-.31-.23a1.42,1.42,0,0,0-.75-.21Z" transform="translate(-275.75 -326.93)" style="fill:#2e81af"/><path d="M451.84,421.61c0,2.15,0,4.3,0,6.45a1.5,1.5,0,0,0,1.5,1.5,1.53,1.53,0,0,0,1.5-1.5c0-2.15,0-4.3,0-6.45a1.5,1.5,0,0,0-3,0Z" transform="translate(-275.75 -326.93)" style="fill:#115b7a"/><path d="M453.25,423.11a1.5,1.5,0,0,0,0-3,1.5,1.5,0,0,0,0,3Z" transform="translate(-275.75 -326.93)" style="fill:#115b7a"/><path d="M452.74,422.72a24.5,24.5,0,0,1-.52,3,11.09,11.09,0,0,0-.21,3.85c.35,2.26,2.17,3.53,3.57,5.13a1.51,1.51,0,0,0,2.12,0,1.53,1.53,0,0,0,0-2.12c-.58-.66-1.26-1.24-1.85-1.89a3.15,3.15,0,0,1-.93-1.87c-.14-2,.71-4,.82-6.07a1.5,1.5,0,0,0-3,0Z" transform="translate(-275.75 -326.93)" style="fill:#115b7a"/><path d="M337.64,387q-1.22,18.63-.7,37.3a1,1,0,0,0,2,0q-.51-18.66.7-37.3c.09-1.28-1.91-1.28-2,0Z" transform="translate(-275.75 -326.93)" style="fill:#040000"/><path d="M454.77,390.79c-.82,11.21.29,22.43,0,33.65a1,1,0,0,0,2,0c.31-11.22-.8-22.44,0-33.65.1-1.28-1.9-1.28-2,0Z" transform="translate(-275.75 -326.93)" style="fill:#040000"/><path d="M346.6,426.75c6.13-2.57,12.85-1.94,19.32-2.5,1.28-.11,1.29-2.11,0-2-6.64.58-13.56-.07-19.85,2.57-1.17.49-.66,2.42.53,1.93Z" transform="translate(-275.75 -326.93)" style="fill:#2e81af"/><path d="M335,425.36a29.23,29.23,0,0,0,3.24,3.53,1,1,0,1,0,1.41-1.41,30.23,30.23,0,0,1-3.24-3.54,1,1,0,0,0-.7-.29,1,1,0,0,0-.71.29,1,1,0,0,0-.29.71,1.18,1.18,0,0,0,.29.71Z" transform="translate(-275.75 -326.93)" style="fill:#2e81af"/><path d="M338.94,421.88a24.64,24.64,0,0,1-.2,2.84l.05-.4c-.11.8-.25,1.6-.44,2.4a1.5,1.5,0,0,0,1,1.84,1.53,1.53,0,0,0,1.85-1.05,25.45,25.45,0,0,0,.7-5.63,1.5,1.5,0,0,0-1.5-1.5,1.52,1.52,0,0,0-1.5,1.5Z" transform="translate(-275.75 -326.93)" style="fill:#115b7a"/><path d="M340.71,425.92a33.83,33.83,0,0,0-3-3.87,1.56,1.56,0,0,0-1.06-.44,1.54,1.54,0,0,0-1.06.44,1.52,1.52,0,0,0,0,2.12c.51.58,1,1.17,1.48,1.79l-.23-.31c.44.58.87,1.17,1.27,1.78a1.59,1.59,0,0,0,.9.69,1.5,1.5,0,0,0,1.85-1.05,1.49,1.49,0,0,0-.16-1.15Z" transform="translate(-275.75 -326.93)" style="fill:#115b7a"/><path d="M325.65,427.27a12.41,12.41,0,0,0-.17,4.46,4.27,4.27,0,0,0,2.28,2.83,12.5,12.5,0,0,0,4.21,1.07,24.15,24.15,0,0,0,4.42.16c1.28-.06,1.29-2.06,0-2a23.55,23.55,0,0,1-3.66-.07,13.82,13.82,0,0,1-3.53-.7,2.56,2.56,0,0,1-1.77-1.74,9.49,9.49,0,0,1,.15-3.48,1,1,0,0,0-.7-1.23,1,1,0,0,0-1.23.7Z" transform="translate(-275.75 -326.93)" style="fill:#115b7a"/><path d="M456.42,434a8,8,0,0,0,3.18,1.34c1.15.29,2.25.72,3.43.91a9.9,9.9,0,0,0,6.75-1.1,1,1,0,0,0-1-1.73,7.84,7.84,0,0,1-5.41.87c-1-.17-1.89-.52-2.85-.78a7.5,7.5,0,0,1-2.67-.92,1,1,0,0,0-1.42,0,1,1,0,0,0,0,1.41Z" transform="translate(-275.75 -326.93)" style="fill:#115b7a"/><path d="M338.17,422.47c-5.94-5.22-14.2,3-13.1,9.44.65,3.84,4.7,4.83,8.06,4.62,4.08-.25,7.32-2.17,10.3-4.83a16.93,16.93,0,0,1,5.8-3.8,13,13,0,0,1,7-.35c1.25.28,1.79-1.65.53-1.93a15,15,0,0,0-11.23,1.83,49.44,49.44,0,0,0-4.83,4,13.64,13.64,0,0,1-6,2.91c-1.92.38-4.45.5-6.19-.57s-1.73-3.39-1.12-5.2c1.16-3.48,5.68-7.92,9.37-4.68,1,.85,2.38-.56,1.41-1.41Z" transform="translate(-275.75 -326.93)" style="fill:#231815"/><path d="M456.44,426.51a11.82,11.82,0,0,1,5.73-3.18c2.36-.53,4.17.08,5.33,2.22a13.61,13.61,0,0,1,1.73,6.07c0,2.33-2,3.49-4,3.95a9.19,9.19,0,0,1-6.28-.87c-2-1.07-3.36-2.87-5-4.32a14.6,14.6,0,0,0-11.15-3.56c-1.27.14-1.28,2.14,0,2,4.47-.48,8.09,1.3,11.22,4.37,2.88,2.83,6.08,4.94,10.31,4.54,3.63-.34,7.16-2.46,6.94-6.5a17.32,17.32,0,0,0-1.42-5.48,7.87,7.87,0,0,0-2.93-3.85c-3.75-2.29-9.1.5-11.84,3.19-.92.91.5,2.32,1.42,1.42Z" transform="translate(-275.75 -326.93)" style="fill:#231815"/></g></svg>